<mxfile host="app.diagrams.net" modified="2024-03-08T15:39:48.079Z" agent="Mozilla/5.0 (Macintosh; Intel Mac OS X 10_15_7) AppleWebKit/537.36 (KHTML, like Gecko) Chrome/120.0.0.0 Safari/537.36" etag="ZQprOVIZFcimm6Qk1HMv" version="21.2.1" type="device">
  <diagram name="PÃ¡gina-1" id="OgvUhR5Tk8KF7nIxKxte">
    <mxGraphModel dx="954" dy="617" grid="1" gridSize="10" guides="1" tooltips="1" connect="1" arrows="1" fold="1" page="1" pageScale="1" pageWidth="827" pageHeight="1169" math="0" shadow="0">
      <root>
        <mxCell id="0" />
        <mxCell id="1" parent="0" />
        <mxCell id="YpN4zdeK5pnCccLMo8XV-3" value="" style="labelPosition=right;align=left;strokeWidth=1;shape=mxgraph.mockup.markup.curlyBrace;html=1;shadow=0;dashed=0;strokeColor=#FF6F0F;direction=north;rotation=-180;" vertex="1" parent="1">
          <mxGeometry x="590" y="320" width="30" height="440" as="geometry" />
        </mxCell>
        <mxCell id="YpN4zdeK5pnCccLMo8XV-4" value="&lt;div&gt;&lt;font style=&quot;font-size: 16px;&quot; color=&quot;#ff5500&quot;&gt;Product Details&lt;/font&gt;&lt;/div&gt;" style="text;html=1;align=center;verticalAlign=middle;whiteSpace=wrap;rounded=0;" vertex="1" parent="1">
          <mxGeometry x="650" y="515" width="110" height="50" as="geometry" />
        </mxCell>
        <mxCell id="YpN4zdeK5pnCccLMo8XV-12" value="" style="shape=image;verticalLabelPosition=bottom;labelBackgroundColor=default;verticalAlign=top;aspect=fixed;imageAspect=0;image=data:image/png,iVBORw0KGgoAAAANSUhEUgAAAeEAAAPMCAYAAAB15wHPAACAAElEQVR4XuydBXRVRxeFbwUoUDwQI0IgEAViBIfg7lqqf1ss7gEiuGtxd3d3d3d3LXXqhdKe/+zz3g3hJUBIAoQyd61vPbn63p07e/bMmRlNU8szl9DQUOuYmMiWCT3jwvr06xHXq1d8QteuUd2DQjp3DwjoMCcoxP9EWETwt5FRob9Fx4TfZx5GRYf9GxkVRvwdhUcEU2hYIAWH+FNgUCfBP6ADder8pUKhULwQOB+izZvX0e7d25IxZeqEZNsHBHaUvCkouDOFhAZQWHgQRUSGSB6G/CymS8Q/fMy/o6LD/+Tv73Gedi0gsNNWf//2gyOiQrpzrti9T58eCUyX2PjYDpGRkRVaJrTMapqfqkUtyZaQkBD7+B6x/r17J8RHRob24kS4mwX0F05w/0A8O/u3T5ZgFQqFIjPDoknbt2+i/ft3JWP6jMnJtn8RQNRZxP9l4X4QGh50MyCo06T4+K4JvVioo7tFN0xISHjXND9Wy398YQfrxwmgW0hI4JjwiJBvkECe5UqxHm6WS3o0cFBfGj1mBE2ZMoFmzZ5GCxbOpRUrltC69atpy9aNtGvXdtp/YA8dOXqQTpw8SmfOnqRz50/TxUvn6MrVC3Tt+mW6fuMK3WBu3rpGt25fVygUigzn+vUrdOrUMTrJ+ZAp5zlPSrrtjRtXJV8CV69dpEuXz9OFi2fp7LlTdOr0cTp2/DAdOryf9uzdSdt3bKGNm9bR6jUraMnShTR33kwR9fETxtDwEYOpV+/uUgCAozbNS02B42aBvh8c7L+7a2xMQo8e8f68FDDNt9XyGi/x8d2axsbHJISGBZ9iIf03JVcLke3SNZKGDB1IU6dNlIQFQYWQQjxv37lBX9+9ncidr2/SzZvXOLFe5sR6gc5fOCNie/LUcTpx4igdPXqIDh8+QAcP7WdB3kv79u+hvft20549O2n37h0i1DvBzm20Y+dWhUKhyHB279lBp88cp7OcN5lylPO2R9tuM+RHzK5dO3i/nSy2uzjf2s2ueQ8dOLiPDnFeduTIQTp27DCL+DE+7okk5uIii/dVun0b+eStR3nl17dE1LEtxHvN2pU0Z+5MGjtupAg1ahlN82IA8WZz9Ht4eNCUnr27R0RFBRY2zdfVkomXiIiPcvboFR8YGha0JCIy5G9T0cUN7te/F82YOUXcK0p4cKSGhHNLxPXipfOScCCmEFCI5eYtG3j7NbRy1XJaumwxC/UiWrJkIS1esoAWLWYWzaeFzIKF8wwsmEvzhTk0b35SZhuYp1AoFC8O5E9HjhxgY3A4Gdu2bUq2vaDnT8b8CvmXgbmSpyFvW7gIzJc8D3nfYj4PzoU8cfnyJSK2Gzeuo63bNougw4ygVvDcudNiXGBidJGGiO/avZ2PMZ/GjP1KzFBKeXZ4RMitLt2ie3XrFl3eNM9XSyZZevSI/Yyd7qqw8KB/kt5ABEMNGz6YE8kCOnrskLG0dptu3LwqJTkI7S52pxs3raeVK5dJQkLCQkJDopPEyIlz7rxZNGfOTJo9ZwbNmj1dmDlrGs2cOY0FfaowfcaURKZNn5zI1Glg0mNMmTpRoVAoXhhwnQcP7hXXa8qGjWuTbW+aRxnyrUf5GHiUxxnyPCD54CxDnjhr9gzOI2fKuZFnQtAh4hBviDYEe9nyxbR27SoR6QMH9tLJU8fo8pULieKM96iJxDWgCTCpKCN4LDIq5NuusVG9Y2NjHU11QC0veYmJCS0WExM5mMX316Q3ClGBuIGojrl167o43MtXLorr3blrmyQAuNlFi+FcDUKLBKML7AwWVl1IkQinTH0kmpOnTEhk0uTxwsRJ42j0mJE0fMQQGjioPzvt3tSrV3dK6B5HsbFdqEuXKIqOjqCIyDAKCw+lkNBgITgkkAKDAhQKhSLDCee8ZvjwITRq1Ihk9OrVI3G7ICYkNEjypNCwYHad6NURTpy3UtduMRQX34169EigPn16Uv8BfaXZbuSo4TRu/JjEPHDS5Ef5Ikgq7Lp464INoTaItEGgYXggzstXLJUaR8TUnD17KjHvPnf+jMTdDBrc/7FeJeyQ/w0PD96dkND1U1NtUMsLXuJ6dqkUGR22LCQ0INH1on0BYojq4zt3bsoNRJUyXO7q1SvlJi/k0hhKZkgAs2ZBbA3uVXemScUViaxP314UwwIaGOhP//v8M2rTphU1atSQataqSZUqVyIfHx8qVaoUubi4CM7OzuTk5EQlSpQgR0dHKlq0KDk4OFCRIkXI3t6e7OzsyNbWlmxsbBIpXLiwIhOR9N4oHmH6Pyn+O5jea+RRyK8A8i7kYcWKFaPixYtL3oZ8DiDPc3NzI09PTypXrhz5+VWlevXqUvPmzeijj9pRx47t2XSEsJuNpcFDBkrgFvLWRyL9SKAhzjBBMEOo+kZt5LJlS2jTpg10+MgBunz5grhkBIytYLHu3ad7ohjDgEVEBn8fF9clqn379jlM9UItGbgkJMTWiIwK3REQ2PFf/Qb07BVPa9etlAAABFCdOn2Ctu/YyqWqJeJ0UdJCNTJuclLB1R0snCtKfRDZJk2bUJUqlal06dKSyJDgkACRMC0tLalQoUJUoEABypMnD73//vuUI0cOeu+99yhLliz0zjvv0FtvvUV8mYrXkHfffZeyZcumeAJZs2alt99+O9n/pngzQVrAM4N0kT17dsqZMyflzp2b8uXLR2ZmZmRhYUHW1tYi5DAkyE9dXV3J17cM1a5Tm9p+0IZdbWfq3j2ORo/+6jFxhjDDIKFWEm4ZVdkIlkUMz8GD+yQQDA4ZNZuTp4yXJkddjMPCg3/r2jWqd2BgYG5NLRm39OwZVykiMnSrLr74s4cNHyTRe2jcRxvCvn27JWgKJSi4XZSqcCNxQ3XRHTlqBHXtGk2ffvox1axZg8W2lAgtSnsQWQgsEhKEVWU4bw4oQKFghYwEgoP7r3gE/pNcuXIJqqCpSAtINzAreMby5s0rhgbmBg4bjhpOulmzphQQiMDZPjRh4lgRZZgmg1OeTnPmzpLmw6VLF9GmzRvoxMljYryusijDcEVFhyW647DwoN9iukYkhIaGZtfUkvalS/cuTtExEUsCgzoliu/IkcMkwOoOi++Zs6doy9ZNEkw1f/4cEV4EDODGQXQnTBxHvXr3EJdbvXo1KYnB2UJwkRCQuahMRYGSvF74AviseIT+v8DlqMKpIqNBIRjiXLBgQRFmGCNvb29q1rypVGejaXDiJDhlg0tGreZcFmREaMN4oQsVukgh2HbFyqXSR/mRMw76MTY2uoOmludbAgMDs8XERA4NDQu8r5dshg4bmCi+qHLesHEdLWbXi+oK3BQEUKHkhCrm3n160ocftaOyZX2lHcPKykoyWVSfaCkkAsWbDZoWkAnoAoxmBsUjdCFGbYF6hhQvGhgjpDdUa6M6G+3OdevWoZCQIBo1eoQYLNRuwiHDeMEdI6hr797ddO36FRbja7R02SIZclMX4/CI4NMJvRMqamp59hIf37V+aFjQXT3auVevBP5zd0q18+kzJ2nDhnVS5YwGfFQ3664XpaVOnTtS5cqVRHjRJoEMRDldxbOAyKCQpgT4yeC/yZ8/v7gW0/9PoXiRoOCHWhgEtiIQFoFf3XvEi+GC8Zo2fYpEXCOga9nyJTIwEpwx+iRjVEN95K7AoM7/xHSNnBka+nl+TS3JF3a/Bbt0jZqvt/timMhVq5dLnf+Fi+ekDcDgfA3iq7fzDhjYl9q0aS03B1UZyEyV8CqeBwgLmifgiJUQJ0cvpKg2YcWrBoFgqLaG0apatYp0qRo7brRRjCcnijGcMQYJwZCc6CUzdNigR+3FYUE/dIvv1lhTy6OlR494v9CwwG/1PwkjpyAUHaUZDKNmGJ90tgyMgbB2iG+fvj2pSZPG0qiPNl6072op3DSFIjWo6Ogng6pBFR2tyEygMIiCM2J8ypYtS539O7FujHxMjFFNvWbNSmm+xEAgGABED95is/dP166Rs1XgloYBNyJGBwZ1eog/Bn/Q9h2b5Q9D+PmKlcuki5Ghzdcgvv379xHxRci7ubm5aqNSZBh4sBVPxvT/UiheNUiXqKFB27Gvr6+M6TBuvMEZo80YY0Kg+XLr1k109dol6d40dtyoxLbi0LCgqz17xnlpb+ISFBRkywK8WW/7xewbcL+ox0eJZdGi+TL8GUo1+EMxGlXbtm0kwlmJr0KhUCh0dDGGM65YsSJFx0RKmzGaLTECIkZFRBX10WOHxeRt2rwefYpFe0LDAv+KjAn/QnuTlt69E7xDQgO+MVYLyFiiGOUK/b7E/fIfprf7YpQV/4BO5OnpIaO7oFpMS+EmKBQKheLNBmKMamq0GWP0LgyziRrUadMmi6mDucOY1RjcCUNj6iNvoXo6pkvENO1NWLrERjUKCwv8Ez8cYzxjnNBbt2/I8JIYWhKjWyHazdDu24uqVfOT4R/RhURL4U9XKBQKhSIpCLZEjam7uzt98eXnUkUNU4emTTRxrlq9gs6eO003b12XUbf06ulu3aLX/6dH24qICAkLDvF/IF2PeneXeXivXr0kfX4xiDdGRdHd7xdf/E/6hyESTgWEKBQKheJ5QWQ/RkSs6leV+vbrbXDFbPIQ6ItJfA4dPiDV0ytXLZNaWWOf4iMhMSH22n9tiYoKGwLLL+2/wwdL5DOmEkSJBCHlqH5G2+/gwQOoZq0aUrePqEwthT9WoVAoFIrUgCpqmLmSJUuyyHaUtmIE+qJ6GvPB79y1Xaa43bFzK4WEBogrDgkNvBkVFeWs/VeWqKjw8f4BHUSAURJB9fPxE0dlAmiM84woNnyPKf+8vLxkoA3lfhUKhUKRUaDPOyaTQO8azCOAWldMEoF2YoxDcYONIZxxZFSoUYj9v4mLiyulve4LC/BoXYBnstu9fecmHTq0X8Z7Rvg4op9RMvn888+k2xEGBdBS+AMVCoVCoUgPaCvGoE6VKlWkAQP7Se0roqdRG7tu/RrpnXP8xJHE8aeDQ/y/6dq1q5v2ui4REaED/QMMVdBz5s6QCOj9+/fIyFezZ8+QKgH02cLsGZhNAwMDaCn8cS+Dt5gsTA4mD5NX8dzkZt7Rkv+3CsV/ieyayiPSCv435LHIa5Hnmv63LwO9etrLy5Ni47oa+xRPlW5MGNwDfYlPnT6eKMQhIQG3IiMjHbXXbYmKCu0YENhRBuGYMXOKCDDG9ETHaYxmgqqAr0YOo9q1a0lH65fd7xdiYctUYpoz7Rl/Rbr5nOHUmuz/VihedyC+9ZjOWvJ0r3h+kOci70UejLz4ZRfg0ZUJ0dNhYSHSHIpmUTSPrl6zgq5cuUgnTh6VHjzQsPCIoJP+/v4FtNdl6d49tpYeBY1IZwjwgQN7xQGjDh4CPGz4EKpatar0/X1Z7b9ZGWemGRPGdFW8EMKZolry/1+heF2Bc2uhJU/riowD+QbyZuTRyKtN78GLAOPFoxnU37+TMXJ6slGIV8oIW0ePHsJgHhI1zc54KxEMfCZfMARYaFiA9AMeOnQg3bp1nQ4fOSB9gFEFDQHGYNqVKlWSMZ9fxnB4VkxdzXCTTW+84sXwhWZwDqb3IqNB+kEh7q23Xk5BTvFm4sl00ZKnc8WLAXk18mwrLfm9yGjQjQlzGLfvYAgchiPGgFFr162WXjy79+ygwKBOIsRdu0Yt1DLzEh7e3iwkNPA6BLh7j1i6du0ynTx5TIKwEA6OyRfggDHdICKgX6QAv82UYD7W1MPzKsB/7qIlvy8ZAUQ3a9Zs/PDkpBw536ec7+fiEm1uej8XpiPM8dKbNhT/bd5lPtOSp3HFiwf5CPJwJ82Qp5vem4wC3WEhxJgO1yDEUyVYa+Om9WIk161fLdXSCDKOjAyN0TLr0rVb1BqUFiIiQ+nM2ZN04eJZGa8TUdAIwkJYuJ9fVbKysnphAowbheqML7XkN1TxcqmjJb8/6eMtypIlqwht9hyPC3CuXHkoV+68lDtPXsqTN5+se1FpTPFmUZAJ0ZKnb8XLBXk68vYXJcZwxE5OThQcEsRCjKjpqbRw4TzavmOr9OrBaFuGrksBD3r27VlJy2xLRFRYT77Af7mkQLt2bxcXjIE45s6dlRgFXbduHWkDflGZo52mSqyZiZZa8nuUVpBmsmYzul9dgHPmekyEc+c2CHDefPkpX/4C/DnPS4s3UPx3sWEiteTpW/FqQB5vryW/TxkBhkfGSI1dukSLIxYhXjQ/cXjlgYP66oN5fBcZ2dlCyyxLz55x5YJDAiQQC3M4YvQR2Hg0cKOhe8LEsdSyVQsZPgz9tLQUfnx6eJ9pxMRoyW+Y4tXRRkt+r9KKwQFDgN8XAc6TNz+ZWxehgpZ2ZGZuK6+WNsWoQEFLEeD8+c0of4GC7I7zEBy06fEUitRix0RpydO34tWBvL6xZsj7Te9XesmTJw95eJSm3n16SvclDKeMmCbMS3zx4jmJmEaNb5duUSu1zLC0bNkya2hY4BUI8ICBfaS0sGfvLhFjGQlr0njq0OFLmdUiS5YsyX5wekA/MzcmWEt+kxSvng+15PcsLbz99jtJBDgX5clnRmbWxSifRRHKb+lAhWxKUH5+n7egDRW0LkqFLAqzAJtRAbNCZMZkU8OfKtJBESZaS56+Fa8e5P3uWsb3OTYzM6Py5cvLFLoIJp49ZwatWLlU+hAjUAsijPbh6C4RHbRXvURHR0zCBYWFB8msFKfPnJRSw8yZ08TOx8V3kzmAUd+upfBj0woib5toKugqM4OACtP7lhZQDa1XP+fOk58K2TmTpXM5svOoRYUcPCl/YRcys3Uja6fyZO7gQea2zizE1mRW0JwKFrIQZ2x6TIUitaC7naply7xAA6AFGdkbA81f1tbWMh0iutmiSRWTPqCG9/adGzL2BYxnWHjgn5GRQa9uII/evRMqBof4/42LWbtulczRuHLVcomEnjwFfYEHU5kyZaRTtJbCD00rFgwXP5LdDEXmAt2U0ltCxcOAICy9/de8cDGycq1Mxat/QiUqfkRFXOrS+xbOlMvSlQoWr0h2ng2ooL0HWRdxFREuZG4hQqwiphVpBb0sTNO2IvMBTYA2mN6/tIKmU0yj+7//fSpDK6NmFzW8Bw7upRs3r1J8QlcR4pgukeu1V7WERwSfxEUMHjJAosd27Ngq7cBTpxnagRs0qJ/hkdCumurv+7qAEXEwyIHpPXweUBUNAZYuSIw5u2B738bk1jCcmrYbR40bDSUrh6qU08KV8jtWIlufFmTtUo0sbEpQQRZhcwtLxoqyZVNV0oq0UVJLnrYVmRNoAzTC9B6mFQyljJrchO5xie3DS5cuoouXzkuwFgKRUS3dLb5ba+1lL126RIQhGjoouLNUQaPRGkNSIpoM1dD+AZ1lxoqMCsSCoyqvqbaZ14lOWvqriN55593E6Gf0A7YsWpJKVP+UnFmEKzXqQZX8IimftSflNGcRLlaRbHxasxtuTJb2buyAzcnC0oqxlm5NpsdWKFKDj5Y8bSsyL2g6KK+lvxZOJ1++fNI+rM+8hC63GzaslWppaJ2hWjrou08//fQ97WUtGEMzNCzwd5x8/oLZdPPWdRnmC43XKC0MGtyfPDw8JNxbS+FHPS/oF1ZLU+2/rxuBTD4t+f18HlCIS+wDnDsPWRRxJYcKLcipfjBZeDejXDYGAXb0a0fVQ0aQa70AKuxemyzRLmxuQZYswJZWhTM8JkHx5uCnJU/biswNtKKmljF9ilGTa2trSx980EaqpdHjZ8HCeXTk6EG6fOUiRUSGGKqlYyIGai9riY6OmCBDeHWLkmG99u3fI6OL6N2R6tevl2EjYuFPxKDpSoBfPzA+t6WW/J4+D+jni25GufPkozyMpV0JsnKtRE61vqTCZZpRHjtvymXpTh7NgqlB7BTybhFB5sV8yaaom7hgCDDImjVrsmMrFKmhoZY8bSsyP9AMaEdGCDHyDxcXF6mWhvvFHAgYiOradcRBLdPd8P2IiIgi2oteunQJd8KIITjpho1r6crVS7R02WIZTQQXFxEZLsN/ZUQ1NKoTamtKgF9X0HTgoCW/r88DCnJoE5ZBOPLmp4IWLKrFSlPhkn5k79OQCrLg5rctTYX4tXjFZmSFCGl7V7KxdxQXbGVtI+3CGVEgVLyZoKudadpWvB5AOzByX0ZUTRcoUICq+lWhseNGS7Q04p927d4hw1omdO8mQhwVEz5De9ELn2QOTtarV4LUiWNIr3nzEIw1iUaP+YrKlSsrnZ21FH7E84JqICXArzdeWvL7+rygFKqPgoVBOMyt7ciiiBsVsHGmQrYu/L4kFbRxonzGPsM2RUpIOzAE2LqwLeXKlTvZMRWK1PAe01FLnq4Vrw/QEGiJ6b19XlArh2jpzsYZl2A80R330uXztG37ZhHh4JCAv7t27eqmvaglOi7aXe+StGPnVrp46dyjPsGTxtMXX34uo2JlhOvw1lTfvP8CGTF+NNITgrJkAI4CBamAWUGysLIjm6KuVMjanilChazsybao0QFbPRJgc3NLNXSlIs38l8aN7sbPETD9/pno+6Vl30wCtASaYnp/nxdMfejt7U1fjRwmQVroO7x122bpHdSnbw+DG44On6+9qCUqKmwWToKT4aRbt26Si8DFDB8+RIKxMiIABlWYGT1WKxJRHDuquCxZnishduMMPPbdd+XVdJ2+/nmO96bxPy1j2mTefucdqY6WUbAKmhsH4tCxoEIstnobsHVhgwDjfRbVFqxIB5i953WvjUMe1TNPHhrEBmmQvT0lcB79tDwL6xJy5KA+BQvSAFtbGuzgQIPZAeIVn/F995w5n5gnmoL/DyKYXtJ7HzD0aEY0j9nY2NAnn3wkQVroDQQjismKdu7aluiGu3QJd9EyeomMjCyqjw+9fccWPilcsKFLEi7mo48/zJDJGRBNi6ha0z8wrSBBIcEMKVaMJlatSuMrVKCBdnYU/957T02IID5bNhpavDiN9PSUfSDGsSwGSIT9+bciQWM9EnhqE+SbBoaVK6Alv89pAXEGqJbWRVfvA4yq56Tut7CNrXyP8aZNj6FQPA+IsDVN068bPXLlouX+/vT18eN0c/9+mlilihgS0+1EfFmgka8t+OgjOjhpEn197Bj9eOUK/Xj1qrziGIemTKGFn3xCg1iUnyboEM5wXhfEeWMgP7vpIYjBsXBM0/M8D0Fa+ntsYNrDUqVLyWBUBjc8i93wJjGmvft0FyGOjA6fqmX0EhMTORQH79EzTtqCUQeuu+ChwwZRqVKl5OK0FC46tWDezgwNguCb1oMFEgnq2s6d9N25c/Tt2bN0fs0amlanTmICEnFlkla34PPI0qXp4oYN9M3p07S1d2/qlS8f9TYzo93Dh9PlLVvkWLcOHqRp9eqJqCc7v0JKr6W05Pc6regjaEmVtLEPMByvLsD4jDbg9BYGFYqs2us5JSoMAZwszAdMQ+8CBWj3iBH01y+/0K9379Ls5s0l7zPdB9vNatKEzixbRj/fukX3f/2VHvzxh7z+ee/eY59/vn2bzq1cSbNbtJA80dSEQCwD+bsv33+fgi0tKYIddHrAMXCsAD5meoUYGgOtMb3fqQV5Cwznhx9+8JgbRvMsxBg6GRoW+CA8vL2ZllFLQkJC1oiI4D9xcAxPefnKBVqSpC34k08+zhAXXFlLf5VDUlD1PL5iRbp9+LAkvqMzZ9LJRYvol6+/FnEdwi62O9/YkR4egp4wIcx9LSxo19Ch9MePP0ri3Tt6tCS2Xvnz08a4ODo+Zw79/t139MudO5IQTRO14hFttIyJTjQFQ1G+x/87pjbEYBwZPUGI4s0GEzdkdLPYi6Ybiy5q6ea3a0cLP/6Yhjg6Sl6G/EsX4TktWz6eX3F+B4OxIiCAvj1zhh78/jv99fPP4n4vrFtH+8eNo619+tC+sWPFwOD7P3k9tvuWjc2q0FDJF5M6YrhWiOZgzn/nsAla+PnntPCLL9IG7zuHf8swdvDtc+eWY6dHJ7AvtMb0fj8PMJyl2aTpEzzAkO7YsU0mMOoWGyMTPMTGxiRoGbX06BEbLhY7KpRu3LxGe/bsNA5POUkaqD09098WbK1lfILvnisXrfD3l1Lb1e3baYSbG33Fjv3mgQP007VrNKtZMxrl5SUu+eqOHTSUE6xeikRp8bvz56UECHQRRiJHgsVxbh89KiVGJcJPJyP6CysULxtMj2qaljM7yPOWdexI31+4INXHm7t3l6a4p4kwav2QD97h/OzBn3/KfntHjqRJ1arRMCcnGlqihDS7ySuDZj3UBv5w+bJsjyrqsWXLiunB8eBUUX0cam1N8//3P7q+Zw/9fPMm/cL5cFrAvrf276dF7dtTpIMDBfL1ptcNo30YmmN6z1OL7oYxrjSMKCKlMZzl1WuXadnyRYYq6ajQX7SMWsLDg8/ioOigDBFevnyJjKGJMO2OHduTnZ1dulwwqgYwUbPpH5Ve4HKX8o2DUML5IrgAwQkX1q+X75Z37ixiemTGDDoyfXpiuy8S3tmVK8VBn1u1SpyzLsL6sfvb2IiYKxFOHfW15PddocismDOhWvJ0nNlAfgVTACeKPKgnv98YH09//PSTVBvDxQ7l/OxpIgwHO9DeXmoJr+3aRQvYRUNs0Ry35MsvRXAPT50qVdrIT0d5esr6eW3aiHk5vXSpBG3pVdIQSH8Es/J5V0VESG3hP/fv0z8PHqSZXzkPXhcbS905v/bPlo26PmeAbUpAc9JTLZ2DzRoipdE1F4Z0/vw5tP/AXhbiS4ThnFkz/42P79ZOS+8SFxfjExDY8SHs9ZmzJ+no0UMykwRGx8IUTxUqlJewbS2Fi0wtvlrGVkPrIIGOKVNGSoU/Xb9Oq8PCpJSItuFfv/mGVgYFSeLtU6iQgJIchHZTQoKU7tZGRdHeUaNEaJUIpw/lhhWvC2g6eR1GyUJ7L1zull69aOfgwTS9fn3qZ2kp+ZcuwgcmTHimCAMEag1zdqbRPj5Shb28Uye6sXev5JPY7/5vvxn258839u2jlYGB4o7hoIe7ukoQq34sEWHOS+P4+zUxMfQbn9NUVJ+X3779ljayq+/JBYDg3LlpEF9jSsFlzwM0B9pjev9TC4wnuuSGhASyIZ0gJhWzCCJmatz40YZRtMKCVmrpXbp0i+yFgw0c2JfufH2T1q1fTbNnzxAXHNMlmopxIkiPC86lvcB+eMa2XZTi7t24QT9cuULfsSCjLeO3776jFZyQUH2jbx/HCWlyjRp059gxurRpE81o2JD2jx0rpTA4ZZT+kPCxrRLh56elljHdlRSKF4k9E6ElT7+vGjg/iB2ay2AwEHi18KOPpPoYInVk2jSJc0mLCCOvRN7WM29eWvzFF2Jc/v7zT4mJuXfzpjTf4fX3H36Q73+4dIlWdO4szlvyxCSu9EWLcBiboUk1a0rUt+l/9LxAe6BBpmkgtWBgqmrV/MSQ6mNKnzp9nPbt360PZfng04R0TuwQGRV6DwdbtWoZXb58QWZKwryKGCO6SZPGVLBgwWQX9jy86C4ASKyDuaCAoIPtAwbQlp496fuLF6WKedFnn0lC1reFK94xcKDccCQ+tHn8wYnun7//lsS7L4kbViL8/GAYy4yMlFYoMhqMkPWpljztZgaQV02tU4cWfPghjXB3l/xqGTtWGAoII6qFIbhpEmEj6OUxvV49unX4sDTHbejWjcaXL0/DXVxobLlytC46WnqEoP0YkdQpHedliPAUvkb0fMmIAUQwOZBpOkgtGAjI2dmZ+vTtKZMXzZ4zk7Zt30K3b9+g6JhwEeKePePCtLQu3bpFV/QP6PAwILCjzBaB+u7EwTlGDJVuSemJSEV/rRc9N7DeUR1tFgjMQv82BGqh9Di5enVpN+5vbS1AYFcFB9PpZcuk3fjy5s0SCfj3X39JyQ8CjvYXHFeJcNpAPz2MQmSaFhSKVw2qoV+0KUgryMdQ/Xvr0CFxpOjpgRiXZexGE0WY8630ijDcNtwtxB5jKuAcX5UsSZP8/CR+Bp8hxhBq04honRctwqF83rEVK0qNgOm50wI0KD19hy0tLenjjz8UYzpj5jSZS+HmrWtiViHCIWEBG7S0LrHxMd2kKnqQoSp6zdpVUu+NvlFBwQHpDsjC5Aymf0hGA5FFuD46nqNbkbQHc6JA9fIAFlKU8FD1fGnjRqnKgciiCruflZW0kSBKEK750NSpkgD14AMlwmnnUyaHljw9KBSvEg8t885XjnwHYojYlocsSld37pQA0owWYTmXsdobIosaRLheCP+d48dpdWio9Cd+2mBHugjHct66mp1zRonwBv5dPT08KICvPQEDJBmbBjMCaJFpekgtmLLX19dX2oERoIWYqRMnj7Fp3SMiHB4R/EBL6xIeHnwDB1myZAFdYSe8OElVdP369Sk/3yQthYtKDaiHR7CO6Z+R0choMZxQEUyAPm1fnzghCRKRf0hIw9kdIyIQ3ZT0Lkr6vnDQazkRIUBhS48eiS4YIAACndqxblrdumqwjucEfYdR9WeaLhSKVwGGp8yM7cA6KYkwYlSWduiQKMKnliyR7zCOwWPR0fzdHjYTiSKcStOA/G99164S3fzvw4eyL7o8od3YdNukyEAd775LUQ4OtCwoSNqX0ayXHlATiUhrRFwHsMDHPKEAkFagRWltG4YRLVGiOHXvES9V0nPmzqIdO7bK7Eph4UESJZ2Q0PUL7XmX0NDQ7CGhATJZw+kzJ2QC43nz59DUqegbPJxKcoJIT1V0RS35H/EikOpoFk+J5PP0FDeLaudYY4g7IuwGFC4sHdxNo+2wL4QXjrkXl/6SlrzQ1gwhxjoZRzWDE8WbQFtNOWLFq8dVy9wCDPTqaBT6EauCbpXoUol2WThVCN3uYcPkuyVffEF32Wxg4I2NsbHyHdpyv+HPaOedUrPmY9HMTwLnRH55YPx4CWjFcJWInH6WA0XUcSjnhx1YrMc3aECb2MDsGTWK9o4Zkyaw7+bevWli48bUifPhEL6uF9GbBppkmjZSC6qkP/n0Y6klRp9hzDWMKOkxY0fqw1j20Z53SUiIC4CCo3H5zp2btGXLRml0RlR0VHQEOXApJ61V0eib1VlL/ie8SJCgTKP4FK8eTPBgpiVPIwrFiwaR+hU0w8ANpukyM4Latq/c3WmMj4/060WXyh65c0tb7Whvb4lrwXcwDjAco728qI+5uXyHLpjYBiMDonYwtaYBeSbGVkAVNgRZhvdNYTtTovn4nfi8QRYW1L9cORpRvTqNqFEjbfC+A8qXp2ArK+rARikqldf+vPhrae83nIv/0ypVqtD4CWNp2vQptGjRfLpw4SytWr3cIMKRId9rz7tERYX1xc7jxo0SRV+2fIk0OkPp27RtTYX4pmopXExqcNQMVRamf4LizQSDIiBq+kUMbalQpEQezdBl7kU4qhfGW4ZuRI/N6pb0O12c8N27JuPhp/RdKtFHEXyWAzYFYhnA+3TgwkP77NnTBY6BY70oAQbQpOJa8rSSGjC5jKurKw0ZOjBxGMtDhw/Q2XOnjDMr+T/s3Lnz+9rzLBGRoV9L1yRWckzTtHDRfFF4KH16B+h4HYeDU7xYkBminbiQljy9KBQZBZxOGe31GA3rvwCEDcFuqG1IDzjGyzBu0CbTNJMaUCtsb29PoWHBUls8e84M2rxlo9QiG7sq/RvfI7aT9jxLeESItAcfP3EksT1YnzEJig/l11K4mGeRTXuBg3MoXnvwsOFBwLCBpmlHoUgrmBEJ0c+cCyZLcwqFDgpn0CjT9JMaUDvctm3rx9qF0ato5Khh4obj4rrEaqldunaNrtvZv/0/GP/y1u3rtGPnVpozZyZNnjyBIqPC09UeDLv/Mko0itcbOOOPGE8t7VGLijebdxhbzTAYgyr4K1JDeqqk0S5cuXIlGT1rurFdGONrLFw4V6+S3qeldundN6ErxoruP6A3K/ktWr16hUzYAIX/+OOPJBJMS+EiUkN1LfkPVyieBgS5A9NAM1QlFtUMwVyqi5MCQGxRUMOsOO5MVc0Qef+iBwJS/DepoSVPY6kBvYXcMFPfyGHSi2j+gjl04sRR2rN3l4hwdEz4fS21S1hYUG/shD5PGPkDExZPnzFV+gfXqVOb8uXLl+wCUsvHWvIfrVCkFbQXYRSujpphVhSkL0zajUwYbcyK/w7tNMO9/YT5UjNEs6L68LUKrlJkepCHmOpWakDtsKOjI8UnxCb2F967b7cM9ww9DQzq9DAwMDCblpolNCzoMnZavmIJXbh4TgalnjbNMGuSl5cXpXXuYARFwNGY/miFQqFQKDIDKNBn0ZLr17OACNvY2FBn/44SnIXRJTdv2SDBWRGRIRKcFRvbhb1CKha2zQ8gwgcO7KVjx4/IPIkIyho8ZIAEZWHQai2Fi3gWObWX3z9YoVAoFIrUAo2CVpnqV2pAcFarVi2l6RZdelesXEZff32LBg3uR2ji7dOnVzctNUtQsP9DiPClS+dlSqa5bKthr7vFdknX1IW5NUMVkumPVigUCoUiMwCNKpDG0SAxtWGNGjWk6RZDPGOo55s3r7F+jpcq6YiokDjtWUt0dHhtREYHh/jTbbbRW7dtlj5PsNf+/p3I1tY2zSKMDvJKhBUKhUKRWYFG2eTOnUy/UgOaatFkq88vvHDRPLrIZnbR4vkiwkFBnfdqz1r69OkRiY2794iVyOi1a1clRka3a/cBWVhYJDtxalEirFAoFIrMDDSqhLl5Mv1KDe+++65ESA8fPkRmVJq/YC6dOnWczewmEeGo6LDftWctvXrFx6HuGh2M0dF46bJFNGOmITK6YcMGVKBAgWQnTiX38mpKhBUKhUKReYFGuVpbi2aloGNPBbXETk5O1LNXd2nCnTtvlgxfeeLkUcMY0lGhD7VnLWERQXHYGCp+/foVGa5y6rTJNG78GKpcuTLlTqNNZ04qEVYoFApFZgYa5Va4MDTrVAo69lQgwhjMKiIyTGqPZ82eQbt376CrVy8ldlPSnrUEBHbajI1Rl43ALExQPGXqJJmw2MPDI83dk5jNSoQVCoVCkZmBRrnbiAhvTkHHnoreTalDx/Y0YSKGr5xOW7ZukvgqjECJbkqhkaFVtKct4REhP0CE129YQ6fPnJTuSbDVI74aKt2T0jGH8CIlwgqFQqHIzBhE2EY0KwUdeyaIm2r34QfShIum3HXrVkt8VbfYaHHDPXrEBmtPW6KjDX2E0TXp6LHDUqeNMaP79e9Nzs7OaY6MZiYrEVYoFApFZgYaVdJWRHhyCjr2TMzMzKhpsyaGMaRnTJFBryDCAwf2NfQV7tfj6X2F0XAMET556hgdPLRfht5C96S4+G5UvHjx9IjwSCXCCoVCocjMJBHh0Sno2DPBsM61a9eSOCpM/4thnzFq1ugxIwxOuFf80/sKY/JhbIjxLvfs2Sl9hCdOGk/h4aHpmj2JGaJEWKFQKBSZGYMI20KzhqegY88EsylVrFhRRBhBzQhuvn7jKk2ZOsEQIR0ZGq89aQkJCbHkjf6BZcYUhtt3bJHxLxHl5R+QvoE6NCXCCoVCocjkJBHhISno2DPJkSMHeft4SzAzehlh7gVMaThn7kwRYX//DuO1Jy0xMZHNEb0VFh4k9nnT5g0S3YUG5i++/B9ZG/pOpRUlworXlm5JMF33NNK6n0KheDWkV4SzZs1K7u7uNHbcKJlzAQN2nL9whpYtX2wYNSs44KT2pCU2tqs/RLhL10gZqGPd+jUswtNEhD/8qF26RsvSlAgrXiMgmrHgrbco7u23Kd4I3gN8j/XP2s8U2c+4rxJmhSLzkV4R1kfNQo8iiPC8+XOkp9HadatEhMPDg7/TnrT07p0QhY169oqXaK5Vq1ckjpbVsmULmSFCS+GkqUSJsOK1AAIJwe3+zjvUix+ovlyy7Z8tm9CP3/dhevL3WC/Cqj1yu3EssAn8Hdb3yZJF9gXYB597M/q+Iuq8/X9djKVg8gb8TsV/g/SKMGYZRHfegYP6GUfNmi0jZm3bvlkfuvIP7UlLn369uqE9GDtDhJctX0LTZ0yVUOvGjRtJ6LWWwklTiRJhRaZGF1EIJIRzSI4cNCZ/fppsaUkz7OxoloMDzbC3l8/4fiivx3YixnC+xn37vfcejSpYkCbydlOsrWkqg9dJ/Hk8F2RH58tHw3LmFFGHIEOMU3LVrztJCyX4X/D6JhQ6FK836RVhxE2hO2/vPj0NIjx3Fh05eoj2H9gjIhwdE/639qSlVx/DuNFfjTSMG43QavRzggjXrVtHQq+1FE6aSpQIKzItEIZ4fnjgfAdnz04TWEQXlypF21u1omNRUXRxxAi6PnMmXRw9mo536UI727alJZ6eNMHcXLbX3S1EeZyFBe3s1ImOdutGJ+Pi6FR8vLziOAfat6etzZrR8rJlaXqRIvRVnjyyDwQKbtH0ukyv8XURMBQq8Jvg/AdxYWVorlw0iAsevfgzCh2vy+9QvHlkhAijO29C9ziaNHmCdPM9eGgfnThxRHfC/2hPWuISusRjI0R1IToacyFiOiaIcI0a1WWuRC2Fk6aSlyLC3VDqfv996sUFBrzis+k2CoUpcGgQYDjU2ex4d7VrR1+vX09/3LpF93/4gf7+5Rd6+Ntv8nr/xx/pj9u36dsdO2jPl1/SLEdHGsr7iXtmQZ7r6krfHz0q+z3gbXXw+a9vv6U/7tyhe6dO0YUxY2hNrVo0pkCBx4Q4JZ7YtqyTwvqnCZ1eRZzSfim58qTbJ91HPhv30QsJeoEG1e8j8+alhb6+tKpePVpUtSoN58+6EKt2cUVmJCNEuFixYtS1a7SMsTF7zkzat28PnT13yjCncGTIk0U4uku4iDAmIL5x4yotWjRfRNgweUMl6f+kpXDSVPLCRTiWM9GBdna07H//ox29esnrgMKFqRs7FNNtFQodiAFcLBwtBPhkz57068WL9M9ffxH9+6/w799/y+d/HzxI/O6f+/fpt2vX6MzQoTSLS77DudA3ilnq4UG/Xr1q2A4L9n/4UNC/w/sH9+7RXRbyldWq0YjcucU19uDrgKtGgQCvPYyvWKe3L8t2RucN8D7peogfvos3VpMnFbrEKmLjfnq7Ndq68Yrz6tXriQUAbM+imfQ8ehu5XA+uU2/jNoLjDGcHvNDdnW6tXUu/3bhBd/fto7kuLvK9Xo0PsVZCrMhMZIQI65M4GER4Bu3es1PmYoC+hoYFPlmEg0MDRYSnz5hM165dlkkc9BmUypcvRzm5tK+lcNJU8kJFGAI8jDPCA199RT+ePEm/cSb43bFjtKlLF+rFpW/T7RUKHYgGRGGCmZlUM0OARTAhliy+f339Nf144ADdXbOGfty7V9wxBFjE9Z9/6Lfr12lPhw40xdKSJubJQ6u8vEScdcH9588/6bcTJ+jX06fpj5s36SG7aeL9sP7Bzz/TxSlTaJq9PQ3lQsBQCDlfx1i0HfPrV/jMAj2BP0/ljGEaFzInWFiIwxzMYjb4vfdoBG8zjredwgVOrJ9sbU2j8uengbwOwimCqj0KOINAYh2qwieam9M0Pu50Pj/arXEctIVDnKUd11goGMCCi/PgOqbZ2NDMIkVoJmc02Hc8H2MYr4OQ6wUIXNd0vs59H39Mf7Lzx2/9nf+TzVWq0BzeH9X4Q/l3iStWQqzIRGSECNvz8xQcEpQ4k9LOXdvo2vXL+kxKTxbhTp3a98FGGKDjytWL0skYnY1RPe3rW0Y6IWspnDSVvDARThTgkSPpF85AH3z3Hf39/feSeV5Ytoz6ceZouo9CAXQXDOFZ6OpKtzm9PPzjj0QB/vn4cTrk708rWVgXOjvTCna5Bz75hH7cs8cgxBBZfv1m82ZaxttMZxFb5+2dKMIQ6T8uXaIDDRvSpjJlaE+jRnSbRfchi6/uiH88coQWlSxJ4/Plo7n8uqtzZzoQHk47WcCWOTnRugoVaH/HjnRuyBC6wGn8SFQUbeLjzS9alGZz2l7B59vz2Wd0pn9/ujRuHJ3s1Yu2tmlDMxwdaQgXnPXgL72NFmKKALN1tWrRoeBgOjd4MF0aO5ZO8X67//c/Wli6NI3l3wGhRlQ3xH4yZ0rLy5en/XxtZ/r2pcvjx9NV/h24poMhIbJukpWVVMsjYG0yi+zGqlXp64UL6eHvv8tv/fuHH+gab3+KC8b7sU+dOjSECwL4/+G4Te+NQvEqyAgRxsBWgYH+RhGeTtt3bKVbt66LCHf2b/9PaGhodi2lxT+g4yJsNH/BHLp0+fFpDL04g3mPH0othZOmkhciwk8SYADXcXTyZOpTsGCy/RQKgMwfIoVo5+2tW9PvN24kVjf/yYU4CPBsFqyRLFxo78XrHHac+9u1oz/YASfddj+74YX88G1gsU0qwr+ePUsbWCjncjpcwm5zX+3a9Mfly4lOGVW1qytVotm8bscHH9DP58/TX5x+f0G7cUwM/bBjB/119664ZmmTZjH7lbc537MnHeHrgEP/8/Ztqd7++9df6cFPP8n5z7EgzyxRggYZA8fgbkfkykULWehP9e5NP/N13cfzguMa90N79Z2NG2krX8ckdrJoI5/A13WYt//p5Elp09bPI23kvO9ffIwfDh2i/aGhNJP/q6kswFtatqRvt26V9YlV8Pxf/M37PuDr/52fzVNjxtAY/i9xbWhbNr03CsWrICNEGNMZdurcQUQYA15tlekMb8AFy3SGYWGBpbSUlsDATjsgwouXLKALF8/KSB+6CJcqVYqyZcuW7ITPQYaL8NMEGC745vbtNJ1L2/FceDDdV6EAqIqG20O3o+PR0SJwurv9bts2WsKuEM5R2lnZsUmwEX9e5uZGd5cupX+MrhnCdG7AAFrO7nMzizCqXpOK8EYfH1pQqBAt44fzIKfJRBFmIJir2e3O43X7P/9chE5Ei534g2++keps8K+xClwXtAeczv/k40AMZb3eho31qP69dYv2BARI1Taqk4exQ53LzwsivFFo0NupRUz5+uUYfNyH/PrD0aO0vkEDmliggFQ5n2C3fJ9FGtekCzYEVm8j/4dffz5zhraz+C52dqbTAwdKwUCv1pcFx2ZXjP3/5N91mt20EmFFZiMjRBijS7Zv/4WMsQER3rxlg8wpHBIaoM8pXEtLaQkK7nwcIozhtc6dP2MU4Yky/BZGAMnKmZWWwklTSYaK8NMEGO9/PH2aVnMGNNzJifrzH9LfyioZ/bjE3jNPHopVgVtvJBKkxJl/PxaomXZ2dHH4cINz4wVCcZmd5IwiRUTA0DYK14wq3UH8eTZvf6FfPxEvLBCyGzNm0BpXV9pStuxjIozq6MONGtF2X186wK9fT59uaBeGLrF43eXC4iLeby6n00NffJEowlggen+ya/xu9Wr6adcu+vvHHw3tybLSEDB2n7f/fsMG+nHzZnrA73FOLBC8a/Pm0YyiRSUYaiLavOH2r1yRbSCQ99mFfzNrFt1kkb3Hx/iHfzeO+zf/nqtz5tA8LlRM5v3WcMHhuwMHpG38+oQJdKl7d7r11Vf0O4u1FA54wX93cdQoWs4F9j2ffko3+XeioKAXDPCb7y5YQFcmTqTTI0bQ+o8/pqH586vqaEWmIr0iDKxYXz7//DOjCE+jjZvWiwiHRwSLCEdFhTfTUlqCQwOuQIRXrlpKZ8+dpnnzZ0tn49FjvhIRzsIuQEvhhKkkw0QY3Y4Gc+aIICxTAdZFGO7i9s6ddHXdOrq6dm0yrqxZQ2fmz6f14eE0kP9wJcRvHtKVhtMSRHYOC9UNFh29/RJO73Tv3hLshKAtvW+riDZ/nsYP2QlOOyIyvCBy+htOa+tZgLaVK5cowrKO3fJvhw/TryxYf16/Tg8hdBBBFtBfWRBRjTuVjzeLeUyEeX8I7Gl26JvYSe+oWpXusNBD8PUF13lx0CDaxOfcVr48XWUHqhcM4FK/5WdgPjvTsblz07xixejq1KmJ+0MUv+GCxrHatekQ73+eXewfEFW+Loj0zxcu0AouOExmoZzJ17bez482cgFji6cn7fDyoiP8+XZCAj1EwYAMAWhf83O1jAsUi/iZ2lGtGv168mRiVDiq73fUrEkL+Domsesfxsftxf+laQS3QvEqyQgRtrS0pE8//dg4p/BUWr9hrYy9ERkVKiLcpUvUZ1pKS1hY0C2I8Oo1y+nM2VM0b95s6Ww8ctRwGYYLY2JqKZwwlWSYCPfgDGV1UJC4XVMBThRizrzu3737VP66c4e+P36c1oaEyDFNz6P4b6OL8ECIMDu+20uWJAZlQdxOssBMZvFBdTXEN6kIT+WH7GhAgLSpigCxG/x+2zba4OGRTIR1xwoSq4v5/W/nztFhtKM6ONDIXLloqoUFHUgiwtjmJxbvNSyEM9iNor35BKf7+0bhh5D/xoXQTSyGMwoWpLl8TfuaN5d0Lfuz+P3E6XuxuztNypuXlvLr9yzKUoXMC4LDvp88ma7FxNCViAi63aMH/XHwYKKzRfvw9saN5bgL+NxrWXx31apFR9nBngsLo2vshn/g/fUgM7j679itL+EC+8wCBWgdb//zkSOJv/s3LnCs5O9G829F9yZU7ysBVmQ2MkKEMc/CJ598lCjCmIcBo1BGx4RLcFZsbJcOWkpLWETwt9hg/YbVdOr0CaMIj5eBqCHC7/BDo6VwwlSSYSKMQKsjEydK4JWp+D4vErzFx1LBW28eughDEDAk5dVJkwwulQxVq4gaRnsoRFecMAuG7pxnsEM+3a2bDMIhAsQu8Bt2gevghJNUR2ORdld2nf/AgRqriv9mkb/Srx8tc3GhMVwA1COKDyRpE8Yx7yxbRvNLlKAxLFxTOI3uZFFEe64cl0Xvh717aTGLHtaje9Q6FuzfjO3NOO89dqJL+Jqm5stHq1kAEdCVWJ2NNloEZWEwEjwP/Fv+5XPq143rONy+PW3g/Y4GBkoAGH7XX998IzUA2P4hXLfxeBDh73fvpkV8PVPZ5a4qXZruJRFhuP7F/B1+q7QDKwFWZEIyQoTN+Vlu9+EHEk+FUSfXrF0lTrhbbLSIcFxCtwAtpSUiMvRnbLBx0zo6deq4DDwNER4+YkimEmGMhrWVS+G/XLpEfz/BCacGuGhUuW1jB4Bjmp5H8d9Gd7aobp7Konqmd29xwFhQLY3qaQggoqIhGjIxAz8Dw/jzwmLF6NrYsYltu7L97Nm0Gm3CLISJIoz2VRazr3nbb3k9BA/fofr6u/XrxeWOZfFE0JSpCKPa+Nr06TQLbbo5c9J4FrYtiKy+fdsgenyMu3yMeXyNWA8hhtP8ldM0ArN0EV7KIjyN913DhYOk/ZclCMsYrQx3bQqOc5Kd9/m4OPqdhV0P3MIrRPgvvo6/uBArIovrgRM2ivAUfp5WmoowHwNDgeL/VO3AisxKholwu7aJIrx6zQoR4bj4LiLCPXsmhGkpLboIb9q8nk6ePJYowoOHDMxUIoygrFH8MJ9btIj+uHEjRSFGdPS9s2fphxMnnsg3Bw+KCx7Jx8IxTc+j+O+jD1c5nl0m+uImVgWzgP3C6WdTzZoSIQzhgAPGK9pIN1eqRD8fOpQoQBDvUz170hIWTPQHThqY9TuL2b4aNWh3lSr07cqVhohqXoeqbLQ7Y5QuVNFOs7Cgg0mqoxEcdoXdOcaYhnsclzcvbTIRYbTBzileXNZjtC70YxYRNgZe6U4Yooh1P3O61yOWIcB3uXBwPjqaToSF0dHQ0Mc4gv7KzZrRvX37Equwce0/bNhAZyMj6WijRnThs8/owd27hnXPEmF2wsv5GkZygQFR5gh2U9XRisxGRogwZhxs3aZ1oghjRkKIcHxC19SL8AkR4VmPiTBCr7UUTphKMkyEAbodjUcwyeLFyYQY7cHfHztGq/39aULFijTGxycZo728aLizM/XlEkscZwimx1e8GeiDdQxnEVzFInkviUihSvrahAm0jh0kRnmayg8W+ghjMI4rgwcbqqKNbhcjtG2qX5/msJCu5/SVtJ8wxBz7LOZj7G3TRtpxdZH85dw5mSRiBu83B/1xTUT4MhcSdREe+wQRnm0iwr+YiPDikiVpIsZwdnGhr9euNQzHSQYRvjlwIO3g613FhYel9va0lM+Fblar3N1pLe+3F92p9L7TvNznwu2ZTz+lbSy0O3n9lagoeebkeowivJDXTebzrWDx/0kvqPD+6IO91dh+PYrd/yC+XtQwKCFWZCYyQoQLchpPkwhHRYf9jg3Qpymzi3BXdBd5ihD/eeuWjJY1zteXEti9wOmaoiZ3UCRtF0b776k+fQx9hY0CimrXu8uX06mICDrQrh2dCgmhr+fNo/vffJPYFUi68/B3c0uUEAe4JsmwlRJlfOYMLWNXOJnXLWSBOz9kSKKAo2oXba0Q+mUsgMfat5eIaDluSiJcq9YTRRj9l+E0k4owBthYxII6lgsZmI7xdL9+j37f/fv0C7vcEx99RNvYvSOoDC5+Fzvc41270qEvv6T9DRsaRBgL7/MAo9BxQeFgpUp0iv+Pe5s3J4p6oghzXoH26SX8+t3WrYkji6EN+UrfvrS9enVaU6MGLeRCjxoxS5HZyHARnp5chPv06RGtpbRERYf/gQ0w+XCmF2HwNCHmV1R/7eUMr3eBAsn3VSiM6KNmYQKGpVxou7tliwig7nJRBYt2Uxm1itPWP+jGZFyHgS2+P3CA1rBDHcMiC7FbgXbZJCJ87/RpmcgAIokqZQzM8d2OHYnjT6Na+sKAAbSF3fLJjh0fE+FLLMJT2aGiGhwivLFmzcdE+A6LMCaPkNG8cuYUsTcV4fnsTEfwutEseCv43Jj9Cdctv42PgW5T9/bsoR+3b6efjx2TsbHhWi8OG0Y7+XyJbhY6zEL7Fz9Xv/JvRnswgs30QUJ0EZ7Pjhv/A7p9XU3SpQrXhIA0FJAxwcWlBQtoPP82TAChR5+b3huF4mXzIkR45arlIsI9esalToR37NhKx08cyfwiDJ4ixGgXvrRypRo7WvFUdDeMrkijEcDEbvP6/Pn0B6cfiNVjoz4lWSBgP7Lo7PrwQ5poYSHDQ45gR7qoVKnEWZQgPD+xCM9mYRrC6RQTG2A4yH0dOsjQjRJAxdtg0ogj7DBPoNtTEhE+P348TeIMAeM4j8ydWxzk70YRfsjnv7l6NU0rVowG8XoEdy0oWVKCDXUR/vHECZrF58Z5sc34QoVo+8cf03fsgDHKl4grtmUBhTPGPthXRrQaNEgiqk/36iXCrzt/fXsEoyFg6+e9e6WgAhH+ZtcumuXkJIODoJ19xyefSADlY/8h/+a/ed/rfO0THRyUCCsyFRkmwq1bJYrwipVLjSIcnzYRHjioP4uwS+YUYZBEiBGshShMCDAyI+WEFalBF2JESmOGonnsHjGJwk0uxMFNQjARMaw7QnGwECp/f1rMjg+zHfXNlk3EcnqJEnRn5076hd3wzyzG1zdsoEm8jUwVmCWLTIgwi7c5ywJ77/x5+hVOlF8vTZ9O+zt1ou+PHKFf+Lsfz5yhQ71702guRGLfwexmF5QtS3f375f1P3H6Pj15Mo3lDAPr0d95GrviW+zk9XNfW7dOhE6fpnCAUYhXVKlCZ0eNkjGfMQsU+gSj0PEbu1QENF7E6F8NG9IULjDAxZ/o359+OnVKCgC/87Y/8zN2i0V070cf0d527ej7w4fpHovtxYULaYJxlDFMDQkXfyAmRtbj2DgHagnucuHlAIv7SP5tencl03uiULwKMkqEW7RsnnEiPGBgv8wtwoCvDcFaY7y8aA+X4C8sXSqvI9kZqMArRWpAkJY+0xCEcpy5Oc1gl7mQne0GdqAYIesXFsbELjns/r5ds4Y2VK5M4/Llk3ZlmXWIBXkKi+FsFvJZrq4iwAP4eDJ/Lro5sejg+BP5QZ+N4SpZ5LDdVIwkZWVFM52dZd/p/DqGP/d9zzAlIa5rGLvhaSzgWD+DHe449GNmsdPnHR7EQj3Z0ZFmGc890eTceIUgD8uVS2ZGmsvbLCtfntY3akQbGjemlX5+NB/t1yykI/g3wd1jmsJJhQvTAnbFa+rWpTX169NCHx+ayeeZyJkNwDXjelC9PMB4PTJlIr8fz0KL37iqZk1az+dYwufD9qONvw3/Of570/uhULwKMkKEzczM3kARNgLB7Z0/v1RBwwErAVY8D+KIOZ1DrOBaIaxobx2TJw/NY0E7EhxMv7PDlKpZVKveu0fX58yhxYi2N070gP0gdHCDIsxZDHPzyry+DF71ySCwHu4UrxjDGgODyHfG9xAyiBSqa/EKcetr3E/W49jG9RDZpMftz+v1c8vAGMbz6wUBcc98bkx3OIJ/H8B8xvgO67AN9tW3FUFm8QZ4j3Pge6Bfu1wvfqvxerA/rgHHxLGHcyECBRDsi2sXAca1pXAvFIpXwSsV4SFDB/41fPhgOnBgD51gEV67biUtXbaQpk2bnHnbhBWKDAaCAGcGsUwqJBgQYx47XEQY/3n3rrTnQogx7eCZ0aNpCjtUVEnrrhMCg1cIki40OiLGxvUQLX1bfb/EfSGcKVzTk46tHzel9Y/9viTb4Xoh3gDvHzs3tktyTqx/bBvjq06y60l6zcZ99f2T/jbTe6BQvCoySoQ/++wTWrx4Pq1ctYy2bdtEV69epKnTJtLgIf1p6PDBMVpKy6pVSx8cOrSPzpw5QadPH6fjxw/TkaMHaPfubTKBgxJhxZtGopCwaMC5we3Od3enC5Mm0c+XLtFvN2/SrzduSDvtui++oIF58yZWryYVXdPj6scWTAQ61fulsM50/ZO2SbodRDMpKe0n2yXZ1vQcKe3ztPM8aVuF4lWTUSIcFRUh+gkdhZ5CV48cOUB79mynaTOm8COQwqJEWKFIGYgG3ByEGNWqU4sWpUVly9KSihVpUYUKNNvHh0bxg6tmBVIoXm+UCCsUmRQR4rcMfYqljTRHDmlPlTbO7NlFgOON7a+m+yoUiteDzCfCR5QIKxQ6EOIntZGm1P6qUCheL5QIKxSvAabtnE9rE1UoFK8PSoQVCoVCoXhFvFIR7t27+5/du8fSnr07pYvSsuWLae68mTRm7EjVRUmhUCgU/3kySoTbffgBzZo9nRYtmkcbNq6lGzeu0lcjh8okDgMH9k25i1LKg3WMowED+742g3UoFAqFQpFWMkqEHw3WMTn1g3UoEVYoFArFm4wSYYVCoVAoXhGZR4SPH6E5c2fRxEkswgOUCCsUCoXiv0+GiXCL5jR23GiaxiK8fIUSYYVCoVAonokSYYVCoVAoXhFKhBUKhUKheEUoEVYoFAqF4hXxnxbh3Pz6KROoUCgUCkUmBBrl9l8V4ZxZs1IRxlFhJAsVy8K8+y7zDhV9523B4e23yOEtI2+/LdsU5W3wvihvVyzLu+SYBHxOtv9jGL7HNk/DMQswOXay7Yzn42tyBFmB6e9SKF4i+jP0zjsGkE6Nz4LheXhEUSN4LooKxu+SbC/Pgv5MJKZ7fP8UZL/HKfrOo2cwpfXJn62kmG77BHBcnRSPbfp9aki6n+l1JQX5g47xszFvkPzhNc0boFFORR1Es1LQsVSRaUXYt6Q7lXtDKCuvblTO3ZXKurmQr6szlXFxIh+n4uRdwpG8ijuSRzEHKmlvS66FLcjFwoyczPJSsXzvk/372ckme1YqnD0L2eTKSa52NuRc2IqKmOUhdxtz8ilqS75F7ahMMVt+byN42ltRSWszPk5eciqYi4qb5STH/DkE50J5eF0B8rArxNtZCl72Fgx/tisor94OFuTjYEllilqTb7HCVNbRRo7v7WDF22NbC97fXM7j6WBD3o725FPCgXydHcnXpQT/PicjzlQ2Cb6u+O2MG/8P7m4GUvi/FIrUw2mI0xPSmo9TCU6L/BzZWpG7ZUGmgJH85GyWm4rnz01F8+Yihzy5qEju98kxH77LRUXzZCfHvDmoOD9vTvzZpUAuciuYm9z5+fEuYk5lHPg5K1JI8LY3I0/b/FTaOg952uQlL9t8/Dkfednl58/5yKNwXiplldu4nr/nbT0L5yPXQjmpRP7sfN73eH1eWafv72VXQI7tZY/nryA/h2Z8Xv2zmayX8+B4RvC+tPX7VNqKsc7F583Dr7mplGUuvu6chmvgayltw+e3LSDgfSlrXB9vy3jwe1yvB19Hadk/D6/LxeC4hmPK9eN3yTnz83f4zNfDeYW3vTlfp6XkC94OhcmriIHSNshX+L0D5xnFi5I33xcfPP+4T/Lcm97DzE2jWjVFs1LQsVSRaUW4NV/U60kzatUcNKGWTRtT8yYNmQbUrDHTqJ6R+gx/bsivDRtQ04Z1qVmDOtS0TjVqWL0i1a7gTX7eblSlVAkqW8KOEyuLpk0hKmGeh4qZvU9FWCwd8r9Pdpwp2HLmUDhvdrLijMKuQG5yZuH1dbEnP89iVK+cMzWu5E5NK5emJpVLCfjcqJIbNargSg3Ku/CrC786U4NyTlS/XAl5bVDeibdz4/1KUhN+bYhtKuD7Evzeifd3oYYVXalJlVLUrJoXtWCaV/OmZn4e1Liyuxy7ftkSieCY+A7nxzbNsX11H2pVqxw1r2GgRa0K1KxmRWpSqxI1r1uNmtevxf8N/y+N61Nz/u9AC/xnjQzvm/N/26IZ/8f4n5s3pZYtmlIr/PfPAPdH7lGy703v4yNMt30apvsqXh6J94Cfv5bNOH00bUQtOK00qVOD6lctR5X4efItYc9CbEXlShSmSk62VL64FVVwKsxCyoVHFozSLBzuVmbkxuJcurChIFqaC5QeNgWpLD+HlRwLU3kWwKpO1lTftzg1q+JOLfyYqm78rCCdF6NG5YtSzdKW1LBsEWrga8+vDkID/ly/jD3VK2MrNPQtQo2wjl/retlQNTdz8ir8PtXycKB6PnaMDW9vRw3LFZNj1ytblGp72VNdH96Hn9FGFV34u+JU17coYzg2zod96vnYUl1PK6rhZkY1S1pQPW/+zNTyKEzV3M3Jz92CavD7mp52fDzsW4xxpNqe9lSrtA1ff2F+taaapax4H2sB72uUNKfqboX4mOa83pzq4zx87bV5fW0PfR9L/s6Wf68jX6Mr5xUlqXFVL2pSrQw1quJN9St4CLXLlqQGlb2pSe2q1LBOTWrSgPPGxnzPmhqeaclHX4Pnyr9De9GsFHQsVWRaEW7Xtg29jrRt04ratOBE1LieiGq9yl5Uv2JpTnTuVMvXieqWc6c6ZUtRnXKeVNOnFNVgsa3l48QPRFGq4lKEnaW1uFA3LlEWt8hN9iy2tiK2OVls3yNrkI+Fl0vkNlwid+TSuEdRM6roZk3VS/ED5e3ID60TC54rNavKmUO1UtSqhie1rO7BlKbmfqVYBEvLd63xfTUWxaqlqWkVNxZeFxZeV35voJnxtXElZ37oWYDLF+eHiqlQXL5rgWPWYBGu7sXH9uJjerHIQujdOHPg31qmOD+IJahxRWc+rkvitbSp5U0f1PGldvXKU7u65eiDuuXpowaVqF39itSmTllqW9uH2tT0EXFvUd07UbQND64X1a5YjhpUr0pNG9RmQa4nmS0y3ZYQZcl8jQLNoDDUmu9Hm5bNqG2r5slo06qZcR2/spC3FvAdr2/dUu7nB21B61Rhmh4UL48PcK9at6C2LZtSi/o1qWWdqtS6TmVqUtWXqpZyIt/i9uRTzI68i6LmxoYF2IZ8i1pJIdeDXZlXiWJUtUxZquZThrx4vWcRC3IpXJBK8fNYgcW6MguvnzOLpSsLDAtWq2olOZ16UNtapalNjZIsxM7UrHJxal6JxbmiIzXn943LO1CTCkUN31VypMbl7KlROVvGLnFd04pF+fsiVM+LCwbF8rEYFqUm/Jw1qViMnx2Ghb0x79uwPL4vwSLvSHW8WYzLFOFn3ob8SrLweRZm4S1sOC7OUdaOr9GGapUyp5puXCBgUW/C52tYzoHqeNlRDRbLGiWtqI6nDW9nz9fiyNfOBXNfLrz72PPxbVnwCzO8jZc1b2egFgtsDS4s4Lh1PC15exZ8bxvOdwrzddtKAQCFDVyjAc4vuMDQjPOYljX4ma5RlppV96VGlT3ZJMAQcL5Ri+8Rm4+mfM9gViDArVu1oDby7GX+5yoowF80KwUdSxVKhDMIPbG05gRUtzI/yF5OVN3DkSrxA1u2BJe8HQuRj0N+8nbIR55FzcmzmBULbT5ytsxFLta5qXihHFQ0f3ayzZONLJiCubNRoVzZyDxXdv6cg4U3JzkUyk2lHMyogiuXZj2LsIijBFzc4E4rQOggnG5cMi8pgteyBostZxKta3qy+BlEWL6vXkq+a1PTm1pV53UsphDsJpWdGZSw4XhZQMs5cmmfH0qmLmcM9bjELd+VNXzXtLIb71fKSGkBTrteWWeq7c0l9DJ8HLjxihB3XBfOjevxYiEuw0JclkUYQlyePqxXQUT5g9pl+Lp4PYt1Ky4stGQM+3kaCwulqbaPM2c8Rala6eLkx+6mSkn+rz3dyc/DlSqXcqHybk5UoaQzVfZwopreLizeXPCowcflc7SB0NevRC3rVWaqUHN24I25hN7Erww15IyhQSVPql/ZhxpWr8CFqOpcmKrPQt6IS+NNpHBlqOFoZKAZf8+05ky/DQRdF+02SAtIEzqtqW3bJwu6nn6elKZeh4zoZZDs/+D/EwUpQ+0GO6cm9ahVgxp8n6tRy5qcqVfhgltZd3G65UrYkHcxdrwlbMnTkbG3Jp8iVuTNTreUjSWLrR1VK1uBGtWqQ3X8qpGbkyO7YhboIuZU3tGSqrtbs1O1oqou7Pg8i3FadON0XJopJQLcqpqbiDCEF2LblMW1gQ8EzpZF0YGaGoW5Edyx8bsm5dnhssA25WetKa9ryIJWza0gu+RifAwXEdzGUuiFCLNYV0HhF89lUarKbrSae0F2nRayTxUXdueu5iKIDcoUFur7QDj52l0LUT0PKz63PQstaqYcjK6Y17PQ1mU3C9cO4YfrrstCWt8Xjt2OfysLMQt1bS8IrS3V8WCXXNJSnC/cNgQXQNwhuoZr5oJCBTz7fLyyBhFuUslVDAAK1hDjZn7sgKt48O/x4N/FLrmqNzWrWZ6a1fHjwnVdao7nC4XhxIJw5n0OlAhnEpA42nIpvA1nyM0a1qPKPh7kbmdJjoXykb1ZPrIzYmuWl2zMcpMVu9iCLKz587xH+fJkpwJ5mdzZqSALbuGCecjOMg+5FytEZfih9yttz8LjYKzaLWGoFq6IqmZncarNWUAhovqrTnMuqTf3A3DE/NnPTcD7lnClLMqtWJBRnda0Co7lxBge/MbIMMobBBdCXIfPX8enCD+ghldcD6qym1YpybiL+zVUj5UQB1y3DPZFBsLHq4CH0OVRAcEP54UYe7PrLWOAnfEHtX3ZVXizCBsEuEVVZG7sMmp5sWs3ALcNMUaVOarT65aB48axS/M5SnLGwef3Kc7X58gFFM68OCNoytfQys+VPqhZks9Ritrya6vq7nw8iDyuh/8PCD1fWxv8J35cYPHDNXAhhUvuLWuWFRFvWh21Gu5Uw5szQY8iVI0LGjX43PVYtJvU9qMWDWuzKDdksW4sgt2meWOhbXMIOL9v1VTShwGDA28NICIt4cpbiPsWR2ciOIbMJ/NlQC8TecbatDT8d0bRrVvFl6p7u1I9ZObV+D5Vx/0qx5m8D9XxdaaKTkUMMQtFC5MXC29pewhuISppwwVhO3MuGFuRp60FY00V3F1ZiMtQ9fLlyNHOjgvHhagiO+Aa7jbs/rjg64JqWgepgsZz06q6IR219HOhFvzstEwUYXas5dnZsjuEKEJ44XqbVYQQF2OxtaWm5SG+jiK+zVi0mrDLrcui6eduJkKIZ69pJeOzyOsasnuuV5bdqacVu092nL6oXmaXWpoFsaQ5VXUyo0pO5lTF1ULcbX12xfW9rak+O9m6vE1dFutGLMxNKzhQc75WON/67KTreqP2DNXX9rwPXDpfH4t8g7L8fPNr/TIQVxZTuFp+jlDFXNcHVeIQ6SLyfRO+Tgi4Ybvi4qaxXeMKKEi4yvPfCJ/LYztDgbwZ8o2qLML83DasVIodMV75Ga7izc9ZeWpctwaLcX2p0RJXjOdCifDjixJhA3rCQBVYy3qcEdcuS01r+lJDLtnVK+9OtbydqErpokwx8vMszg7WkTNxR844ilFVLwd2a/ZUsbQtVfG04+9Z4NjZ1iuH9p/iIraNKvIDwzRhmlaG22W3WglA2FDtDPGEGBqqkptUNr6iJC3vjRi3aca0gBhXhSC6GUSoKh4KuGAWrMqoBsMDBBHWH0h2wRBfb3uDAPNrLS97aUOGADeVdmAXaaeC8NYva3DQeBAbljNUSeE3NOXrxnkhxigkGAoBcOJw5V7ikA1V5BBgPi7/hua8Lb5rw+ILoWwtjriU0YWXlHO34M8QaDjmxmiXQ2bA143rRyaHjLEVZ5RtqrvycdwEfG5VzYUzTv4/qrryZ76eagAZK9yNJ4u1F4u2j1Sft6nlI9XkuMYWfN3NWLDhzqVwwIUJVMe3rM6vNVi4a/oYqIF9Ue1ekdqyC29duwK1qFWOWrBIGKrlylEjv7JUv0oZalyzMjWtW52ai5A3EsfdCtXpyITwnsW8FQt561bN6APOkNq1Njhu3SXoadE0fZqm04zIyEyPldIxTb8z3daUZPu2MThdVC+3lqYDCC//Dw3qUONq5aleRQ+qU44LRB6OVNndnqp78bPCQtyoCuITynBm7ik1MuWK21IZFtqy7II9WICdrM3JoVB+cuXXUrbmVIGdcRkEE6L91waBVZbkwYLs7mBPHryfn4sVO0kIcWF2mhaSjiWNGGkNEeY01LyyE4tvCUlvUr1c3t4gwuwg4YqbsPg1ZQFuURliBNcJF4yqaMNrPXasNdzzs5C+T9VLmlEtT3NOvxB8FmJOx3VYfOuyoELA63mjjdeC6npaUC33QlTduQCLcH6qUZJF2rvE/9k77/DGqmvtf/993wWm2B73bsu9SbJ6s2RZliy52+OplKFDSAIkQCAkJISSQmgz9N4h9BpaEkpIL4Qk1PSbdm8SAiQQQsr7rXcdazBCw8hkgDHs9TzrkXR0yj5HR+e337XX3luUcY3AuUqOXYWM03Luf8JTq5WDaVHTs/J/nwhaynfczzIRnhZ0R71S4fcS/AyBE5x8NrBpinki3RrZsv7r8nygmg9T+bZqpIwRM/7/KRamRP1y3XF5PybPg4ybbd2Wc9/8zspR6ZVnXbc8+zo1yjXi6cL0UAhjgyFMMldmcmybqjj33nkn3ED4HXbeBOtE4cylo/JQdYk7RDU5tS1TH8pxPhRkWYwhXytky/Atb+hJAeJEhElQbQoPhew8KC14WtAlvAjc6a1Q7VBoWkDmtqwxs6ZqOWundEvRWuGhrdAOc9tXj6Htvtn9EL4MixG+rH2zDSlAmPEPSUUsf6B5J4z5R5ueT96aCHbIOqwpsx2YoTVxwlgTPpr1D84/u1YmFMisDFCF0vsUvFTndFX0WjauQzBa8J3jdRxgBYJK3q7KlUDncsJQP/M8AlTAbGejIrHa3FbLw2x1VB6golboVC1zsY55BSPHkd8h+yCdGSCg2d4nIB5m6Fw8SQhbqn2tKHaCd032O3Eqe1YqWDaWkeXSdnAp/3r5XveTsCoYWskQJTATYfl79Z6YHXQqwGfFp+T9uKiDEV8Xht2d8lDrlmvah9GQCxOiEpi4Njc1aoFZAc127ylV1YzG5HtQ5XrufbwYz91Xvn3mLstd9zXOsLJGkRgNsNrqN6yR15lxrdjOSIVmatAtD2ZWYMLy3i8Kql8f3BlfJ+IOG8K9TYj22ZBwMr+iDZlgt+ZZeJmZK5B1a6a/KN6mGvQ1sgdBmajiCvhtlQjYyuFtKEW4VT43lwqMSwXEAmZRygPtTDai6mvSaNHqOCuPUgFjNCnWpRU5KkuGeflKuFkwFmXon1fAbAsOUHVWybIGbf/V9l75jmHpMV89EqKAB1pXwFXz/+Ct3QXDfWXyn6GKbtC22WFHhdUO218pAGaloBiJ3hIMdkm5W1Yh0l4hKrham4CGpFI/2FUiKljUsFQCMv3VGPVUY1z2x/ZiqvEZlpPPgOxzgZV9Qtln/VfT8v/mOWsUi+qV9zMrxlLpntTIV9fWPJFs+Dkt/3NW0Anhcd2uY6t6JniHRWgMO2o18ctS30xWI7BFdIj4GO4XodIrYsTRqEmca0ZCmMsMYlLu96nxNGam5F7nPZID49z78+12A+F30HkDMDw2N56QB4VHAOzEtDxAZ+KEMNs+5OGcVUmEhCYx2TUxakpUHNUU22hnNWxshYunoxZ8LGDKnzmShacFaQugrJmyrZUq2YIs/0BUr1ln24wVJrIATJBzewvI3E/XPCwsCFv7sZI/FLzBLIgtRUmga6iJf5qss5YsIGEomu3SXMY/IP+MI27+kW3yZ5P3/az9NmtteIIglv1MyvoMNzO0NzNggXiG4We2TzNJLMiatDz0GCqeD50TXgpnwo0wlto5X9cOCYR5HVlBYXnnH3T6sGPyi/isQJhOEBO8c3KdqYZn5eG5mg9PeWV4cFweioQ4QawP2rjVjs02dbahUxVTDTPBTF3hy8Q3q3yq9LWMXfpg4/u1ss56ATB9Ddvloyw7H9b8vkvKxIoGk+UcViWEzQNy7lT0rNRk3K1I9DWJQpJrKtAZZ7apQGgs4kIm7MIIs00jboxEvZhMD2F2ktnjY1aiGtuwNdnMSk5jyHvt2oVt16+q6O35WlHfup28blizRtW4OvenEOX+rdC65dNSQWCWK7PXJ7VdfY5hZH6eprN8TKQbxUQypuXXSkYygjXarhuU/wj/M26p8ATlvxSU/1BQ/jtuVbszMamwDDjkod0EX3s13AJThWpLjdxzraIemxFqrRHAVsLTWKGh6aijD8GeXvTUsRtdKbw2quEqgXUpfM1l8DXJPpoF3HVlsq9agRszmZvld+1SANNnY/wPErq8nxg5kgof1S5VsCZgWW28lsqlAmZFkGFdJkw1bG0T5r025uW92qAqN9S0G0LNu8Fbt4so2xJNgkowsYqZyfZyDHau1Ezn4b4qRDuKpIJQLLCV82qRMreyq2AVwp0CMWeTvIqaFjU8wtC0KPIJP49pJYRZCrxV78HZbAJmhPebAJjZ2D4rOzvVX6ftuqxgU7VSDU+KEqZrBGyAETCrYs/IG+9VZlpr7og+I2zzFXE+A6Qy4WQ7NEP6zLaukfNiW3P91pyThLMRg331iHbXatv76oQX60ajWDsqlc40YZzA5PjIfIjagnHuPfpOQPkdhPDhORC+QiB8jkD4xPcQhOe0tm4B2K4qeFpU2SxDqgSugpfZvbKMzu+p1sRZm5xk7VIeuNNsrx3kci5jNjITowjAV1Utwz0K4a3haMs1m3leKRNcGvolkAlbQprrsD1Wk7ascDX/RGwrzoJvOsIuS1a7D5M+qIQt6Nr0M/dp1WqtMDlDzgxHTYS4zz6BQreGplPyR0q52Y2iSf5wjfInZgi7WUHMbFJtn2WtWnw6xDBwn0LY6ubB91abMWvf2ZDVzADVhgVnrsPatz4QWWGRysgaUSVrCGFxAnmCiSLuGox5aq2av6iM2XCzQLddH5rTEWaBtqoS1ja8MLNZrQcm4ct2MqqBSbkehDrD4qq+xVkhsNoCLdWuiWPaljyfPMZrGuV63fpw04qP/C5zMYYt7VjHjHSFcJcCWJNYgvPKW/a7bpjKm6F5h54zlTnLwQhC2tUiD1U+qFoxKDBOiMqj0os7WzDoaNHXgT6BjJ3t1VzeiqSnCylfDxK+XqQE1uz+xox9ZqFqVjnDfBr6npjPCl/o8+qarsloY7JNBjPyEKSvnsxgTn1UX6fT7AYUwJh4JuJFKtSPETlmwtuHpN+OpFQURsJO8X4M+R0IOboRZc8Avyj+oB3pkCj9qPyGwwGry9pQQH5ft9y//F+w+5tbKn09CuTZuPzfok65tj3ycG+RB3adAKha1GupqFeBJyHssqIyvG5JqcDwWiX9bsT9fjhbWtC8qki7ITlqy+BtrYRfQMzuSuHOWlHElQLEVaKeyzDQUan/LUsBs7LESIx1L83IvcQICyFL2DLqQvVrRV+YXCWVuYhNled0iKq3UZOvtI2YkRpZL3u/Jp3lAtbdFLTRrhXwNe6qmdJDvUy8KkO8p0LKtQL+xmJZr1qUcKUAuEyc27HiUKGh9YDAOCxlTnls2nyUFNCNiCIeo6oWAI8HmLlMhcummlarQsjnDkPKUinQDGd2jxKlyjZibdvV/BM+lzq1e6IVmmYEh/99Vgr5bJBXeSYwGsbnQ9prNUkxrJ1S+FrgZYJXQioHzM6OszuTlC8lx+FrwlEnXi/eIOs2apRjliDOCIjHYphNx+Qe8WE8FddunsyiXjv3+hB17nP6rfYdB+EtAuELBcI3GQgX5gxDT2M2xfCYKFuFK1WuPECH2TZoQZhApvJl1x22YfIGtm5aq9+t5ez6w6zkDoFvNnxsKUFNauCDWDyraBW4bCeeB3FWEWsXIgUwP1MtW+3DViKE1Z6Tbdsh+Ahj/rGYubhwH2NU0gr77LF5LNlWoJsWmBK07CM5EWSN2C7fd2sy1rCA13KGnsQJ436qYv4Z2f5kJWZYnq1AWBndGsadBx7LTmhn3Hy4UTFb4WcCmsqS0LLAKCpzyK6hXsKNCS5j7CM53wY26mIIrk5gaj0MqUaYNDMtD00NQ8esRBoq5Bk+hJj1zTC7m/03beqq2gNM7mIFgsBmyJoK1lK5GlFQ8LJt0OovOqcQ7tT1pkIWZFcPMmzOdeZVMH/j+QoT15uJWsp7zVCfQJjn5NAKBishbK+jouA1SfXzN3HL7+GTh5VNE4WG+hoEzHUYEAURlgc0lV2kUx7G4v4OUYJtNQh1N2CgV5SG3SagFmD3tiAinnB1IOGW+45d6QSS6YBD3I4RgbfCMSjLgv0Y9ggwPZ0YCbDPpwuTzG5l33Dt4y3/AYHmJMPE8pCkQh+S9VOy/Zgo9glRrlMxr6r3iQEnRkOi3OU4o/K9pegdGBcAM+zMECT7jK8eDmn3Ik2KYxtvxI6BHgGET+4Nrzzo3VRa7QInOa+OWgRFBbqbK9FTU66DyKQ9VHadCmEq4oSo5YTXiZjPh56mZjSXrkJ3jahfAXawvRYDncxMrkeE166tEgNtFYiLGhuXe1BzBhiC5u/K6EmM99+rkRWFcIDKln2CxefD0JqkxQjLfPckwo/9g7WZhBEr5luwn629Ail7GUYcZZpklXJUzMO3QvvrRjtFBTM7u4vtxgKvbnYtqtMs5XhXKSKtxQg0l2hYPSjXYLBHKsDaO6FF/49DfVy/ShUwFTvLpxnN7PLE5pcoI0+8F1kJpWKtEbVdrSp6xEllPJ/XMZ9gaSlijhPACFiHVsDpY9rGKxV6ea5k2DylbcdtUiFiZYAVDctZHu0iJT7IcyCM2TdZQDzE/snahYr3Mr9r0krYhrE45gTGaancpQNyT0Z8mEgPaxY1+xHnhqjfThgbCL9DvpEQXj2O1Ukv1o54sWE0iI2jIewxFsGmyRj2moxir6mY5ZMD2GM8LN+FsCHtx8aMuLxuSPv0/e78nGE3HR82yL42psUz8p6v4htGPPqe6+2h23qxPuUWd2H9iFu+d2NdipnGdFnO8nBf6uyH69PjWcdgn9zQfL9cq1vQxgw/s2wBzVKmc/095PuNIywntw1rghGTjebizGBmFyN2KQrIMo92PXi1zZshZctnmGUs26zRJCWP9gvWfUqZdud+pYx7yLXbU67NXuNSjgz36bWyk2MObJD3e47zu7CsE5TvuR2P7dbrsI9c232nY9h7Kiz7FRiLglxNRS1wX62h3m7Zhx17yHcbU07snuqX9y5xN3aXVy7bM+PWZeuZGMbkL/G1onSZKb2OkBdfL+p0w7BdnK8ObEw65XiyPfeT8cg5eOV6SVnpaeuVx9jI46XdUnYf9hqTa8rfMc1jy+8mvxed57PHqA+bJgLYS3zTZAh7T4bF5X4a9ev3G/hbD7NLGZPD2K1rEGsZtk0IrJgNLJCa0DZSts13SaWHgyQI7OShNdjfiZiAd1iAO+LrQ9pnl/fdSLp6ZBsOoCLlGI2KD2KNwI+qk8tUhQpoVw9b2caZAPt6+rHnRFzunQHdZo/xBPacTGL3iWF5UA7JMvmOqkUU7WqB6doR9v2OyH8jhvVp/g/i8n5Q/guyXjoq55rEptk0Ns2MYI/JOPacHpbPKew5xf0OyX8njj0mYnL/ReRBT9XGZDk5f7n3Nsq+1wmkx/09SPe3IeFsk4d2u54X78O5eP/8dREYe9hdrVce3iHEPS742pu0MhLtYyZ9p1QsWfHrkEpOm6g4qXAGuuQe6JX7xSW/mw97T/j199tzzGv5qEfcjb3klffQhqRDymJ1V1o33KdZ+Huk5beVe0t/b/EN8nmD3A8bkjwHJv71bYU4IzLM4Gely/JOBeOMVPSYVTweYKWCSWFSUWU4OMRQcrdmIo9IRTfpYIW3TeDbaZU/yCTFPoGmXAtW1gW+7BXA469PSQVvmJEXu5aD996GFP+fbFqRyjkzs4OsYFgVS0Zp2JNg3TD/c/I8kf/sGiYr6vPHg3XyvFnL5wa/4/9XniNz7OmgzxGflWwZZYXSaoNm9EcTNVmh1uabLo3GadOPRpdE1IR4D/O36JLKYC/m5B5aL/famsygVNi8OmYAuxSOD0cwJao4H4xzn9lvlRsIv42+cf067L3XnjjowANw2KEfwNGHHYSTjz0U5576KVx14WZcd+m5uO6yc/GFy87D9ZfTz9/qXPaFy89Vvz77esW5uOGK88TPV7/+Cm7D7ennvN6z2+r3C9c7G9decpY4Xy2/7lIuP9cqk7y3XlkGHscq03VSJrou0zKKy3pfuNQq+w1XXGAt0/PhOhfgukvOkf1bfr18d92l5+Pai8/B1Redpdfg6gu3zPtZ6tfQ5btrL6afrWW6nsfkq16jV6+TXgP5fO2lZ8u2m3U7lid7bfR85bvrL+Pxt+A62eeNsvzGK8/HjbLddRdvkeNJGS44U/wMXCOv11x4pizfjOsvlX3JNtdfZm3P/XxBl50l352tr9dexO3PlNfNUtYt6tw217kfrs/tr+M+6Jfx1dq35Wdv3S/f33D5OerZ7/X4l7AM1jY3yu+q55I9n3nn/XH9/HZcl2XidbnuUv42F8nvIb/BJefJ9T8HV563GZeddRou3vx5XHLWqbj83DNw5YVn44oLxM8/C5edc6YsOxNXcD19v1nf0/W3uvhcXHMJr//5uFreX3n+mbL9Fvld5be94CzZh1yTy/hbXCR+4bzz/UWyzQWy/Xm6HV+t8l2g+7vqQtmXlOGqC3lfyv0k95Fud7m1/Q1XXqL7ukrOy1omfuX8Kz9fbt2Hl51rlfmai/j7W/c279VrLpJ9n79ZyrtZz++yc86QczpdfsstuvyKc0+X63IqLt5yGi45+0xceObp4p/H+aefIq+n4pItp+p1u+rc03DFOafJPk7X68zf9YbLz9brz1d9r/dP9jfNOn973he8b87U1+vEuX32ftPfcP53vE5+x+vkvrhO7qNrLjgdV513iryeJuch9634VbLsyvOl/LwPxa86/wxx3tM8dzr/X1zvDCnraXq+l4tfyt/0vC16na7gb0eX/8BVF/L1dN0vt7tWjnGNlJNltP4bPAdeT/5Xeb1OxZWy32u57sXWMblN9prwWXM1yyHf8b+qzxl9jrzq1+ozxzrXay6eL6+c05XnnWb5+afpZ/7fuH/+X7kO3/OczvrMcTj+iINx+D7rsGk6iamYVFSlYrZxYgjrpAK3Vipws0lmUPuwOj2kXQQ58uDs9ITV3S+nvTj3Wb4jfaeA8KMC4auuvgLnX3AOPv0uhDDhu+/em3DEhw7HBeedh69/7Wv47W9/gz/+4X/x5z/9Ac8/92f89YXn8de/vLBof3GB5373Tvviy/TmrkHWX3u8wvb1uuvH3yHruo+sv37b/J67fu5+FrOvwn3heeR67rqW/2XeFyx74QX8Rc77L88/Z73m3JPZZfk87/279VrO7/s1x8313PLllst6fXX567dnOV58g33lO6fX+cJzmv+8cBn9hed5jfj6nL6+5hpkfX5/277+ub9R7j2ynXJu9ezxFnhOGV77ecFrznlZvuA65ew337Ls/hae57bXs9Z9tRwLP2/P5/eZ69n9LPjM4z//3LN49o9/wB/+5/f471/8DF+5506cc+pJ+NABe2DTXFoTttaPDWKt+LoJUcijQxiPBzGRGtShgTV5KyeTOve5vqN8R0H47HO24JJLBcK3Ggi/xvfcfSMOP/SDuOzSS/CTn/wEz8sf9+9//zv+/e9/w5gxY8aMvbXGZ+3LL/8Nz/35WTzz5I9x0dmn4IN7i8Idi+r48+vHB7FhcliAPISxqA8TUQ8mUzFN3pqdHwJzHfvVv0XK2ED4LXKq33027YUTjj8ej/3gB1Izew7//Oc/c+8PY8aMGTP2Nhmfwc/9+U/47je+iiP2W6sZ8nMch348hg0TcVHIcUzE/BiP9MurF1OZYcxMcLCPqbdMFRsIvwVOAO+3z94484zT8fOf/QyvvPJK7r1gzJgxY8beAaMy/vvfX8bTj/8QJxx5MHQY3IQbazky3WgUq1NhzbhngujMkBuT7FvOyV4mx16XvLUjlLGB8FvgbP89a8tm/ObXvzbq15gxY8Z2QvvnP/6BX/70GZx8zAcxw3GoI71YnfRhbkSgO+RFxjffRZDTpyb8mGQm9Zg1OYQF41dHl8tlwGLcQHgH+1577I6TTzwRv/zFLwyAjRkzZmwnNj6jf/r04zjmkE0YDXbpFKrjwR4d/pUQ1kkpvBw8pUPnPmd/9XGO0z6Wxsx8JnVue/FioWwgvAN99w3rccSHP4Qf/+hH+IfUsowZM2bM2M5tr7zyd/zgu9/EgRsnMBZ2YMTXjbFQjzW2OMew99jErVH7Rr3tGBNIj8eYvDWoo8BZ8xe/fjzqQmFsILwDff9998ENX/gC/vKXv+T+zsaMGTNmbCe1F57/M6686CxsGItiNNSHdKAL4xFOkdgrYO6xZqYTGI/qGPacfrEHU5yffMiPyfSwDuGar704lxH53EB4BzlV8DFHfwS/+tWv8K9//Sv3NzZmzJgxYzup8Zn9i58+g8P3W6eTfoyKEh4TAI8PODAZc2KCc5AHu3XGJk5KMSqe1kkm2nU5h13V9uLpCcxxIpI88xdvC8oGwjvImQ19vajgv/71r7m/rzFjxowZ28mNg3xcffE5WJ8JqfrlkKtMyOIc3tMJH8YG7Bqm1rZiTjLh5iQTrcj4OY6/KGeOhz5i9S/ONzlELjOybiC8g/wDhxyCJ5980iRjGTNmzNgSNGZLP/7Y97BpZhgjgQ7MDHmxOhXCbDIgr0HMJP36firuwoiAN+Vuw2TUqbN2caavIVc7kr5OjA54MMn+xQvGo85N2loIZQPhHeB7bNyAj3/sWPzhD3/I/V2NGTNmzNiSsH/jf3//W3zk/XtjtQKX3ZUI4IAoYa92XVqbiWBOgDwV92Ai5pHl8t2QD6MRB9qrStBWsRKBjgYMC4wz8RAmR1OYneH8xbPbbC82EN4BzkkZzj3nbDz//PO5v6oxY8aMGVsixtG0Tj/5GEzGOeVmD6Y4I9OgA+MDvfLeiTmBMyG8RnxOVPJcUkA70I+0vxOejno0lJegtqgIzeXFsDdVIh20YzKVwDRH3coJUZMdfDUQ3gHO9uAvXHedaQ82ZsyYsSVsf3nhOVx6zimYG3ZiItSJUX8HxkPdVna0j3Olcx5kO2biblnHh1mOqDXQh7FAJ1KeFiR9HaKCuzDkaUWS7cUBTgnqxOhgCOPat9hSxQsVsYHwDvAD998P995zD/72t7/l/qbGjBkzZmyJ2Esv/hW333CFztM+JeqXXZFGAx1Iupsx5GiwsqGZIR0ijOX7SI++TnA9fifgZfY0PeO1yXY2DLk7MRZxYzwVt0A8NT/IxzyIP3DIwcqsPBwryHcQhL8rEL5cIHy2QPiEJQdhzg/8yCOP6OxIxowZM2ZsadrLf3sJX7n7Vuye8QlYOxWuE2FRwkFRtp5mpFxNGJHXjEB2PNQhMO5UJTwREQ/3KrDHgvR2VdJU0WMhOyajHkzE/RgbjmE0ncL05Djm5kH8/kMOUmbl4VhBbkF4WiC8WSB8wXsTwgcLhL/+9a8bCBszZszYEjZOefjgfbdj/YhLFK8No0F2R7IhI6/pQCsSzloM22uQcjcKcNsUwhOihicExGw/1tB0uEu8Wwf6oE9E7BiPOHVWpvGYH6mh6DyIqYhnccj7DlRm5eFYQW4gvM5A2JgxY8beDaYQvvd2bCSEfc06KMeIh+q3UV8TzjoM9tUh1d8gcG7BuChfKuXxUJcFY/Fx+czJINh2TIU8OcDBPlwYE5+M+ZCOeJCMDwiIObjHpPBjf2VWHo4V5AbC6wyEjRkzZuzdYC//7W/48l23YG2sB6PueiRddIGuvB/u5/tGxHrqkHQ0Iu22YcwvEA6KGg52YJyvoSyACd95CEdFIcf6MT7Qr2NOTwz6kBkMIZUYxNhoGvvvt7cyKw/HCvIdBuErr7oc551/Nk7+9AnoNBA2ZsyYMWNvs7FN+Et33IIZUbMpRzWSzmqBbw3SngaMBUT5BtuQ8bfpkJUpd5NAtwuTVL4MSyuILWXMpK4pBbE4x6CmiyJWNRz3Y3wwgESUII5j054blVl5OFaQE8IzAuGzzt6Miy+5ALcYCBszZsyYsaVohPB9t9+MUU87hvsqMSIAHnHVYtTXgIy3CeMhZkaLB9ow6m9R+DJD2gJvD6YizJTuVt+aOc1ldM5ZLEp4Kh7EWMyvangoGsH6dXPKrDwcK8gNhNcZCBszZszYu8EYjr5XIJzoa8NAazky7kaM+QW+AZt4s/UatAmEm8VtAuF2AWyXwLlTINyNaQHxpHyejBDC8jnahynxyZgd4wLhyUG/KOEgJuIhjMfDGBmMYG56UpmVh2MFuYHwOgNhY8aMGXs3GCF83x23YKivHa7qEiTsNZggbINMwmrGZMiC8WSoRcPTY8FWAXEHJsPzEI72ivfoZ/q0gpmjbdlFCTu1PXhyKIjpRAST4uOJKKZG08qsPBwryA2E1xkIGzNmzNi7wQjh+++8BXF7G3oriuFqKNVM6DFfE0ZFEae99Ui560QdNwuYCeBWbSeeFvU7HSF0u9SzELbcCk1PiRKeGpwfb3o4jKlEGKODQaSH48qsPBwryA2E1xkIGzNmzNi7wTQ7+ou3YNjVjq6qInRWrkTAVo7h3mqMuOqQ9tQriMdFGU8KgCdDbQJigfDAPICjVMPdmAp3qUJmotZYoAOjgXarG5Oo4SlRwpNDIYFwBJlYEKnBiDIrD8cKcgPhdQbCxowZM/ZuMPYTfuCeWzEW7ISzoRj2miI46oow0FGumdIjHlHBAWZFC4DDljNUPRnuwJSqYIaf5yFMAPvbFMSj8koYa5Z01IPRqA8T8TDGBsPIDEWVWXk4VpAvCsJ77rn7Pk579yfs4kccedg/DISNGTNmzNjOYoTwQ/fdhrl4D6LdZQi0FMPbUIRwSymG+iow4q7FOCEcsGFS4DsRtGGcoekAlXG7BWMmZjEMzWErA1YmtZVN3aYTQLC/8ESMEA6KGh7AbGZYmZWHYwX5oiC8//5746mnnsBPfvIUjj7mCF3BQNiYMWPGjO0M9neB8MP334ENSQeGHZUY6inHQHspBtoEwr0VGLZXIe2qRcZdh1FPPcZ9jRj3NmJCQDzuYwKXgJhhaIHuRNCCL9/TOfpWxt+O8bAdE4McS9qHyXgIq9MJZVYejhXki4LwoYcegscee1TdQNiYMWPGjO1MRgh/VSC8MeVAylml0I33VCDaVYZYdzlinaVI9JYjaa/cCuIxbwMyHr7nLEtNGOOY0xzyMut+dmlqlfctSHOWpVAPJmNujEU94l7MpGLKrDwcK8gXBeFNm3bHunVr1I844jADYWPGjBkzttNYNhy9LtEjirdaQTwiPthdKl6OwU7xrnIk+irkO2tErSRhLZ7sZ/JWDdJuji1dK6/14haYM14CudUaaUteR8O9SA/0Ix1xYTY5oMzKw7GCfFEQ3muvjRifGFX/8BGHGggbM2bMmLGdxpgd/cA9t2B1rEPgWqE+7CjHUJ9AuGcVYl0looZLBMirMNRTKl6GuLwf7LI+D9vLkXJUqlLmsJcjToauqZabMO5vEWdIWiAc6kVGAJwJuzCdCCmz8nCsIF8UhA86cF8c/6lPqB951OEGwsaMGTNmbKcxQpjzCc9EOxS6gz0lW1+jXcWIdhZhoH0lwi0rEBGPtq5ErG0lorIs1lEkSrkIQwLqOGHdUSzvi5EUgI/0V2nXpoyvWUPS6UAX0iE7UoE+TMd9yqw8HCvIFwXhQz94CG655Ub1oz7yYQPhd8D++c9/4tlnn8Vf//pX/Otf/8r92pgxY8bes6YQ/uKtmAx2INJegpBANty6AuG2+deW5Yi2FSFsW46QeKRlJQZaBcxtAuh2gXWneIco5nZC2ALxoChnfs/vhu3VOh3ikKsJCU8b4q5WTA04lVl5OFaQLwrCRx55OJ56+nH1o4858j0LYcLvz3/+M375y1/i5z//OX7xi1/gV7/6Ff73f/8XL7/8Mv7973/nbrLD7I9//CM++clP4sYbb1QQL8ZYLkL8rSxfrvF4f/rTn/C73/0O//jHP3K/NmbMmLEdZpzAgVMZzkZ6Ee0oRaB5JQKNyxFuFgDbVihwCd5IG5VxmUKV7b4jWefUh44apMQ5+QND0vGucgSaiuCrJ7hLEG4vRbijDP62CribKpDob1Vm5eFYQb44CB91OJ75yZPqr4fwZQLhswTCn3rXQ/i5557D5z//eTgcDrhcLvh8PsTjcey3336499579fu3CnSE/cDAAI4//nitCBRqLM/zzz+Pp59+uuDz3BFG1c5Kw9q1a/Hb3/4292tjxowZ22GWVcKzkT5RsatE/RaLFwlEl2lm9HBf1fzMSoSsvHdVIdVfKV4uXoW0fJdx1VqZ1T2liIv6jco+CHNX9TJ4a1cKiIu121OosxKhrnqM+LuVWXk4VpC/CuEzBcLnC4RvNBDenhEsxx57LGw2Gz73uc/h3HPPxcc//nFEo1GFMlXqSy+9lLvZDjGqbq/Xi4997GNajkLtb3Jz3n333VpReCtguK1Kxx/+8Ad84AMf0IoDKxDGjBkz9laZDlt55y0Yd7crhIftTMyqFK/QLOmMADfjEXXbU6bfx7tLkbSXy3ec9rBauyxlRBFzeEtmS0c7yxTA/oYVcFXuCn8d25FLkOipxJCjHsOeNkwM9Cuz8nCsIF8chI8UCD/zpLqB8LHo6+vD448/jr/85S8air7pppvQ0dGBQw89VD9TqVIV83uGYwkhview6C+++KIuz4azCaxXXnllK9AY9n7hhRfwm9/8RtchPH/84x/D4/FshTDDvQxR8/3CNmIuZxmofhkGZuicZR4aGsK3v/1t3RePX0hZuK9tnQv3/fvf/173n+/65UKY++N6DFH/+te/1u14ftx3tvzbO972zje7PPe8eCyWlefFdd7onI0ZM7b0TJXwXTdjKtCGoe4KzXJmu25E24JXItbORKsKAW21qF4O3FGpYE4LiJM9q5DoKsFgWzHiXaVIyLYJdm8SkDMc3V+5GwL1RbKfYgz1yL5dTUj7uzAZdSmz8nCsIF80hJ8WANMNhI/VcPTPf/5zXcYH989+9jOFTSaTwY9+9CN85jOfUT/vvPOwfv16jIyM4Pbbb9eHP0FyzTXXYN26dYhEIgrHQw45BN/4xje0XZmQICA2b96M8fFxBINBzM7O4lOf+h1F0pwAAIAASURBVBS6u7u3QpjgOProo/HpT3/6NcqYsDn44INxwQUX4L//+79Vsbe3t6O0tFTLsWnTJnzpS19Sxb69shCY2zoXwuuggw7Sc/7pT3/6OoDlQpgQfeKJJ3DMMcfoNjwvnh/LRyjzvHke2zoez2V758uKC8vB87r66quxZs0ahEIhhMNhjQSwnAT2G52zMWPGlp5pm/CdN2LM1YBw064YbF8hMBZFzAxnR6mAtxJj7hqMOkUZ2wW0PUUY7ikRAJdimN2U2ouQ6CjBEJOwRCWPOMuREpUcbFoOT/Uy2WcJYrJewlGDhKsRSV8nJqJuZVYejhXkOwTC339UIHzlZTj3vLNw0skC4c73HoSpoL7zne/AbrdjZmYGjz76KPbcc0/09/fD7/erOj7zzDNVOVPhXXbZZapo2VZ6yimn4BOf+IRCIpVK4bHHHlMluGXLFt3fxo0bFTp77bUXenp6UFZWpsdnOagip6enFS7/8z//s7WMVH3cH2FNuDFETtB0dXVpezbh9MwzzxRUFh5jW+fCfe+xxx4ain/yySdfl7GdC+HsdeL+DjvsMAUtz4/ndc455yhACdRtHY/ntb3zzWaP87zYPDA5OSk38ok46aSTtBJD5bu9c6ayNmbM2NIyQviBL96M6ZANgx0rkOgWoLKLUlexuAC2dxVSDo6YVY4MQ9DymnZUYtRVo55xVaunHdUC4XIBdBlS9mqEmovRX70cYdsqHfQjYa9Fsr8ZSU87JmIeZVYejhXkCuEZgfBZZ+Kii8/HzbdsF8JPqBsIH6vg4HZ8qH/zm99UqPDcP/vZz+Kpp55SBVZfX68Pf0KCoVJCiGpubGwM6XRaYU0QEjxXXHGFQpLrU0kTmlRp2XUIfCrGpqam10CYSnLvvfd+HZQIMCpOKlke88ADD9R9smyEVCFlOfnkk9/wXHjN+P33vve9vO3guRCmQmX7NMPhVPr0Bx98UCs073vf+3R9Hn9bxyP0t3e+vC5cb3R0FMPDw/jud7+7NbzN77ju9s6Zy4wZM7a0jBD+CiEcbEasfRmGugTEvaJ2+4ox0l+GjKcKY75ajHlrBbYMQwuUe4pFBZch0Smqt4/haQExR9LqFdh2lwm8y+BpKoa9egXCrasQ7xVA99eLEm7CsK8d47EdEI42EH5zEK6srFRIUgW63W71I444Ymv7LUHC0DHbYLPdc6gUCVin04njjjtua0iVy6kkqdwYIr3vvvt02wMOOEDBROM+vvWtb+nyxUA4G7Z+//vfj2QyqeAttCwbNmzAD37wg7znkjWqRi7LDUXTciGcbedm6P6hhx7CDTfcoCF3XjsqfZ5DFsL5jlfI+TIMzfMi2HMT2Ao9Z5bBmDFjS8tUCd91E6Z9AmHbbojadsFgm8C4u0jUbylSzjKkBbIcKWuwYzniHcsw2L586wAebD9O9ZVjxFEh4C5HTNRzqHUFXPXL0V+3UtYrw7CzXhSwDSlfC5KBDozFdkA42kD4zUG4sbFR2ydPO+00VVHcB9saCSU+xBlmpeLKQo9GNffII4+gt7dXw6BUeFkjuBk6ZUj0uuuuU6VN5Ztdh5D7yU9+onDZHoSzWdRvBOFCysLyU+XmO5dCbCGECUoqUrbbUqEy/Mt9Tk1Nqbrffffdt0J4W8cr5Hy5/OGHH9bzYuh94XkVes48jjFjxpaWZcPRM0EbYq0CVwHxQAshXKLKdqhLlCwH4+jkQBzW6FixDoGrOJdFZVm8swgphyjjvlW6PGBbgf7a5fCLGo51VSHpbsKIrw0jfvFAJ8Z2RJvwoiD89BPqBsJWdjTbD/kgZ7LVQjVIkLCtdG5u7jVdgqi42LZJkDIRiKqNxu2oFAkAbnPXXXdpezDDsdnQaFbFESALITwxMaHQyqq3heuxkrAQwolE4jVKeHtloSpnyDbfuSy0fCqYthDCTIj62te+pqqXZWYYmvDktQ8EAnqMLIS3dbxCzpfHZMWBSprHzp5Xdt1CzplhcmPGjC0t03D0XTdjOtCKqEA41LQLAg3/hXDzMoSa2aa7UkfL4shZkVbLQy276Wu004JxlG3JvaWIda9CoHkF3PW7wdPA7yqQcNRjRFTwiL91HsLdSAR3QBclA+E3B+GFiVm5tj2QUM1xgA92OWIbKUO0999/v4ZJP/rRj+L73/++KkUCgQlUbG/lPi+//HK0trZuhXA2dMvsX4KIlQEuY+JRS0vLVgizXfioo45S2HE9nisVeyFlYTbzts4lq/qzSVe5thDCHCiE3bh4fzDRjKAjBBmSZlkZBt4ehAs932yiViwW0/PiemwHZ4WGZd3eOS8MYRszZmxpmE7gcPctmAl3aJekUNMygfBuAuAViNiKMNBaou+DAuWB1hUY0HGjSwTCKywYt4l6FjXMDOhg60r4mlbAKwAONnOChxqMuJsx4m0RJczxo9uR8ndhwPc2Q/gpATDdQPjNQ5gwuOSSSzR8ymQugokQocIjXKgWGdbmSFM8xkc+8hFce+21+pkwq6mp2Qphhne5nAlFhx9+uIbFOXAI26qrq6u3QokQuvLKK1Vdsy2U3ZOoQgml7ZWFynlb58JyMqGKCnJ7XZR4rX74wx9qRYDdrVihYLiYXZXq6upU3W4PwoWeL8+LCXKMVrB8zAa/6KKLcMYZZ2g5Lr744jc853wVCmPGjO3cphD+4i2YEFCGGnezhqts5nCV7CNcouNCB23LxJcj0LSrgJcjaZXoBA6EtkK5g+NIl8j3y+GrF3g3l2KouxYj/Y3IeG3qaT8h3ClquBcRr4Hwf+yLhTAf8Fl45LZZZo3wISQY8iSoFhpBxWUcaYvdbZhQRCeYbrvtNh2UggqT7b9UrwQDQ7hUbkz8YrcawoTlyPa7PfLIIzE4OKjdbpgBzc9UjKeeeurWgTAISfalJQTZJnv99ddrhWB7ZeH32zoXQpMJVTw2s6TzdVFiP2J+TwVKiLK7Efv9EoJMaiMIuf9sUtUbXbvFnC9/G2Y6ZxPneF7sH81ysNxvdM65lQljxozt/JbNjp7y2wS+uyIqCjfWJi6QjXeuRKKnBIk+TmFYqm3CqoYV0EWigq3krHCLKF/bSvgbLQU83FsnAG4Q+DZh1N8i3oa0r01nUYr7HKKE3+Y2YQNhq10x2x6bmymcNUKUMMkmauVaNkuYoGC7MtspuT+GRrMAyI6GxXA0u9kwo5ifqRQJsyzwsqNIEbJcj0qP4ed86xE+PBbbeXkO/G57ZXmjc6Fi5HEZGub6NG7Da8m2ci5nZYXw47F5LC4nCBly57bcN8tP5/7f6Hi0Qs+XrwQyFT+PRXhTWXP77Z2zMWPGlp5pYtbdTMxqUQAPtIjibdgFwQZRxaJsOWLWUBcH4ajCiL1KlTFnSLLC0aJ8G5eJMwmrCCHbKlHAHFWrAaMKYJvOJcwwdCbYiVTQAZ+jGwOBt7mf8FNPPaH+XobwjrYsCLdlWRBuDw6FrsdjbWu97ZUln+Xuj2Am2E4//XSFLxOmOPIVFWbWCi3rG1mh+8iut63zejPnbMyYsZ3PLCV8Eyb9TQpgzhUca2NC1jKEmlbAXy/vG1cgJQAecVYLlFfpkJR+WeZuWA5X3TIEbCUYaC8XAFcj5azFqEcg7GvEmIB9NNCK0WA70sFugbATzp4ORIM7YD5hA+F3FsLvNqOavOeee3QwDLYFf/jDH1bVmk/VGjNmzNiOsq0QFmhGbLuK74JI8y4YYCKWbQWCjbsh1MguS2U6T3CoiZMzFMNbbyVhhdtKMNhdiURfNYb7KhFpY//iSmS89aKELTU8FhIlHOnDUIAQ7kQ8ElJm5eFYQW4gvM5AeEcblSfbmhnqZdiZoeNthe2NGTNmbEcZE7MevPsWrA61qgIeIISbdkO4QRRu3a4K4YiN7b7L4W3YFb76ZQg2F+l0h0zI4gAdKUeVjhc91FcqqngZoqKWM55aZHx1SPvrRQW3Ih1xIODqEQh3Y3gwqszKw7GC/E1A+HF1A2FjxowZM7YzWXYWpUlvs6hcKuHlmngVaVkJLyHMTOn2YoWvu1I+NzEhq0jUbwmG7at0wgaOqMVpDRMMV/eUwS8gTrkqMRaoR0YgzJGyhgJ9cHZ3wNnXg/RwXJmVh2MFuYGw+EEH7m8gbMyYMWNL3LJdlDhYR6hpOdw17KZUJKq4GEG2B4sK9jfsBlf1rvDWLEdIvhvkrEiieoftTNiqEABX6lSHo6J+0+4aJBycO7gSE2FRwN4mJD2tiPt6FcIuRy/GRpLKrDwcK8gXDeEnBcB0A2FjxowZM7YzmU5l+EVRwoEWVcDOqv+Cr3aZdlOKiKINNO6K/spd4K5aJiq4GJGOYsR7LQin7BXi1rjRGYHveKAJY/4GfR0Vnwizf3CzKOF2DPmdcPV2wdvvwPR4RpmVh2MF+eIh/OTj6q+H8KUC4S0C4eMNhI0ZM2bM2NtuqoTvuQUzA22I9ayEt2kXUb2EcBGiAmJP7S5wVu4matgaLSvO+YQ5k5KzHJn+KnXOOZxxVWHC34jxYDMmQjYF8HioBRmfDcOeNoRddrj6euD3uLB6ekKZlYdjBbkF4SmB8BkC4fMEwjcYCBszZsyYsaVnL7/8Nzx4z22YjrTreNAc9YrA5ahZ/oZd4RBl7K5boUNXcoQsndjBUaYh6FFPNcZ97JJULUpYIBxswFiAXoexYP08iNsx6GxBf1e7QLgXIb8Ha1dPK7PycKwgXzSEH3/8R+oGwsaMGTNmbGcyQviBu28VJduCYEOxwLdYh6v01e8GV9Vu8NYxM7pEB+gY7ChCsnuV1QbsqcGYrwbj/lqdb3jUW6MQ5vIRtg97BcSBZowGWxF12ODsbofbYUck6Mf6tauVWXk4VpAvCsIf+MDBuOqqK9SP+siHDISNGTNmzNhOY9omfNfNyDhtGGgpF9iuQqSlCI6K/wd7GduEixHvLEO8qxiJ3hKkHKWqegldKuAxn+UTon7H/Q1I97N9WFQywexvQsrbhJirTZOyPE4HYpEQdt+wVpmVh2MF+aIgvN9+m3DwwQeqH3HkYa+B8BUC4XPO3YITTzIQNmbMmDFjb79Zg3XcgtUDnUjaKxBuXQZv/TL0V+0qKphdlYo1BD3iKMco4eqpUh/pL0fSwf7AstxTgQk/ocxRtUqt5e4aHTVryFmHWH8b+ns74XP1YzAawZ67r1dm5eFYQZ6F8BaB8IUXnYebbn4thD+1EMK7b1yL/n6H+oc+/MF3GYQfMRA2ZsyYsSVsOljHPbdhTbwH8e5VAuBdYa/cVduBI61liIoy5nJNvFK1y9mRKmTZCoEzR8cqUadCTjnLNGkr0cf+wxWilhsQ7amBt70G/T2dCHhcGBocwKY9Niqz8nCsIF8UhPfff28cf/wn1I886vB3FYS/9sjDAuGXc39TY8aMGTO2REwH67j7VswN9cJvK0Jr8X+heeV/wV69AqG2EkQ7VwlkyzX8PB6o1+5H4956BXGitxiDnSu1a1O8s0jUcrGo4Uqk5Luksxwj7jpE+2oFwrVwiRIOet0Yjsew9167K7PycKwgXxSEDzpwPzz99JPquYlZSxnCBx6wHx5+6AG8/LKBsDFjxowtVdNw9D23YDrSCV/jCnSU7or2VbvAUcvpCTlbUrG2B4+I0iVgJwINmAw2YIIJWV4BrrNUVHExYh0rMdy7CmlRzBmGpT3VSLrrMdBTiWBfC1z2bs2MTiYGsfemPZVZeThWkC8Kwhs2rPnozNTEPXOrp+/78BGH/WupQ3j9ujXqhPBDD3zlP4Jw7kxChRjX5ZjK9MVsZ+zts+zUi3Qz05IxYzu3EcJfuutmpPubNRO6v3o3OKsZjubsSKJyu0oR4whZPaVIOcoVsKM+Zj+zfbgCaXepgJfONuJSJPpKVAmnXDWI99Yg3F4FT3erQLgXoYAPqeEh7LP32wjhhXbkUYe/9K6B8P5yHl/5sqa3L8YIXc5fy4kKfvzjH2+d85fz5hLo2wMr26A53+4PfvCD/6gC8HYbYcTz/uUvf4mf//znOl8vJ2rg/L+FnHehVuhUhW+lEb7nn38+zjrrLJ2b2JgxYzuvZbOjRwTCzIjmsJWe+t3gb1qOYItAuL0Isc4SUbll1gAdhLBmRtdoFjThO9JfhoyLQ1dWKohHXBUYdtQIxMvha61Cf3ebQjgc9GMkmcC+++ylzMrDsYL8PQ/hDeIH7LtJlPD9i4Iw1eszzzyDE088EcPDw3C5XOqhUAh77rknvvSlL+mk8W8EEE5cf9hhh+HAAw9UcC8VI4w+//nPw+Fw6Dn7fD7E43Hst99+uPfee/X7NzrvQozbE4BPP/30O5owx99l3333xe67747f/e53uV8bM2ZsJzILwjeJom2Cq3Y3uGqWiRLeDfbKXXTO4EirQLijRGdL0gE5/PXaJSnt5mdCuFLbh8e87Ctcp/2E0+IJezV8jaUIttbqQB1uRx8GQgGkU8PYb59Nyqw8HCvI3/MQXr92DvtsXIeHvnRvwRAmIKgC99hjD3R1dWHjxo2qlK666ip88pOfVCjRb731Vrz00ku5m281Tvd322234YYbbnjNhPc7g70RRJ999lkce+yxsNls+NznPodzzz0XH//4xxGNRhXKN9544xuedyHGOYnvvvtuBftvf/vb3K/fNvv973+vv/Pc3Nw7Wg5jxoxt3wjh+267CZn+FgQai0QFL4O3YTnc8upvWoZwK9UwM54rdLpCDlFJFTzqtkbJYl9hApnh6RF3BdJea/akEU8TIm1ViHQ2KoQ9Tjui4SAyI0nsv+/eyqw8HCvI3/MQXjs3g/XT43jw/rsLhjDhefnll+t5HnLIIXjqqadU9b744ouqbm+55Rb09/dj3bp1+PWvf701bE2FSNhSUTF8mw1l07Pz7RJ+r7zyiu6H6zDcy++5H0KAx+H+eCzuh6Fgfsd9cTmNrwRl1vk9Kw0ECuFGQPI9t+W+uU62vZPb8juuvy0FmoVwX18fHn/8cT0nhqJvuukmdHR04NBDD9U5hHkuC8vJ8+F58fyykM93bbgurymPMTQ0hG9/+9t67twXrxP3vbDM2f2wDNm220KuI9fjOf7pT3/aeo1+85vfaFmy+zYQNmZs6RghfO+tNyPZZ4O3foU1X3BLCXzNK+FvKcZAdy1CrZWihsuQ6GW7bxXGPI0C3wZkXAJiF2dRKteBOibDrTpU5VjQhqSrXlRwCYId1XB2t8Hbb9eBOkbTKey/3z7KrDwcK8jf2xBevwZzs9OYyyTwwH1fLBjCfDATsE6nE9/4xjf0YZ81PvwZwvzwhz+M3t5e3H///br+Zz7zGfXzzjtPjrseIyMjuOyyy/Cxj30Mn/jEJxQsNO7r0Ucfxfvf/34N8TK8HYvF1Dds2KAqkzC58sorMTs7i0AggGQyiRNOOEHhlQXwpz/9aRx33HHq4+Pjuh8qdirv66+/HnvttdfWffP4hA/BQ5AddNBByGQy+OlPf5pXEWchzHA04UbjemwPHxgY0G0JNZ7TNddco9cqEokoUFlp4TXLtoFzX7nXhvvguVJpl5aW6rXatGmThvi536OPPlrPj9tmjdf44IMPxgUXXKCA3d51ZIWBwH7iiSdwzDHHaJmDwaBeK6p7HofXw0DYmLGlYwrh224UpdskEGZGdClivbVIuOqQ9DYjE+rFiLcTSbcNif56RHuqMNhbgyFZZ8RRgxEnlXE9Mt4GjIdaMRlp1/Gih/sbEGwvh6+tQiHsWQDhAwyE37xTCc/NTmD1SGxREKZi4gObD/N8D2aqTarh7u5uBQthxnZiqmO/369K8cwzz8QDDzygbY0ET7a9kcrtqKOOUmidfPLJGuqdnJxEfX09TjrpJHz/+9/HpZdeqvsiMAhDwpWqlCFhqjqCg2VraGhQ+LDdmc5KQ09Pj4aMuQ0BzX0zpM59UuGzAkHoMLT85JNP5s0IzgdhQu873/kO7Ha73FAz+MlPfqKVDI/Hg7Vr1+KUU05R2IfDYaRSKTz22GNbVXfutfnsZz+L0047TYHJsrH9+eqrr9Y2eF776elpDVMvbEfncu6blRqWb3vXkUqbEQGWmcfn9WFFgNeF1+icc85RmBsIGzO2dIwQvv+OmzQxyy9KONhUpOFnr205vKKGB3qrkPK1YDLah4mYHZlwL9LBbqQDncgE2+U7G4YcdYj1WP2Cx4ItGA23IS4Q9reWw9taBWeXKGGXA4MDYYxmDIT/I1+3ZjVmJ9JYNxrHQ/ffUxCEqfionqhyDz/88K0KdqExZPqtb31LH+ZsIybM1qxZsxUABAZVGBUtIZx9wHPfTEQiOKkYqWwJ1WuvvVZhdPbZZ2v4d2xsTBXwV7/6Vd0Hw7Wjo6Nwu90KF+6Lx2tra8Ptt9+uICEsP/KRj6CmpkaPyf1w3w8//LACnOfCz4Qp9/G9731vm+26WQjz/DjcJ8v5zW9+U0HG354QzZYznU6rImWIl+W44oor9FwIxuyy3GvD5SzvAQccoOqZ5WEFgWWjQmXlY++9934dhAlxqlqex/auYzZ5jBUmXi9WgugPPvigVi7e9773KcgNhI0ZWzqWTcwadTcibOMwlUWItK6Er2EXzZIe6F6FIVG7KXctkq4qxPpEKfeVI26vFIVcj2FXPYbE4/11CuPBvipRwbUId1fDUV2C3tpSODoIYadCeCwzIhDeV5mVh2MF+XsawmvmZjCWCGNNOiIQLqxNmMqQ3YoIYYac+XDPNSo8QoyQojrNQpjKmMDMtv/mPuCzEPZ6vRpaZXiXIGBIlwqTypJwZ7srQ7ZbtmzRZYQKw6mtra0KEYKZ6npwcFABlG2bZQib255xxhmq8mhcl+FeZgAzFJ0t/xv1Xc5CuLKyUpUmVTMrAPQjjjhCy02lS+VNtZ0NG/Pa8VpQiVOp8/yzEM69NjxvhpIZamcZs8aweaEQ3tZ1ZEWA14Pl4XXg9w899JAmyG3evFnPg+F67j/3NzJmzNjOa9pP+I4bkBblGu2oQrS9CiFbMfyNyxFuLcWQADfhKMewswLJ/kok5TXhKEPCXqo+yH7EneWIdZVrCDrhZFJWM0Ld9eiuWoX2qmLYO9t03Oj4PIQPNBB+c85Q9JrVU0hHXViXDuKhLxUejibYmP2cC4Kssb2Tmb2EMEHJMCrDnFSGC4GS7wHP/THUSjVG0DFszXAuwcO+yIQFVWNtba2CmEqRbZ4EUCKRUGXLRCSqXYZts/ulqiVkCCFmbVMB0gi1iYkJhXC+c8lnWQg3NjZq+yxDxwQbVXG2r/AjjzyiFRWGoan6s8byMCzMa8Fj8xrkuzaLhTB/E0KXEGb53ug6EtDZhDC2IbOLGUPZLMPU1BSampr0+hkIGzO2tEyV8J03YdzXolMWBpuL4BMA+xqWY7C7XKBbJc7M52qMuOiidB0cI5qJWqUY7ivDqKsGGVetvK9EvKcCKYFxuLcJ9roy+Ntq0N/dLhB2Ih6NYHw0/c5B+IgjD39lyUN4dhLJQDfWDHvw0H13FQxhhi3Z7slw5w9/+MOtWck0qkcqMfYfJoTuuOOOrd2Zch/k+R7wBNg999yj23L/hAEThQg4qje2CfP6UknyPfeddYZqCVuWL3e/XM6kLkLprrt4rlZiFKFGKOZCeFsqmLYwO5qKl5DNZi5zOypMhqN5LIaDsyF7fscKAmHHZC2WM981oGUhzIpFLoRZaSC4uS1tYXSClQKW742uIysgDG1/7WtfU9XL/TGCQJDze4b6WSYDYWPGlpbpsJV33YzpYAtiHUUY6ChGwLYcwdZiJB0cGasBo74GHTOar2mCuL8cKQExJ3ZI9JYpmNPuWh0liz4k2zkaitBXW4b+pmo4uwTCbkJ4wILw/m8xhD/18Y/+n3y29JXwHOamxjDkasNkpA9fvvt2Hfy7EGNXGiooKl0mGzGcyWUEEQH85S9/WcO0q1evVujkgyIt3wOebZVsU6XKZXsuIU84cDlhz/0x/Evly7ZWHpPO76nstpXRWyiEs8lSPM7CrO+Fli8xK9eyipUqnQqe4GPol9niDFN/9KMf1f3kKyuN15GJVQQiAcuuRCwbryXD1wQrl/PcuQ+G5VtaWrZCeHvXkdeDGdK8V5lpzf2yssBoAffDSo6BsDFjS8tUCd9xEyZ9NkRbixBtL0GgcRmibSWidqtE1dYIYOsw5m/CuPiot16nNEz3ixLu4SAeZTpeNJenffXaThztrUZfTTF668vQV18Jh0DY7+7HUGwAYzsUwqfPQ/j6wpTwayH8nXkIb14yEGZS1lQqjri9AVOhHnz5i7cWDGGCjg90thsyvEuAMfuWGbxUwHzwM7zJ7kDZPrn5HuT5lhMETKBqbm7WbjmEFZO72J7JsDYBwxA3j8vv2V+Zbb08LkO/2wJboRBmOJlJSVSri+milGtMpLrkkks0RMyELQKPoKTqJECpQgn5fGWlZduweZ5sV2b3JF5zKmReDyZYMZmMYXC2u7PSU11dvRXC27uOPH+CmZBnVy9eR2Zhs229rq5OlbaBsDFjS8uyw1ZOeG0YaFkp8C1GsHmFTmGYtBPAAl2fADhgw0SoBZNBefU3YtwtqrevVGBcgTEO3uFtRFo85WqA31YOT2MF7E3l6Korh50Q9vTrNIbjY2mde4DMysOxgvy1ED73PQLh9dYgHZmYD3FHHVbHevHA3bcVDGEaQ6/shkMVxcQmdsVhaJMAJtDY/YjqmBAjOAgMhmazyU+03OXcJ1Uju8wwgYqhWAKSypfAIwgIIqo2gpjf87js3sMuUwQNFWTufmnZdmpmK7Ns2YE4CJr9999fgUVw8TMrF0zqYlZyvi5K2WErCayFoeKFxvPmsVk5Yds0lTudwGPlZHvXhsdlJYCJVQQl223Zvznbt/fII4/UMvL82S7Oz1TIp556qp7H9q4jw/eENduK+fuxssDvWWFgedi2zP1sq3zGjBnb+UynMvziLZgKtiEmKphKmFnS8e5yATBD0Y0YC7QIgNvFW8VtonxrMNRTikjrcgx2FWOot1S8HEN9lRjoroS7YZV4GXrqytBeW24pYYFwYjCKibEMDjIQfjNOCE8jHZEL6arH3JADD9xTeDg6awQFgUQQsQ2UGdFUhnxYE3JZFcnwJx/mXL6w/Th3OffFbjoEKkOoBC6VKjOKGVqlKqSKpaplaJchY07+wL6uTDbivrif3P3SshnS3B+3X1g2gpfA4XuqU8KPod5s8lau8bwJMO4rm82cz7LZx7w+bDvmNeI23O/2rg2N+2bZuB1D7zwm95kdNYvl5KQZvObZ/tEMyfN9odeRUOd1ZPs698eycN/Z6/FG5TNmzNjOZZodfefNomZtqoAZio60FIuirVNlm/E1YyLcgUlxQjjjrUO8rwxeWxH6KnZFuLUYg92rdHzpWMcqhDsEurXFsNeVoqmsGC3VhHAHAh4XEnED4f/ABcKrp5CJOJB0NWIu4XxTEF5ohAMf0vnCt4UagcOsX4ZWCXRCmZAgZBhyJTyY6LUQjllQ/CfHzbUdcS65xn3mU9WF2LbKw8/5li/2Om5rP8aMGVtathDCIU5dKFBN9HAs6AZRwDaMUgWH2zEmAE77mjDkqECwoxS+1jL0Vu6GoMCYkzsk7RUYFo/3VaGnegXaKlagvqxElHAtnN1dCHjdGI7HMDFuIPymfN2aOcxOjGAk0KEx/zUC4QfvueM/gvCOMIKC3X0YXmZIm6FVhp0/9KEPqarj4BVUlQYWb2zmOhoz9t60V8PRrRhoW4FBUbQcHzrjqceo34YRUcJpb7NOyBC318LTUoZAZzUCbasw2FmmUxwm7asw0l+KpHOVQLhUlPBKdFWuREPZKnQ01MHZ04Wg14PhoUFMjo8aCC/WtWvS3CxGExGkvO1IuZuxdtiNB++9o+AuSm+VZTObmZDEdki2cTJBiF11OKct26DfKPxrzDJzHY0Ze2+adlH64s0CYRtiAuGBluUY6i5HSqCbdDch2lODge4axLprdWpCb1MZBtordTKHEVHFdM4znBQIR3tXiELeDa6GIjjqytFcXoG+5mb093Yj6PMgmRAIT4zhoAP3V2bl4VhBTghPC4Q3bzkdF1y4CAi/tp/wd3D5FZfi7HM244QTlwKEZzAa9QiE2wTCNqxL+vDQfXe+4xCmUZ0xs5jtkGzHZEYu2yOZyGTaJAs3cx2NGXvv2dZ+wqFWRATC9GhHKQb76hHsqERXxTJ0V65AX+VyeOuLRS2XCKSLRf2WWfB1cECPcgyJGo72lCDQXgxnTRHsNavQU1MFR+tCCMcxJRA+eEdD+KYcCG+rn/CShvDsFDJhuwC4BSmXKOGEV5TwzgFhY8aMGTP25izbJjweaEewrQh+WxG8zSXoqVoJr61SvBy+5lU6klbIJkq5dQWGukqQ7BMl3F81D+EKJOTzIDOmO8vhql2F/royOBoq4WxrVAiHBMKptwnCJ5xw3DH/J5/lhqOXCoTXrZ3D7PgIUr4uDPc3I+FswurBfjywE7QJGzNmzJixN2/WLEq3IOPtgLehGK56AXFbudX221aGUGupKONViHcWixeJCi5BomcVhtRLEe+yXocdVUiID3SXw839NJajs07UsK12HsLetw3C2wxHL0UIrxdfOzeLiaEQUp42ucgNiHZXYyrSh6/8h9nRxowZM2bsnTU+w++/81aM+rvhaypBQFRvpKMcA13lOqVhpLUIA20rERMf7OCIWisRbl2OSPsKxLqKMSgQTtgrkeyvxbCzRrZju/FK9DeUobu2DD1NNRaE/RaE2SZsILxIX7t6BqMhO1LORp3IeaCzEuPBHnxlEcNWGjNmzJixnc+yEJ4M2hG0ifK1cRCOUgy0st9vCSIC33DLcp3ekDAmlCPtxYjOwzch4E1yOkNHDQbtVQh3lmo429lQgd6GKvTaGtHf14MwITwsSnjSQHjRvmZmQi5yK+LdlTplVbitHKOBbnz5i4sbMcuYMWPGjO1cZoWjbxaR1QJ3zTL4G1YKiIsQaFqOkAA3JPANtvC9wLit2ApN9zAbukbDz/HeCgz2Vqk4G+ytQaijDN6WMjjqS9Fvq4GjvRGueQiPDA9ZED7oAGVWHo4V5O8pCK9buwZTmZRc3HpE26WG1LYK/pZSJD1dUnsyEDZmzJixpWx8hn/prpuRdtsEtMUItKyEv4lTGS6Dt46DcaxAwMas6WIRYRyesgzDjgrE7RWqhgc6SuW1CtGeKu1HPOioRbS7TtRwFdwtNXB1NMNlFwgHfAbCi/Vs/+DUQBCRrmqE28ukJlQGv60UI95uA2FjxowZW+JmKeGbMNJvE/VbhGBzsc4l7GtYAXfdrgi1MAwtCri9WJOw4j10AW93KWLdZQLgMlHD1QJmTmVYjwxH1XLWI9xZA09rLbw9bXA7erdCeHpyHO8zEC7MCeE5OdGEpwcD7RVSC5Kaj3i4vRKj/h7cf5eBsDFjxowtZSOE773tRoGoDf7GIoRbiuERFexrXqkKmPMLxzpLEO0oklfONyyqmAla3VTApYgLiFP2GoF4LTKeBoFwIxL9dYj01sHfWQ9fX/urEE4mMD1lIFywK4SnxxFztAl4q6TWU4N4HxOzajAa6NXGfANhY8aMGVu6lu2iNObpECVcLBAuFV+lzY/hVs6qtEpEWAki8x5qLxIvRqCtCBGB81BPmQ5zOeKsFgg36ljTw55mxOyNCHTVI+joFAj3vRbCBxsIF+Tr167GVDqBuNOmkzQz3k8IRzqqkfZ24747DISNGTNmbCmbQvj2mwWirfDXF2Gwo0LAW4ZIWylCLSUI2koUxsHWYvibi+CuWwZv/QoE5H20o8RqI7ZXINlfjeH+Gh1rOumzCYhbEOxpgN/eAY8o4UjAQHjRvmb1NDIDHgw5GjDYW4tYVw1CbZXwNUvNp79dIHzLm4KwmYHHmDFjxnYOy7YJj/ksJRwlhDsrFLjsN+xvLoW/aRU89cXwNqwSAJfIeqKQ21ZhqLtUZ1BK9FYIjCsQ75FXEWvD7iYkPDYM2Jvg7yOE+xTCaQPhxfma2Wmp0XSLAq7DoCjgYFsNvI0VcNVJzcfZtWglzHl3OWUe5/HlnLacFIDjE3PavDc7Zd9bZSwP59nlRPaczm+hczYhnosxY8aMLXWzsqM5YlarQJdDU5Yi1laBmMDY11wsz/sVcNQug6eB3ZY4fCX7DjM5qxLx3ioRZ+WItAuoRTEHZNtwu4DYUYdhlw1RezOCqoQFwkH/PIQnDIQL9TXTE1KjaUNMLvZAVwW8tjL0N5TC01yJtJdtwoUP1kFocRL4/fbbD263W6fM8/v9mJubw7nnnqtT6e1MxorB5z//eTgcDi0ry5z18fFxndTeKHljxowtdeP4/1+551aMhdpE6S6Hq3olfI0lmpjVX7McjoplcNetRECAHGopRqRVINwqr21WqJrfuUQlu+uZ0CWQbi0XkSZq2NWMQUcbgo7uVyGc2ukgfMk8hD+5U0GYCVnr1qzGRHJQ24MHu2ulplMJn0DY11qJQHs1RgN9UnsqPDuas/F88IMfRE9Pj85Re+GFF+Izn/mMLrv44ovxwgsv5G7yltsbQfTZZ5/Fsccei+bmZpx00kk477zztvo111yz01UajBkzZuzNmDVi1s2I9jWis/S/4KxZhd6KFegR+NqrRAVXsKtSscC1VJTuSlHCK3Ugj0Az+xMXwyvAZrdVOsUafbi/Hgm3sMPVjqCTELbPQ3h4B0P4tHcvhNeunsZIoB8Je6NAuFpHyQq0ViAkAA62VWEsKBD+YmFKmKHdxx9/XBXl2rVr8cwzz+iUeVSbnDaPQOM6hOKLL76I3/3ud/jFL36BX//61xoSZvsxv+eUepzzlutkAco5bgl47ic73V7ufqha+T3VeLY9mvthqPnvf//7wqJutSyE+/r68OMf/1iPnXXue2cLnxszZszYmzGdRemumzEaakdX9S5oKPq/aCraFR2lywXIxaKGi+CoXgFP0yp4BbqeRlHIdcsFzCvgayKcyxDrrkK8jxM41CDhbMCQswlDrhbE3R3w9XUqhAcEwhmB8MxbAuEvvMsgvNaaujDp7kKihwlZbKgvx0BHBcIdVQLhynkIF6aECb6nnnoKPp9PJ4lnO3CuCuXnP/3pTzqp/OzsLAKBAJLJJE444QQFKeF32223Ya+99sINN9ygnwngJ554AgcccACOP/54BSf388c//lHV6rp16xCJRDA0NIRDDjkE3/jGN/Dyyy8rtA866CBkMhn89Kc/fV1ZaFkIMxzNdmBjxowZezea9hO+4yaEehoVvvXFy2BbtRz99cVw1jEkXQR/cwl8tlVwi+rtq1kGR61838AxpCt0oA4O0pFwViPBoSxddYg76zHsbUXC2wVPFsKhADIjAuFpA+ECfA3mpsaRdLWJEma3pGoM2msQ7a1BuLNSIFwhEO4tGMI0JmSxPZhwveKKK1SFEqRZRUllzOVUy2xzJQA3btyoSvTjH/+4KlkmclFJp1IpTeyiUj766KMRDAZx55134m9SFu7nsssug8fj0XVPOeUUfOITn0A4HNbtHnvsMa0E7LHHHohGo3jyySfzqtqFSpigp/rNOkGeD9zGjBkzttTsby+9hDtvulGe7S1w1RbBVcPw83LYq5ahu3Il3A3MkBbgdpRhQMSYn4N5NK1AQF4HeyqQdFQjKQBOEcDOKgw5CGOBsIcQ7kF/j0DY6UA0HMToSFIgPIlDDj5QmZWHYwX5ux7C69bMYnokrklZCWezXNBmqdk0YbCvQX4EhqPLddqrxUCY4LrvvvswNjYGu92OmZkZXHDBBapE+R2BSvgS0l/96lc1A/nb3/42RkdHNRmKSvoluVnuuecehEIhVb9nn322qmuqZapbgpH74THS6TQeffRRDXkz9EzAd3V14eSTT1agc3/f+973dJ/5LAthm82G0047TRU6nQr74YcfVuAbM2bM2FI3KuH77rgZE4FOJPpKEesqgauaCVlFcNbI+5piTcoKc9COzlJ5/q8UEC9DpK0I0c4S7Z7E0bJSrhoBcKUItkrhhbz3tCDuEQj3dsLb70AsEsJYOoVZgech79sBEJ6ewpmbBcIXbAfCBxyw75p99t7zX+9//0E44sjDdIUshC+7/BKcdfZmfOqEnQvCbA8ejwUw4mlHyt2CZH8LhuwC4Z56Hagj1FphQXgRiVkEJIHHtuETTzwRsVgMvb29Gnp+8MEHFYgdHR0YGBjAli1bVM0SsgwZt7a26jpsv2XI+tRTT0VTU5MuX716tXZ5opql/+hHP4LT6cRxxx2nIKVxORWvy+XChg0bFMpsF2Y4e1uKNgvhsrIyTSbjtnSq7qOOOkrLYcyYMWNL3fgMf0AE1epIF6JtyxBsXo7+2pVwVK+EU5Sxo4rvl4vypRouQqhtucC3SOcS5jjSSXuFqOAqDFMF2zmxA6c3rMWQcCPq7FQl7HM5MTgQxlgmjdUz0zsUwucLhG98IwiHAp7jvv71r+KFF57DMR89cklAmP2D0+F+JL3tSAiEqYbjooKj3bXzbcIVyPi7BMKL6ydMI/yYbMUQb7YL0D777IObb74Z9fX1qK2tVRCzHTcej2s3pkQioeqTECY4v/Od76C7uxuVlZXYvHnz1kxlJl498sgjCneGoRdmMDMEPTk5qSr5N7/5zf9n773D7KjNPuzvv+973yQ027teb++999772uuyxR1MKMYFG2MbMBjTA5jeew+9Y9Ns0zuBEAhgSgIE0kMKEELa+3y6dVbLYXzK7Hr76nddus7uOTMaSaPRreeRRur/3p8MhLkvjzzyiPzsZz/T4a233tKudNJhZWVlNd6lX1FSEG7OS5TsGd+T/Oj9pSwpVL9+lK9d0wdoKDMhq5L9hFP3UxDeT+rS95cGBWEW62hWFjAQrstmMwcF4dxIqS9IkprcFGUJp0tpYZ7U11TJrI526e4aYQiXKQjfdNMN8sAD98kxx64fBxBmvehOaSrJ1HsIA+C67GgN4GpWzEoN0zeoTUF45yAgbIR1CsxwK+Nuvueee7QljKXK+8T8ZgIuZqxozmHS1dlnn60t4eTkZHUj5mor18ygxtIG7EzE4liEtcsMaQDMZC1mTZvv/clAGNc5LnPiN9cIdJ6VlZXVeJJerGP7g9JZkS/5UftLaewUqU0L04txlMQeoCHMalklLNbB2HDy/lKdzPKWU6QhbZo0ZbJiVqheMauOz5xwvVBHQ1Ga1BVlSIGGcL401FZLp4JwT/e8kYfwoYf+UFpbm2X9hrVjGsL6/eD5PTKnvVnqClOlLjdWA7g6I0Kq0sI9VnDSdClNDJXWYvYTdgdhoMUYKi5c3gcGqEzKAp6MDRcXF8uuXbu0BYzly1iumQTFmK55TYk4mICFS3jlypX6nV3GhHE9M/GL62DlMraMFc2rRZzDNXfu3Knd1Mcff7weE8YlDZj9rXxlZ0dbWVlNBnlWzHpAZpWmSYWCbHnsD6Qyfj+9gUNNaqgUx+wnJdEsyrG/+vsAKYvdX2qSlMWbyqpa0xSsQ/UmDo1ZIdpNXZ8bIc1FqdJcmiX1JdlSkJ0hZUX50lhXI50zPRBeveoIzSwfHHMVBgHhg6WlpUmOXj/2ITy/p0va6iqkJi9OqjLDpUaFyrQZ2gLm1aSyRJYyC5GWQgVhl8tW4kZ++eWX9Uxm3Md33HGHBujy5cv17OOTTz5ZW7yMBWN5Llu2TG666SY9EYrxY1zLgBOo4lJmnBhQA9zNmzdriN91110a2sD9+uuv198dddRRcu+99+rx5c7OTj2h64UXXtCuaSCOZWxfUbKysprMwh391OMPSk9dutQpiFbEf19B+Ad6cwZmP1enKBBjIcdPkwL1WRC+rwL1FKlMYHcl9hT2rB/NJg516m9mRreUpmsI15VkSWFOlpQXF0hTfa10zmrXe9SPKIQZE96wYZ0ccsjB42JiFu8H03upSFfgZe9gAhYwK2YpC7goLkQKYqZIQ36KPO5yAweszVdeeUV6e3v7l6zEKgWKmzZt0q8ecQzWKSBmDJhXjDgOqxfrlXeFL730Uv2aEePHABfrmLHlhQsXqvI9RLutcRczU5qlMHFVY1kTmADGe8ZmwQ/eN66rq9OzpH29omSWrQT4zNS2srKymoj6p4LwMzu3yYLGbGnNnS7NOSFSx37ByWzmoECc5VmsqSDy+5Ib/gMpiGDFrCnaQq5I3F/q0qdJQxYwVlwAxgUxCsBp0lyWJTVFmQrCmVJeUiTNDXUyu7NjFCBcUbJl69Yz5ayzzpCNx6wb8xBmPLihIE2Dtyw5RMqSQvTOSbigi+gJxUyV3MgDpD7PPYSNOxrLldnLWMXMhsbCxEVtVroChriOcRMzCYoJWMx8NqtdYZ2a8WFjvTJBCqgyzmtcyyYe4Ml7wYwTc23SwHkchwVMWvy9akQcXI/z7CQsKyuriSog/Nyuh2VBU66yaHnvd4Y0ZIRIfTohVEE2VJqzIqUkZl+9mUNR9H56tSzeJS6N209Zw2zmME1ZwVOlkfOxhEtStDVcU5CuIVxRWiwtTfUyZ/bMkYdwVVXZlhtvuk7uve8uOebYo8c0hFkvenZLg15DtDRxqpSwSkrcVCllzWgVimKnSX7UFB2a8lMHvIsSAm5ALdhWhmYiVKBj3Mi8uuQU3w1F/FZWVlbjWRrCTzwsi1vy9etGTVkhUpt2gH7/tzknUmqAbJoyxpKU9Rur4Bv9AymNVzCO+YGUxO4j1clT1DEs3DHVYwnnRUpLUZICcYZU5qZpd3RlWYmCcMPoQLhGQfjBB++TV159UY47bsOYhvD87nnSUFYoZcoKLohh+6p91Of+UhjDeqFT1acK0VPV3wMbE7aysrKyGpsCws8/sV2WtudLa16YsoKnKAt4f2nLDZf2gghpyZ4hrdlh0pI1Q8oUD4qj95XKFHZMUjDmtaWE/aU29QAFYGU55yjLWYG7kdUWi9KlJCtZCnOz9OYNrX17Cc9Xxt7qVSs0s3xwzFUYGIRrKrbs2PmofPDhbjlu09iEMBOyCD3zZktFbqrkxU2TjBn7SSYvaUeyfuj+Khwg+cyQYyvDuBBpLcqwELaysrIa5zIQXjarWGYWRUtrQbieaNXIO8BZodKSM0MaM0J1qEg4QEO4MPL7CsD7Slk8uyn9QKpS9teWMK8o1WWzdGWs1OQlSmFmst7GkM0bzA5KFsI+ggfCPdI7Z6bU5SVJrrJ2E6ftKymh+0tO5DTJjZgqOeFT1OcUKYia1m8J73A5JmxlZWVlNTalIbxLQXhmsXQUhsvM4igF3+lSk+yxcJtzwtTnVGnIDNXu6XJAHLOvlChLuDjm+1IQ+T9SGrePHhtmNnUtIFbHVefESn6GB8I1/Zs3zB4dCO8cBxDW+we31kttbryUJE5Xlq8CbwTjv9OkMDpU8iNDFIBDpJCg/m/Jt+5oKysrq/EuIPzszm1yUEeBAnCktOVj9U6R0ujvSa0CKxO1KpP2kxb1yRrRjdnhejWtgugfSPaM/9WBSVpVyWxpGKas4enKGmbDnxgF4RQpysvRmze0tzZLl4Iwa1EcOZIQrqurGhcQ7u2eJ/XlBVKRESHFiVMlL/oA7Xoujg3VoSgG+AJkFWKnSUtx2qCWrbSysrKyGjviPeFnHn9AFrdkS1tBmLJ4D5CqpO9LTcJ++jWl+gzeFWbSlWr388KkOS9CypKnKUNtH8kJ/75kh/2v5IT9j2LEflKRMk2qM0KlSp1TmRklOekpevOGuqoK6ejbvMED4ZWaWT445ipMSAgzHlxblC7lqdOlOGGq5MdM0ePABQq4xfEKxHGAWP0dF6L/byvJHNAGDlZWVlZWY0+04c88dr/01qZIUxaLcPyvVCd8T+pYnjJxX/U5VcO4IXOasoJDpTk/QupyZkhR/H6SrSH8Pcma/r9668PC2AM0oMsUR8oyYiUvM1WKCzzrRs9sb9WbN4w4hBsagPBjASB8kYLwSaMKYdaL7p4zS6pzkvSylGUJoVIKdGNDPPCN5fUkTyiOZ9nKMGkvzVIQfshC2MrKymoci60Mn3r0XplXGSNNmftKZdz/J/VpygJO49WjvteTEvaRCr2K1gFSl83kqzApVZZyQdQPJLcPxBlhP5CMGftKbsxUKU6aIeU56ZKflSGlRQV6ycpZHW3S0zVPG31DA+HZCsLnKQhfvjcQvm5MQHjh/G6Z3dYkVZlxUgqEEwlhUpKggJvAZ5iyjqernk+oFMaH6M/Wkoy92sDBysrKymr0BYSffOQeBeE4aczcT6oSvyclcd+X/PD/kYpEXj1S0M0MkcrkKVKVOlUqU6dIbbr6P2l/KYr+geRHfV/yYvaR7Kh9JD1iP0mPmipZsWGSk5qkIey9WhbrRg+dJTxQCH8wdiE8v2eeNFeWSGVapF6aktWxWCdaAzmZrQtZtjJc/12iejjFCtAtJZmyY7t1R1tZWVmNZwHhXdvvlc7yBAXa70tFkoJp+P8r6TO+J8Vx++p9hEsSDpCatFCpz5qhPj0Ld5QnTdXrSeQpEOepz/zY/SU/fprkJ0dKaXaa5GWkf/t6Eu8Iz56lWNM9ipbwGIZwT9ccvfky60OXp4TqoHdNUqEiZYbq+YSr/6OkIjVSATlch/aybGUJWwhbWVlZjWcB4R0P3S1N+fFSHL+PgitrQygLN3IfFfaVnIgfqO8PUByYJrXZM6Q+R3EhNVTBmflCU7V3tCA+TIqTlBGXFiPlOamSm64gnMXuSQXSoMeD2zyTsnp7Rg/C749BCHsv0lGdm6iAG6pnt5UlTVPQnaH3D9abNyirGBhjCZclYSGHKQhnWXe0lZWV1TiXhrCyhJsKE6QkcYqUJk9RcJ2i4DpNihRgy5UxRqhIV4ZZpmJCpjLGMpRRlhkrZekxUqws36Jk9ZmWKPlpSZKbliK5mWl6VnR1RZlnucrOmdLb3aVd0UMF4TkKwhdetBcQfv2nP5EbbrxOLrn0Ijnl1NGDMIXS1dkmjQVJUp2hrN4Uz6YNgLcqVRW4sno94GV8eLpnfDgxTFpLgbC1hK2srKzGszwQvk9BOEWDtzgpVArZKyBxuhSpdr9EGWI5sVMkPzFEWbqRUpoWLaUKvuVZ8VKRlSBlWUlSkp2m4Jss2empygJOVwDOkaqyEr19IROysIJZpMMYfkMJ4SuvulzuvmccQ3h+b5d0NFRJY16C1GjLN0xDuCwxVO+eVJ7E/0AYK3iG+oxQPaVIZQnnya5HtlkIW1lZWY1j0YY/tu1+qcpPlhwm36aoNj49VoU4KVGwLUiOkLykcClIiZTi1GgpSIyWotRYKcxQVm+6OkeF3Iw0ycvMkMLcbCktylcWcKkGMK8lmVWy4I1hj4WwF4R7u+dKXUmOVGfFSE1GlFSnRUhFCuCdriDMmDCBl7OZmMVnhJSnRsrMinzZ9ejQQ5idjdhC8KuvvvK5+9FANJRxDVZud2vi92DHWFlZWQ212M71sW0PSr3iQK4ysgqVpVuSGSfFKhQqCBcqIBekxEpesvpMT9KrYGWnAd9U7XbOz87Qq2LxKhLWb11Npd62EAt43txOvWuScUOPMoTfHXsQVgXT0zVbqvLSpDQtSuqyYlWI0ZOyKlIZE45SlnGkgjATshR86SElK2tYAbmjIldZwu7fEwZGf/nLX4Luz/unP/1JTj75ZLnnnns0PPdGQxmXUwDz73//u84P+x2bPZGR2c+YvY93797dvy/yH/7wB5955zviYR9lsyeyL3nvt8xezM7wySefyN/+9rf+7Rspb45lr2Xv9PmKj7T6SpuVldXEFhB+dPuDUl2UJfnKws1PjZHclBjJSoqR9MQYyU5Nkhygm2YsXt7/zdTgLSnMl4qSIr02dENttbQ01svMtlaZM2umxwXd060B7GSPhXB/6JWeubOkMjtJSpXFW60s4brsWGURR+vXlTwQVpaxCmUpHghjEesx4bLsAUH4r3/9q5x77rnS0dEhn376qfPnfgGE6upqOeWUUzRE9kZDGZe3gBfgvfXWW6WxsVHWr1+vgY+AM39fdtllMmvWLCktLZXCwkIpKiqSI444Qt58883vwI7jAeDixYulvb1dPvjgA79W+9dffy3333+/viZxmlBQUCCZmZmSn58v119/ve5wmPLOy8uTuXPn6rJwWtpffvmlXH311ZKbmyu1tbU6HVZWVpNL2hJ+5GGprSyT3PQUBVqPhQtsdVCWbkFOpnY1M9mqtA+8uJyxepsa6qStpVFmdrTqd4FxP/M+MC5opwVsIewIC+Z3y9z2JqnKiFNwDfNYv5lRGsa8llSRigs6rC+YMWHPwh28JzyQFbNwC59wwgm6wcdq86ePP/5YiouLZfPmzfqcvdFg43LCylsA8je/+Y2cf/75GnChoaFy4IEHyu9//3v9Oxbnz3/+c+nq6tLQveWWW+Tuu+/WoE5JSZGjjjqqH9jon//8p+zYsUPi4uIkKipKbr75Zm1h+xJW8rvvvqtBC+RNOO+882TOnDmSmJgod955p4a1KW8qK/Fu27ZNvvnmm/64DPznzZsn++yzjyQlJenysrKymlyiXdjx+OPS0lAvRQqyxfl52sLl9aLy4kK92EZFWYlUKWu3tqpC6pXFy+IbgLejvUU6Z7XrfYKxfHt7AsPXBAvhvkCBtVYWS42yeMsTwlQIl6p03NHKEk7hfeBvX0ky7wezilZxQqi0FGfIzgEs1uELwsYdiisWAAC3t99+W1uNBpzAAlB9/vnnGhq4XDkeS8/bYnQbF4DDPcsxxIeFbFy1fP7ud7/T1+CavoSVeeONN0pVVZX88Ic/lPr6ejnkkEP6Icw1gOB7772n4+J6/P/OO+9oq5zjvS1O8nX88cfr+0+HgbhIny8RNyAmDVixBPLMtXp6eqSlpUU+/PBDfRz53bJli6Snp0tCQoIcffTR34E/8TzzzDP6uhxDsBC2spp8AsJPPrFL5szqkJrKCqmrrtRrPTfUVevJVVi6jPG2NjfqnZC0xauOZW/grnlYvXM9bufenn74egcndwjDDeGNG4/+x4ojDv3LwQcvvXVsQ1gVXm1hmn4fuDyZ14+mS3lKpIJwjB4LrkzxvCPMJC2sYaAMkFlVq600fUDvCTshDDSBzcUXX6zdtuXl5dp6PPXUUyUjI6MfnLhusf42bdqk3bUcx/Fbt27VMDPjn8HiAnYELFN+Kysrk+bmZjnttNM0fAAwY7ZYr1znF7/4hU+LGHjhUr7uuuvklVdeke7ubjn00EP7IWzk7CDgZm5oaJCZM2fqjoL5nrHiuro6mT9/vqxevVp3GojX7fgsD9DjqheLS5oyYUwYUXYnnXSSBjtppANAOZp00fkg77iwe3t7tVVvIWxlNfn0T9WGPPvM08LwZIeCbEdbq15cY1ZHu3TO7NAu5jmzZ2ro4mruVhavdjcr8HpbvYGg6wzDDeGnn35C/vGPv8vKlctlbENY9WLqCxKkNitCajLC9cIcuKGr0yOlmhWz9P8zPK8qKUhjHfM7UG4rZe3owVvCWHCXXHKJ5OTk6PHQM888Uw466CA9thkSEqKP5Rygx8QmXL64cs866yx9PMddfvnlOh43cQFsXL1AB1DzHcdmZ2fLiSeeqAGN5bp06VKpqanRE6p8jc0aaxQrFJhigfqDMECkc4B7GpcxoDv99NP7x6exkkkTZXLDDTdolzHHnH322drSdyM6DmvXrtUdj5/+9Kf9Vr2xhLHYKRvixYLHiiYPv/zlL/X4/GGHHSaHH364LhcLYSurySe8fs8//5wcvOxADVncyt1dc3UAtgRmOANcA11v8MKSsQbh7dsflE8++UhWrjh8bELYFFbv3Fl6kY76bGZGR/Z9RikgR0pNaoR+b7gmg1eWpisLOEQva1nNqilpM6SjjDHhwVvCTM7CMgQSb7zxhoYO32PNMT5qIAwwmDiAexmgEZ5++mkdz8qVK/UEqWBx4e4FhMAXC/i5557T57z66qsaRExuwqWLVcnn66+/rl3IwUSa/EEYSANYOg8ALj4+XpYtW/adiVnk5eCDD9bQx0olzYztYi0DRF+WuLeI5+WXX5aSkhI95kxZGBkIUy64nVtbW/W1uCZ5u++++/R5eAbWrVtnIWxlNUkFhF988QU5/LBD+l3K3sGNe3mgYbghvGHjOlmxYrkyxhZ7Qfj9sQXhBapHM6e1XlqKk6WlML4fwA050VKXGSm1aRF9gVW0PAt2FMZN1+8NV6nvZ1VkDxrCuHqBEa5irDADD6CCK5bvDYTNWC+WGzBhkhNuZ8CJtQtUgsWFKxvwpqamarcsliFWIZOacD0zKQmwUxmxJDk3GABRIAhjcd57772yceNG7WomvYzZAj0AbdKH9b5gwQJ59tln1YPwonZJMz67ffv270yk8iXKh1ewAOgTTzzxnXFsA2FmUr/11lt6hjiuaToelBlehdmzZ2vr+dhjj7UQtrKapPJA+EU5Yvlh32GEE7rO//cmDDeEDzv8EOnsnClLlywcqxD2jAe3VhdJUyEQTpTG/HgVEqRJhQZeU0pX1nBalIJwjFSlREpZYrjkRYXq/YRZxKOtJEN2bL9/UBBmfBSg4i72HscEfEws4hgDYVy3vEbT1NQklZWV2krEWsTCXbJkiXYzB4vrmGOOkYceekiio6MlMjJSgxgLkUlSvEIEqICgv8lY/hQIwnQeADGToYAeLnU6DeSDdJEv3M7h4eESGxur04nLmElU06dP32MWtVPEz2QvrGhc6LjGvTsO3hCm00MZMW58zjnnyAsvvKDPw7WP9X3cccdZCFtZTVIZCK9YfvgerBiuMNwQ3rRpo6xbt0YOXrZkrEKYlbLmSFNZtjQWJEpzYZI05sVrALeov5sBcW6c1GbESnVKrBTHhktORIhkhk1Tn9MlPypM6rPS5LEHBwdhIPTaa69pK/CMM87oH/8ELLiNs7Ky9LGMdwIMrMjOzk5trQIKKgxuZeADCIPFBWSefPJJXcaLFi3S1h8zoE0A5LhoDcTcWMEoEISdonNwwQUX6PQ88sgjekIWrnA6AxdeeKGe6EXAym9ra9P5A7K+xqWR9zj47bffvof73BvCZjEOLHImozFhi84H5UgZWwhbWU1eTUQIbz3nTLn4kgtV27xsbEKYwM5JdUVpUpsbo61gtrEitBQmKAjHS112jLKGo6WCZcxiZkiugm/WdAXi6aGSFRYitX0QZrzWjZxjwgQsW1yxWMZAhIlRN910k3YPcyyQw6VL2TDZCosS6xCXNO/EAlTOCRYXY8I/+9nPtPUHfBg3ZlIUAWhjlQI784pSsJWrjHxB2LwGxUQvLGHKh0/SxetHQJP3ghmTpSwAMNfkGALudN4DBtbXXnutz5W+vCdWAWzy7+w4OCEMtC+99FLtDSBu04EhnRbCVlaTVxMRwjfdfIM8+dQuWXHEoWMTwgy2z+lokerseKnKmKGAG6lClNRnRysLOEYHJmoxMasiaYaUxIdJQcx0yYsMldzI6ZITHqJ+H7wlDDQAH+OZ/M+YJNYc/+MqjoiI0McCXMYzsQp5rQiosgoU47gsQMHsZuDnJi4sXmM5MkGKuBifZbYyLlrSh1XIZC9c3v5eUfKWLwgD3Z07d2rwX3PNNfLggw/qmc9HHnmkTt+aNWu0hc6MZjoEdA6cS14yOYwOA/njGs50APnbbrtNz+zGugawTjkhzDXofDDeTJmQNgDPcRbCVlaTVxMRwg88eK988OFuWbXK+xWlPSD8qoLwtQrCFyoIbxlRCPd2z5OmymIpUlZuUcI0KUsOkZq0GVKbEa5nQ/O6UjUTsthRKTFUShPDPCFhhvoMl6LY6cpqTpMdD7mHsFlGEYAyMxko4JZmvLaiokK7nBmj3bBhg3abYiEaK/Wiiy7Ss3uZWAScGC9lRi8TrgC1m7iIB4sTEAMm3scFPLzaAzCxCAEp47a8twsI/bmCjTh+1apVGmJm/JYKzfjywoULdXrNspKkixnMTCKjE8K7uaTPe0azkZlwRWeAWdPOdZ9JK50NfmdBEufviLJjVS8DcmReZ+IemHeGOY6xaWaO22Urrawmn8Y3hM9VEL5MQfgOnxBeveqIsQnh7nmzpSwrRfJjp0pB9P76vd/a9Ei9f3BFMtCd2rencKiyhKer4IFxuQpl8SFSEjdNWgvTZOc297OjafCBi/cGDsADeOGqZVwXFyv/A0vjIjbv22LNMZaLhQq4OM4AeCBxmQ0LsEDNxgpmAwZc0MSPperGzW4W+PBOh3mlinwCyJdeekmnG/ByHHnnOoDR+zxveZcVD4jTEjbXJQ5/bnPiMB0PZ3l7n+frvlhZWU0eTWgIr/aC8HtjBMJMyuqaM1uyEmMkYfq+kh62j+THTJXCmBApjA6VYvVZEqusY2UhlyeGaPCWJ4RIRYLnEwiXqc/24jTZtd09hAMJyAAIJ2y85eYY5PY4jvF1nBkbdn4/GBEXYBuq+KysrKyGWhMZwkcaCO8YSxCe3yuzZ3ZIekyUxIfuLxkzDpD8qKlSpECMhVsaN1VKlYVcFq9AHD9VKhSIvw3KMk7EMp4uHSUZA3pP2MrKyspq7GncQlgZkxdcGATCRwaD8A3X6mnUp5wychDu7e6SupoKSYmcoazgqVIQOUVKFWzLEqYqSxf4TvWAuC9UJIVKZXKYVCXP8IQUFu8Il1nlbGXoftlKKysrK6uxp/EO4SuuvEzuutsfhFeMLQjjiu7umiP5uemSHDlVsiP2l8LoAzwA1q7naQq6IVKdPF2qUxVwU8P0MpXMkmYtaUJV33rSrJj1xAD2E7aysrKyGnuayBBec+TKsQfhrjmdkpeSoAA8RXIUhPMjD9BuaMZ+q1PCpFYBtkbBl+Uqa9JVyOAzQqoAcBqfEVKurOGO8ixrCVtZWVmNc01oCK8ZaxCeryzh2TOlMDlWCqOmSEnsVKlSVm9dRoTUZ0bpT/2akgJwdVqYhjCfAJjdkwgV7KKUHGYhbGVlZTUBZCE8ohDukdltzVKaGCUlMdMUbCOkMSdGh4bsaAVgIOxZpKNKQ5fxX9zSHgAD4wr1P680tbOLknVHW1lZWY1rTR4Ivzf6EGZPyNbqcqlIjpLa1Chpzo2V5pxYBeFYqVOWsGfsN8JrH2GAGyblOkxXf4fqUJoYKm2lQNhawlZWVlbjWRMZwmvXrOqD8I7RhbDZgqqna67UFORJSVKk1GZhAccqCzhG6rOwgiOlGos3OUzB1wNcwOtZqGO6lPe9mkTg+45S6462srKyGu+a0BBeO0YgTNAQnjtbyrPSpDBhupQq2JZj8Zrx3pQZGrj9ARirT/N6UiV/A2G9YMdUaStKkV0D2MrQysrKymrsacJC+IMxCOF5szukJD1OChSEC+JCVAiVkgSPpUsAuh7XMxAGyljAoZ71o/VylVOlJHaK+pwi7cWpdrEOKysrq3EuC+ERgDAAXtDbJR31VVKWGi2FCr4FsSFSrGBcrCDMZ5GCbLEKRXHT1N/fhmIdFIDjFbDVZymWcFKodOiJWdYdbWVlZTWeNZEhfNRRq8cGhBcpCPd2zZWWinypzoyR8uRwZdmGKSs4XMpTIqSaGdFZUeozQqrSw6VS76DUNzkrRVnGyWH6tSTP53QdOsothK2srKzGuyyERwDCWMK9XXOkpTxbmguTpLUgUYdmFZoKEqQpP16a8uKkISdG6nOi+/cXrsmM9ICZGdM69AFagXp2dY48+ah9RcnKyspqPGuiQvj9PSH8zqhCuGfuLGkszZDm4mRpLUmW9tJUaVOfrUVJ0lKYqD+bC+KlMS+2PzTkxkidhnKUV+D/aJlXVyBPPb5NvvlmckDY7e5MIymzzSMh2N7HRqSfnZ0IYykvVlZWo6NJAuFHRw3CAHj+/G6Z3dogTSXpCsIpCsIKwArCHhCnaAC3FXtCaxFATtChRf3doj6bCwnKWgbSKjQoy7mnqUSe3vGwawib/W0/+eQTvbcugb9///vfy1dffTUmgUCav/zyS51G0vvGG2/o/YZ/+9vf6n2J3YJvuAR8r7rqKrn00kvlr3/9q/Nnn+KBY79k9lP+5ptvnD9bWVlNMlkIjwCEe7vnSUt1idQXJktzEZZwqnSUpsnMsjRpB8LKOm5RAG7BKi7i72T9XbP6rkmBuKmITxUKk6ShIFFqc+Nldm2hPPHoNtfuaCBx7rnnSm5uruTn50tRUZFUVlbKwQcfLDfddJPepH60oeYtrN5PP/1UrrjiCp3Guro6KSws1GleunSp3HXXXbrzMJqic3DIIYfIkiVLdMfAjf74xz+qinmULF++XJ9vZWU1uTXJIXyNgvAFww7h7nmzpSw3TUrTo6WaFbLyFVALcD8nKqs2QYfanDipyoiW8tQoHUpSIqQgLULyU2ZIUVq0lGXHSUVOglTmJEpdQYp0NZfLkwOwhP/85z/LCSecIPHx8XLWWWdpuJ166qnS2toqmZmZ2qLD6hxJ+bO++f43v/mNHH300ZKeni4zZ86Us88+W66//no5+eST5YgjjpDt27fL119/7Tx1RPW73/1Odwh6enp0et2IjsODDz4od99994iXt5WV1djT+IbwOQrClyoI3z6WIdwjXZ0zpTAjWTLjwyU1NkTSY8IkI2aGZMWFSU5ipOQlR0lBarRkJ0RIZmyYDjlJkVKWkyTVBakqpKmQoiAcJ6UK0KUpUTKrMleeHIAlbCCcnZ0t77zzjgbAn/70J3nsscckJSVFent7tTVHhfj888/ls88+0+7qX//619qK9raSgeTf//53ffzHH3+sjwNI//rXv/RvweLAyuV4fuNYp/6h8nTffffpe9LV1SU/+clPtCsdgPGJ1c7fjKuSB/LmnT7i5xgzVsv/nEcayDfp/tWvfqX/Jg5fv+Huxl0cKB++IOwsG84lftKAuB7xYOXzd6C0EZczPn7DmjZlbWVlNb41KSD8uILw7tGC8PxumdVcI6UZcZKfEC7Z0SEqAFkF3vRYDdvcpAgVZkh+coQUJodLQWKYFKvPsrRIKU+PkIqMKKnJjpX6XM9krYa8GOlpLJSnd2wfsCWMO5rxVUQjTsNeX18vjY2N+u93331XNm3aJO3t7VJeXi6zZs2SrVu3apgAH84BfLfeeqsGd0VFhXYRH3roofLLX/5SV6hgcQBIrFl+Z4zXCRPAhxWclZUljzzyiIayLwGj4447Ts4880ydPyPguGLFCrn66qs1TPkN659w5ZVXysKFC7UH4KGHHtJA9PUbnYDXX389YD6cECYfpP2WW27RnYeysjJpbm6W0047TZctwCUtp59+upx00kn9HQhf1ydtwJdjbrvtNlmwYIFUVVVJQ0ODrFq1Sl566SU7pmxlNQE0qSF8fR+ETx4mCC9UYX7PPGmvKdLjvc25CVKbGS1V6ZFSlRkrtTkJUpfLRKsEaczndaVEaeSVpb7XlvRs6XwFXhMUfBtzo9VntHQ3DGx2tIFwTk6OfPDBB/rGYynSmDNGDEQBCVbngQceqMctAcPixYu1u/ryyy/XQMMCvfHGG6WgoEBmz56tgXLGGWdo17ax0ILFwVgo8KqpqZHdu3fvMRYNGDs7O6W7u1tbjE5IG3Hc3Llzddq9x1exWukYbN68WecbWJIe8llaWipr166Viy66SHsEAKqv39588039YATKhxPClM3NN9+s4wLYlDfn4H048cQTNaA5Z9myZRq2WLeB0oZ1TFkzfj9//nw555xzNLzJW0tLi06jsbCtrKzGp8YzhM+/YCAQ3v2OHHucDwhfPHwQJszvniutlTnSzOtIfZOwWpmEVczMZyZbKeAWJkqzCnw2qv910LOgDXyxgmP0q0m12ZHKKo6UubW58uRjA4cwrmfGI3ft2iWXXHKJbtxp5LFsgQhWJ0ABEISnn35aW88rV67UkAVaHR0d0tTUJK+99lq/K5X4zStEweIA1O+99562NJ3jupz//vvvayitXr1aW4L+BISBHRO3nBAGaFixBsJY7dHR0brDwO90QEgH6fP1Gw9GsHw4IWzSgwX83HPP6Q7Eq6++qsuLSWXkmeO8zwmUNs5nPLytrU3PDKecOR7QM1b+ox/9yPWsbCsrq7GpcQ/hKy6VO+/yBeF3vSD8+GhBuFd653VKW0WWB8JlqdKmAu8JE/ohXOCBbqOyfuvz4pR1HKOsZN4RjvHAV33WZEcp6zlCKtNnSEXaDOmszJInBrBYh4FwSEiIdvPm5eVJTEyMtuwAsIEoFh5u5WeeeUbD+uKLL9YAOeiggzSIeL0GEBkr0yms2kBxGFhyLV/vynI+1yCNWKBDCeGMjAwNRa5r5O83N/nwhjBpefvttyU1NVWqq6t1Bwcr9rLLLtPu7KSkJA1xwOoLwr6uTzlwn7Zs2dJf1nyP9wBPxKJFi/T5VlZW41cTE8L3fAvhurrRgbBnvehumdfeLK2lGdJSoqzfUgXf0hT9dzOvHmn4Mjs6TsHXM+YLcFmgA+jWZEUqy9fzWZURLuVp06UkaZqUqtBelia7HnG/i5KBcHJysoYDUOHVGvK9bds2bfVh1TKOipWLyxMrbM6cORIXF6ePxQp+9tlnNSB53QmLzVsANVgcbl7LYcwa6xxXLuD3J38QZvy1uLj4OxAmLtICBL3l6ze3+fCGMBOmsH6xaCMjIzWIGb9lvJ0OAWPulB3HOSHsvD7CEn7++ed1WeOG9i5rzmMogHMoAysrq/ErC+FhhPD8ni6ZWV8pTcWpnvd8i5P0ilnNfRZwo4JvQ14fgPsgrEOfFWxWx6pVEGYJy4rUMAXgEClNDJGZpawd7X4XJe8xYdy9uJ6x8EpKSjQUmCBFo4+lx3gsVhswo3LgXuUYGn9cyFhtRx555B5WKuB44YUXAsbhDUunFWwEeAEeIHZart4yY8dAzFiE3pY0k7YMhJ2zmI18/eY2H97n0kH56U9/qusRFip/Y5GbwO+43smbE8LO6yPywbgwXgcmYpmypswAOQBmslagToqVldXY18SHcM3oQJjgGQ8u8Ey8KojvH/81Afcz4739lnBejCcA4mwF4axoPZGrJtOzjjSbOLDbErspzVIQfmIAWxkaCJvZ0WYm7ymnnKKBhfuURTsoB2Yb07jT8GMxJyYmarAAHjPpqba2VrtfmcEL0LHU+Lz33nuDxmFeUQImAM8pXs9hpjDxMFEJ9yvxcy1cxFipVFwznssMbcDL78SLpc/1BgthvAJu8uE8l/ww2QzLlzFc0kNg3JY0+5pR7fzfW8bSx5qmrEkX+d+5c6d2Ux9//PE+hwSsrKzGjyY8hGtqKkYNwj3zOqVJwRLAMsvZs/yk9xhwnB7zBbq1rBGtAp/VCriVqdOljK0OY0OlMGaaFMWFSJH6LE0Ik0oF47mV2fLUYw8NeGKW9ytKwBB44TYFqrwKgxuX12sAMi5nxjOjoqK0tQl4AAoLZzDjlwlKjCdfe+21cuGFF2pYMWMXazFQHLyixLlYc75eUQJWWJ7AiQlIzJI+77zz9LVYIpLrv/XWWzoeFu/gmHXr1ukJS8xC5lWe8PDwQUOYciH+YPlwngsg6czgbWAGNOfxuhIzyHEp+0qL839v0alhgRLuCePjdAzoYGCd0/HAWvfVibGysho/shAeJggvmN8rnW1NUpufpMd363KiFGx5vQjoMss5SsE2SspTwqUkKUwK40OlODFUKtMipVZZwPUcn60+M6KkNj1SatIipCo1XH2GS11muHTX5sjTj7uHMPA0IPEee8TqvO6667S1xTuwzNDlPVUafqw6Gn8Ax/gq1iCA5HzAgrsWKDFJCOjwPaDhFZtAcQAwJjexFCUzhp2vKCFc0B9++KFOD+/acg0C7+syJvvyyy9r9y7vJG/cuFHHhfuaDgX/YyEDbvLNTGauj1sXcHvL329YrsHy4TzXWLqAmDFg0sMsb9KM1YrnwXmO839v0TnhO1Y341UsLGwCHQNW3TILelhZWY1fTXgIV1WVbbn//ntUJp8fUQj39nRJS5VqNJNjpBjAxodIvrJkC2KVNatgW50+Q8E0UuqyIqQhN0qFSP1Zz9950dLIO8H6veAY9b0Hyg3ZntCojumpz1MQdv+KEoAAkLg4vcdYacRpzBmzBBLAB7cqY5pYqUAC4BDMO6nEhdULpLCI77jjjv4VoPgN13GgOLDe+B4r3N9CHIi4gChxMz7KK1GAGYuR80i7WTWL+PgdK9+8j2tcwFyTNAA053u1/n5zkw9f55pZ1ZzHJg28M80YPMf5Osf5v1MmPsoALwPlwD00+beyshrfmhQQvvbaq+X222+VY445euQg3D1XWsrzlMUbq4LHzVyfy0Qs9g6OlaZ8FYBsPgF3dYw0FfB9TF+IleaCOGlRgeMBcYOKo1EFzutpLBgQhAciGneAEKiRx1XKJgpYfCw2AfS8FSwOA0d/vzsV7Phg1xus9iZeA9nBnOtLlIEvr4GVldX41YSHcEVFyZbTTz9FtmzZLBs2rhs5CM/rlMaSDD3mC0ABLVsT6oU61CevKPHZVOh5P5hJW6yQ1VLASllxGsQAmOD5Hxh7gNys4prfVDhsEA4mQIBL+f7779fLT86bN8++KmNlZWU1CE0CCBdtWbXqCOnunifrN6wdEQgvnN8r82a2SkNJap+Fq0JhrAJwol4pq7WE0LdqVjGrZcXrfYMBcIuCcUuhATHWcLzHaubvfKAcL61F8bKwpVCe2eF+THgoZZam5DUlxl8Zn2QWsJWVlZXVwDTxIVxWtGXhwl4pKiqQo9evGREIs0hHZ1O1NJekSFNRnA7NxfEavG2lSdJemixtJYQkD5gVgFsJffAFyjr0Qdnz2ReAsPpuYXOxgvDoWMK4VxmTxAXNeCYTpIbK5WplZWU1mTThIVymILx27WpZvHihsoSPGnYI65Wyerqks7FCWkpTpUVZvayQ1Qp8y1I8oTRFOspSdfAsX+lxUwNkD5QVaIsVlBW429QnAeu3tShWQRg3dYwsaBq+MWErKysrq5HRhITwAwrC73tB+N5775bnn39Wjj1u/YhAmEU62muKlSWsIKyA24z7WVm/7Qq6Oig4d5SnyczyVA941e9YyG1lLGuZpKCtrF8FXSZqNRLyYqUmM0IvW1maHCJFCVP1KlyPb79PvvnH6G5sb2VlZWU1eE14CM+a1br5qisvk6eeemLEINwzd5a0VBVIQxFLVGIJA9kUvXlDWynWL1avZ4IWGzbUs3xlvmdbw+rsWClNi5S8xFBJiTpA4iMOkOTIEEmdMU0yI6ZJduQUyY6aIpU5SfLYNiBsLWErKyur8aoJD+GLLrpon0WLeo9va2nYsmHDUf/aE8Ln6xOHCsIL5vfIvJlt0lCar2AaL+Wp7H4UI9VZ8VKlQllatAeySTMkIy5UkqJDJDF2hqTFqP9jQiVVQTY5gjBVkiKnKgBPkzQVsqOmSm70VCmImyolCtCzyjPkyQGsHW1lZWVlNfY0fiHcqSC8VUH4EgXh2/xD2Fsbj1n39XBDmE0b2uuqpLYwXQE3VgoSwyU3LkRyYlSIni5Z0aEqhElmVKhkKgAD3nT1XXpUiGSrv3PVZ0F8mBQlzpASBeqS5DApSwmTirQwqckMk9qsGVKnwrzaLHnyMQthKysrq/EsC+GhhnD3PGmvLpOm4nRpLEyRhsIkqcmJUdYwWxKyXGWM/qzOiPw2ZLKEZWTf7541pPUKWbnsosR2huEKwDOkVocwHeZWs5+whbCVlZXVeNbkhvD118hFCsInnTyEEO5i56RCaSxOkxYmZpWkePYO1ps3MNmKxTd499ez+AaTrvib3ZTYQcl8sr40oS6HtaQjpDo9TG/qUJEcosPMsnTZNYBdlKysrKysxp7GK4RnKwifd/5WuXxvIHzdEEN44fwe6Z0zU5rLc6WxJE2aFISbSzyTs3TQrx+xOEeiZyel/L7VsvSWhuyoxH7CCsA5WMBRffsIR0gVAE4BwCokTZfypFDpKLUQtrKyshrvmogQvn+0ILxgfrfMm9kijaWZCsIpCsIqFCd79g/WEGZGdNK3ewp7gRgLGKu4ERArCGP9ags4Y4a2gMu1BTxdb2PI58zyLHnikdFZMcvKysrKamgEhF966SUL4SGBcG+3zGqpk/qiNGksTpHGomRpVLBtLPC4owFvY4Hn0wlg43pmLNiMAVdnhOlQmaYs4FS2OQyTqgxlHefESW97rTz39JP6BlpZWVlZjU/Rhr+sILxyxRGyeOECHZzQHOowYSHMzOi2ugoF4VQFXw+AGwoUZIEt48D8zY5I+bF6X2EmYNUq6Hpcz1i+4Z6QqSCsLGACWx4SanNipFlZ2HNa62Vhb5esPGK57j1ZCFtZWVmNX2kIv/yyrF69Wg5culSWLlksixctHFYYT1gI93TNlcbyQqnISZDq3ASpyY6VGgXXqowIZcWy4tUM/bpRaVKIlCaGSHGCCuqzLAlrF+s3wjMrmtnRCsz6bwXwtspc6ZnTrgqvV98gtg5k8wRunIWwlZWV1fiVgTBtOm27JwDjJbJk8fDAeMJCuHveHKkuzJayzASpy0uS+jz1qSxY/dpRLnsEf7slYQN7C+cw/stELM94cIM6ppE9htVnc2GSdFTnS+/cWeomzJelS5d43SALYSsrK6uJIN8QHl4YjwSE3xsNCPfM65S6kkypyomX+vwEadTjwOwVHKfXgm5jDem+HZPYHYndkDyvK/W9sqS3LkyQtvJM6Z7VrApdWb5Ll/q4MRbCVlZWVhNBgSH8XRjjpl40BDCeuBDu7JCm4gxlBccrAMdr8LYUxenAjkjtrCHdvyOSgbHZQ5j1pVNlTlOFLJrf3e929hdGCsL//e9/bbDBBhsmdRhOuYOwJ2CULVm8aK+t4gkL4bltTVJfmCa1uUy+ivNYwDp4tiZsY8cks3dwMUBOUn97NneYVZMnPbNbZcmiBXsUvK8wEhD+z3/+I1999ZV88cUXNthggw2TMtAG0hYOlwYCYU/os4r3AsQTFsIt1eVSkZUs5ekxUpEepV8nqkwPV3/P0MtS1jIGzFhw385JNSzKof5uqcqV+d1zglq/3sFC2AYbbLBh+MPYg7AnME9Iu6d9QDZYmLAQbiovVFBNkerseKllZnTfmtBVaTOkSsGYdaB5HYlVsfQkrPx4aa8u0K8c+Rv79RdGAsLI6ZaxwQYbbJhsYTg1WAgT4MZgQDxhIdxYlqc3bWBf4AbGhfViHHEqxGq3dEtRvDTrtaPV38XJMqexTI//4l5wFm6wMFIQtrKysrIaPu0NhAkeEC/aA7SBwgSGcI5eJateQVjvlJTFDki8+xupoBytF+ggsFpWZ0OZLF7QI4MBMMFC2MrKymr8a28hTBgoiCcuhEuypLEgSepy4rQLuix5mpSnTZOqjFCpyWAvYFzSUdJenT9oC9gEC2ErKyur8a+hgDBhIK7pCQvh2sI0qcqOl8qMSClNDpW8uP0lN35fKU6eIuWpIXrt58aSDFnYM0/2BsAEC2ErKyur8a+hgjDBLYjHEISvVhA+T0F48xBBOEWq8+OlJjdau6Gr0qcrSzhUrwXNUpRtZZmyoHuuXh/UWXgDDRbCVlZWVuNfQwlhggfEgV9fGjoIn60gfPHYgXBDcZrUKgjXAuHcSKnOYuOFCGnMi5b2sjSZP7djj+UnBxsshK2srKzGv4YawoRg7xGPKISPXHFY7Q8PPvCvq1Yu/2bDhqP0AcMF4cbiDL1cJetE17JDUq5nMlZzUZJ0tdfplU6chTXYYCFsZWVlNf41HBAmLFm82O8SlyMK4YqKki2vvvqS/Oc//5JNx28cXgiXZEpdfpLU5MZ6FuLIYTZ0vHRUF8jiBb17FNLeBAthKysrq/Gv4YIww57+xoeHHcL3Kwi/1wfhsrKCLTfddIM88MB9csyxRw8rhFvK86SuILkPwljDsdJcnCbz53UOeDGOYMFC2MrKymr8a9ggfKB/t/QIQ7hoy+rVK6Snp0vWb1g7rBBuqyqWusJkDeDq7EipzYuRWY3lskT1RpyFs7fBQtjKyspq/Gs4IUxgGNTplh5xCB944BKprq6Uo9evGVYIz2qokfriDKnJjpHKrAipK0qSBb1dexTKUAQLYSsrK6vxr+GGsK/Z0iMK4QoF4Q0b1skhhxwsviZmXXiRgvBJQwPheTPbpak8XyqyYlWIlplNlUM6Gcs7WAhbWVlZjX8NN4QJTmt4SCA8u1POPe9suezyYBCuKNly5lmny2mnnyIbNq7rh/Brr78q117ngfCWIYJw19xO6WioksqCFKktTldWMKti7VkgQxEshK2srKzGv0YCwp5JWsMI4TsDQLiqqmzLNddcKT/+8U2y8ZjhhXBP91yZPbNVGiuLZFZzzbBZwQQLYSsrK6vxrxGB8IHftYZHFMI1CsIPPnifvPLqi3LscRuGFcK9PV0yb+5s6exok4Uqo85CGMpgIWxlZWU1/jVSENbW8KhAuKZiy46dj8oHH+6W44YZwgvm90hP9zzpVmGoVsbyFyyEraysrMa/RgzCB3773vCEhfDCBb0CiBfpV5KG9r1gZ7AQtrKyshr/GjkI897wYm0NjziEd44ghBctnD/kC3P4ChbCVlZWVuNfIwlh45IeUQjX1VWNGIQx8zH3h9sKJlgIW1lZWY1/jSiE+1zSExfCqofBotl7Znzog4WwlZWV1fjXyELYs7HDkatHAsLveCDc0ACEHxsRCGPms1anM9PDESyEraysrMa/RhrCBypGrZmwEF60QEbCFU0Y6xD+73//K//617/k//7v/3T497//Lf/5z3/03xNZ5PFPf/qT/OEPf9B5DiZTNoSxXjbc08lwD8ezRro+USf+9re/6cDfVgPXiENYMWrN6lWaWT445ioMDsIfjASEF+oM7pnpoQ8DhTAPyF/+8hf55JNP5KOPPtKBv3//+9/LV199NWQPLPF888036ga8J0899ZR8+OGH8rvf/U5ef/11+fTTT12Bya1Mnoj3r3/96x6NAMAgf3/+85/3+G04xDUo16OPPlo2bdokv/nNb75TrvzthBj37+c//7n87Gc/0+U21kSevvjiC/nss89k9+7d8pOf/ETef/99152MiSxf93O0NdL1CfheddVVcumll+pn0GrgGhUIHzkmIPyKgvBVCsLnKgifMCQQXrJ4oY8MD08YKIR5QM4991zJzc2V/Px8KSoqksrKSjn44IPlpptu0o3qUICKhvm1116Tjo4OKSkpkba2NtmwYYMsWrRInn/+edfpdSOTp/LycjnzzDPl888//06DCPx/+MMfyo9+9CMN6+EW1yA91dXVcvPNN8uXX37Z/xvposECYN5l8Mc//lFV1KNk+fLlusMwlkSaseovu+wymTVrlpSWlkphYaGuO0cccYS8+eabkxbE/u7naGuk6xPXOOSQQ2TJkiXy29/+1vmzlQuNPIQPlLVHrtbM8sExV8ED4VkKwmcpCF/kDsLvKwh/d8WsYYDwkpGZlEUYKISxBk844QSJj4+Xs846S6644go59dRTpbW1VTIzM3Vv1hsagxVW9d133y1btmyR7du3y/HHHy9z5syRk08+WT+wA7UaAh1v8kSFyMjIkCeeeOI75YH1RmeATgAwGU7RgfnFL36hX08DWnRqvNP+j3/8Qx599FE59NBDtYVsRHk9+OCDusyGovyHUlh5WFVdXV0aurfccotO5/r16yUlJUU39sNdrmNV/u7naGuk6xMdXep8T0/PmCqH8aRRgfCaIzWzfHDMVRizEB6pSVmEwUI4Oztb3nnnHf2A0oA+9thjukHt7e3VPVniw6IEYLirf/3rX+/h6gUuf//73/XxH3/8sT6Oh5ExYBpuzscNDZR++tOfyquvvqrdtPzuL45f/epXuhdvxpGJhziJ218eydOJJ54o0dHREhUVpRsD4jJp9QXhYNc1x9DI8j2ubpM/3LJOb4EZAyYtnEO8HEd8gBhrCWuROCj/hoYGXR40WKSD4yhj46onPuIywdwHrk/8X3/9tf6btHOO09UeLH8DyRvHcj2GFjiGePmf+oO1X19fr9PnS5wbqC6ZfOI9IPAb6eU6gGQgeTLHuM2XkTNe0klaSJv53Vec5OEjVZ993U9TxoHidSpYWSG35UUdGqr65CZdwSDsJg5/efMuU+/4ApWtv7i8y8lNmvzd+0D1abAaDQgftXaNZpYPjrkKYxfCw7xUpXcYLIRxR9OAICoaFZTGtLGxUf/97rvv6vHM9vZ27ebFDbl161ZdWU0FBjq33nqrBndFRYV2a2MR/PKXv9TpcRvHbbfdJgsWLJCqqirdmK1atUpeeuklPZYFwLC+iAOYez+IRuTppJNOkrKyMu1+o4OBhQ/4kBPCbq7LMTys27Zt05YengLKB5cbeXZaFzykxx13nHaHkx4jHtgVK1bI1VdfrR9i8k9nZ9q0aTrOZcuWya5du3RDc/rpp+t8GJgTF54EAmVHGS9evFhbOHfddZccdNBB+rva2lp9Hg2Im3KlUSH9bvNm5N3o8PcHH3yg4505c6a+ti8BgED1gHSST9JP/ufOnavTS95uuOGG/vsVLE+DuWeIc2iEse6x9KlDzc3Nctppp+nngMbcX5zUMdLt634CtWDxOhWsrChzUy+ClRfHDVV9cpOuYBB2E4dJI96yU045Rf/OcfPmzZMf//jH+ndTF4KVrZtyovMWLE3+7r2/+rQ3shAeUgiPzKQswmAhnJOToxtRzgNWNGSMERu3GhNviJ/Kh9uahxV39eWXX657gVTOG2+8UQoKCtRNmK0r+hlnnKFd28Y6cRsHY4vz58+Xc845Rz80wLylpUWPNZIWyrOmpkZPCPLV+yRPNCx0IHbu3KmhgIWGZcLD74Swm+tSLnzy0OFG58EkD0y24uF3PoA0WDzolJ/3GBw9Z+LdvHmzTsc999yj4ZGenq7HjXmYuQ/8RgO+cOFC3bunUWP8PCYmRjeMlCEhLy9PlyHlTnmSb8qf+GhcyFuw/OGVYIKc27wZUfbUFdKHe/q8887T6eHe+xtrD1YP8JTwf2xsrB5rpsNCnrhf1NF7771XAy1YngZzzxDxMm5P3acB5tkgPXTk8K7QCfQXJx0r0uTrfmJNBYoXiDgVrKx4ZqgXbsqL44aqPrlNVyAIu43D5A2w0raZoTLSef/99+sOZLB7Rtm6KSeuGShN1Gl/995ffdobjQ6E12pm+eCYqxAMwvcpCO9WEF470hAeqZnRhMFCmN4740X02i+55BLdsNHA0YhQyansPEw8wISnn35aW88rV67UkDVga2pq0hOwqLA0PMRPT9S4cYLFATCZtPXGG2/o83l4eMBoBJhIxXG4QYEGjYsveUOYY8kX11mrKhjXxQL1hrCb69L4AnQeWDoXxMu5pMeXKwoI0yAwwc0JYRoBets0DqQFa52GmzhNI0c6vRsx0oOHITk5WR566CH9/0cffSTHHnusRERE6AkwuIOJ89lnn9UN0Lp161zlD0uDRsht3oxodIiDekcDyLwCGvpAE7OC1QNgTj4TExN1mjiOtDDOyvg+jSr3N1ieBnPPkLlvNPrPPfecvj903qgvTD576623ZMeOHT7jpEPC/fV1P0lvoHg51pmeYGXFNU29CFRePItOKA62PplJjm7SFQjCbuMgjUlJSRq4HMP1mePBPaau8WwFu2eULdcJVk7Uq0Bp4joDrU97o9GA8LqjRgXC744AhPfM7HCFwUI4JCREsrKydA+T3jG9PwBsIEolw638zDPPaKhdfPHFuoLjzqGy0nhSWbHwOMcpKqibOLg+ADVxcB4WLz1zeu48mKQn0PuO3hCmUSRuGhDSh5uNmasGwjTUbq7Lg8l59MKBKO6xV155RT+AvoDjBsJci/NXr16t3Wc0HkbORoz/sWLq6uq0i428MwZGDzw1NVUuvPBCXb6IeEgnbjLOC5Y/3Lk0Xm7zZgRgaNA2btyoO23cS6zQQFZBsHoAwMknng6gYNyN/M131G/KM1ieBnPPOP/tt9/W5YnnhM4oli0T6nBPAoMnn3xSH+MvTl/30028NPbecyPMeYHKinIw9SJQefmC4mDrk3lbwk26AkHYbRykEXe4yRsiPdQz3Mk8T27KlnOClRN5C5Qm2pGB1Ke91ehA+CjNLB8ccxWGFMIXXDi5IEyPmMpLxaMXTL4Z+6BnSE8aVxtWLu4+LBDcMXFxcfpYevn0loE4Ljgz9mpEZXcTB68qEQeuRe84eIhxiQUaa/SWN4SZrMMDgnXOwwx86c3ygAJhHnS316UsOJZeMa9Z8SASBxaD8yH0B2EavOLi4kFBmHLCxW0aNTwB3C965g888IBOH+LanZ2dutHk72D5o0xoeNzmzYiGFBBjDdBA4cqjseIe41Z2WgZu6gEQduYTUTacQ1nxfbA8DeaeAUE6I0zoi4yM1I06Fi3uR86jPlHPaaj9xUk5OO+n23i9n1k3ZWVAFay8/EHYeZ6b+sQ13abLH4QHkjfcwTxH3s89sOS5ohNGPXNTtrQDzvwiU07MJWDYIFiaBlKf9lbjGcLnnHuWXHrZRXLHYCF8zbV9EN4yeSDMg0cvj0aVXiAVjIeIyU9UOnqDPIj0KgHJiy++qN0/HEOlxj2MW4fr0yh7i0bohRdeCBgHjRcVGWuVB8LEwQPLA8QDgcXGceZ7f3JCGNFwXnPNNTqfuAt5WHl4aKDcXpfvKFceRvKD647zGD9y5tk0XDQiNCYIKGHBAQ8mbXlDmLQGg7CzUaPRZEyZNDz88MP9izBwbUBkLGG3+XObN38ChhdccIHO3yOPPLLHohBu6gEQduYTUTaAjbIijW7zNJB7hoeF8XGeeSxp/sbSMoGOImUeKE4scef9HEi8Rm7KKhDsvMvLH4Sd57mpT/y9N+lCA8mb01o36aHjyMQpvndTttQFX+kx5USbgFs+WJoC3XtnfdpbTVgI71YQXmsh3C8DYSrSR31uGsZdcLXQmOLeYdEOyoHZhVRmKhs9ZsZXqPhUSDPhCGsT9xCuLYBOw2zclsHiMNYjvVjioNcJPLFc6fXybrFpUGhsne47I18QNg00PWh6zUzQMGOmbq5LmdAoMfZo8sb4IONM5NkboIg0mlnigJdz+A5vA3k2ECbeY445Rj/oHMd9o9F2NmLO/5GbRtNtuXJP3OaNsuQ40m7mC/CJJcE16ejQkXPeH44LVg/cQJg64CZPA71niDqCexILh7FmziMQh3nlJVCcrEjl634Gi9fpNXBTVoFg5ywv53HO/5Gb+sRzvjfpQgPJG+XKfBVemTT1jUmjDJcxBGLagmBl6y89ppzIG2siBEoTcQS6977q095oYkN4lYWwkRPCiEaDBgS3DpWL10BwoTL9HyDjcsadyzu4WHo8MFTMs88+W0/gwFXDePK1116rx5ao0DSuNEyB4qBSX3/99fpa9Cx5UIEWPVNgRs+TB4j4sXYCvaLkhDCiTOjhAokpU6boiVo8aG6uy0NHA8uMyDvvvFNPzrnyyit1x4NyJ/3e4uFnwhMTSIA9E4aY/ME4Vnh4eD+EzTgcaSLNTIyjB04PfigaTTflSpngSnabNxpRYAfo8C7wSgszZ6l7pGXNmjU6vc57Q72i0QpUD9xCOFieBnPPECCn48n9YOIPaeT+MOMb1zeu0EBx4tb3dT+514HiNePaRm7KKhDsnOXlPM75P3JTn3iW9yZdaCB5A3DTp0/XzzJwpMxwDdPO8ExRD4LdM8rWX3pMOTFbmvH+QGnimQx0733Vp73RhIbwGgvhfgFPU9m8e3JMrLnuuuu0pUGlYzYgExJo9Oh10vABF8Y2ARm9Tc6n4uPSoeIyQYaHgu95EC666KKAcdBo08jxviVjN/RsCTwUNPSkiYeJcUdcVL5mlCLydP755+sHx/uBI37Swas0PGxY+8DSzXWx6nC50wDwG+5608jR4Dtdr+Y9SCYtkVZmmtOp4X8aFtJAOkk/nQkaAdLEeBSTx7A4KBvcraSNhtT7f8Q1md3JDGHW4zb3nMbgsMMO064yN+VKGTBm7jZvXIdxNlyF3EvuN/ca+LFqFg2s0wo24lqB6gHuXGc+EY0/9RuwmRm6gfI0mHuGjNVEo07Dz31j5jeuTzodlG2gOAGZr/sJLALF6+sVpWBlxb31VS+Qs7ycxzn/R27r096ky8hNHJQX5UzHFYBSv6hrHMvzTbqoB8Huma/8G3mXEx2oQGni2ED33ld92htNZAiv+Q6E35/cEKYCAyZ6u94TC6jcNGT0/qjEPDRYlYy50MhQqXlQCGahAeKiolKR6anecccdGsDEy2+4pt3EQc+W87CKGPsjbVhfpImGlXOx1M3EEaeIg/TyYDonS/Ab8CN+8mUgHuy6BB4yvqM3zCsQPLTkgbJ2Wn2Ia5M30gvk8DRwTdLl7YLkOBoUrok7jftBPombBoOyIXj/j4xbmDR5jynyO/G5LVd+G0je+J/zOB5XMO5B7in545rOMvdWsHrA9Zz5RMRJuVF+bvI02HuGTLykkfPM5hScZ9zRgeL0dT+JM1i8TgUrK3/1AjnLy3mc83/ktj7tTbqM3MRhrFc6VnTsGO4w9YxzzfNj4gtUtv7S411O/B0oTfwe7N4PpSY2hFdaCA9GVDIqcKDKRo+fnj89UtJDBfeWmziMTMPlFN+5jWMw8nddI67NA+n2+m7zPNz5MgqUv4HmjXg4fqDpdlsmbhUoT2ig+TIyDbiv84LFGeh+BorXqaEuq6HSUKQrUBxOF3KgY701kLL1JTfXCXbvh0ITGsJHWggPi2h06DHzYj1LS7K8HL1GKysrq4EKCHuv8jXZNJEhfKSF8PAIFypuINLA2Cdjc7i3rKysrAYq3PjMMdmyZYt2B082WQhbCA9YuGYYj6MHyziJ891HKysrK7fC5Wte4+PvyaaJDeEVFsJWVlZWVmNXExrCqy2EraysrKzGsGjDX3rxRf0KlLOdH64wUhBevfqIYBC+UkH4HAXh4y2EraysrKxGXLwO9dwTT8jqVav2aOeHKwwdhM9UEL5QQfjWwBDeoSD8noWwlZWVldUY0zf/+Ic8u2uXrF65co92frjCcEP47nvulDfffENWrVpuIWxlZWVlNXY1vt3RviHMDoUPP7xNjjjiUAthKysrK6uxq/E9Mcs3hM8972y54orL5LBDD7YQtrKysrIau5qIEN64cb2sWrVCli1baiFsZWVlZTV2NREhfPjhh0hn50xZunShhbCVlZWV1djVRIRwb2+X5OXlyKKFvV4Qfs83hM+/4Bw50ULYysrKymoUNF4h3KkgvPUcBeFLL5Tb7/guhNevP0qWLz9MDjpwcR+Ed/iA8GsKwtdYCI+UzJZmzq3JJpJYupN1tc3OLOST+zOcS3q6LVfSwG4w/naEId1s/+bcQjBQ3L7Ocatg6bEamGx5jl+Ndwhf4gPC27c/KL/61ceycsXhFsJjRTTkV111leo1Xar3+Z1oAkLsAPPcc8/pPUr5mz1I2ejC337IQyG35Uo9YW9m9kd1bkoOTNnEnB2xzjvvvP54AsXt7xy3CpSe4RagMuueD7TzEExutscbDo1meVrtnSYihC+++Hy58cbr5MCli/5hITxGxNaHhxxyiCxZsmRCbldGg75hwwaprKzU4fDDD5eVK1fKWWedpRenHy65LVfSd9RRuIiW63OMgAXbUFKfmpub5YknnuhvxP3FHegct/KXnuEWaf/kk09k0aJFsmXLliG9N8RNx4VN5kf6uRyt8rTae01ECJ+w+biHNq5fd6Rq/1IthMeInBt3TyTR+H700Udy6KGHykMPPSRXXnmlLFiwQP+PZTxQQA1Ebsv1q6++0ltO3n333fLll1/2f0/9efbZZ/Vervfdd5988cUX/Vacv7gDneNW/tIz3MIrwT3Kz8+XG264QadjqETcjz76qL7vge7FcGi0ytNq7zURIXzqqSce8/8YWQh7hIvsL3/5i3Yb9bbfDgAAgABJREFU8pBi2fzqV7/Sf/Mb+wHz3ccffyyfffaZPtbbVUcj630M1gSNNG5JX7874zANend3t+zevVtbUsTB8ZxnGvFg8fDJnqNYMN7jlHzP+KS/8ctA+Tdjt4xtcj3SRfo41jsuZ9q8y4DzcT8D47ffflteeeUV/Un83oByxuHMH7/TmGPZfPrpp/3XAHS+8uW2XHHB8htx8jfiNxrvX/ziF/LSSy+pZ+Q9XYbkh998QTjYOeYY/icPlDFlwnXJK/GQF373lR5f5UvZBrs/bsuNurN+/XqpqqqSd955R6eDusQ9IBAv1+Zc8ukdf6A0EPjuhBNOkIaGBnn11Vf780qagtXXva2fzvvrtjysRl8awupZOnKcrZhlITxACNMI4BolYKlhxbS2tsoDDzygH+xbbrlFurq6pKysTLsYTzvtNN0YmfEtGq9bb71Vent7paKiQrtc6fEDHo6hgQgUBw0Abs2mpiY55phjZPbs2VJdXa3ju/3223UDROMQLB4aleOOO07OPPPM77gSiX/FihVy9dVX64bGKX/5xyqioXv33Xdl06ZN0t7eLuXl5TJrlqpgW7fqsiFdgcoAINGg3nbbbdoCpoGnIV61apUGlbGEiSNY/mj4t23bpl2LpK++vl67hLmuLwvHTblyXbNx+kknnaTzYfITKM1OCLs5BwG2N954Qy/DR/opq9raWh1wA9977726XH2lx1f5fvDBB7pDE+j+uCk3jqPTUFNTI2vWrOmHI3WJdJCeuXPn6nwddNBB2lI2aQNsgeoI8fB3SkqKTJs2Tadh2bJlcuedd8q6deuC1te9rZ/O++umPKzGhv6pnpsXn3tu3C1bOQgIvzOpIcxDz3m44UpLS2Xt2rVy0UUX6YlD119/vf6eB5ue/OLFiyU7O1tOPPFEDQ0e6BtvvFEKCgp0I8/DfsYZZ6iCPlU3ZPx+8803B4yD69O4hoaGSlFRkW64iWfOnDn6fzoDNB7B4qG3T0NJ4+w99kVPn0Z78+bNPsf5/OUfa+jrr7/W5cDvNFo0hFw3MzNTLr/8ct1IBioDAMpv5GP+/Plyzjnn6MaQ9LS0tMibb77ZD9hA+QPkHEuDSbnQyJKWo48+WoPbV+PpplyxiDgOKNC4Y2WZ/ARKM2XtDWE355iOEh0CYPajH/1IrrjiCl1m0dHRuswAIfDwlR5f5cu1sSz93R86Gm7KDSv7xz/+sS7/e+65R993yoW4YmNjdb0AjIwVd3R0SE5Oju4wcBwdi0B1hLpInHRK0tPT5dxzz9XAe/rpp/W9DlZf97Z+et9fytZNeViNDdF5ff6pp8bdLkoDhPCjFsJ9jbVpCGkEcIUBkJkzZ2qrjPFLXFc0eDRChYWF2sXJd/yPtfXaa6/1u81oPGh0aaxpaPzFQaNLQ8r1ExISdGNFw0s8WFCcRy8d6ylYPHzHMQcffPAejRqNF9aCPwj7yr9xowIq0ki6CDSeubm5enIVUKFh81cGxEUZtrW16TzwPdcDuDTIgIjvgpXTW2+9JTt27NCNv4EVHROu78+NaPIVqFyBu9OqJT/B0sz1B3oO12ZiEpYsHQLqF50nrHKOueyyy/R5pNMZt7/ypY4Fuj+U686dO4OWG/WFCXNcA+8F992UX2JiogYu1+BcxnYzMjJ058h4EwKlgTLmfjIxChCTBjoW5N9Nfd3b+ul9f7mmm/KwGhvSWxlaCE8eCNOw0PDjXuNhxM2XmpqqXZiXXHKJtkZoKHF7JSUlyZNPPqlfueGB92VluomDBoMGil461tFHH32kGxZEw/TDH/5Quyofe+yxoPG4bdSc8pV/I/JA44Rr/ZlnntGTWy6++GINRtySNHq8/uGrDDiX3/Ly8rQFZX7jezowWHa4YIkjWDlR1hyD+5C8nHLKKXpsmcbTO73eIl+ByhVriLL3bqQBnps087rLQM8hn0C4uLhYW5WUKenHhQ0UADYWqXd6gKi/8jXXCHZ/uGagcgPkdBzomOCBMNcw5YeL2pQfgb/5jueMeIKlgfLmOFyKDDFQ5sh0vILV172pn8TrvL/BysNq7Ah39AvPPmshPBkgjAsLS8Y0EPSyscjofUdGRmo40Iun4ebhbWxs1K+fELKysrSLjd65t9zEwUxaJplwfawdGiYjGgYsJlyyuAqDxUPj6KtRA840/IEg7Mw/osHF0mFsDgsJFyHH4MaLi4vT4600alzbVxmQ/+eff17/hnvW+zcsF1yrxEej66acaGyJDwunpKRE/8arT7glfTWgJl/+yhU4molGppHmXrhJM+8BD/Qc0sB9wf0KVAEeblXc19w34ABUnOnxV75u7g/Xw1IMVG64YOnw4O7FSjTPDekgDoY4yIcRdYTrAVWsXDdpGAiEnfV1b+qnE8LkI1h5WI0dURfxXE3wiVkWws6HFGEdYOWSd6wY/gYWJgAfGi/cg/TQuSZuLW+5iYMxLawVLA4sXhogY7GZBpyGgkkoweLhs7OzUzdY5AkZa5RGnElb/iDszD8Coi+88IK2KojXWNsvvviitpo4h+MBkq8y4No0bAAH6JnfyB9wocFkEhONsZty4jzuKQ0r6Tr22GN13IwFOsseGUvOX7kyiYd0OC1PN2nGchzoOdxn3Gt4NbgfuKUBBeOSlKlZuMRpufkrXzf3h7IKVG7AkfRT7sCL9Jpy8lcvACEwBap87yYNBsJ0qLwh7Ka++kuH2/w7zw9UHt73zmr0pWdHT/RXlB5XEN7tE8JXKAhvVRDeNCkhjGiQcLvRU6bRxVVIYDyOHjiQBRL0wGnocZfyO+NdWCz8HiwOY/ngbmP2KA0044QcA+BxU2Ip4YZzGw+NOw2ZcW3i2mVcb6AQBgqMBXL/mcEKRGikcPkRHw03DZm/MiBt5B9rB6uW34gTixaLC/ft8ccfr9MUrJwoSwDG/yZ+xonJL9f1tpCMgpUrYOQYZ/6NhRYozczIHeg55JP0n3322drap2NFHgAH35NHk27vuP2VL8fdddddAe8PxwQqN9y4WIWAjHR5W9rOdBh5Q5i/3dQRyp4JacCRusmzSZm5qa/+0uG2fjrPD1QexjNCfQTyVqOr8Q3hHykIX6Ag/GML4WByPqRGNKKMT9JgM7vypptu0jMomZ2K29G7UcVljHuLWZ/XXnutXHjhhf3vOgaLg+sDWlyxuNVoUIjHuC0ZK6SBCRYPsDr55JP1JB9e/eA8Js8wJhoeHj5gCAMFGigaTl4b4pq4RBmnjYqK0hYMjVygMsBFft1112n3IpYGjSaNLJYLjS+WCI1dsLKmLBmHxWrk1RYmafG6CnDinnu7M43clKuBmXf++Y5Z8YHSDHwGeg75BBJYXvHx8TqfwJl7xrgwrxuZZSO94/ZXviyJuWvXLt1x8Xd/sKQDlRsucMqFWd24/bzdsc50GHlDmGPc1BGAx/3k/jJuTrrpbDHOHay++kuH2/rpfT5wDVQedAYoY7wXZoKa1ehp8kB49+SGMK4yGgFciTT2Rsa6BA640WioGDfDjUnjSe+eY2iUmP2KJYdFQaNIA8v35j3gQHFw/Y0bN+rG+7DDDtONNsfRMz///PN1Q+ImHvO+JnHV1dXpYxhb5X96+v7WMfaXfwTYGbdkIguAIY+kk+MZswMqpgwAJvmnAWS8lTKg0SP9vIrD2CJlY6DBKkZmwY5gZU0cuGVx33I+LnoDAgDna+UtN+XKtZ355zs+A6WZ3wd6DvcHS5Y6yiQ08olbnDKlUwAksHqdcQeqY0CDzo6/+0PnLVC5ES+TxAgc6w0dZ7kYcRx5AKbUO7d1BKhxHaBJp4iOB16JYPXVXzqQm2t7n4/1Hag8qK9M6CI9zJwm3Vajp8kB4ccthM37mzzgxiVoZGZfmh407yRiPXC8OZZjaCxwZTGeCQjpsRurIlgcBBoLAmDAIqKhwIr0XuUqWDyIaxIPDR4NHHGYd5GN29qpYPknDVyTvBEvx5r0epcBjTMNIhbbHXfcoRt40mPSzf+8o8n4KY0h7kTvRj9Y/gAt5/Eb7nkzu5j77MticVuuvvIfLM2DOYc6wmsxdCxwRVNf+J0Z1Fi6WIkPP/ywthp9xe2rjpH3QPeH8g9UbvxO2fi6977yiIy1Tr3ie7d1xFyLcsEKxsolDcHqq790IDfX9j4/WHngrSAOOjdmjN5q9DTxIVxnITwQmQfaV4OPTOPsC3RGweJAJp5AxwSLx00cA5Gb+HDJMkaJhcd9oCF1irIJVD5GgfLH9zSmvn4LJDd58CW3afaWr3MAEDOBcbfSGQCqAATw4IYFwqzkFKjx91fH3ORtsOXmVm7SgAxYvY9ze64/DeZ8f+XhK31Wo6MJD+E6C2GrIRINF5C5//779RZ+8+bN09aG1bcCuLjBcbOzUAjuVtzvrNaEdcxiGVjRtvG3svLIQthC2MqlzNKFlD1jeoyD4la1+lZ0VPAOMEGJMUrGPZk8xHgkexN/+OGH9j1VKysvTXgI19RU+IXw1QrC552/VTafaCFsFVxYb7hRgQzja+a9XqvvijLBbU8Z4SlgXJexSiZu4QK1srL6VuMWwp2z5OytHgjfdvsgIPwTC2ErKysrq1HWeIfwxZcEhXDZlu3bH5I33njdQtjKysrKakxpwkO4qqpsy7XXXi23336rbDzmaAthKysrK6sxowkP4YqKki1nnnm6+vJk2bBxnYWwlZWVldWY0aSA8Lp1a9WFl8j6DUdZCFtZWVlZjRlNfAiXFW1ZuLBXiooKZN3RayyEraysrKzGjCY8hMsUhI9Yfpg6YaYcvX6thbCVlZWV1ZjRpIDw9ddfI3fddYedmGVlZWVlNaY04SHc0FCz5f7775GPP/6lfUXJysrKympMacJD+LLzzourrq44q7a28rL1G9b+20LYysrKymqsaMJD2FsbNq772kJ45GW2YvPeWm8wGqp4vMUSi6xl7Gunmcki8u0v78NR5qMhlstkW0GW0xzP+Rhrmij1YzQ1iSH8ch+Ez1YQPm7CQ5gHhL1L2VD9o48++k5gVxs2JwimwWylhnhAWbz/0ksv1VvbDVZDFY+3KD/2VWXfVfZgHUsabHkPRHQ+WN+ZvWp91QFfZT4S6Rpqse/uySefLPfcc48G8WTVUN87X/VjrGio8zpcGr8QnqkgfIaC8PkKwrdYCAcTD8i5554rubm5epu5wsLC/jBr1izdCAeqrPzGA8cG9G6vacT2f2xrt2TJEvntb3/r/Nm1hioeb7HJwFGqQi5fvlzHP1a0N+XtVlzjs88+07sctbe3ywcffLCHNeMs85FI13CI+l1dXS2nnHKK7oxORg3HvXPWj7Gi4cjrcMlCeJJAGFfcCSecIPHx8XLGGWfIlVde2R9uu+02XWEDid2DHn30UTn00EP1rjgDEbsOLV26VHp6egZ8rreGKh5vYRWxJeHdd9+td/kZK9qb8jYK1KlC1J0dO3ZIXFycREVFyc0337zH1ozOMh+KdI2GPv74YykuLpbNmzfrZ2EyajjunbN+jBUNR16HSxbCkwzC2dnZ8vbbb2vgmEDDi9uGiotliHsatzUP2BdffKFdlvzP+Q0NDfLqq6/qis15WE6k4fPPP9dWFcfh3sTyNlaVeVC7u7tl9+7d+neOo+dMHAYWfPI/39NoEh9Wi9n+ztcDH+wcX8eYvOF+Ne5Y8szfZuzQBJMnjqd82L6Qv4mHczjG23p0XsuZHhM/3xG4NscRpxmvJPgrb873jh8Lj3tGXkw5cgzxEUeg+sE9O/7443XdB1BYNE5rxrvMTVm4SZevfPM/9YI6x3Gknb8p92BlgshfsLqG+Jt6a+IhjdT5oqKifgg775OvcnSK7/09I95pDFYOw1m//KWRMvroo4983jvK39e9IV8M0QQqb+czOdz529vnh/iDXWOkNRoQXrtmzb9hlg+OuQoWwgcOHsK4o3kYnaICb9u2TbtmW1tbpb6+XjfKt956q67oW7dulZSUFJk2bZr+fdmyZbJr1y593rvvviubNm3SLs3y8nLt3uZ4KjcPBA8I7qqmpiY55phjZPbs2do1yIbvt99+u34AOI6Hnc3gu7q6pKysTJqbm+W00/5/9s7E2ari2v9/xCuHF0HQBJBiEBEVkFlBRhEkyqQ/MIrKUGEIgoLM8yjzFGUUFRRFDHEOyPgDRQIRNQpXnJJnkpeUY8pUvf7dz/pl3bdt99DnnDtwOetbtYt7zt69evXq7vXttbo3Z4ZMFCWW6IRnMmWV4Rn2A2kH9bVq1cq1bt1aVshnzpyRezNnznRTpkyRv7HTnDlz3OTJk+WiLZQhZUvEvH37djdo0CD5rn379lIO+6B/iD4qn3LU27t3b9emTRuRuWHDBtEBe8TZ+9VXX5W6yFz069dPyuFkhg8f7g4fPly2p81v995///3SH6dPn44lFfQlVdehQwfXt29fN2LECCGpI0eOiFNWRG3OAipNr6x2z507Vy6yL/3795fyu3btkrJZNqEN6JU11rhwrsuWLZN7PINO06dPdw0bNhQSpo+QmWVHH2lzBPLKpf8ranwl6bh69WqR5fcdc5i5FNc3zz77rDt27Fiqvf05WdHtK2T+0FYWAVl1VDaqgoTvuuuuT+CsGB4LuoyE/0/+JNyoUSNxNAx8LiYOq+a3335bJmyvXr1kADMhx4wZI4OVfR8OtOCoGjRoIHvLOB72EBnUb775pujExKccE456Vq1aJatpJioEeNFFF4mjx9kxgaiLzzt37pTJQzqU/WomLroih8h90qRJMnH8CY/DySrDMxs3bnTNmjUT8qde0vE4ZdqNTCYojgfnzecBAwa42rVri6OgTVxNmzaVNiGHOnAwyMMeTH7qCdEH+Xx32WWXuRYtWrihQ4eKrO7du7smTZq4HTt2yHNx9j5+/Lh77LHHxGYQ54IFC8QZsajo3LmzO3HihDgR+gs7tWvXTogzGmkoiATQlUUZ+uO4aeO8efN+cMAmanMIPUmv9evXZ7abMcIztHvkyJFu6dKl7tSpU+LQs2zCOCNKzRprXMuXL5dy3MNh46B55sILLxTdiMAYE1l2jILPfJ80RyDh0P6vqPHF4itJx3Xr1kmb/b5jDmP/uL5B1qFDh1Lt7c/JimxfofOHtjK2s+qobFQFCZdeJXBWDI8FXUbC/yd/Ev7JT34iKz8mKRfkCDExaBnEENT7778vpAhJMdFwQDguDi8xsLnPhNHUHWkmJiAkxrV3715x7sOGDSsjOur52c9+JvXwDKtVFgOsRFmp48iZFHzev3+/1EcaicnF4THqpI7ohGcRkVYGAuI7PhOFv/XWW2VpN+wRF12rrvXq1ZMojc9kDsaPH+9q1KghET3EwWTdt2+fTN7Ro0eLvbL00TYgv06dOuIw+ExZ9q+I1NQRxNmblTqyunbtKvaiHeiHU8HZzJ49W76jXyhDFAN5xYE+KF0NC1ETXdJGxkOPHj2kHo2eo/ahfUl6US6k3bVq1ZIxRrqQcwjoii5ZNqHfQsYadaMb0ZHaiLZBSOx9k34/efKk6JtlxyiYZ0T8SXOEhU4u/V8R44t2sccfpyO2xuZ+30Xt7/cNbc6yd3WaP7SVBUdWHXGL1opEUZPw2nWr3cJF89zEh4uHhJloTCBSTFysIh9//HFx2KRtWF1ygpS0JJNMU5P8TcoSAmfgKhiwOCFSu2+88YYccCIVyIAmAiEqYyISaeIYmZDq4Ln3i1/8QtJSL730kqtfv76kqYlkWLWvXLlS0mB169aVyU+9UUJgny+tzO9+9zuJ8HEaSQdy4pwIupKmVTIiaiTaoa4lS5ZIewH6YDMWEZTL0kfbgHzIT23Bxd98R79ia9/e2JlXqYgo6DNtC9+z2CDCIAJBD8ACI+ndZ76nf3HWpGNxhkQ81AcJ/eY3vylLyfr2idMrtN04TxwlTs9PeYfYJGusQRJEb9Rx7733Sploe/meMU97Q+2o0PR90hzJxQ4VNb4Y7zyTpKPfdwolTr9vsuytc7s6zB9tT0gdca/qVSSqKwnfXErCc+cZCedMwo0bN5bVP6tFLr4nlUbEdODAASHo5s2byyQeO3asrFqTJjCDnwiFVBeRJuk8IgwiKqIOVr06UUn5sNqEPBXIJDXNapiFAAuEmjVrygRhBUtaDT06duwojpPDIjrh+ZuVbFqZ119/XS7aTEoq7gR4nBNBb/aa+AywDQ4I0iJ1TnQAaEvPnj3FifB3lj7aBl8+wKbYEBvHOREcA/1DW0ifRtuCHFJ72D5q3yQQ5ZF2vuSSSyStxyIFUiJTcfHFF0v6kOgC+PaJ0yu03YwBdIwSgNaRZRNSrVljjSgHsiDtSeSrNmKcfvjhh9JOziSQes/HjvR70hxhjITawW9reY4vCC5JRxYp/hwGOj+jfZPL3K4O8weEjtVQn1peqO4kvHSZkbDfp7HIOpjFpEMWE+vgwYOSPuJZdcg6qBmo0UHNs6yMmUysIln9ElWR7mFyRiNhIt5oqlOdHs6C1BV9QBRC9EpKTC+cKxMZJ6ITnu94Lq0MiwtS0KzwsZcSSxRxTiT6GVA3aXTssXv37rIoEceB/nqqOEsfvw2+E8Fh+E5E7c0qHkeKDixctC3YEseEgySqRb4iLgrmO01r44CITNhn5iLKIUVL31FX3MEbXy8i7kLaDfw6FFGb8H3WWOMZ+lvTsZpS1iwCxEskjJxc7KhImyN8l68dynN8pelIpO/PYRBn/1zmdnWYPyB0rMbNm4qEkXCRkXDcK0rsl7A6xWmROuIz+0ukqCBOBjFRM1EEExCHRr08x74MtuMADBMEp8aqlz0bBrpOVGRxWpG0M7KoRx0mh2NIg5FOYkVKpM59LnTS09P+BMdpppVh0jG5WMXTDtqt7SMCStoT9id5iBOhnVn6xLVB4TsR397UqSTByp220GdEPuxVEsmy3xnd6+Z5P7WGHCJB2gIB85weiqFeDlhBVo8++qh85+sbp5emAvNpN0i6F7UJf2eNNeSgC/0NkerBQb7ftGmTpBuZA+jNvmCWHaPAMdPWtDmSb/+X1/ii39N05H+F8+dw3BwA2CTL3uVJwiHtS7IfyJo/2taQOiobRsJFRsL8Zx0cxOKVBb04nUgajxTltm3b5HAHryrgzKiLCcJAZV8H0mQvjeP+7BWxmmSgc9wfR0fal/0V/vMHUlw6USFaUkCkjJjUnFbkNSEmJgdimOR6qpXTysiiPnQlbYj+/gSMnoRNKqOpVxYfpOioF4KBgEhx+itrvw4Q6kRC9ImTD3wnEmdvCIP0IO/0EtngJNnTIlLhJCqRC6RLu2grhO2/ooQjpSxOCKccPQWMA+JgCk6KvkM/3z5xeuHoH3nkkbzaDZLuRW3CM9STNdZwpPz3lPQVUSCvwPG5bdu2cjBIT0ez2MiyYxR8xl6kuZPmSL79X17ji35P05H56vcd0S0RoK8T4yLE3n57/M/l2b4k+4GQ+UNbkZFVR2XDSLhISBgyYpAx+FjtcwBFL17LYK+GvRacM+lhHdA4JCYNDhqHzisBTEzIlInOROJ1Bg5Y4NRw4Dg2TjyS+tNU9gMPPCDfDxkyRBwdr4ewOl+8eLFMQF2RM0FIIXGf1wh4N5HIhJUtcpBLGhGHoyvjtDI8wwTlxCu6kV6jjUxAvkdOVKZfB6D9nL4kVbtnz54ym6M37cHZ084QfeLkA8iOfsVhqN6+vZ966ilxJCyc2BOjHVw4Sd7B1HdV0YuDMxyOiZ725B5tJjJinxBdfOCEIC0InFPTtMe3eZxeOPh82g2S7vk2gWCzxhrjiP1foiDGGf1NxEt7WQiy+EIO9WTZMQpImMOLWXMkn/4vr/HF82k6QoZ+3/HeLtkiXycQYm+/Pf7n8mxfkv2AP1bixilt1exOWh2VDSPhIiFhBiUOlglHyi56kaLB8UCorKRJDeNUGfDIV4fEAS0mDvuFpHKQx3ekdpFBVMzApxyTSp0il36mPGlCnAV1U1ZJgn9ZDSMLPXgnlBOpyFM5/M3k0wguq4w+wyIEAkNHyIVVNLr7Mv3PgPazssY+0T0j7tMebWeIPnHyAbrgHHAC+n2cvbmHfMiUk8DcQy/Sh6oXhEE/kIbTQzAKZNL2qM5R6DhBpqbwfH3T9Mq13SDpnm8TdMsaayqPz4wztjwYy3xGlqYctZ/S7BiFpqOz5kg+/V+e4ytLx7i+Y7z4OmldWfb22+N/Lu/2xckH/ljR7/y2Rvs+qY7KhpFwkZBwKBiEDN44R6RgEPNc9Bn+9r9LQsizOuHSnvGRVUbrVdKvaGTpE4o4e+v3SW1JKlOeSKqjvNqdhJDxA0KfS7NjHJCZNUdARdshTX6Wjkl9F4dQO5Y30tqXC9LaWl51FAIjYSNhg8FgMFQRjISNhA0Gg8FQRTASNhI2GAwGQxXBSNhI2GAwGAxVhCIj4VEeCa8qJeG5pSQ83kjYYDAYDJWO6k3CM0tJeJGRsMFgMBiqJ4yEjYQNBoPBUEUwEjYSNhgMBkMVwUjYSNhgMBgMVQQjYSNhg8FgMFQRjISNhA0Gg8FQRShqEl6zdpVbsHCumzDRSNhgMBgMlY9qS8I393Bz5saT8FQjYYPBYDBUB1R3El6ytJSEnzASNhiqDPqTd9GfpTQYDGEwEjYSzhlV9dNmhnMTkO/atWvdihUr5HebDQZDOIyEjYRzAsSL0+VHsCu7bsO5CX44/e6773Z33HGH+9Of/uTfNhgMKTASNhLOCd9995178cUX3T333OM+//xz/7ahCPHnP//Z3Xnnne62226zMWEw5Agj4SIiYaLYb775RqKVjz76yH366afu73//u6SWuf77v/9bPnN99tln8gwO9uuvv5a9Pq6zZ8+6iRMnuhtvvNEdPXpUnC4y//Wvf0k50pFfffWV1PHxxx/L38hOqjcNvr7UjT60metvf/ubyOJ79KVu3ZPU9uilz1GehcS3334rfyP3k08+kWf8sr4ttK3RNLyvI23+y1/+4r7//vvUdL1fLsQmfploe/7617/+oA0AWV988UXZXi2fk/ooqf++/PJL989//jPV1kbCBkP+MBIuEhLGgeNIt2zZ4vr06eNatmzpbrrpJjdjxgxx6BDHnDlz3JQpU9zMmTNd7969XZs2bdygQYPchg0bxMnjpOfPn++uuOIKd8EFF7guXbq4wYMHu9dee02c79y5c+Vas2aN69+/v9zfuXOnOO+kepNIB32pc+vWre722293rVq1cq1bt5YI/IMPPnDvvPOOe+ihh1y3bt3c9ddfXzogbhbdqAtygJBoz+TJk+XiPjIGDhzonn/+ebd9+3ZpG9+1b99e2g25RMtOnTrVTZs2TcpSx6233uoef/xxuY9+quMTTzzh+vXrJ/ZicTJ8+HB3+PBhIa84ZPVFnE3S7MFiaPz48aIzuikgx6FDh7p169YJmXIvro927dolbY+79+yzz7pjx46l2tpI2GDIH0bCRULCRLObN292V199tThRolkI6corr3STJk1y7777rhswYIC77LLLXIsWLcR5Q17du3d3TZo0cTt27BDieOaZZ4RoGjRo4BYuXCikACnikNEL+ZQfOXKkW7p0qXvzzTfd+vXrE+tFZhzQd+PGja5Zs2bulltukYXBrFmz3PTp08XRQzzUN2rUKCEOZDZq1MitWrVKCAdioD21a9cWwuI5rqZNm8pzyKUMbUQ+7WGxQb2U5R62gCCxNfVCSpR/7rnnJPpUHa+99lrXt29ft2DBAiFzyLFz587uxIkTsYSa1RdxNkmzB/X06tVLCJn9WQVRK7o8/PDDQsC0K66PTp06ldh/yD506FCmrY2EDYb8YCRcJCRMpIPDh1T2798vKViIDJK95pprSm3yhvv5z3/u6tSpI4SLMyXyYv+3YcOGZeRAufvuu0+I+P333xdyIPVK+pIIrVatWkIOEABpUCK7Hj16JNaLjLjXWiAFnunUqZN76623ylKlkAnEBgmiI/Vy7d2711111VVu2LBhEtVDDOhTr149ifT4XFJSIhFjjRo15BAR5EOb9u3bJwQ4evRo+axl69atK4SLfL5//fXXhayJ/iE7dKRtXbt2dcePHxf9KAvB8tzs2bNjTwtn9UWcTdLsQdoYeXfdddePSBhCJYpVEo7ro7T+Y3yF2NpI2GDID0bCRUDCOHTSt/Xr13dt27Z1y5cvl6hq5cqVkmKEbLZt2yYk3K5dOyErTbfyN99RHw6Xa8SIEZI+hTwU6uAhbAiFPcaQenHokEAUlPvDH/4gjl6jOP8+EdiZM2dk8fD000+7ZcuWCYGRYoaI0IeUaocOHWQhoPuppIDRZ8mSJSID0A6iXE74soeqZUlTqy30OSJc0s6QFDoSGRNNq47o9t5770nESiSOrCjysUmWPZTUQ0k42keKpHuhtjYSNhjyg5FwEZAwDp2IiyinZs2a4vyJZG+44QZx0h07dhTnihNmLzjqSCEeoi+IN4uESVMSGer3IfUShfptoBzfN27cWFLeRGQKCJEokH1O9CLdSp2kYy+//HKJcJUY+DvaHg5j0U7S6+xVE+EBSKxnz55CwlqWtkBs3FNA0BAdxPvhhx+6AwcOiI6koaM6Uh8pY/SKlgf52CTNHiCJhFl8XHfddT8gYb+PFHH3crG1kbDBkB+KnIRXFgUJk759++23pY1EZ/xNlKQXqU4iPpyq70hxyBCuT8KQhU/CviMOqRdi9E8RU47DQERltJO0uAJCOnjwoERiECdRI2TDviXpXXRIIgbqYk+biHL37t1lB6cgMUgzSsJ+FK3PkRLmcBL6k85GFgexVEeeJT0MWXFYi/RtFPnYJM0eQBcRkKhG3ho9Q9wPPvhgGQn7NlHE3SvE1sDvV4PB8GNUbxKeYSQcQsIAYiCtTLTF/iWpWS72FYl2cJ5xjtQnYfZGx40bJ04YJ0/9kESSI86q19/7VEBIRF6khEnfUkYPTXGymf7iNDAkBykR4bKfDbElEUMuJExWgFPgL730krSZujnxzIEkDmHxjEagRLHoSGRN6vbVV1+VaHnChAk/Sh2DfGySZA+iYvTQE9P0CffQjzQ3NsmXhGkP5wNytbWOB9rpbzUYDIYfwki4SEgYcmD/kVQsB4s2bdok+6OcsiWdyulo3wkDn4R1XxU57IXyepK+5xpXPqveOJICENK8efPkwBQHgDiF/eijj7pFixZJnRAYr/cgjxQt+6mXXnqpRINxxAByJeGLL75YIn4ICJ3JFKAPB68gQC5OfpPy5eQwhAXxETVCiESRcSSUj02S7MHeNv97GaeyOQzG4TL04yAde9eXXHJJ3iQMmZ48eVIWXLnYmrQ9OpINOH36tEXEBkMKjISLhIT1fU6cP8TCazW8jkJqlYiNE7k4cFKrOFEF0Q/1QbhEhMjBsfIKE86ZvUIiUyK1uPJZ9ca9jgMoxwKAE8ZEjaREIV5Ii2gP8uEwFQTIfUiQ+tn/JFpjweDrA+ly2pvTzHv27CmzHUQyZMgQOTlNWfSFcCExyAVCpX7qWbx4sTyvB9eQvXr1atl7Rj9dHPAuMv/pRRwB5WOTNHuwlUBq/IEHHpAUOvLYZ+YziwkWLpB4nE0USfeIzHlVKRdbYx8ObaFL3Elvg8HwvzASLhISBnrSlTTh73//e3mHlyhK/4cn/sWJRt9t5ZQshAEx6Pd8h6PF8ZNOJcpKKg/S6vWfjYJykAeRNnunROtEWrSZNCzy+J5FAbIgBC5kcvn66AlpIt/oviv3aY+W1cgOMiUS5D1o6oHs/F8K0rZBkLxTi02QTyo3joAV+dgkyR7Ynj5Bf2zBK0zoqq9baYo7ziaKpHuUy9XW6MNzLJb08JvBYIiHkXARkXAU6jzTiCIL6thzkZFPvTxLGT+i0u9zkRUCP70aWg/6+TqGIFebJNkjei9UVihylZvP2DAYihFGwkVKwoZkQMKkeTkh7Z9uNhgMhvJEcZPwmpVu/oJSEp5gJGz4X5Be55AU++D+60AGg8FQnqjOJDx7ToEkvPrfJPyQkbAhAtKoEHF0H9xgMBgqAtWdhB9ZsshtNRI2GAwGQ3WEkbCRsMFgMBiqCEbCRsIGg8FgqCIYCRsJGwwGg6GKYCRsJGwwGAyGKoKRsJGwwWAwGKoIRsJGwgaDwWCoIhgJGwkbDAaDoYpgJGwkbDAYDIYqgpGwkbDBYDAYqghFTsIrSkl4TikJjzMSNhhSwK8h8XOJXJXxy0j6E4r+T0caDOcbqi8Jdy8l4emlJLywlIQ3GwmnAcf56aefupKSktiL36fll4OK6f9JzvWn+UIBYfD7vWfPnv2RnfnNYX5rNwQVpV++YJzx+8D89vE///lP/3a5A/Jdu3atW7FihfyG8rmMc62vDNULRsJFQML8HB+/jXvttde6Zs2aucaNG7s6deq4Jk2auGuuuca1bNlS5PHD7MUAnCVO/o9//GOQ/XIBhLFw4UJ31VVXuauvvlrsq9fNN9/sPv7440xnXZH65QvGxqhRo9x9993n/uu//su/Xe6gjrvvvtvdcccd5/TPSZ6LfWWoXjASLgIS/uqrr9z27dslsli2bJmUr1mzphs9erRbuXKl+/Wvf+12797tvvnmG7/oeYnvvvvOvfjii+6ee+5xn3/+uX87CElEyq8vTZw40f30pz91s2bNcmvWrCm7nnjiCXHYWSgP/cobX3/9tXv++efd008/LeOpokFm5s4775TF47ligzici31lqF4wEi4CEoYwIFicJxHG6tWrJRp+4YUXhDRwsFz8dB+RHM8RfRC18TcpVurhPmltUq2fffaZPKv7dfrzf6RiubivaW5k63PoguMisiI9iyye+fLLLyVtHicD54b+UeLTNqEnz6ArMkn36nPohJxom3j2/fffF6K88cYb3dGjR38g35dLe5GhqXr+RV/0jrO9kvCVV17p3nnnHalXL+Rihywb8DlOP+pO0y0O1JXWd6H9hl7cQ1/+1nJ6qWzK0bZvv/1W/kYWZXgmOgbSdAJZJFzR9YfYhSupr7LGEjZkLvI5uuet2xnc0/33JBlJSBtfOv5ykZklT59Jk1lIfyX1he8X4ua7+rBc505Snf68CBlLWTASLgISjoIBtH79eklFv/baa2XlGXBz586Vi6itf//+rkuXLm7Xrl0yiN9991330EMPuW7durnrr79eUqvz58+Xgcdgo/ycOXPclClT3MyZM13v3r1dmzZt3KBBg9yGDRvcX//6Vxmw1A/5k9pE/g033CBpx61bt8qEQcbUqVPdtGnTpA7quvXWW93jjz8udahzQx6RZb9+/aQenODw4cPd4cOHy/Ys49rUtm1bN2DAAPezn/3MXXDBBaLD4MGDxRY4AibTli1bXJ8+fSRNf9NNN7kZM2bIBGRifvHFF+7+++8XO5w+fbrMASioE6dMOrqkpOQH9xRpNmACY9crrrjiB/q9+uqrci9NtzjgyNP6DjuG9Bvt4j7P8Z329+TJk+VCZqtWrdzAgQMlYibzggy+a9++vZRDf8ZKlk48k0XCFV1/yHjGOcf1VchYop6hQ4eKbOqKtmv27NkyxiAj6kmSkdTnaeML4kzTK05mmjx8A+MjS2Yh/aVls/xC3HxH3507d4q90/TzEdL/1BkylrJgJGwkLN/j9JDLPmaLFi3cyJEj3dKlS92pU6fEobz55ptyn4nIIGfyNGrUyK1atUomNuX57rLLLpPyOBgmW/fu3aWuHTt2yIQ9ceKETOJevXrJQEXWmDFjZIJ8+OGHZTJ0n3r69OkykZo2beqee+45WTXTho0bN8oed9++fd2CBQtksrRu3dp17txZ6mBixbVp3rx5bvHixTLRGzRoIPu3OJMPPvhAVq+bN2+W55lIkCn6ENVOmjRJHI2SQ7t27dx77733o0mmJIxtWBDgSLggEu4RqafZgAjomWeekUVFVL/jx49Lv6XpFgfqS+u7qM2T+k2jFAgGx0Y0wWcWM7Vr1xbHiWwu+gnZnD1ALrJuueUWaQvOi77L0knHUxoJV0b9WXbB5nF9FTKWyMZAtDh2nDjjiIsxxULx3nvvlUVcmoy4Pmfcp40v2pWLzCx5zGlsmiWzkP6K9kWaX4ib7/gw+jrXuRPS/8yLkLGUhaIn4XnzjYQBg+722293tWrVkr1M0irsX2p6l0GOM8QBc+3du1eivWHDhkmaSstz4IsByrOsFtkva9iwoQx2CIaIjrqpA0fEM5RnsFIGGXXr1pWJRT1MkNdff10mJSSADFaYPXr0cF27dhVywuGpc+E5Ign9zm8T3+PccHI4T3RQx4xcJikTff/+/RKJkGJk4nGwimeJsvn32LFjMgl9KAn/5Cc/kdU2josLPXBgWTbA6VEvB6Ci+rFip81puvkLApDVd5x4zuo3Ij6fFNW29erVk2wJn7Hr+PHjXY0aNeRAFQs4+m/fvn3i8DiDwOcsnXQ8ZZFwRdefZRdkxfVVyFh6++23hbAZBywoKUe6lDHMdxAcZJ4mg/oYL1y6RUC70sYXMrJkRscR/iFNHs+yyMySqXM7n/7SvkjzC2So4uY7PiyfuRPS/8yLkLGUhepKwj1KSXjW7EJI+M1SEl79/0n4wYeMhHXQMcAYoExqBQOUCXfmzJlS270hh3M44MUAJj0DsVCeKIkIkcmlaWP+5jv05TlOkbKCZXVJaunIkSMyUKlPZRClqgzApCHCJWpgYkEcrIBZmWoqT6MIVtSsuJGV1CbqGzFihJAksrU8e7j169eXSGT58uXiHDm4RpoJB8Dkwl7q9PxUNFASxhEwCUlTcaGrHsxKswHw9QvVLe71p6y+I8rJ6rc4UtS+6tChgzg5ykAikAd6LlmypCwKoA20lxQmzjJLJx1PWSRc0fWH2MXvKxDSX3v27BHSIcK86667ysYrB7wY/4zlkydPpsqAhNjCeeutt8QXEJGhH3Ljxhdjl7mTJtMfR7QlbbyGtBWZ2Cbf/grxC/wdN99D9fPnTmj/h4ylLFR3El78yEL3+FYj4WCkkTBpFFaM6kwAA48V37p161ynTp0k5cszRHeXX365rGDVafE3eydRp4ksyuGoGLSsGg8cOCAE1bx5c5nYY8eOFcdB9IAOrKpZXSuYiDgqiJf0KeU5WEYaOnramHpJZaEf5ZPaFOc4mYSskiFPTo4zYYlucJLo2LFjR1mhZ9lbSRj9iNJZsXPxvR5yS7MBjsPXL1/dQvoOEg7pN58U4/qbzABOiLHFPhztBPRFz549xanqYaQ0nUJJuKLr9+UD3y5+X4HQ/qKOCRMmuOuuu05IAzJlPDz44INyL0sGUdljjz0mxMbiEzIiJY7+ceOLd7wh/zSZceMobbxi8yw9kcliwbdnaH/pPE7zC3poyp/voX3htzmk/6k/ZCxlwUjYSFi+T3J6DOKDBw/Kyo6JwaqRAX/o0CFJ71AmzWkyaHFQ6rQgBuqkDHJJR5G6YT+FFau/WgZMPFJHHHogEmbyU4aDWKSIAM8y0ZkEHNbSfcs4ndRxMgF1shLdkiJkHBBJ8zd16cUCAaehOum/PpSE0w5mpdlAU31R/XLVTRHSd5BwnI38fvNt6X8G6MAeKW3hlTc9IEf/sTjCqfJ3lk5p40kRd78y6vft4vcVCO0v9GMOslfJXiLbFfz98ssvy/0sGURgpFJJ0W7bts09++yzsvBDbtz4wmeQWk6TGTeO0sYr32XpiUzmo2/PkP7SvsjyC8z9uD4L7Qu/zXGyQLT/+T5kLGXBSNhIWL5PGnSsTtkTwT6cFmQyQRSsYNkvYWCHOi1Wjkw09mVJRaELKTdSSKSaSKfxN6dNX3rpJYkgeYYDThx04BAW9egeFKtZiBsdcUg4GFbFRBeQYZJOyB03bpxMFNJz2IDJykQm1cQKGWeGjlzoy4qXKFYPfPGsn8ICSsJxryjRFmSk2QB7+frxPISepZuPkL6rbBLG8WXplDaeFHH3K6N+3y5+X+UylnD8yKMOZJJa5cSv/ocuWTJ0W4R+pu1c1J82viCNNJn+OEKPNHnon6UnMuPsGdJf2hchfiGuDhCin48kWdH+5++QsZQFI2EjYfk+adAx0Zl0OBmO92/atElSXuynXHrppZL+CXVafE9KjBU/K/dXXnlFXiUgjUObIAQm28UXXyyRBQObPSPSOpAah1bQX9tAGo/VOBOBfR5Wo5y8xNFAkEk6MQGRiw3Yq8UOrGAhUPaM+J7DHrSV53hFgdQ391lIkJYj4k57RYn/rINyvJOtF7Jw3DiCJBtgyzj96INHHnkkVTcfIX1X2SSMo8rSKW08KeLuV0b9vl3i+ip0LAEWj5zgpW4u+li3WLgXIiMKxn3aHGM7JxeZWfKwVYiecfYM6a8oCWf5hbg6QIh+PpJkRfufZ0LGUhaMhIuMhBn4rNQ4WaxkBXAonEYkxQvRRMFqEUfBYQmIj1Ul5MfzHDrSFGpceZwe+uKgGJCcKmbysCplf0kHNLoQpXCPvS0mAIRKqof6eK2I8pAeF3VAbOzZIIuLicA7h/ruYpJOrHwhUF47YAKxn8N7ijqRmbBMdl6BIj1IuovomhU4OnDggtRY3KlKVtdMbCY8UTl7dXopcbP3l2QDHFGcfk899ZQc/kjTLQ5ZfccBoDgbRfsN2b4t/c8A3dmnZGyx96hjE5sNGTJE0piMlSyd0saTIu5+ZdTv2yWur0LHEmChBMkx5iE20qV8BzSCzJIRBfM5bY4RNeciM0uejtcsmXH2DO0vZIf4hbg6QIh+PpJk+f0fMpayYCRcZCTMYIWkWG0yITWSY+Iz8Bhw6gQUDGJW56R1cBI4HZ5lgHHxfFJ5PfXMgOV7Jh5143g4jAKxUI526L4RZMoKk1c0qI9UrP9rOvytr1wQzbFPnEub0IvJSzkiU1bDyFS5tBUdSZFzOhQ5yMAp0X5Sj3qQJArKI4sFBXpHL3SlfJoNVPc4/ag/Tbc4ZPUddcbZyO8335b+Z4DuRIa0LbrPxn3aomMlS6ck+VHE3a+M+n276Hd+X4WMJQVjgr1Jxoc/n0NlKDR9nDa+cpEZIg9kyYyzZ2h/aVSa5Rfi6lBk6ecjSZbf/yFjKQtGwkVGwoWAScKg0slSCJDDgI7K8lNAofWpw8sHlEuqQ52Hfy+tTC6Is4GPpLqSdEtCqC0rE1WtU3nXn9RXINf+ikOuMkLGVy4yQ+SBXGSGIF+/kITy1g8UopORsJHwOQMmW/R/ZTIYDIbz3S8YCRsJnzMgjcdhCfZbQvZSDAbD+Y/z3S8YCRsJnzMgncOEi+63GQyG4sb57heKnISXl5Lw7FISfsBI2GAwGAyVjupNwtNKSXhBKQlvMhI2GAwGQ/WDkbCRsMFgMBiqCEbCRsIGg8FgqCIYCRsJGwwGg6GKYCRsJGwwGAyGKoKRsJGwwWAwGKoIRsJGwgaDwWCoIhQtCR8tJeFVpSQ8d95sN/5BI2GDwWAwVD6qLQn36O5mzprmFi1e4LY8biRsMBgMhmoII2Ej4fMO+vNi/s8fVgb0v9jj92QLrbs8ZRkMhnMTRsJGwucdIN+1a9e6FStWuH/84x/+7QoF/8H81KlT3TPPPCPkWQjKU5bBYDg3YSRsJHzegR8Ev/vuu90dd9xR6T99xo97t23b1k2bNs39/e9/92/nhPKUZTAYzk0YCRsJn3fwfwS8MvHRRx+56667zj388MOSSi4E5SnLYDCcmzASLhIS1v1FvT799FN39uxZIazvvvvOffvtt/I3jv+TTz6RZ3Qf8n/+53/cN998I1El9ylLZKY/K8Z9ZPzlL3+Rsir3yy+/FBmF1k0b+RkzLffZZ59Jmjlpn1RJuE+fPu79998XItZy/j5xVtv4l8/U99VXX8lzRKj8zT3aiFzKUs8777zjrr322jLiDNWfv7NkhehrMBiqF4yEi4SEceJz5syRH8bmuvnmm12rVq3cwIED3fPPP++2b9/uBg0aJN+1b9/eTZkyRQgB5w6BbNmyRUitZcuW7qabbnIzZswQEuA++5UvvPCCGzVqlOvSpYu74YYbJB28detWIat864aY/vWvf7l3333XPfTQQ65bt27u+uuvl/Lz588XAoojYkiYVPSNN97oJk6cKHpTrmvXrm7p0qWyWIDMuLLahu5z586Va82aNa5///7Sxp07d7qSkhK3bNky0Qf5yJg+fbpr2LBhGXGG6M8FqWbJCtHXYDBULxgJFwkJQ0wDBgxwtWvXFrKDMLmaNm3qGjVq5Jo1ayakCEnecsstrkGDBm7Dhg3uiy++cJs3b3ZXX321EASkxnNXXnmlmzRpktw/ceKEEG+vXr2EXCCsMWPGCFlAwvnWDbl///337s0335Q2UwbZPEu5VatWSfTog/puv/12d9FFF0kkOXToUNG1c+fOrnHjxu7ZZ5+V6Bv5aW2D8JBF3TzTokULN3LkSCFybL948WLXpEkTKcMig4UEel144YUiC+IM0Z9r+fLlmbJC9DUYDNULRsJFRMIQU7169dyuXbvkM5Hc+PHjXY0aNSRyPHXqlDjyffv2iWMfPXq0ECwOn6hr//79ki4+evSo6969u7vmmmvcyZMn3SuvvCIEMmvWLEn/cqqXaFPT0fnWzWdNdZOeJVrk2rt3r7vqqqvcsGHDpB4fWl+dOnXkZDFl0enFF1+UyBLCgtSIttPapqlsZNWqVUvaRzqZlPaZM2ck0m7Tpo07fvy4pJdpE4uQyy+/vIw4Q/Sn3hBZIfrGZQYMBsO5CyPhIiJhUqkdOnSQ1KXuLRKt1q9f3y1ZsqQsqsS5k3L9xS9+4X73u9/JfU7pEq1t3LjRrVy5UlKrdevWlfvsXfI8kSIneY8cOSLkQio237pJZxNl614ppPfGG2+4p59+WtK2kA7RIiehfWh97dq1EzLT1DN/8x22QzZ6p7UNskQfSBjyhvBoEzqxOOG7e++9t2whwD3azvdKnFn6Q8ohsliQhOhL5G0wGKoPipiED/+bhGeVkvDYoiBhIs7evXuXnRgmJQspEMWyx0nEBoi4evbsKfXs2LFDosCaNWuK8ydiI/UM4Xbs2FEiV0jmwIEDEtk1b95c7o0dO1aiW8gkn7ohYQiWQ0fr1q1znTp1cq1bty7t+B6S9iZCRGYSCXOP56KnoyFU5IwYMUK+J5rMahuHsEj5Ui/lAUQHoZIuJlolMgYQ/YcffihRrpJwlv7sC4fIYtEQom/oeDAYDOcGqi8Jdysl4amlJDw/hoQnGgn7gJj813YgQtK1OPrdu3e7f/7zn/I9RMje7ODBg93LL78stmFP9+2335Z0rF4QCDL0BDCEePDgQUkzI5M9UNLA+dQNCfM38ogaIWYiPSLpQ4cOSUoWmUkk7NcHIFEOMkHCPEN7stpGpOrL4gDUW2+9VZaC1/8QhKj3D3/4g+w7K3Fm6Y/MEFnYMURf+gLovwaD4dyGkbCRcCIRko7mUBEpXKIt9itJI3NBFvpqDOX4zPccHmKfmBQuJ50hvnzqhoQhFyJx+obDShAiZEQEzX4vZJQvCZP2JcpNa5vuZ/uyNLVNZNuvXz/3wQcflL1mtWnTJkkNQ5w8n6U/ZUJkEVWH6Et/UJZnLTVtMJz7MBI2Ek4lQlKienKXyBhiYC935syZbsGCBRLt/f73v5dU6rZt2+SQFq/yQCroCUnmWzekBaETNfJKDnUvXLhQ9kAvvfRSSRMXQsLRU8lxbYP4kmRBevyXkuhP5P/kk0/KZ9LEHDbT6DVE/xBZ6BKiL/3BtgBp79OnT1tEbDCc4zASLhIShnQ4cTx8+HBx1ADi48Qw78/u2bOnTBbEMGTIECEEykFEOH/2HXnlh1dkeJd1woQJ8uyxY8dkf5MIjT1hJTpSsdSRb92QGATFK0Ec1uJ/jyISJM2NPN695RkfcfUBSB3b8SoUB5000k1qG88kySLiZIEybtw4ee2KlDP7s+yF9+3bVw6baYSapX+orBB9sR8HvjgEZ6elDYZzH0bCRULCOHoIBSKJ/k9XpDOJPqP7idzHmStB6AlfUpxEvaSo//jHP4o8TUcjg3ucIOYkMPfQDZmF1s1hJepmH5ToDlnc12d8xNUH9JAYZKXfZ7UtSRbgMzqQQmZfl3brHrimh0P1D5EFsvQlBU0d7CfrYTeDwXDuwki4SEi4vKDEFJfm5HuILu5eoVAyrwjZirS2pSFEt5BnQOhzIElf3Rv2vzcYDOcejISNhA0Gg8FQRTASNhI2GAwGQxXBSNhI2GAwGAxVBCNhI2GDwWAwVBGKmoRXriol4blGwgaDwWCoGlRrEp5ZXiQ83kjYYDAYDJWP6kzCMyDhRUbCfp8aDAaDoZrASNhI2GAwGAxVBCNhI2GDwWAwVBGMhI2EDQaDwVBFMBI2EjYYDAZDFcFI2EjYYDAYDFWEIifhZaUkPLOUhH9lJGwwGAyGSkf1JeGupSQ8pZSE55WS8EYj4VyQyy/1pEF/fo+f+ePXk7LA8/zw/Ndff22/c5sB+gabVtSvUvnQn1zkOl/6prJtWEw4H8dLVcFIuIhImN+a5bd6+f1ZfrOWH5L//PPPy34wPhfwfElJiRszZoz8OD1yshwdhD116lT3zDPPCBGXB9CD39s9e/as6BO9PvnkE2lzCMprYVJeoF/5TWB+M5jfa65o4EzXrl3rVqxYIePhfEBl27CYcD6OF1AVfsBIuEhIGDLiR+Xvueced80117irr77atWjRwt12221u9erVMqlyAcS3cOFC17ZtW7d582b31Vdf+Y/8CPwQPc9PmzZNypcHcADocdVVV0mbaJteN998s9SZNaG4T/tZnITas6Lxl7/8xY0aNcrdd999snCqaFDH3Xff7e644w73pz/9yb9dLVHZNiwmnI/jpar8gJFwkZAwKeNf/vKXrlGjRhK9/vrXvy5t+1z57rHHHnNffvmlXyQRRJ+nT592d955p1u5cqXIziI68NFHH7nrrrvOPfzww5KWzgVJ8pEzceJE99Of/tTNmjXLrVmzpux64oknghYX3333nXvxxRdlgUJEfy6ATMHzzz/vnn766aAFTqH485//LP3JouxcsUGhqGwbFhPOx/FSVX7ASLgISBjSPHXqlESKffv2dR988IE4KKJIogXd10HW3/72N/fpp59Kevezzz77Qapa94AhPgYsK2DImygbIo7uD/Ev95AB+TKo33nnHXfttdf+gIQh12+++UZk8Rx1EyVTl9bJhEefuLYqCV955ZUiH2erF3LRgzrQl7aSokYWMtGP/UI+I+PGG290R48eFV0pS91pusWButLsqPviyOFS+6BPdK8cvbiHvvyt5fRS2ZSjbd9++638jSzK8IzKytIJZDnVJL3VVtFFkt+nZCOwPeNEn0vrE+pKuqc21HEY3Ubh++g4jLNhSDkfIfbT56LtVr1pN89l2aSQPg7tn5C2JMmKjlEdL3369HHvv/++1KOyonbMpb582q11pM3TkPZwhfqBuL4rBEbCRUDCDBQmSvPmzd2IESNi929xUu+++67s73br1s1df/31ks6dP3++DGoGKQPvwQcfdHPmzJFBrWAwDx061K1bt67MUTJgly1bJjKQxWSdPn26a9iwYRkJowOTc8uWLXK/ZcuW7qabbnIzZsyQwa7O8f777xediL59vZHDxCEdXVJS8oN7CibaCy+8IKnJLl26uBtuuEFSaVu3bpUJSRuvuOIKd8EFF8j9wYMHu1dffVXupekWhyw7QgLYb8qUKW7mzJmud+/erk2bNm7QoEFuw4YNcp820i7u85wSB+UmT54sFzJbtWrlBg4cKNHe9u3bRQbftW/fXsqhv5JRmk5Rp5pEwlo/e/psJ2i/3nrrre7xxx8v608u9CUL0a9fP2kbTm348OHu8OHDsjfLM2l9gi5J91hchY5D34ah5XyE2E/bjY6333679EPr1q0lqmLcMo7TbAIK6ePQ/glpi8pKG6PMb1LRtIP5xxxBVteuXd3SpUvF1rnWl0+7Q3xISHsg5zQ/kNV3hcBIuAhIGLCHg0NgkLKHy6oPh6YrSlZ1b775psjG+ZGqZhKQvl61alVZVMsARk50jw1ZOBwlV55dvny5a9KkichgAjDgkXXhhRfKpOU5HDG6EKEz8fie54lqJ02aJJNLyaFdu3buvffe+8EKGCgJI5tJgY5cEAn3aNeJEyfEkffq1UsmGm0jJc/EpR0cFGNiNWjQQPaXcaTHjx9369evT9UtDll25DAcny+77DLZk8f543i6d+8u9tqxY0fZyh8n0L9/f3F4fB4wYICrXbu2OCNkczVt2lRkN2vWTOQi65ZbbpG24GCwcZZO9FcWCXNf9WYMMf5YVOGs0OG5556TqIX6Nm7cKBkPsi4LFiwQ58f46Ny5s/QFYzapTyh78ODB2Hv0F2M2dBz6Ngwt5yPEftpu+gH74+zZHsFGkEGWTSCLQvo4tH9C2hKVlTRGWfCy2LjoooukXTzDvKA9jRs3ds8++6yM49D68m13qA/Jag/PJfkBtuuy+q4QGAkXCQmzYnvllVdKDddDBh4rZFb+rNI1OmGS4oBxWFx79+6VCHPYsGGyssWJMdDvuuuuHzkxBjerXZwYKSMGM6tGBjGpJyYtDvXyyy8vI2GVh9PYv3+/lCMNxOTgYBXRO7rx77Fjx2RS+1AS/slPfiIrYBw3Fw6C+tCT1SxtxikiS6MiTX1SL4d30Jn7TGwcJ7ZK081fEIAsO3JaF93q1Kkjk5/n0Ie9KLIEOA5W5T4p8ply9erVc7t27ZLP2HT8+PGuRo0aEpWw5YAz2bdvnzih0aNHy+csnbCFX58Prb9u3bri0JGB7Ndff12cFmSHrYlusBsRkfY9ZXGUPDd79myJCpP6hH9ffvnl2HuaZQkdh36bQsv5CLEf7WZsdOrUSd48oA9pO/KQn2UT/S7fPg7pHz27kdUWlZU2RlkQ6zOQV9wz2CCX+nJtN/WF+BDqzmoPspP8ALKy+q4QGAkXCQkzGSAxBjOrdNI6rFhJ4TCwmSg4uTNnzpTa5w05zEI6mYFMFIvTCnFiDG5Whwzue++9VyYZIC115MgR+R7SZNCzh1u/fn3Xtm1biZyJFjjoRdoKZ8JkpX0QZdK7nkrCtWrVkkmNDlysdPVgFqcdiQjQkVQdeqAXMgF/k6aHxJmIOPoQ3eJef6Jsmh2xDZEZkT2ORlO4/M139GscKfKZch06dBDHQBn2qYgO0XPJkiVlqVTaQHtJ4eJ4s3SiL/36fGj9jBvVG1AXEQELLsYBiwwiGOyvhEb9OG0iGiIe5Cf1Cf2ddE/7K2QclicJZ9kPYqHdEIsfTVM2xCboWkgfh/SPju20tuhYyBqjtCnrGfosl/pybTflQuYpZUJ0jfMDoX1XCIyEi4SEFRAaK1T2afTVHsgSx0dkzEqeVAsrdyJKIldWomkkzMTh1DNOjO+ZbKSRiET1dDKDnlQs9UGaOA5WrpBnzZo1ZRKxAiUNiUPs2LGjLA6y2qckzIKClSrkzsX3mm5ngXHgwAEhafbFkT927FhZkODY/ckHueajG23Etml2hIT5l7RolOyolzLokUTCfjkWVTg1osadO3dKOwH91LNnT3FU9EeWTqEkTEqP/ke+gn5kPOCo6F/sTF+QtoueTEcmqUTqpnxan9BvSff0sFXWOMyFhP1yUYT0KVEw44F2M6ei7WYshdqkkD4O6R/amdUWleXrAaJjFHLiGcomPUPd+dYX0m7+DpmnHKTy5fu6xpFwLn1XCIqahFesXObmlJLwuCIiYQXkRAQAAbOfwqqTlR0DnNUjE/bQoUOS5sGRKQlzn8muqz9dLTJQOfTCQCYdp+lETdVEn4M0iZh5bxm7s5rkb/TRC8fGRNQVvf7rQ0k47WAWZbETbWC/kTQXz7PvpKlOJh+TlsnHQiUX3RRMWuSzyk+yIyQcR3bUy+RPI2G/HDqQCqQtu3fvLjskQj/hINRRZekUSsJ+tAKQT7qOAzfYBqJEHw6uYFvAszhCHBaHW4gc0/pEI+K4e5qCzBqHSSQcUi6KkD5FNtslZHmYl9pugPxQm/j6gpA+Toom9TntH6LRrLakjYXoGMVmWc/wfb71hbQbm4XMU57z5fu6RklY/UAufVcIqisJdzcSDidhBg0rSSJE0joMTKINUirsDUOYrPRI63CIikHFgGMlyj4KA1wni578ZBKSMuI7UkA8hxOjDsiQVS8DlNeh9KDRpk2bJEWke8IMZNJBrFqJYpHHBXGzgmYS6IEVno1L/yoJx72ipK8fMIGRiWy+O3nypLSD1B2TDZ3HjRsnjoF28TxtyNLNBzZmz4mxlGTHyiZhnFGWTkmOMArte06PvvTSS2IzbMlhOLIeHFrhGeomGiMaoT90m4M9YKKxCRMmSNmkPsHmRNRx97S/QsZhHAmHlosipE+xH3ZmzKMj7VbdaQdjN8smcfqCkD6Ozs20/oEAQ9oSpwfIlYT5O9/6Qtsd4kPi5Pu6Mufi/ICSbVbfFYLqTMLTZ0xxCyHhLUbCqdBOxsmwH/PUU0/Jf2bBIQTIi/0OUsgMPvaIIUvSauyrXHrppRI5MOAZ1LwCwYEEDkZwOIFDDew3XXLJJWVOTJ9jAhHFPPnkk/KZdBEHLZSEGcx6ipqDI9RLRM6eNYsCniGlRVqSiZD2ihL/WQfl+N+/9EIWk4vJSWp827ZtcjiNtuMwsSPt0v0n9MAWr732mjj+Rx55JFU3HywYKJdmx8omYRxflk5JjjAKdfIXX3yxRAo4VexBmo8xxFjQ06qcKie9S+SKE4bkiIQgPyIj7M1/JRnXJ0RzfI67p/0VOg79NoWWiyKkT9EJpz9v3jyxBeOVk7WPPvqo7GeyoOOEbZpNWGD6+oKQPo6ScFr/MN9C2hKnB8iVhJGTb32h7Q7xIXHyfV2Zc3F+AOIlnZ7Vd4XASLgISJhBwuEWJimpIdLPrOIYROyDEXmwQuX9Pg49MOBYXTLocFZ64Erf+XvggQck7cWxffZg+IzsRYsWiTPCcSGTVSV1UCcrSfb1WJHjmHhOV6lMIhwH8tCN1JlGTEw0DnBQX9yJZOQw2Zg4tImUul5K3KTHcUasltlj1InHBGJyI5PneHUBh8E+EQsV0ndpusUBR59mR7IP/E16iwWGArKkX5n8yMYpRJ/zPwN054QnJzf37NlTNhaw2ZAhQ2QBRL9l6aQpeV9+FPQTNoSwcGjar8havHix1MkCiYvyLILYg8PmXDhh3vkkQ8F4JH0b1yekLIne4u5pf4WOQ79NoeV8hNiPMYRT57Qs97EN+kMMRFPYJ80m2M3XF4T2cUj/oGNIW+L0ANExylzMeoZxnG99oe0O8SFx8uN0TfIDZBCy+q4QGAkXAQlrOppVJCtYyuEEWaEz+CBNBiAHD3AY7K0wGBm8DHQufRcOR8ZnJTeVwUSIpml5nudIR/MchKbOIvoc/7KapV6iI94p5JAYdSMDh01d6K2HM6KgPKtd0oHoEr1wipRnQtN25PP6ArogH9vpBKJdTHD2gIickUn9abrFIcuO1MlnnEFUBvVjG+0Pruhz/meA7qzeaVt0j5r7tEX7LUunJPlRaDSB8yG6oV+RhZ39/2lK+xT7E/ljU3Sk/5Sok/qE73Ws+vf8/soah3FtCinnI8R++hwkjtPmOQifyIs6s2wC4vQN7ePQ/glpS5weIDpGmVdZzxQy9kLbDbJ8SJz8OF31uyQ/kNZ3hcBIuAhIOAoGLAONgRU3gPgu6V4U5f0c0AnjP6sO1f8+VyCDtqfJSaorSbck5NLuykIhOvkpvVBZ2DOO2BRpfZJ2TxGqh498yoWW0eeS2p1lk3yQa/9k3S9vVFZ9uc7TJCT5gYroOyPhIiNhgyEf4OSj//uU4dyC9U/1hZGwkbDBkAnSchx2Yf+MVKDh3IL1T/VFkZPw0lISnlFKwmOMhA2GFJCaw9FH988M5w6sf6ovjISNhA0Gg8FQRaj+JDzXSNhgMBgM1RNGwkbCBoPBYKgiGAkbCRsMBoOhimAkbCRsMBgMhiqCkbCRsMFgMBiqCEbCRsIGg8FgqCIYCRsJGwwGg6GKYCRsJGwwGAyGKoKRsJGwwWAwGKoIxUXCYz0SXrHUzZ4zwz0wzkjYB78ewi/YZP2KTXWF/sSa/zN8IdD/IpAfsM+1rOGHKI9xRjn6gp+q4/ddQ/qkPOo1GMoD1ZaEu/8vCW/2SXhqAAkfOXrYLS8yEs7l58SQy2/48vuc/MZrVSMX3UMA+a5du7Z0IbYi9ofc08B/kD916lT3zDPPiPMvJpR3P5THOKMvt2zZ4oYNG+Z++9vfyu/PZqE86jUYygPVmYSnTZ/iFiw0Evb7NBY4TZwVP3YdUoYfwR41apS777775EeuqxK56h4C2nT33Xe7O+64I+effuPHw9u2beumTZsmPwRfLKiIfih0nBHJ8iPuXbp0cffcc48rKSkJioQLrddgKC8YCRcJCX/33XfuxRdfFEfFj35ngQjv+eefd08//bSk+KoSueoeAv9H0HPBRx995K677jr38MMPS1q6WFAR/VDoOGNRQDYDMj1+/Lj7/vvv/UdiUWi9BkN5wUi4CEiYyODs2bNu4sSJ7sYbb3RHjx4VJ/rll18KiZCOxRERERLl8TfO7LPPPnOffPKJRBu6D6rXp59+KjIhM5wzKUD+hqAowzPRiIQo6ptvvpE6eIbyRJH6s2vcRw4RCuVVNroR3fi6Iwu9kOHrT7tIMfKzbqonbeE51SmUhHkeeZRHb55955133LXXXltGwllt88H3pLR9G/E9+5q6T12ozRXYiWgPnaL3+ZvvuKd7o0ntSBpDPE+5tLKAf+P6iu/Q3R9nfM+ldqed0T146mPsY6+TJ09KNIx+0T5OqjNufKvMaBt4lvHIs+WVfjcYfBgJFwEJ44Tmz5/vrrjiCnfBBRdI6m7w4MESBbC3OXfuXLdmzRrXv39/ubdr1y5xUPxI+JQpU8oIY86cOfKj4Vw333yza9WqlRs4cKBEFNu3b3eDBg2S79q3by/lkIFDxIFBiOzb9enTx7Vs2dLddNNNbsaMGeLscJY42BdeeEFShOhwww03SLp49erVIsvX/bXXXhMSQHdf/2effdYdO3bMPfTQQ65bt27u+uuvF32xAeSATiEkzHM45GXLlkl55KD/9OnTXcOGDYWEaVdW23zg2B988EGxZzSSRqehQ4e6devWlS2Q8rW5AtvTPuTSn9H6+Hv27Nnu/vvvFzKin5PawbNxY4h+YDGQZQPKx/XVxo0bxY7+OOMz+vbu3du1adNG2rlhwwZ5hjZBnO+++25qHyfVGTe+kcm/TzzxhOvXr5/UyWJj+PDh7vDhw7ZvbKgwGAkXAQmzuucQEU6lQYMGbuHChW7r1q1u//79bsCAAe7qq692LVq0cCNHjnRLly51p06dEkeGk8VxQUQQBM/Wrl1bnD5kydW0aVPXqFEj16xZMyEHyOKWW26RenCakCvX5s2bpR4cJdEUz1555ZVu0qRJEs2cOHFCiLdXr17iSHGcY8aMEULCUfu6f/DBB6IjtvD1R9ahQ4fkHjoii/rQc9WqVUJwISTMc8uXL3dNmjSR8pADZICcCy+8UNqBDmltg5x8QACQC2nd6H4kkVzr1q3LIuxCbB4F9oWEIRaIC4Lieu+992Rv+95775VsQ1o7aGfcGKIfWOSllcUGtCWur/bs2SP78tFxRtnLLrtMnkNv2te9e3fphx07dgjpE50S/Wb1cVydceMbmzHOyHD07dvXLViwQAia/ujcubOMqbgFlcFQKIyEi4CEWeUT6bBvhhN9//33xenwHSRUq1YtN2vWLCEBUqE4OBxTlKRwaLfffrurV6+eRBJ8xnGPHz/e1ahRQxwpzg2Hu2/fPnHAo0ePlugC0sE5EyFB/NRLOhPHes0110g68ZVXXhEnix7oRzkiRvRBL1931RGdfP2xCela9OYZrr1797qrrrpKTtAiN4SE0ZM6IS/2GzU1ziLh8ssvdxMmTJATtmltQ18/Raz2uOuuu35EwpAF0Z2ScD4294mfRRgRHvaFaLAf30GcfEcEC5mmtQPCJj0b1w8QWlpZnsXGcX3Fs7TDH2d16tQRwuU7xgJ70WQfIHVSzLp9kdXHcXXGjW/a0KNHD9e1a9eyvqY8NmLRQcYg11P0BkMIipyEl5SS8PTznoQBTmnEiBGSJsTxAXVSODecpu6N6T2fhIkaOnToIClG3T/DgdevX98tWbJEog+AfNJ+pJMpxx4qzxB1EVlCBCtXrpQ0Yt26dd3vfvc7eYYykBCnjo8cOSI6o1Oc7qpjnP6QHrqcOXOmtK/fkLQ7KWUIgUgW4vPb5wMZRD/IJlJEB0Ad6Mb3kCWkk9Y2iME/LJQLCedjcyLfKGgLJEumgTqRy0UkThobgmUhlNUO7OT3A7Kz+peyPB/XV34/aJvbtWsnCw7db+ZvvmPc0xehfRxXp18vBMxiigwDUbem7DVbQMaBjARlDIbyRvUm4cn/JuEN+ZDwoQgJjy5aEiaFRwQQJTe95ztHIhbSqEpapAVxfkRTO3fulMgEQDI9e/YUQuBviIpopGbNmuKoiaQgBAinY8eOEsXhUA8cOCBRTPPmzeXe2LFjJdIjavF1Vx19/XHYREqksTt16iTpRO6T5iZ6pQ0hJAxx4txJbxL5EkEB5H/44YcScY0bN04i1Ky2+X2URMJ66jpKwvnYPO6VG+QRuSMfQnrrrbfEzuxNU09IH1GH3w/YKaQsUbTfV8Dvh7g2A8rQn9TPIiO0j+PqBNF60Y2x17hxY0lDa18DdCDVjwzabzCUN6o/Cc8xEg6BkjBOMUrCSUTk3/M/AwiBfUIIaffu3WWHV3BWOC4IAQJ9++23xb5EE/xNxKcXUQhy9LQrzvPgwYOSckUu+31EI77ucToCSIHyRESQElEY5MYeMelSng8hYfb/ICpNkWsqkuiIqAmHDYERxYe0LQolTAgCPeLkKgn7OobYPI6EsS2HqNgfZf+UhQV/v/zyyyIzpI8gP78fsFNIWT/9q/Db6H9WUB/kT/18X2gfR+9hOxZ72JSDWKS/Af0GQUPAHNaiDfq9wVBeMBIuEhJmn5DIDSeFs6cczie6HxeF78D8zyCUEHBkpBKJjNhvI6XKBbHpayyU5TPfs9dIepRUIulS/lcjX3fKxOlEZMheIv3JQSocJ06V6JF9Rogiy0EDTYESZeGASefqK0GbNm2SNCuRJbqltc3fDwbIoG0ctqI9PM93pHHRsSJIWM8FIAsy47DRrbfeKn2jZJPVjrgxRD+ElI1rC/C/9z8roiTM34X2sX9PsxNE8KTXGUdkZ1599VVJU9PXus9Me/0tBoMhXxgJFwkJ614ikR37XkRFlGf/LcRJ+Z9BKCFETxlzIhUSQxdeESH9R4QFmRGdbdu2TQ5p8UoJBEhb2ffzddd3UX2dIAUIHKLgdRnq4iQv+5OXXnqpRJ9ZDloBgfAKF+0jMn/yySflMylXDkZxCphoL61t0VeCfLkc+OEgFYd/OHDEAbBLLrmkQkgY0A+cDsYOXI888khZ6jWrj9Anbgzp60tZZePaAvzv/c+KKAnzTKF97N9j4bd+/XpJ15N9geRZFBFps1gi8uY5tkuIjE+fPm0RsaFcYCRcJCRMNILj4JUPnBd7abzKwTuipOD8wzys+iEIved/BhAAp1Y5UcqrJqoLDnDIkCFCXEQoGgnhqEll8hoIqVDe7STC4Hne6yUqJ5pir1IdLs4P4vF15x1ZCNDXCUBykA0HlXCqRGk4Vp5lv1VPXseVjQJCZ/+X6A9HTPqTSIm9al5j4WAUdaW1zT+pDPQd1wceeEAOXVGGfVQ+EyEvWrRIosg4HUNtHgfaw2IHsmeBQ+pYX7vJ6iPaETeG6AcILKtsXFuA/73/WUG0y7iH/JFXaB/79yBU/uW9dPajGYdckDzvZPMffNBGDn3RZ3Gn3g2GfGAkXCQkDPR/TmL/i7QhjojPOB//HUg+c1/v+Z+BntYlCovufXIfuTjCqJMn2iKVBxHwjif/BzEyNR2NHO5xcIjol3u0D7m+7kRXpAR9nbQuIjzqgmggDp5DH9Uprj1x4B5lSEezR4xefMYha6o1q21xoD3IQTfkkvrW92lVbpyOudg8DvpKEZGlP3ZC2hHXDyE2iGsL8L/3PyuoF9tgI74vtI/j7mkbsA0n42kjdiY1jZ2xHfWQitcDcQZDoTASLiISVqiDr6p0mjrIuPr5Hocbdw/kojvPhD6bhVBZaW2LQ6jcykZWO9L6IatseaKi7KcLCx9p7TYY8oGRcBGSsMFgMBjODRgJGwkbDAaDoYpgJGwkbDAYDIYqQlGR8K9iSHjW7Olu7ANGwgaDwWCofFRXEu4WIeFNm/Ml4eVGwgaDwWCoOlRnEp46bbKbv8BI2O9Tg8FgMFQTGAkbCRsMBoOhimAkbCRsMBgMhiqCkbCRsMFgMBiqCEbCRsIGg8FgqCIYCRsJGwwGg6GKYCQ8e5qRsMFgMBiqBNWXhLsI6f5/El6fLwk/8m8SHmUkbDAYDIZKh5GwkbDhHAa/2sNP6PGrPVz8wpT9io8hCv1ZR664X34ynNswEi4CEsZx8xuyJSUlsddHH30kv9WKcy8EFfWzcpWFitQf58jvBPNbtf/4xz9+5Cypl9/p1d/nRQd+Y5kfj9+zZ4/78MMPpY+OHTsmMuhTgwFAvmvXrnUrVqyQsWWoXjASLgIS/tOf/uRuu+02d+2117pmzZq5xo0buzp16rgmTZq4a665xrVs2VLk8SPn+QLSwBnwQ+4hOp1rqGj9cY4LFy50119/vZszZ478OH2U7CHYX/ziF2727NlC1pDsW2+95bp37+6aN2/uunbt6saOHesGDBjgDhw4UCE6GqonWLzdfffd7o477pC5bqheMBIuAhL+6quv3Pbt22W1vGzZMilfs2ZNN3r0aLdy5Ur361//2u3evdt98803ftFgfPfdd+7FF19099xzj/v888/92+c8ykP/tAiaCHfixIkyeBs2bOhef/31H/QdmQoIF6L961//6r7++mv39NNPu8mTJ7vf/OY3bsKECa5Xr16lg3uqON20ugzFBRZwd955pyy08x27hqqDkXARkDAOG4KFjHHgq1evlmj4hRdeEHLA4XMRnRGx8Rwr6o8//lj+Jj1KPdyHLM6ePes+++yzsrQqF99BMjfeeKM7evSoOANkklJNKgdIw6KDXvocjgVi/Pbbb+VvUuakYTVd67cNfXmG8kSSmlpX+XzHRf2afke/NP2Rq3ux0TqwC1kD3aulDuQhI6k/0GHSpEmuVq1a7tJLLxWniSxti0/CfI/dSEOfPn3avf3226JXSUmJ1KvI0i0OSTbx25zW54Bn6CPqo2+037788suylHrW/Szd0RV7+P3O91988UXiPmhIGxWheiAnbn5EZSXVGx1vCr/efMYuUBLu06ePbF/QRu2vqH1CbVnonDTkBiPhIiDhKJi869evl1T0a6+9VlaeiTR37ly51qxZ4/r37++6dOnidu3aJY7m3XffdQ899JDr1q2bpFRvvvlmN3/+fJmglOXvK664wl1wwQVSbvDgwe7ll18W8kgqx8SlLOlZIj4u7rdq1coNHDjQPf/88xLBDxo0SL5r3769mzJlijgXdeKQxJYtW8QBkVa/6aab3IwZM8RBqDNBPuVmzpzpevfu7dq0aSMyN2zYIE4JBxenP/bB4fDME0884fr16ydlIerhw4e7w4cPyyIDB3b//fdLGyHMOPJDD3RAx/vuu89deeWVshjC8QGfhElHp9lc25+lWxzUJkTV06ZNE7nIv/XWW93jjz8u9yGgrPoZSyzkRo0aJTa74YYbJC26detWGTNp9yHiEN0hwwcffFD0RS8FJDB06FC3bt06keUjpI262AjRI21+MEb8etPGm9ZbHmMXOdiCVDR6s5BEHm1lC2Pp0qViQ54LtWUhc9KQO4yEjYTleyYicq+++mrXokULN3LkSJnAp06dEifz5ptvyn0cKo6ICdmoUSO3atUqia6feeYZcQINGjSQvU8cLWUPHTqUWI4JT73sc9auXVsmNc9xNW3aVJ5jD5syOINbbrlF5OOANHrfvHmz6IyjwAHxLARH1ImTQz7fXXbZZdIunA2yIDxssGPHDnkuTv8PPvhAIp+NGzfKfnrfvn3dggULxOm0bt3ade7c2Z04cUIiDyKRdu3auffeey/WGeHYqLdjx47u1VdfdT169HBt27aV6FYPzkVJGBJMszm2o/1ZumlUFUXUJnoeYPr06UIq2P25554T+Wn1s3BBPsRKmhxy5pkxY8YIsWC3tPvoEKI7zh3yYZuAcaYgMuPZhx9++AeEoghpI1FdqA3T5kf0kFzIeGM+ldfY1aj09ttvdxdddJG0g+eQgf5kvJ599ll5LtSWhcxJQ+4wEjYSlu91IpMunTVrlkxMojRNyeGwIBtSZ1x79+51V111lRs2bJhEgqSliPAgMlJi1EPZtHKszLXeevXqSVTB55KSEjd+/HhXo0YNWeHj6HBK+/btEyfFXjZEhVPBgeFk9+/fLzpAajgpDpxpag75HETDafGZsuz/sjerDi9Jf76HMIkqjh8/LuSCjjhQnA8HqWgHZTi5HI2KooiSMM+y34sdcObYhXqiJJxlc+qEuLN0izstqzavW7eukBGysQH71JQjC4CTTqsf27OYYBwxXmgTeqMXBE7ZtPukckN01z6+6667fkQcEBORehIJh7Qx1IZZ88OvN228oW95jV0WQ9E6WUwmPRdqy3znJJ8NucNI2EhYvteJx6TV6ExBZIfjPHPmTKnt3hAC4YAXzoK0FBMa5zpixAhJqeFQQstRL6m9Dh06SBpO98mIlurXr++WLFlSlm5ELpEMKU3KvfPOO/IMEeXy5cslouGgGelTnC+kQRnkE6XiSDQVyN98p6fCk/T/wx/+IBEABKrOnu+JeIkIiBjQhWgJm8WlokGUhHF6kAKOC1IjvcepbH9POM12lA/VzYfanFSi2gTQbqInUp7omFU/OtMfOHBSvkeOHBE7Ygf0SLrPmDt58mSQ7qHE4SO0jaE2TJsfUWi9aeONRWt5jt2QOnku1Jb5zknaZcgdRsJGwvI9E48UE1GBkhBgArKKZr+oU6dOkrbiGVKMl19+uayK40g4tBz18jdpMlbwgGgSp4+OO3fulKgK4ER69uwpE56/iSCITDjpjTMjiiX9iUOB7FilE3H58gE6ohc6J5EwUQ6vA5HSI02p+7cAWaTiaBO6ZCFKwuikryBBEpAvUSMOWEk4y3ZEcPnqpn2NQ47ex4nioFkY/P73v0+tXyNldCAy5jUq7I7+mqJNuo9sSCZE9yTigByuu+66VBJOayPEy6G3UBsmzQ8fceMZRMcb35fn2NU66Z+050JtGdeGkDkZlWkIR1GT8LJSEp45a5or/d5I+M/xrzlARAcPHpQIiMmG82TSstdLKo0yURLGgTD5Q8vF1cuEJ60GGfDqlB6OYcLjGJnwRGIc+qLfiFb4mxW9XpAUcnjOlw/QEcL1SVj1B0REEAp6cFAHcgQsMDSdymEe6tDvk+CTMCCa4PUw+oJUOM4YksImWbajzlx0iyIu0gHYlwUB+4rbtm1LrZ++oxzjh7/Rl3Ql+rB/qCn1uPu//OUvhWRCdFcnDwGiN9AMBeTJQaMkEk5rIweXGCehNowbp3FIei463nimPMduSJ1KwiG2jJMXMieNhPNDdSXhrt26uClTJ7l58+e4jZuMhIORKwmz4mU/CvtwYhLHgLNiVcweFE6Eycd+0Lhx48RJM6nZRyPNmlUurt7QCY+jJN1G9MB+HikzLuomksTBxMkHvoPy9ccuejCI6IEohRQi9oA8iVyJpnh/Vx0h+kRfH4oijoTV2ROZEBVxAIcUNU44xOYhuiURFKlVToO/9NJL0nbGBaeBOXiDjTl8lVY/MugXbI3NKU+KGblE97Qr7T5jN0R31ZUDQvQLsviO9C26pJFwWhs5hMUzoTZMGkc+kp7zx1t5jt1cnguxZZy80DlpyB1GwkbC8n3cxAMQEc4TcuLVh02bNsnpYVKnvO/KqprJp3tGyIVseD2J/2SCqCqtXFy9oRMeZ8l+GnVy0IY60IHXOUgvJjkU4DsoX39sQwSFU8RepOuI8CBHnBYRBc6MCA+5pFyJnNJeUfJJGGB/Ik3q/Y//+A85qEXKNMTm2pdpusUtCtQZX3zxxaIPREvbSUFyyIaTrpBVWv0sFEgrc+qZqPmVV16RV3dIXTM+s+5jpxDdISReM+KQFAsUDkxx0Ig93UsuuSSThJPaiBzsF2rDpHHkI+k5f7yV59gNfS7UlnHyQuekIXcYCRcZCeveDqdBo06aScrEJC3nH7Bg8vI6BgcwcFas4HFYPM8+kh4kwrHyegTOm70o9hRxfmnl4uplgnOyEx35f5O1jUzyIUOGSFpT68Rh4MxwtBA+r3yQaiSCIfqJkw+I7rAjxMhzcfoTyeOkKcc7veyREblwQU68M8n7sOjAYSVSn5xqRZYPyHzx4sVCYFFHCWHj+BYtWiT1coCJzyE2p2yWbnELAvSFjHC+OFvIhtQzdaAjdkaHtPqxH6fBkUOd7Pmqw2dcYbe0+0ScIbrr+9IPPPCA2Jc+Zv+Uz5Asdks6AZ7VRuSH2jBpHPlIei5uvJXX2A19LtSWcfJC56QhdxgJFxkJ41BwLKxgcYTqpIl4mXxMOv/dUhwGh1aI4Ni/gqx4lknHpc8zyZmU7LORYuMeZJJWLq5edCIyRUcWDVEdkR+tU08RUweRF++2cioXmUnyVVecIM4pSX+ICPlaB5EF741yP2o/FjK0jRSfHljxgQx9ncQ/Wcs9nB/y1UGH2jxLtzhopAPREHHzPjR1lJSUlP2vSVn10wYcM3Vhd04Mc5KaZxiT1J11P1R36qJOdOAwG3piJ9qhqVsfIW1UhOiRNI58JD0XN97Ka+yGPqffZdkyTl4uc9KQG4yEi4yECwETj4mW5NwVOpH1udByhUIdUqH1+Pr79+KcflqZQpCL7ZJ08+GnG9PqSLun4D7OPemZrPsgRPcQXRS5tDGKED0qAuU1dkMRag9DxcNI2EjYUGSAoNiH5PRw3Onp8wHF0EbD+QEj4VlTjYQNRQXS7BwAYq/wfN3HK4Y2Gs4PVG8SfriUhGcXQsKL/03CI42EDUUD0pCQVHSv8HxDMbTRcH7g/CDhx4yEDQaDwVD9YCRsJGwwGAyGKoKRsJGwwWAwGKoIRsJGwgaDwWCoIhgJGwkbDAaDoYpgJGwkbDAYDIYqgpGwkbDBYDAYqghGwkbCBoPBYKgiGAkbCRsMBoOhimAkbCRsMBgMhipC0ZLw/z1yyC1dttjNmDnVjfmVkbDh/AS/ksMvGGX9ilEaKKe/q8zPYIb8ylB51GsIg/4XnfRRSN9UFvSnGhk3/AxivuPgfB9L1ZaEu5aS8JSH3dx5pSS80Ug4CBXx82UVIbMyca7pX976MD74nWN+r5bf980H/P7uli1b3LBhw9xvf/tb+T3ZLJRHvYYw8AMVU6dOdc8884wQ8bkAxi+/T7x27Vo3YsQIt3fv3rzHwfk+loyEi4SEmRQ4U340PLRMFipCZmXiXNO/IvThx9lHjRrl7rvvPvnx9VxB9MGPzXfp0sXdc889rqSkJCjaKrReQzg+/vhj17ZtWzdt2jQhvnMBjN99+/a5G2+80f3yl790n376ad4Ly/N9LBkJFwkJf/fdd+7FF18UR8qPnJcHKkJmZeJc078i9CEyev75593TTz8tqeRcwaJgxYoV4gCPHz/uvv/+e/+RWBRaryEcH330kbvuuuvcww8/LGnpcwEsBubMmSN+6tSpUwX9ktX5PpaMhIuAhIlczp496yZOnCgr06NHj4qTZ7+GSfuPf/xDBjc/fs6qWvf9kM1PwbGKpfxnn30mz3IvSSYThpRRUjmge1h66XP8EDtERLqTv3Eun3zyiTwTjb5YUbPHhL48Q3kmvU50lc93XNTPc8jUfbMk/ZFL+ah8bMJqHAKKW80TLbJCp66onvzNd9zT/awkvdP0oVxaWcC/fPb7ku+wIRc6hNgGUB/9z37eyZMnJRpGP78f4+rkb2yFbK1XZeZiV4VfTscK5dAlS2ah4y0KZJH+9Z/he2zFooXvqRvZ6IJMrY85p/ez9I4DZZGh/cYYeeedd9y11177AxL25fvjJQ5xsmkPc1n1Dm0/7fjggw/c+++/L+OokD5g/GSNpVzHRFb/xMGv05cbahsfRsJFQMI4yfnz57srrrjCXXDBBZJaHDx4sKws2UuaO3euW7Nmjevfv7/c27VrlzjSd9991z300EOuW7du7vrrr3c333yzyGECMdDiZL788svu7bffTizHIKQsq2R+cJ2L+61atXIDBw6UFe/27dvdoEGD5Lv27duXdvQUmYTqvHAK7FH26dPHtWzZ0t10001uxowZMjF0siOfcvywe+/evV2bNm1E5oYNG2Si4JDi9H/11VelrieeeML169dPykGKw4cPd4cPH/7RnhT64KyGDh0qdakTBPw9e/Zsd//998tEp94kvZPs+dprr4mDCmkz/ej35caNG8U5Ywt1EFm2oU04u7T+136Mq5Pxgw2Rr/Uik39D7arQclu3bnW33367jInWrVtLtuD06dPi3LJkFjLefOB0H3zwQZEX7WscOGNg3bp14shZ0LzwwguSRsUmN9xwg7v77rulHdzPxxboAwEsW7ZM2kCfMB6mT5/uGjZsWEbCIXPEB7Jpg8rGFj//+c/dI4884n71q1/JOELv0PZzL9r/hfSBL6vQMUH5tP6Ji7ZDxm+obXwYCRcBCbN649AGg6ZBgwZu4cKFMtj279/vBgwY4K6++mrXokULN3LkSLd06VJJH+H4iX6oi4GKo2XCNGrUyK1atUqiuziZlD106FBiOQYhg5J6a9euLROI57iaNm0qzzVr1kzKMFlvueUWkQ9BMHG4Nm/eLDozkYkcefbKK690kyZNEueDfL677LLLpF1MAGR1797dNWnSxO3YsUOei9OflOtjjz0mkUXfvn3dggULZPIzyTt37uxOnDjxIyfGpKcOJibEhePgeu+992Sv7t5773UlJSWpekNscfoQTbCISiurbcbmfl/u2bPH3XHHHUKQOPAQ29D3rO7T+l/7Ma5OxgDtYRGh9dJvOPJc7Aq0HGOCsYAznjVrlhAPhBIis5Dx5gNiYOGCw4/uTxJJUS9EiDOmbhx7r169ZOGC/caMGSPEiD4hevvA5suXL5d+Ql+cPcRFGy688EIZFzj/kDniA9lsOyAbW7F4RDafL7/8ctFPMydZ7UcH2hjt/0L6wJdV6JjAZ6b1TxwJh4xfIuMQ2/gwEp455bwnYVZxRGLs6+HkSRExqPjutttuc7Vq1ZJBzGAhZaLpFdI1RHkMfC5OOF511VVyShbiiZNJ2bRyOCgmFSvYevXqSdTEZ0hq/PjxrkaNGkIaOHKcBYc7cB6jR4+WlShOAMfC6p5FBDqQuoVErrnmGtGDupFfp04dIRU+U5b9ViIGdURx+jOJkdW1a1chZAgQ/XBqOAacE99FwSKHFTIOi4mKHL6jDN8xsSHTNL0hbCaxrw/2hNDSykbb7Pclz2JP+pln1PZptsHZZvV/tB/9OtGZ5++8886yemlDjx49crIroBzt7NSpk3vrrbfK0t84M+oLkZnveIsjKx1/d911148cLQsRMgfIJ6NC32MX+gcbYzPIjn4O0dsHfcnYYLGn5WgHJAJRKgmHzBE/yueZjh07/kj2vHnzYmWntV9JONr/hfSBL6vQMYHvSusf3zYgZPyif4htfFRvEp5YSsKz8iXhg6UkvKgoSBgwwHhVgLQUEw7oxMD5Mkl1vwUwEBmQZ86cKbXXG5K6JlXFJGaFzCCLkxlSjnpZ1Xbo0EFIT/daIKv69eu7JUuWlKVtkEu6iFQR5dj/4hkiTKICSG/lypWSMq1bt64QBWWQ365dO5noyOfib77Dduju64/uvArB6pwVuU4YjWpZebOaR48ouA/JsrJmAnKfixUxqTXKsq+apTcOJs6eoW2O60vfgants2wT2o9xdfr14sDytSvlIH4/isilr/IdbzhrHyEkhEPnhDty+I5Ty0eOHBG7Ml8ZCyF6R8F9oi1sTWYFWQCbI5vvIUpIK2S8RA/YqWwi0jTZhZJwvn0QlUX9hY4J9Enqn+gYVoTKPXbsWJBtfJwfJPyokXAWfMIBDG5SQKzw9DvABGF1yR4Gq01SKTxD6oZVMavWOBIOLUe9/E3qhgkBSIHi6Fmd7ty5U6IwwKTr2bOnTEj+ZmVP5FWzZk1xMkQGkB+DnJU8q2giDV8+QEf0Quc4EsYxHThwwDVu3FjSTUR1CuSQ+qI96OGDyTVhwgQ5pQohsUJv3ry57BHR3hC9kev3ETqFlKXNcX0Z5wyzbIPjC+3HuDpBtF50y8eutJ22UY70fLRcLn0V1+aQ8RZ1pIokEoJY6Ht1tMhDP7IGjAP6auzYsfKuKyQYoncUtJfFEERJ5KvlmHMffvihkBJESd+FjJeo31DZkC2RoUbhvuw0EvbbHzLuQvvAH0vlMSaS+odo1ifiULnM+xDb+DASLjISZhJGSTg6URQMuoMHD0rUw2TAaTCQ2OslxUWZKAmrzNBycfUyIdkTZcLv3r277HAKE4ZBzoQkxcmhL/qKlSd/s8rUi4gLOX4qVIGOEJxPwqo/K1smITpw4IKIBuCMNIXIoQzk+6AfXnvtNdmHY38JR8nfHFRDpxC9caB+H7E3GFI2qc2+rf3Piqht+D7fflRE79GH+diVthNdQA6Mdy0HcumrOD1DxlsSCWMTFh/IBRop4aRZdOFo0YMxgQxsSdqVunhnFhIJ0TsKbMHCTlOoSpTRuiFK5IWMF+rzZWNn9vVVp2iEHCXhkPb7Nvc/g9A+iJZF//IYE0n9wz51VGYuctErxDY+jISLhIRJU40bN06cKIOCcgz26H6hglUi+4XYhMMfDFoGHqtW9hKZ3AxeXyaOgVOOWeUKmZAMetKmrFzZmyGlxUXdRG8M+jj5wCdhX3/q1ElF5EBaD1uQJmMPiXQU0W7cRGJCIp86qYPDGrfeeqvI08mapbevD32Egwwpm9Rm/3v/syJqG/4O6f8kWcC/pxFUrnaFOIjESetTjnazV07bsUuITF8XEDrefCBLT+TSR+jDd6R8sQ2Oln5EHjqqvqSgKUc7mLchekfBGCopKRFb4PDZ/qAN1L1p0yZJMytRhoyXONmctmYMkGJV2RyOol0qO6T9cTb3P4PQPvDLFjomsvrHz+qoTllyOZQZYhsfRsJFQsK6/8JKmn0NojbKs0/jO1EcP4MSMuAVByY5qR/2lC699FJZ6TE5fJlEfb/5zW/kBGFaOX9SgdAJGT0hyolJ6kAHTkiSKopzAAqfhH39sQkTjDQs6SNWxZARk4gVLpOLVXN0Py0KdON0MG3l4vUOTV2F6B2nj76+lFU2qc3+9/5nRdQ2PBPS/0mygH8PR7d+/fqc7Yqj5HAQB3VIHXJi/NFHH5U9RIiDk+xZMn1dQOh48wGJ8Vofh3E4OMTBHA6zcaDpkksuEUdLOdLOZEO2bdvmXnnlFXmFC+Jg7vIaTT620LrRmcjtySeflM+knDncpEQZMtZ8qGwiNpXNXilk/p//+Z9lskPaHzce/c8gtA/8soWOCeZZWv/E9XvI+CWTFWIbH0bCRULCrH6Z/LySgnNlr49XTXiHlRSLfwiFyQahcHiBgcdkZPAxuPTwSZxMCIzoKa0cBMjnaL1MQE7ocvqQ12q0XUyIIUOGiGPQOpmUOBnSthA+aV9W8brKjZMPiOiwHQTHc3H6P/XUU0J8q1evlv0rogkuyIj3GXl9IZrKi4LFC5ObSceEJhWor5qE6B2nD5kFfU0jrWxSm/3v/c8K3zYh/Z8kC/j3sBn/5mpXbMICgdOn6ECKnHKQC1EP4yNLpq8LCB1vPvT96QceeEAOGdEX7LnymSho0aJFUh+pSbJM6MOeoy5wcNZEUfnYgrHEHi3ZEhw/tiAyYy+T12YgIQgqZKz5QDZjT2Vru0hPR99BDmk/Ovg29z+D0D7wyxY6JljgpPWPLgaiCBm/obbxYSRcJCQMGCQMUPY3SFMxuPnM4PLfS2SgE8UxqCETJijPMym49HlfJvdw4GnluPguWi+DnBUqq+DonhX3kR+tE91Y7VMHpMf7rJx2RGaSfNUV54QTStIfR8M95DPR2RPjHnrhPOOcYxRMcPatKOv3TZbeIE4fymWVTWqz/73/WeHbJqT/k2SBuHvahlztSjmcF4sjdMHRERGhc4jMOF1yGW8+qJf72IS9VKIvfZWGsU85HDmy6SsO7HDKHB0YE9QVoncckE3dpKOpG7l81rqRC7LGSxxUNkSPnWkXZf3/jSur/dTt29z/DEL7IK5sIWOCK6t/4pAlF4TYxoeRcBGRsEInSdJgi4JnQp71ZYaWKxQ6SQutx9c/+n3cxCkUWXon6QOyypYnKqof87Gr6pJULh+ZhSDENtzHMac9k4/eIXUrch0vUdl6std/Hch/rqpQ6JgI6Z84ZMnNxTZGwkVIwgaDwRACDkGRxp48ebJEcobyh5GwkbDBYDDEgjQq/4sbB59IxRrKH0bCRsIGg8EQC1Kq7MUm/QKQoXAUNQkvWbrITZ8xxY0eYyRsMBgMhspHdSbhyaUkPGfuLLfBSNhgMBgM1RFGwjOMhA0Gg8FQNTASnmEkbDAYDIaqgZHwDCNhg8FgMFQNjIRnGAkbDAaDoWpgJDzDSNhgMBgMVQMj4RmQ8C+NhA0Gg8FQ6ai+JNy5lIQnlJLwzEJJeLKRsMFgMBiqBEbCRsIGg8FgqCIYCRsJFy34b/j47/gq8r/kQy4/ucZPs/G7wCG/qpIrkMkvweTzazAGw/9j772ftSqy/f/vX3Crpm6pc68CwhXFIueco5IRJSgWIBgIdwiD5IxkUEAk6QCCoBIU00UEFRDxA6iMSBokODOOtybcqdJRp+b+0N/zWnfWqU27n737ec5zOByf9a566pxn7w6rV3evd6/VvZ9tKFsYCRsJ54RsXtV1vQLyXb9+vVu9enXsy7azQZw+IGDecbp48WL30EMPueeff15eB5dvnTEGPv/8c3k3atwLyQ0Gw/ULI2Ej4awBiUBgvCS8LOrPF/BOhw0b5gYNGuS+/vpr/3Yw4vTBNQh3zZo1rlmzZq5z586uXbt27pVXXhGPOJ/gZeRjx46Vt93QJoPBUH5gJGwknDV++OEHt3fvXjd8+HDx9MoreE3bgw8+6O67774StSNOH//4xz/ciRMnpPwNGza4kydPurlz50qaS5cu5TX8Dam/9tprbufOne7bb7/1bxsMhusYRsIFRMJ4Z9999514fVeuXHG//e1vxYuCMDSc+uc//1k8uChJRF9nxr4jL/qeNm2a69Chgzt+/LgQD+Vyjxd/E9qFDKiHOngPKWHSv/zlL+73v/+95P/qq68kndZD/ZAZ8vzud7+TNJAkeeMIKyk97UlrB9eVhO+991537tw5kYlykJv2aNg4qa5M+qD9tI8wMWVfvHjRnT59Wv6nLJUHGdEZH+qnXygbYo3K7vedykBbkYG8yKb7woyLfOrbYDCUDoyEC4SEMboQ0/bt292AAQNcq1athDRGjRrlPvroIyFJDPLkyZPdwoULhRwUGOcRI0aIR4fBXrJkiatWrZq74YYb3F133eWGDBniDhw4IOSzaNEi+axbt84NHDhQ7hOC/eSTT9yUKVNc165dXfPmzV2PHj2kHEgCow/pvPHGGxJWJU/79u0lVLxt27ZY7y4pPSSV1g7Ihu+Eojt16uQmTpzoevXq5Vq3bu369evnXnzxRSFG9JZUF+QWp499+/a5Tz/9NLHNyIaMs2bNck888YTr06eP9MvgwYPdpk3vsfZTAACAAElEQVSbpL+oX/uO+pCtRYsWrmXLlsVeNffITzn8DxGfPXs2se6kNsXp22AwlA6MhAuEhDG6mzdvdo0aNXL9+/d3S5cuFaONMe/SpYv77LPPxGuFCDDu0b1FvCTSTZ8+XYz4rl27hMCrV6/uli1bJob7woULcg/Z6tev75o2berGjBnjVq5cKWUfPXpU7mH0IekHHnjA1axZU/ZMITvSQAS9e/cWsiDN+PHj3datW39ECniQSenPnz+f2g4IEBKG1G666SbRCwsSyIwy+b5nzx7RW1JdlB+njzNnziS2WRcBXKtcubLoiwXCzJkzXbdu3VydOnXc7t273ffff1/cdw0aNJCFAjLOnz9fwtssnCgH4mfRg6esofBMdWerb4PBUHowEi4QEoYgu3fvXqS4u2V/ktAkxnvLli1CHgsWLBDiwGMaOnToj8gLksCzIsSJN8whIIgHwoMkMPwQAKRWqVIlIQnyEfpFRkKfeMqk4XPw4EFXt25dN3LkSPEm9+/fL8RDPsrEo4Ng4sKjlJeUHvnS2hEl4dtuu02IFLkgKCIDHKbCM0RvSXWxIMikj6Q2K3lSf9WqVYVwSUvZ7C/XqFHDzZgxQ+REBogZj/3jjz8uDvlzj/o1rK572xpqzlR3tvo2GAylByPhAiBhjCp7k/Xq1RNPS0O0XGePEg/r/vvvl5BxCHlhrEePHi0nfiEghZIKBMLeKGFRQD0Yd0Knhw4dkgNEq1atcg0bNpTQKyTByWLCotQzZ84cd+zYMalHy4iC8pLSQzIh7UBevEdCwJcvXy7eAyYPjxThKZInqS4Qp4+0NlOH1t+mTZvi+vnwP9foY/aw6TsIVD14Hz4Jp9Wdrb4NBkPpoaBJ+KkVy92cuTPd2HE/bRLGKzty5IirVauWhKHxThUYbUKceMkQZxx5scfauHHjIBIm7ElZeh1SwXNjHxZPjnAw9wmDVqlSRfZkqQvPDRnx1Jo0aSLkMGHCBPHO44ghKT3EGdIOlRcvE+JW0D5C0yxOyJNUF7L5+ghts+5JEzqPns6mDPJRJtcPHz4sfUeoO9p3Cp+EQ+pOa5PBYLg2KK8kfFcRCc+YWUTCC59wGzcZCScCzwjjijcFuRB6BJAF+8AYaQ5r4Qn37NlTiAnDrnnxxCABDjtFSbhjx44/ImH/kR8WAB9++KF4YZRNWBRiY7+UkC/pIQU90cv/pJ80aZLIy56myhtFUnr2O0PaoZ5o27ZtRSb1hHVhwoEm9JNUl4Zxo/oIbXOcvgBlQOiUSRr6hegCfR6ni2g5yBtSd1qbgOrDYDCUHoyEC4CEgYZoCbHyqAyeECFL9gYJU0+dOlVO1OrpWwiLR2Iw8BwKYt9SyYt9YU4TY9RJhwxxe5OAetjvRL+cBCYUipEnREqZhMHJx+ls9jmpkz3VU6dOiSwQZJToAeSQlJ5DSSHt4BrpONn89ttvS7tIy74r+6UsTJA3qS5k8/VB2h07diS2OZSEIXg9UEZ99J3KgVfs650QdEn1rY9JQegsKAwGQ+nBSLhASBhDu3HjRgnH4u1gqCElvCXICm+I/cfZs2fLQa1x48bJoS0OB7FnevPNNxeTF4abU7QQFXvMPJ6E4eYAkU8qkAQGHoLq27ev/HQjYVUenalYsaJ4q+TjJxc5pfvyyy+7d955Rx5xgnhoazSkDCCGpPTsc4e0A6LhpHiFChUkdAtpcbKZU9V4heSDqJLqQjZfHzye9Oabb8oJ60xtzoaEkYGfvqxdu7aEj5HxueeecytWrJA+g2i1HHRZUn2zkKAeIiQ832wescFQejASLhASxpBisNeuXSt7kOwB8sFQ82tLPJaiz5c+/vjj8hOLkAgnfvmOl7R8+fLiH3zAOPNIDcYeAsPzw2OD9Ah5U5eCPUoeVeIgEIsADh2xECAt+7OQCCFX9iuRiT1KJSEWB/7vIUPCSekhxZB2QHBcQ5aHH35YFiOkxRt88sknhSjRb1JdyBanD/ZkIfVMbdYwdpy+0Ad9DKHjZVM+xMwJdsoh1IwsPJbEdfJqOchcUn3jAXOAC91xctpOSxsMpQcj4QIhYaCnZjHc7JuyT0yYmpCxejsQMQQBqRCW5aQuRIDXhnFXg0w6DD5l8MgTniXkCLFACnjA0XoJnWLc+QELyiYd9fChLMgMWfDQOCBGWJU0tM/3xDQcnZQ+pB36C2F8aAvPOkNOpNVf1QqpC/j6oEzqydRm6uYTpy/KQk7k1evIwsKBiAPlscjAeyatX05J9U0/kgePWH/dy2AwlA6MhAuIhKPAUCd5OJALBt0nQB9KZmnpQEiZ3IckktJEkZY+pE5FWtq0uoCvj7Qys4WWl9R3ipC6M7XJb4fBYCgdFBgJj/FIeNk/Sfg/C46EDQaDwVD2KN8kPMVI2EjYYDAYyi/KPwnPKyLhZ42EDQaDwVD+YCRsJGwwGAyGMoKRsJGwwWAwGMoIRsJGwgaDwWAoIxgJGwkbDAaDoYxgJGwkbDAYDIYygpGwkbDBYDAYyghGwkbCBoPBYCgjGAkbCRsMBoOhjGAkbCRsMBgMhjJC4ZLw//vQPfnUsqJMM92YsUbCBoPBYLj2KLckfFcXN33GFLegiIR/tdFIuFyCt/TwCsS//e1vQW8FyhYhbxEy5A9J/UkfcJ3XLfLuav9+SaCvbtTXTxoM5QlGwgVCwhgn3m/75ZdfusuXL1/14f3CvEM2DfkmNd5tO3v2bLdr1y4x0PkCbeHdvr/5zW/kXcJffPGFvHuX9/GakS49JPUnBLl161Y3cuRI91//9V/u+++/v+p+SUDZ69evd6tXr5Y+NhjKE4yEC4SEMU7Lli1zdevWdfXr13cNGzYs/vTo0UNeAJ9ErtzD2EFsoXWmgTpbt27t5syZIwuEfAAC5kX2w4cPl7bR1qZNm7r77rvPrV27VtpgKB1k6k/eV3zixImiSXuX9AsLv3wuhlhwDRs2zA0aNMh9/fXX/m2D4bqGkXCBkDBhwmnTprn/+I//cPPnz3fr1q0r/mzfvj2VnH744Qe3d+9eMaJ4lfnAlStXXOPGjd306dNFvmyQacFAuPMXv/iFq1mzphs/frx79tln3aJFi+Tar371K/fNN9/4WQx5Qqb+ZGzhpT766KPu5MmTQVGXbPDf//3f7sEHH5SFVr7GpsFwrWAkXGAkXLt2bXf69GnZl9PPd999J2FmiPZPf/qThKcJW2PcIC08Gb6Tv0OHDu748eNi7MiHR4MMf/nLX9zvf/97SffVV1/9KPTL/5TFPYw1+ZGjUaNGxUYbYqVMvBnS4FkhD0ZbSRc5kYt6/LZTx5kzZ8T77d+/v7tw4YKERZGFcqJ7hn5dyI73RvlA9zf1o22jbvREOJX/yYu+SKNla17K4xNtM3VG28J95KMfkIU28z/3kuSLA+Vm6sOQfqJsQsrRtuh1FjdR/YX2J3WS99SpU+INU6/WybjCi6Vd/ljhGvdIk9ZXRsKG8gwj4QIjYcLRhAN9QFZvvPGGGzt2rIQN27dvLyG+bdu2iaFdsmSJq1atmrvhhhvk/pAhQ9yBAwck39mzZ92UKVNc165dXfPmzSW8TXqMJQaVDwZ01apVco80ffv2dXPnznU1atQQow05QAB45QMGDHCtWrUSwh81apT76KOP3N///neRE4P+2GOPSV0XL168yiPm//Pnz7smTZq40aNHi0GO85i5Rn3sUSJHs2bNXOfOnd28efPEyCuJLly40M2cOVM+yN2iRQv3wAMPuNdee83t2LHDDR48WK61bdvWzZo1S/REWzUv+6OEZrXN99xzj3vhhReKCYq/eOl8iEgMHDhQdLtnzx7RXZJ8cUjqQ4gvrZ8g78mTJ4vsUU8WkhsxYoTbsGFDMaGn9Sf5IdBMdbJIoF7KfeKJJ66qj/8XLFgg/Uw6xkWSLoyEDeUZRsJFmcaMHV0wJEyYFlKDMPhgtDC+7KNitHv37i1GEmIgnIvxwyPhsA2kWL16ddlbxrDjaeIR4uEgE8affBAV9axZs0aMNp+nn37a1alTR+5h5CEw0tx4440iF8Z28+bN4knhxS5dulSIrWXLlq5Lly7us88+E4OLLBjcNm3auHPnzl3lQQHuEzLHWG/ZskU8L/80LmTFPTxmSIH6kYsowYwZM4SgMez333+/u/XWW4VoaRufevXqidwNGjSQPBB0r169RC+bNm2SssnLvcqVK4sc9BUEBTGS/9VXXxWPlXToTfetx4wZ41auXCn63LhxY6J8PtANOsrUh/R/Wj8xHvr06SP6Q48KdEg/KLmG9CfpiGAk1Xnp0iUhYRZckLUu2OhX9pYfeeQRWTCG9JWRsKG8ovyScOciEp5cUhJeWnAk/O///u/iSWCo+fTr1088EUgWo8p+Md4k3gfkjMHFwEOS7OlBxNyHbDRMDKFg/PCO+Bw8eFA8bk7CamiUfBhb9gTxyjCuEEWVKlXc1KlTJVzZvXt3d/fddxenwbhigCE4PCOuUSf1f/LJJ7EnbPGY33nnHSmL9uB94sHhNXMPeSEbDDoE+cEHH4h8hNi7desmh7kon/agmzvuuMO9/vrrIgsyT5o0yd1yyy1yCIjQNyRw+PBhIYVx48YVkwJ5b7/9diFcdML1d999V9pCFAGPXtNVqlRJ9A7ZEfLFw0P+JPn8xQfjYP/+/Yl9mNZPqpehQ4f+iIRZJODRMo7S+lNJOG1sEHon8oHMLMAYU4Sd6XOusXhgoRfSV0bChvKK8k/Cc4tIeIORcBqUhDH4GEAMKh88OUKkkBqeGsaWEOqxY8fEMBNSBPxPiBcCxxAqdG8Qr+bQoUNu586dEqbEQOIdYXjx0AhT4tlQDqBc6uA6ckBkeInIo6FJ9YrwOvFKIS0AoeheoQ+uQc4QJIsLQsW1atWSUCZ1QArsXd55553ibeHRQQDPPPOMhEwhToiCNhIebteunZCi7ktCDORdsWJF8SEv0qI7Qr9KruSlbshJ5SQdXj3kxf9KwugAYqFNtDlEPv9wE/k4uZ6pD9P6CdINIWGIPa0/lYTT6qT9kCzeO3XynQ+eOLqj71mcpekCXRoJG8orjIQLjIQhJLwXPDM+XCdcC3EdOXJECJo9VYzuhAkThMwwsHEkDLlwQAZPs1OnThKyxIPDw8Yjwltk3w8DTAgST0lPYZOX53fxiiZOnCh7mchGGDp6UhujSriXciGJUOihJ8Kc+mgWnjxlQMYsRipUqCDGHa8OIqDNHTt2lPt4achPeFYNOzqCSPDS2LeF0AFl9uzZU0gY8tJwNIQWlRmChmxYbEDsmo62qU4hVzy+NPni+h154voQUqf/kvopiYT11DMkzPW0/lQSThsblEU6IiGUz0KE57qRnb1p9BOiC/rKSNhQXmEkXGAknOlgFkaUsjCMH374oYRdSctenoY1IWEMX5QwSItnAwnhlWCwjx49KuFDDCNGEcOqYVL9MQW8pM8//1yIF+NOOdTHQSzqU5kwsBhvDmtFnwGN84LjQD14cnhtGHfCl+x/09941/zPff2waIBsqcs37FwnbI+cb731VvFhMciLhUKUhH0vWtMRRuWAEu2K28tk8RAiX1z7M/UhOiWkntRPSsLcZ2GgUYdoP0GMjIO0/mScseBIGxvUibwc8GPPlz1jiJ3/9+3bJ+0M0UVcX6k+DIbrHUbCBUbCcY8osReHF4VBJeTKd8KAhEoJC0K6eM14rBhQjC31km737t2iOw7nYAwhULzFqlWrFoeQIX08IYhUD3Nx/fnnn5eQInJRJl4YXg7yIQ+hTPY58RzxlmiDnoaFxPyQrO5BIit5qYf2EdZkbxgSJmSLAedgF94UUQHazIf26+MycQSZDQmjO06Tv/322yIPuuJAHB4kB8809OrXAWhbmnw+aDvyxPUh5XDgK6mfonJzEI3+oByuEQImHSRMW0L6k/akjQ3qRG7GFzogykK4nr7SH48J0YWvx6QxYjBcbzASLjAS5sc62Cvl16P0w6leQoyLFy92L7/8shxs4pEZDC11YSx1PxQPiH1bvBf2+vBOIGb2XDHChH7Zr6tYsaJ4VOTFWPK4DuSFd/biiy/Kd8KLHHJCLgwxJ4IJS+J9Y8Ax/nhRkAJeFQYVD4twK96x/4iSDmbIgr3Hl156SdpBGJrFB3X6p3s5JIXctA29EA4njW/YQbYk/POf/1wiB5AQ5ROCRQ4OHukpar8OECKfD3Tz61//WjxJvw/pBxYzof3E4TEOmSEnJ5DZw7755ptFrxpmTutPCJdFQFqdgPaySOA6n6eeeqo4zB2iC1+PSWPEYLjeYCRcICSM54DRwpjhWXLYST94H+xxQhJ4HHiMeCWEnyE/yAaPA4PGIyUYVvb5MPYQEAaUA0EQKF4LJIoR14M8eCbsF+JJQ6iEKPF42a/EK+SQE4Yd48migH1Y5OCDAee5XDxajCmGm0M9hHr9U8IQEYeDIED9yUraSp3IggzIot4Txh2S5LEo0hImxuPG2yPsShsI5SIXQA/8ahgnuN9///1i3SPTww8/LIREeykbXUJekIO2Gd08+eSTxR5gXB0gRD4ftJ3DdXF9yD4xdab1kz7X+/jjj4t+qZc9WL6j0+XLl8s4CulP9VTT6gSUxwICfbFoYGGnz0KH6MLXY9IYMRiuNxgJFwgJY4jwGgjFEk6MfvRXmiBUjCEHZPByMW6Ur56E/sIRh7UIDVIe1/BaKAPjCVGTDwOrBAz4y3fCl+wpUr4SloYV9TQtXjEncKkHmQgxqwyQDXUQLtWDUQoNR5OH++gHYqKNGGuVBWhdyE2beZ6VUDWyk44P/2PUNR/lExGg/Oi+LPfRi7ZXPTMWEHiDtBndIEf0V6fi6lCkyedDw9GZ+pDyQvqJ/uQ79+kn1V20n0Bof4bUCehX9njpe39Mp+nC12PSGDEYrjcYCRcICYcCI5bp8R8FRpF00TT871+LQ2g6NeJxiKvfB2loR1o6oIY8LV0o/PBoaJszIVv5kvowVJZ8pgtJE4pQXYSMEYPheoCRsJGwIc+AhNm/5IR09ES3wWAw+DASNhI25BmE6Tk4xAE23fc0GAyGOBgJGwkb8gzCoBCxvw9tMBgMPoyEjYQNBoPBUEYwEjYSNhgMBkMZwUjYSNhgMBgMZYSCJeGPikh4+ZNL3azZRSQ8xkjYYDAYDNce5ZmEp02f7OYvKCLhXxUgCfNLSEbCBoPBUL6hJIxN9+18KX4uw1kxPBb0KRgS5vd1+aH7uA8/H8kLAYyEDQaDofwCG44tx6b7dl4/cIHPDyX8XIazYngs6JNnEp5eRMKjjIQNBoPBcM1Rvkl4UklI+EgRCS+5rkk46WPhaIPBYCj/KN/haEh4TmGSsB3MMhgMhvKP8n0wy0jYSNhgMBjKMYyEjYSLwRtnePtOpjfwKPRnGXkxfaY3HRnioa/3i77S0BAPxiDjm5//5FWR/OU1hXEIHbvlHZl0oq975HWOvG4zSQeFoqvyAiPhAiBhJhuv1It7Fy2TUN/By6TmPb68s5V302YCLyWYPXu227VrlxBxSYF8vEv28uWr33OsnytXrsibiXzZywMwjrxfF/3qu5fXr1/vVq9eLS++N2QGY/DDDz90U6ZMcQ8//LCbO3euvA87bvHCPOD9wWljtyyQz1c5ZtIJZMy4Yl/x4MGDiTq4nnVViDASLgAShoDvvffeonaOkZVyFOR/7733XKdOndz8+fPd8OHD3aOPPiqEnAm8XL1169Zuzpw5QjAlBa/74927jRo1cg0aNHC1atVyVatWdXXq1HENGzZ0zZo1k/ayiChvgGiXLVvmunXrJi+sR6/Dhg1zgwYNstccJgDCunTpkuvevbuMtQkTJrhFixbJ+I0jM8bG2LFjU8futQaysvD6zW9+EzRXk5BJJyzwDh065Dp06OB+8YtfyII2TkeK61VXhQoj4QIgYSYdE65x48bu1KlTV3mUkCiv3Ktdu7Z7/fXX3c6dO+Xz7bffRkq4GnimlDV9+nQJS2eDOONAXTt27JCV/KpVq6R9FSpUcOPGjXPPPPOMe/bZZ91bb70lYbbyBvQzbdo0V7duXfHq8egffPBBWXSwODLEAw9t7969ord169YJsaDLTNEQIjKvvfZa6ti91iDKRDtY3Ja0vzPphMjUwoULxSacOXMmo44U16uuChVGwgVAwpDXtm3bxMOE0DSEDCFCqF26dJHVNatsJjYeG6FToHtNrLZJiyE5ffq0eK1KwtF9KvITHiM9XqCGDjEMEBD3fJnJj4wYBFbma9euFVnfeOON4r3n77//XmRi0UC5pMWTxCvnf+pJkkH3scmv4WENc/t723FtxpuhbK5reRg/yozm5Tremu75ppFwiO7SoFsKLLboO8qgHpVV06BjdEabqAs9qMFW/ehHZaEcykb//E9e6vDbHUUu8tCPpGd/E1m4zgKsevXq7sUXX5QySJ9pDHCNunTslrQ9vnyZ9JU0nvhQJ/2Pl3r8+HHpc92z9euI6sBfrFJWJp0wfi5cuODOnz8v/6fpH/0gb3Se+7JoHt1vDpXTkD2MhAuAhJlE586dcy1btnSDBw+WyQVYWb/99ttCeAsWLBCS4GX0s2bNEoLRiY932qNHD9e8eXPXt29f2YeqUaNGMQkzkc+ePSv7VF27dpV0pF+yZIkYL8qBmB577DG5f/HixYyTFwO2ceNGCUUfOHDgqvZRF+E3PngCAwcOLBoId4kHj0FOkkG9BdpGG/v06eNatWol+ti0aZPcRyZkRT/a5hYtWkgo/6mnnnK//OUv3ebNm8WYYYQmT54sZSKXgrw8dL9hwwZJl0bCIbpLAzpjwUKIEX20b99eQt4svNAL7YLkt27dKv1HeL9z585u3rx5YlSVUGgLURE+2nZ+JACviUgFuuJa27ZtRY8Y8jj5QuRB39u3b3cDBgyQfoCkRo0aJT9agG6JirRr18797Gc/k/uM+ffff1/GY9wYoF8Yjzp2S9KebPSVNJ4gZ/qxWrVq7oYbbhA5hwwZIuOaRUCSDvy9WsZSkk6i8zZN/8geTa/9wf1+/fqJTrAVeO/MVeZuqJyG7GEkXAAkDDBs7BfhwXIgQw2JEsQHH3wgRh8jgWFjYjPxn376aSFEjBdGByNTs2ZNd+ONN0peymBFfOLECZGLiY+BJD3p1qxZI+Xg4UI+bdq0kQVBnPEGSSQMgVFH/fr1XdOmTWWPe+XKlRKCw6glyfDFF1/I98qVK0teiBLjzF4tde3evVvKQFYOTXGNX6phcUKb+V6lShUxXOr5YHgxVNF9NTwIDJguUNJIOER3SaAfOUyHoe3du7cYfcoYP368kAhGF51u2bJF9AYZIQ91sAUxY8YMIRzkor233nqrGGFk4VOvXj2Rhb168qCzXr16iTcG2fgH80LlgTQZi/3793dLly4VvaI3ojKM6z179sjBo4oVK7pJkyaJ/PQheo8bA5AR++w6dkvSnlB9pY0n0nF4EdKifM4GQHR4rXjySTpAh9GwMp4oxJpJJzpvmcNp+kf26DzX/kAn6AKC5nwIi20WHdnIacgeRsIFQsIQDAYBQ8KKmskIKXAgi9U+k5cJGSUIwlUYEFa/J0+eFMNBHiY2hKQkrOEv8lAGH05oQjwjR44sDl0RLvvkk09ElkxII2FW6pUqVRIjAeER9tWwWJIMnAYlLwe+MJCkY/XPHhtePcaVttDmjh07/qjNixcvvqrNGD4M9NChQ39EwhhlPNsQEk6TO+0wGvrZv3+/6AudoGPaRT4NP6qseHQstmgjoVEIg4Nv5KF+9HPHHXdIZAE5kRdjf8sttwjBsdiBWA4fPizjiD17vmcrD2ON7Y+77767WMfUB6lAVpAAHhjbEtSzb98+SUPUAP3EjQHahIyqVx0r2bYHWbPRV9J4omzych6DeUQ+xjfjletJOmDxFz09r95qJp3omII00/Tvj0H6g7ZhCz7++OPicD9jF/1mI6chexgJFwgJM4lZNRPOIj+TlcNOTGhCrUzQ6OTUFTUG5ZFHHikmAyb9sWPH5LoSEhOb/Owpc0qTAx+EczFYeJFKUqyY055NDCFh6sYo6n4WSJOBtrDyxxPHGCMDH/7nGvrUR7TwlNLanC8STpM77fQq+Tl5S9iRejmxjqzIjtzcZw//zjvvdK1bt5bIBp4Ne4uEv2+//XYhfUgB/TA+GBu6R4j3RN4VK1YUe+WkpT5CnP5p+xB5WBDhkeI5oh/NR4QEbwwPFn0wDtAbJKnPB2caA75e+Z5Le8iXjb6SxhNt5sNjQ4SzyaNtDdEBskShcyNOJ9F5m6R/Pz3jGFko0z9omauchuxgJFwgJAxYmT/++OMSWnrvvffEK2AiqTGLTk4OX0AKEBKeL94GUDJn0iohsXJmD5SVNGEqVs6EwvAc8TjSiCSKNBImBEj5atAAMqXJALnylxAyRlpBOeTBUHKdNmPg8SJ0hR/X5kwkjMHn5HgoCafJHaI7POkjR46I59ykSRMxvjy+omF6vDk8R06cQyx4ZYQrSYfXj0Gnv339kJdFAX1BeJh6AG3v2bOnkFacfGnycI9zCIQ2dVwB6iUcig4I2WYinLgx4OuV77m0h/9z1ReIjqdMJExbQnSALFGEkDD5k/QfN88pC1kIl0dlyVVOQ3YwEi4gEuYQBftKTGJWyKzYMSRqRKKTE4NBaErDWkpIujpmYkIueEL8eACeG4YMLwEiOnr0qITzKC9qqJO8YJBGwlFjo8BYpMkACcflpZ0YSAwl5dNmSJi9RsJ4gDarhxwlYeqCENQTiOqGQ1tpJIwBTJNbdaeeVhy4jp5IS3ksrqiPPVCuffrppzK+8Vr4H29dP3hOkJO/FQF0C4OyiJroIRzajgHORMJJ8jBeIAO+c7hHdUwe9IFR5wAQ4egQwlH41/3vIKQ96CFXfYHoeIqSMOQd9YRDdEAdUYSScJL+qSuanvawRcSYx6aoLCBbOZPGqCEzjIQLiIQ1XIaRwMhzqIQ9Jn1W0J/MpMU7Y6LhmehjHc8//7yE5SAX0rEnhv44uMWEZLLicbBfhiHDGBCKJi+TV41HHHIhYVb+aTKEkDAEQZs5ocw1Qm7aZg7tUJaSMNf0JCnES6iTa4QuSRdCwoRc0+RGd+iLvHx83dGnkAmLJGRAfzwLjmyc+qV96JwFFx4R+3qk40MePHGMbZxuQ0jLJ+EQeTSKgHdJ6Jf+IzTMXiahz6lTp0q6EMJR+Nf97yC0PbnqC/gkTPRp4sSJMt8YJ4xn5kKIDqKhYRBKwmn699PrYULuI4vmowx0ESJn0hg1JKOwSXj5Ejdz1nT3iwIhYcCEYe/npptukjZjZPR0oz85MTj8PCWTntU0zybynRAdh1sgF0iDSY6R4YAXBE1Yi/0zTnHiKWLYIDjCY6yec31EyZdPgfxpMoSQMEZT24w3q23WqMG//du/XRWCJx2HUzjQw0EVDuNwoOvmm28OImG8kDS50R3pIIm4/TcMHqfd2TJ4+eWX3TvvvCOP7mBUGSfkj55y51Qs9bA3ygEowoy6qPD1E0paUYTIo31M2B7vjIUIixeiASxq8N4ggBDCUfjX/e8gtD256gv440n3oSmLfVXGNNEObV+SDnwyCyFhSDNN/77syMLBQ86HMEc5wf3cc8/Jvjlj9le/+lWqnElj1JCM8krCXYpIeOq0Se6J+XPcc0bC4SD9u+++K5OSCRc9WIPRgFAIPXEdcmMvlJU8E46wKSti9pd4XIFJqt4Bj4lwGITJCmExYSmLvVGImsnPQSMOynBiE28iDrpvx2lM3xD58kWRJgNebVxevE/0iYHEa6HNLBK0zeyfsydIeDru2Wj22GmTpuM7Xsfy5ctFN3yUWDHQ0TagkzS5SUNIlEUBevdPI6MfwolsK+C5sQeoJID+IBr13CAWwqLIyuM3ePx4MpQZp1v9hSb6gkeAdKwhE4/KsEiJhi9BiDwswKiDKAx7qqTjw0KEZ3iJzEBejAP0Fj2AFSdn3HX/OwhtT676Av54oizGE48wsdhiv5hnlCHUNB34C1WdG0k6YUGRpn9fdmRkbHLSmfHHPCcvCxBIHf0kycmcSRqjhmQYCRcYCTOxCSkpIUSf8eN/rikB6zUME+Fo9ksJoeq+kobm+HBogwnLZMToUA7p+FAGxpnrhOT0QEwckI+JjTEhXdQQxcmnSJMBPcXl1YMqSsBA28wChLLwBvAuor8SpnlJR13ohnT6DGlUN7qHTHq/DWlyows8Ggwj+/n+jyNo+JfykRHjTB9RBm1W/VEPHp56SjybzClaHQO+XFo2ZEjZEICWxX0Ms/ZtFNnKwzgkSsHeY7TPM42DODnjrvvfVbbQ9uSiLxA3nrhG+bSRyBPjQcdGkg58hOiEutL0Hyc7srBgxEtnHLLAxEvWE+1JcqLLpDFqSIaR8KxpBUXCuUInb5xxUKSlYTIn3c8H0mTIBtGy9NSz/xiHny5XZCoDguZHO/DUMIL+/SjIj9FMSgOURNLSlRSh8ighXa/Il76Sxn9p6CBU/1HoOMwkS5yc2YxRw49Rvkl44j9JeH2uJLz4nyQ80kjYkAgOrxCOJMyIl3utgEHEY2HPTcOPBsP1BBujJYORsJGwIQCEGPnlIw6s6I88XCvgWZh3YbieYWM0dxgJGwkbAqCrfX07ksFgMOQDRsJGwgaDwWAoIxgJGwkbDAaDoYxgJGwkbDAYDIYygpGwkbDBYDAYyghGwkbCBoPBYCgjGAkbCRsMBoOhjGAkbCRsMBgMhjKCkbCRsMFgMBjKCEbCRsIGg8FgKCMYCRsJGwwGg6GMYCRsJFzq4CcfefMQ71C9Fj/5yG/Y8kPy2b5B5lrgWutCQV385Kb+7Gacjvw01xL51Es+yzIYShtGwkbCpQ7e0zp79my3a9cuMYylDXTCe4t5n+r19m7Ta60LBcS6fv16t3r1anlvbJyO/DTXEvnUSz7LMhhKGwVNwssg4ZnT3H/+wki4NMGL0Vu3bu3mzJlzTV4DyAvLx44dK2894mXq1xOutS4U6GHYsGFu0KBB7uuvv47VkZ/mWiKfeslnWQZDaaPcknCXzm7K1Ilu3hM/JuEZRsLXF65cueIaN27spk+fLmHC0gbez2uvveZ27tzpvv32W/92meJa60LBqxgffPBBd99997k//OEPsTry01xL5FMv+SzLYChtGAkXCAnrPhmeAZ+vvvpKjBXG9rvvvpN9QdJwj1AkhhlvCK+C//V9oaTlOnl5iTfpyadgD4737UbLP336tGvUqNFVRtEvi3rwzv7xj38Uy0Ja/VDXl19+KUTxww8/uO+//17+J+/vfvc7SaP7f+xzUj/X+T9T28kf3TekXvT5l7/8pbg+0qIPTRNaFsiXLnyEyOnDJ1hfR9E09957rzt37pzcp2zk0jECfHn9cZA2jkL0EtrG0LKS5PWRTR/7Zaf1ncLPp2Nb86W1vSTzI1P7orYgTsZc2xaXDxnYNojKpdeTXhmaSfZ89s21hpHwzKkFQcIM3IULF8peGWG6Hj16uObNm7t77rnHvfDCC3KfSb9o0SL5rFu3zg0cONDddddd7vXXX5fBzP2tW7e6vn37umbNmrnOnTu7efPmyQBncjABGPCrVq0qLp+0c+fOdTVq1LjKKDIBt2/f7gYMGOBatWrlOnTo4EaNGuU++ugj2aOkLuSdOXOmfCivRYsW7oEHHhAPbseOHW7w4MFyrW3btm7WrFkyIZGBOp544gm5phOdsvjO9T59+kid5N+0aZOkQSbI6OzZs27KlCmua9euIj/1LlmyRIyclh1SVj514SNETh8+Cfs60jSEojt16uQmTpzoevXqJWHdfv36uRdffFGMHmWnjQPKThpHIXoJaWOIjpE1TV4foX2cS98Bzbdt2zbRLWO4ZcuWbvjw4e7SpUsyp9ParjLmOj/SbAHpStK2tHyQ4eTJk0UO6lMwBkeMGOE2bNggiysfpd03ZYHyS8Kdikj48SISnl0SEl70TxIe8ZMnYQY3E7Ry5cpiiMiPscI41qtXz7366qtilCi7fv36rmnTpm7MmDFu5cqV7syZM7IK37Jli9xj0k6bNk3Kq127tpsxY4YYOibN008/7erUqSP3mCxMjpo1a7obb7xR8jCJWLFu3rxZvJX+/fu7pUuXyqTCEHXp0sV99tlnYjDuv/9+d+utt4ohYf+SD7JSXoMGDaQODBBkUb16dZmElE1bhwwZIsYfIx1tO+1ikpOvW7duIuvu3bvFc2CFfOLECdEBdUEi5KO+NWvWSPtCy8qnLnyiCJHTh0/Cvo40DaRw0003iTwYLAxd79695fuePXvEsKWNA8rJNI5oc4heQtoYomNIK01eH6F9nEvfAc3HGGbsouP58+fLfFRPLa3tyFiS+aHty2QL6OeStC0tH/MbAmXhET23gTdP2kxbCaXdN2UBI+ECImEM7O233y6TDMOLAXr33XdlgmKQT506JWkqVaokRoEJQVgIo4Axw4gxaT/44AMJcR0/flwGf8OGDSV8SXpWm6w6T548KcR9+fJlWcFXqVKl2MBSVvfu3d3dd99dnA75MJbIsmDBAnf+/HmR5Y477hAPivuUNWnSJHfLLbeIx4ZRpw2HDx8Wozpu3LhiEvAJh7KqVq0qk5RrGJm9e/eKx4Qxxstj9Uwoj/voh8/Bgwdd3bp13ciRI8VAhpRFG9FPvnThn1QOkdNHnE78/V9t22233SYniykXveA50O8c2kLGpHFAv1FepnFESDBELyFtTNPx1KlT5QR4mrx+5CC0j3PpO0A+6ifi8PHHHxeH7ikTYghpu8qY6/xIswWffvppzm0LyQcJ0y9Dhw79EQlDrkQBMpFwafZNWcBIuIBIGK+H0BSTVfdEMEqsDDFkrL4Z4AxmDJXuFWKk2Ge78847JTyJ98Eq85lnnpFwGZP5vffeE4NC3kceeaSYCCjj2LFjch0Dy4TBMLLiZgWrE406IHJW8KzweXQGedu1ayceOvISyiSsiBwrVqwo9vhoA6t4SIL9JJ9gtO1t2rQpbjsf/ucaukReZKBMQoKHDh2SQ0uEOjHWeFgYi5CySMdKO1+6oM4oQuT0EaeTOBKmbYwFbRugvIceekjGzttvv504DiAL+iPTOArRC3pIayPEkVYWhhziTZOXxUEUoX2ca9+RD0LN5O2ltT06DnOdH0m2AM8aUsu1bSH5SkLCpdU3ZQUj4ZmFQ8KEcRj4TAAFk5KJwIClPNKwgmRCKjBSGDM8mwoVKohBwwNp3769TJiOHTvKKvrAgQMSCsMTwfMBTJAvvvhCjA4GlvqOHDniatWqJSEiTQcgA0Jn1P/JJ5/Iap6QlZIEYSYMEmEnQqN4C4D29OzZU4yMGiifcPyyAG3EGxk9erTIhUfCXhTXCFshB6FYvCrya9lpZXEd45kvXUT7izJC5PQRp5M4Eqb/8dKidUJwhKbxptgzTBoHeF14u5nGUYheMJppbcTTSSuLfW28xDR5/TkU2sfZ9h1AB9RJvmXLll2VD4T2b5yM2cyPJFuAbOyl5tK2UJ1kImEWFJxsTyJhv90gH31TVjASLiAS9lfOgIGI0eVgBl6Lb5gBITLCU+iIFST/s2LVDwaRk6940hgAQpAa6tHVMRMCA0vYizAZRhLDroeCkAfjzeTgIAUhJF8WjAxhUvK+9dZbxYcraAMTK4mE/bIAE5dDOjpxP/zwQ/E2MFh4SOjp6NGjEsokf1zZcWWRhqhAvnShe7YAQxcipw9fbv+7plEPKTpG1HA1adJESC1pHNBHyOuXDRhHIXqBDNLaSLlpZXHw57333kuVV9upiNMNiPYxOs627wA6YIGJp84c1nyK0P6NkzGb+ZFkC1ig7Nu3L+u2oftQnejCgMUA8mj+aN9lImG/3SAffVNWMBIuIBImRFitWjUJKUIAHF5gvw9vgsMLhIDjBjhg8BLuYYJCkIS++GD89HGPy5cvy8qdAX7hwoXixySef/55Cf2pl6OrYDwSwtys2Amd7d+/Xzxy9vI4HerLko2RSSMcEJ24/M8eE+OAAz5MUCYvngX7TxjxuLLjyoJE8qmLqDHifoicPny5/e+axh8j9LGSHWOEhVrSOMCQxpUNMIIheiFPWhvJk1YWumNMp8nrI5P80T4mOpBt3yn08BGLHfIhD3MRj42/aW3PNA6zmR9+P/u2gIVCLm0L1YnKQOgb4kUHXGO7gHaWhIRL0jdlASPhAiPhn//85xKGY4Kzf0RohzAjBxYuXrwYO8BB9CQqBzcwdOTnZCchHw0h8tgDRoADIjzWwnfCgBwWUeJhwm/cuFHCTpzoxOgw+VgZMynxBJhUvizZGJk0wgG+98rBNLwNHmWhfYQL2TusWLGirNjjyo4rCyOQT11E9yxZ7ITI6cOX2/+uaTDAhG4J7TFGeIyGE6y0gzECKaSNg7iyFSF6gXRC2hhSFoSXJq+PTPL7fZxt3ylYACxevFjmHQet0PFzzz0n+7i6153W9jgZs5kfabaAdLm0LVQn2ncckuLAGHVyqIrzCDfffHOJSThUjusBRsIFRMJMMgY5g5iBSMgLL+HJJ5+USYcHx4QghMP/UaiHg0Fj4nL0n8c+CGOzqmQ1DUGwH8denJbPSnTChAli3DEyGCA8Ispfu3at7O3gpfDB6PCMI6HtOFkwKhwY4cTj+++/X9x2ZH/44YfFEGPAmYTRvP53BQYPXXJ4A/kxDDxKwyEWJi+6YQKTlz2quLIzlZVPXfjh0hA5ffhy+981zeOPPy5loU/kpp/x2HSM0K60cRBXtiJULyFtDCmLctLk9ZFJfr+Pc+k7wFyCNDihS7uQm3wsErgO+aS1PU7G0PkRYgvQbS5tC9UJB+iIdjHeCIvTL+zX850FwvLly2NPL8e1G+Srb8oCRsIFRMJMOAYhXgbhO/bICOnpr9Mw8RjkDN64Z+j01CahacJ87AH/5je/kTyanr9MdMonjHnp0qXiiR8N/2lZGB1W/uzhsGInbMTkiJOF64StSBfdy+M+hkMNs5/X/67AECCXkiYyoQvah26IDJCPcjOVnakskC9d+AiR04cvt/9d02gZ6BO5CUtGxwhIGwdxZUcRopfQNoaWlSSvj0zyx/Vxtn2nIB8kw54s7YOQ8OyoI6TtcTKGzo8QW6Ay5tq2kHy0FZloH31H/ejWnx9RxLUb5LNvrjWMhAuMhDWMo0SX62BUQ5Apfzblq6G8XpCN7CHIprxsdJFNubkgpPy0cZCEkPJD0oDQdCWRNw3Z9J1C5Y7LF9qmbJGLLcilbSAkX0j9JUWIHGUFI+ECImH/F5IMBkPhwWzB9QUj4QIhYfaZOIzCngkhIIPBUJgwW3B9wUi4QEiYcA+TL7pnYjAYCg9mC64vGAkXCAkbDAaD4fqDkbCRsMFgMBjKCIVLwh8dcUuXLXIzikh49H8aCRsMBoPh2qO8knDnIhKePOVxN3febPfsc0bCBoPBYCiHMBI2EjYYDAZDGaGgSHj8L8f848ckPMVI2GAwGAxlgvJNwhOKSHhWEQmvu4qEZ86cOuX/i8OPPeGF/yThx4yEDQaDwXDN8VMk4YyesJGwwWAwGK4nGAkbCRsMBoOhjGAkbCRsMBgMhjKCkbCRcJmDt5vwCrXoa9QMBoOhEGAkbCRc5oB8169f71avXh37Im9D/nEtXh93LeowGMo7jISNhMscvHB82LBhbtCgQfZqtWsASJGFDy+2L63xcy3qMBh+CjASNhIuc/gvGTeULn744Qe3d+9eN3z48FLT97Wow2D4KcBIuIBIGO/ku+++E2/zypUr7ssvvxQCxGDyXlFebxbdkyWU+Mc//rF4r5bvf/3rXyVk/O2330o5v/3tb+U7r0Xzr/M/+ZCR+7///e+lzq+++krSal25kHCmtvzjH/+IvY88f/rTn+S+hklpr35UNtXH999/L/+T93e/+92PdBMF5aW1kTSUiwyUp3V98803seVm0jX/U5bfPuolvb6aLlN9lHf58mU3bdo016FDB3f8+HHROWWF9JXqjbr4cJ/6Kftvf/ubpOND3rg6yJ+L3HF6+t///V+JopA/eo//ucY90qS1Cfj61HrJm5Y/G5kNBh9GwgVCwhgKiHbbtm2uX79+rkWLFq5ly5biqWAkJ02a5BYuXCgGVoEhGTFihNuwYYMYFO4tWrRIPuvWrXMDBw50d911l9u8ebObNWvWj66//vrrQhpnz551U6ZMcV27dnXNmzd3PXr0cEuWLBGjhpHKloST2nLp0iUx6Nzfvn27GzBggGvVqpWQwahRo4r6/SP397//XYwq7eXF5nyQiXIeeOAB99prr7kdO3a4wYMHy7W2bdtK+zC+cUYVQ5/WRgjqjTfecGPHjhXdtG/fXkLwtAEd+cika3QKWSD/1q1bXd++fV2zZs1c586d3bx584RAaH+m+tauXSttqVatmrvhhhvk3pAhQ9yBAwckT1o7kAu9UQYvhu/Tp4/oF11t2rRJ9A4BksevY//+/aLDXOT29cQYYKwwPpEjOm75f8GCBe6xxx4TQjxz5kxim5LG04ULF9zp06cT84fKbDDEwUi4QEgYQwFZNmjQwPXq1UsM1/z5893cuXPdZ5995nr37i1GB+9BgQHDGE2fPl0MG2RJ3fXr13dNmzZ1Y8aMcStXrnTvv/++kIR/HeOHR3nixAnJh5GCVCC6mjVrujVr1gi5Z0vCSW3BG9H7jRo1cv3793dLly4V0qAtXbp0kfZCBvfff7+79dZbxegiG5969eqJbJSNnBA0dVSvXl1IhrJ94F0ntRFSok6MM3rGgJNm/PjxQkhxhjqTrtEpXtiWLVvkHoSAx0l9tWvXdjNmzJDoRab6WFChGxYltGnZsmVCFpBNaF9xrXLlyiIXJIiOunXr5urUqeN2794tC4Rdu3b9qI6TJ0+6jRs35iR3nJ5IT/0sAlg8qBd+7tw517p1a/fII49IP7PITGpT0nhiPCblz6VvDYYojIQLhIRZtWMoO3Xq5D7++OPiUCfkSpgTozh06NAfkTCGFi9ASRhPoVKlSmKkuE+omhAcBOpf19AvoTqMGaE+PgcPHnR169Z1I0eOFNLMloST2oI3xf3u3bu7u+++Www/96gD4oIU8JLOnz8vbbnjjjvEu+Q+YVoiArfccoscEoPwIJTDhw8LUYwbN06++0hrI0SAFwhJoR/qxvOi7ZlClpl0jU5pH/2FJ/nBBx+I/iEKdNKwYUN36tQp984778TWRxmU9eijjwpJcg8SyqavkKtq1apCuKSlbPZ/a9SoIWSKjpDJrwNvl37JRe44PRERINpBekiUOrhGP3MNEuRaWpvSxlNS/lz61mCIwki4AEgYQ/D555+L4VCvNgoMSTYkjLHFeBKGBZmuA+rGGBEmPnTokNu5c6dbtWqVGF1CmNSXDQmntUXv49Hioel99ZDwdvCAf/3rX4v33q5dOyEH3RPEcN95551uxYoVIjeALAgzEmLE+/KR1kYMN6eEKQN9zpkzxx07dkwMdVRXUWTSKXURHkVGvL2nn35aCOiZZ56RcOntt9/u3nvvPUmTqT7+jh49WkLBtE2R1g7tK/TWpk0bWbTo/jT/c41xSfl+HfmQ2wdl4sHjhTJ2kY0PER22ECBESDSpTfRN2nhKy59t3xoMURQ8CU+fMcWNGv3TJmG8HLy5WrVqSWgQbyiKTCQMOTVu3PgqEiYUhzcTNd6ZrmOc8SoIgeJlEA4mDWG7KlWqiLeZLQmntYX7R44ckfuEoaP3KZtwIzJ88sknUj97mlon4ViMLF7Nnj17xAMC6Kdnz55CwlH9gNA2UhZy4T01adJEDPaECRPE244z1pl0SvvwIvGQK1SoIISGtwkRUWbHjh1FPxBHpvogDp+EQ9uBXL7eAOWQj3LjSDgfcsfpiXE5depUGacsVvBkyTd58uTi/emkNuEFZxpPoTrJtm8NhijKLQl37uQmTf4/Et7wbA4kfLSIhJcsLQwSxhuAdPCqyIdxikJJBqOPkQXqUWKcMGhKwnFkmek6hvfDDz8Ur4HyCeNB7EePHpWQJHkykbB6WD7S2oLcGD88Gw5i6X3KIuyOEeWwFmFqv05ImL1M8r711ltygAugH8g7joRD20j99BX/k56wN/Wwz+i3AcTpBND+Tz/9VMYrHj3/E7HQD6RCO5LqIyIAQUJ8SsKh7cgkF+VAuD4Jax35kDtOT6TlUBn7zOzFsifL//v27ZNQdFqbaEOm8RSqk1CZ48azwVDeSXjOXCNhv09joYesCNMR8iP0ipFi5Q/J6KlQiJd7GFvChez95UrCeAjsG6JbTtTigWGU8DYpF2McZ9gxfoQ3+egjR1EktQVjr549Xhb3kQMPi707wtR4Thzk8WXOhYRD2kj7KIt9RpWV/U90Thuinq7C10kULCYI/eJxsZigTD6Ur4/7JNVHKH7ixIlCJPQ3Y4g0ae2I6yuFT8LsC0frQB76syRyx+kJYuM68lA/B+/uuece0RH9GdKmTOOJtnJKPil/SN/SLtIhU9x4NhQ2jIRnFAYJYyQWL14sB4wIm3Fa9bnnnpO9T/a0OD3MoSUOH3GwhQM2nDq9+eabcyZhjA8GCUPMIynPP/+8hPzYA6xYsaJ43nGGHa8I0lMj5yOpLezZciKVU7iEKPFGMMQsKPBmWGjgrWAcfZlzIeGQNtIeiA8v7eWXX5bDRzx2hOGnL/0yga+TKFhQsKdK2JxHf6iTvWxO9RKCRwdJ9bG/SXrys2+OJ8k1vNOkdsT1lcInYd1fj9aBnp566qmc5Y7TE0AfnBxHTj7UoQuytL6hzEzjafny5SI3i4ZM+UP6lnZRLlGYixcvmkdsuAoFTMIf/JOEJxcECROmxVByMhhvhBAbxgVjiIdCCPfxxx+Xg0o82sN+Hd9Z0WOMMFQYV0iaMG/0gFKm6wAPBwPJwRVIkbohRtKz16wnSTU/3gZkQBicfbW408hJbeE695GDZ2LZu+SeGlKeAYakue/LDOlyypdT1Tx2pbrFkD788MMSZowLiaa1kTbpHjRysG+ohMWCQMk+iiSd0j7IECIm3Et/EYLlGVa8fORNqo/FBmTA4z0QFPudEAiLjaR2+H0VlYs2Mi4hXPoMGf06XnrpJSH7XOWO0xOAbCFCFo2QH+OHayCtb2hT0njCi2dxlyl/SN/SLg5xMbc4LEZ9BoOifJPwL4tIeGYRCa81Eg4Bkx8yZV8LQ0VIVsO/HCDBIGE4OdwCMWNMMfYYMvJi2DDCGF81ciDTdUA+vBJCcdRJ+aSlLj6kj+aHICEEDCE/gJDJ8GZqS/QUMR4SxpXnOFlkQDKEj/FE4mTmOh4c6XR/EnAfQ6ry+khrIzLRDsqFLDhABBmRhv6L84zi5ItC20edlMnzvUQ0yEP6tPqQiTahF0LDRDq4ltQOv6+icpGXscKY0etxdXCvJHJngj66RX9H50Ra36ismcYTZSXlD+lbZCMfhK6H/QwGhZFwAZGwQkkobkWu95IMXi4ILReDx48g4HliUNPSJ7VFwb2k+/lCSBu5j+FOSpMtlBzjykyrTxdX0fsh7cgGcXWAksidLULblGk8heRPkjmTDgwGI+ECJOHrGRgqvCy8Gnu8w2Aw/NRhJGwkfN0Bb8E8BoPBUAgwEjYSNhgMBkMZwUjYSNhgMBgMZQQjYSNhg8FgMJQRjISNhA0Gg8FQRjASNhI2GAwGQxnBSNhI2GAwGAxlBCNhI2GDwWAwlBGMhI2EDQaDwVBGMBI2EjYYDAZDGcFI2EjYYDAYDGWEgifhadOLSHiUkbDBYDAYrj3KMwlPnPRPEt6QIwkvXvJ/JDzSSNjwEwIvweC1gX/7299+9DYggyEEjBtewai/487LVErjLVA2Vn8CJDxnpltvJJwOBjjvBea9qLyInMHvI/qO2ny+xSjkNXC5QNvEKw95F6w/iamT99kyyf171xvyqSPeczt79my3a9cuMW4GQygYf7wf+fz58+799993X3zxhbwn+pNPPpF5li+boLCxaiRcMCQMSS1btszVq1fP9enTR4jWN/jffvut27Bhg6tbt65r27atEHFJQR28I5gXt4fKGgptU/Pmzd3ChQvlhfLRNmE8HnroIbdgwQIh6+sV+dYRfdu6deuiyTHnum634foDJPvxxx+7bt26uSZNmri7777bTZgwwd1///3uyJEjeRmfUdhYNRL+Jwk/+pMnYbzBadOmifIqVqzo3njjDVnxKiACSPeee+5x//Iv/+Juv/12d+XKlUgJueGHH35we/fudcOHD3d/+MMf/NtB8BcLimibatSo4d59992r9EF7MCYYEVbc1yvyoaMo6LfGjRu76dOni44MhlDgje7cudPNnDnTvfnmm27q1Kmud+/e4q0SVco0F3OFjdXyTMIdE0h4SigJLygi4UkFQ8JMrOrVq7vbbrvNjR8//ipiYv/n0KFDogfS8FESZuJ99913EsbmGqvXP/3pT8V7RoBQKitZvFM8ak1LWAui7NChgzt+/LiQDGWRzy8X0qQMDZXzF2/2yy+/jG0nbZoxY4arVKmSLCwefPBBKUdDz3Ek7NcZ1xYfum+lH8pFJmSDQL///nv5n/II2UXD35SJ7Hjpmu+rr74qDp/z4ZqvI4whi6RM+RS6hcA96ifv6dOnXaNGja4ybCHtpp3oyQ/fc/2Pf/yjeOtcj+tryuN/7qXVEwJfXtU35cTd9+spSZ/5oDzyUD5ptRz0Hu3ntLFMHVzjE+0vnQ9aTtJ40bLi9I88IWPGlzWqW8omP2Hoixcvuk8//VTG5OXLl4t1H1eGr/845HOshvRJeUH5JuHxRSQ8o4iE1xgJp4EBPmvWLFl13nvvvRICOnv2bPGAZVLPmzfP1a9f3/Xr10/C1kwABjuGefv27W7AgAGuVatWQhajRo1yH330UbE3TfmLFi2Sz7p169zAgQOlDsJYkP4NN9zg7rrrLjdkyBB34MABMYJM9q1bt7q+ffu6Zs2aFXVqZ5GBetXwP/bYY65r165iEPzJrW0i76OPPupq167t1q5dK2QBfBIObYsP6iHczSKGT48ePVyLFi3cAw884F577TW3Y8cON3jwYLlGGB+ZMDTolvAeep4yZYq0g9A5+ZcsWSLyUTb/V6tW7Sod7du3TwxgpnxK4BiqVatWyT3SoMu5c+dKZEANW2i7MWiTJ0+WtqpBBBi3ESNGyFYFRi6ur5F7z549IltaPWlQebdt2yZjEb22bNlSIgWXLl0qXiwk1cPYyrXPfLAgInI0duxYaWf79u3dsGHDRD5IEHnTxrKOITxKQq/aX0SeXnjhheJ+ShsvyJdJ/6+88ors3SblTdMt9iSt/tDxFEU+xypp0vqkPMFIuIBIGGPEoH766aeFZDdv3iyDmUHNBISwHn74YffII48IGWNAuE86Vqv9+/d3S5cuFYPFxO3SpYv77LPPij1W5CJf06ZN3ZgxY9zixYvdk08+KUYOz5r9WybJhQsXZHW+ZcsWSc+kxBPEQEKkeLcYNcrEu23Tpo07d+7cjwyktqljx45u//79rnv37kL8rNwxZj4Jh7bFB3KwmLj11lvFaDHx+aDDmjVrugYNGojsyNKrVy9p66ZNm6Q+Vu8nTpwQ3ZAHw0la8q1Zs0ZCfBxKwdBEdXTmzBl39OjRjPkgQz70ZZ06deQeRh5iIc2NN94oOkVHoe2GhDgvgEFGLgVeBmnVUMb19cqVK0Xvzz33XGo9aVB50Sv6fOKJJ9z8+fPFYLNQCGkPbcm1z6JAXsrDyBOWhYzoCyJJkC4GnzwhY5lrlStXFpJm/tIeCASZXn31VfHs0sYLfZ5J/8iZNmbSdBtSf4j+/X7O51jF5qX1SXmCkXCBkTDGnrAzk3/o0KGyOsUrZRXNQQwG8bhx44pJGCKD3DigcfLkSSFPjABGB8PFoSe9xsqa0DCTGsPN9cuXLwupUy+haSUmysVgYZA++OADCSlhxCHNhg0bSlo9pcnqHhl9REmYdOxlcagMo0S7KDNKwqFt8aFtu+OOO9zrr78u32nXpEmT3C233OIGDRokpImxPXz4sBhfdKgHxTCuhN6Qic/BgwdFzpEjR4q3j5x48r6OkvJpGI48LKy0PciFUapSpUqxYQttN8RFnzAufBLG2OMdKQn7fU30gbrRd1o9adDFU6dOneSQkIZeqRvjHtIe9Jhrn0XB/GKBB3nQVsplLKF/DX2q3pLGMv2IPJy1gHDpT+riHAMyE/1gLKSNF+rNpH9kTcubptuQ+kP07/dzPscqekrrk/IEI+ECI2EI69SpUxISIzSNsWCiseplZUwIFEMFCeMdf/7557JSJy9lAAY5nimrabwNJokaBkJL6okCJsbo0aMlPMdE1PzsBd15553iubJCZvX7zDPPSAgMQ8XEp20YBsryQ9Eg2iYMEe3AkGIwCDdy2lhJmIkb2hYfXCPk165du+IQPXtWLFhow4oVK2TyA9rIAofQGHVSPvfQJYsfFgqE5DDOeAKQXSYdJeWjrXgD6JtFDmUAdHXs2DG5jmHDOIW2O1sSjvY15YXWkwQthz6MO6wTWs+vf/3rnPssCsplHHEfHTBv0C/61naHjGXqQB6iQpCPjmeu4+FBTvyf1u/0S5z+VdakvIyZJN1mU0aa/qP9zL18jlUWCEl9Ut5gJFyAJMz+KhOMQU2458MPP5SQLyEdDAT7gpAwYWMeS6hVq5ak071WwESAtFm1YryZdISZ+K5EAuIIBi8Pj4GVfIUKFcR4sUomvMSkQka8k7S2RdvE4Q19vAJDB/myWsYQQsLIF9oWH+TFcyJUq6eX8cwxUKzG2QvFewDk79mzpxh0DCaeBnupeB6E1KiDEBqrf8qMI2EMdFo+PAb6kHAe3oS2h7wcqsHQYtggldB2ZyJhSIwFW5SE/b6mT0PrSQLl0PeUQ2g+Wo7eD6mH6EmufeaDdNSJJ0i0iDHKmMKTpsyQscz4RGfoN6oD+gd96xmMtH5XEvb1HzpmknQbWkaI/qNtpM/yPVaT+qS8EbGRcAGSsP4YB3suGH72XBjE7CcxEZSEWQ0zqJkkHIxgpQqYPJTBhODwBKtjDAP7t/fdd1+x0QNKMNSrBgPvFo8bnbOy5X+8Lf0gG8ZNvYU4Lxj4bQKs4p999lkxtIR4MYpMTuQIbYuPuLYhH3u5lPfWW28VH0bBQGAsMOj8zwIHLwIjj0eEoUXPhC4pM0rCqiOMVlo+5GDBoSE5Df+pp4ghw7AR8gxtt5IRBl49mWh5jAslYV8fpAutR6/H9StjAwLFO2KMazmK0HoIZfoyhvRZHAlTNvOMe/QLkSLKIHrEtZCxTLt9zxxQNwtGDiox39L6XUnYb1vomEnSbUgZtCNE/9F5RJ/me6wm9YnfrusdRsIFSsKQ1erVq2UFzyTQScpEUBJmAqp3xMqesBsrUPLiZbJ65znCTIYZUN7EiRNlEjPhNMSMDHjfkD8Gk1AhHyYoq3EmqB74Im308QiF3yagExbvgrZxEIYQNRMztC0+4toWYtAxwrt375axxUEUjAdy4I1VrVpVjDZGxNcROiCcnpQPmS5fvizeCoaJqIU+dvP8889LGFT32ULbTV49MYsc9AfXCK9SbxIJa9tD6qEvkZ1PXL/qQTAiGpSDHOyT4xnpAbK0ejjh68sY0mc+CTOeSEefqBxs56An5GPRFDKWVbecgn/77belzymLE794iCyImW8h4yVO/+ggJG+SbvkbUkaI/qPzCB3mc6yiu7Q+KU8wEi5QEsaYYTA47MBBFbxHBjPpoiTMtY0bN0o4klUmkxSjzEoZY80qFEMaZxiA7sOxCqb+AwcOSLnUo6clOZTCZCQdpzUJRXEfr5xwEyvgTI8o+SQM0AmreMr+13/9VzmohTEJbYuPuLaFGHSMGMYBcuVxDNpIGJAQOc8143Fi1Hwd8XgSP5TACdGkfBh4HnlBBjyBF198Ub7j/dOn0ROnIe3W8hgTLFw4DMPpXvYrb7755lQSDq0H7xAd+XuHCowrJ+s5LEX/c1qcU9fs4zImOP2aVg+G2JcxpM98EkZe9pcJo7788svunXfekceCIBTmIekhibSxrCT885//XMYrJEcaQry0E11TTsh4idM/8zkkb5JuGa/s3aaVEdrPUeRzrDJf0vqkPMFIuEBImMnH40JMJJ24GDQIikmmzwzrJGU1irGE+EjH87fsr7Ha58Mk5XlLfU6SkCqGmzBS9HALZUKgPGfK5GavCS+PyYYxwXhhlCAciJ+wnK52mUwcBiGExwlIyooirk0AeZjQy5cvlzr1J/FC2+Ijrm0YcH7lilOc/Mau9gMy85gXhgbip14eH+EQCYYFjwnjQnnssZImTkfsy2Gok/JheNlTw4vGQBFGxIMg/I5nhWFFR6Ht1mdUH3/8cdE5fcL+Jt8hEPRJeXH6ACH16FYE0Rfk9E8jA/QBiXISlnbTLsqB4PTwUlo93PdlDO2zKCAT3V+mDvYf2cJh+wBCoEz1dJPGMvcpgwUNBKr9RfsYw8hAOSHjJZP+Q/KqblkgUD/kytkQ1S3zJq2MkH7251E+x2pIn5QnGAkXCAnrBMcY6MEFJgaTCgLTlSvpNCzkn7pkkrJSZt+G+4SKdLJRFsaBCcT/UVAORoZ8eN+UT5laLl4sK1ueT+TUI+VQBjJBToRG9RBNFHFtit5jUiMzRlAJPKQtPuLaRlpW5OSN7l9zn7YqSVIfoT7aCPnQHsrivqYBvo6UwNPyaR8S4mPfjX1FvqMTDYWC0HYjB/mpj/IuX75cTCLRbQJfH4q0etAV3gtG2P/p1Ci0/4ia0H4WB4zT0DEZJ2Non0VBGmQkD2OU08jomLKZe1pG2lhW7xUywWOlv2gX+mV8RPspbbzEtS00r6bD64Vs8Yhfeukl0aOe9g4tI0n/ccjXWA3tk/ICI+ECIeF8gQmikyVbqAGPmyRqXPx7SXlKipK0JVsoMaS1w29vaL7QdCCk3dmUlwlx9WDg+dEHPE+MbFr5KodfThRx9ZQGkAOiSpM5biz7IeQ0/abdT0JIXiJRRKTw3LEn/rZASBmKbPWfz7JD++R6hpGwkbDBcM2A0cSDY6vDj178lAHJEfLlhHTcCfxrCUgNz58fDeFnYfnpTLxKQ9nASNhI2GC4psBrKc+eSy5gC4Z9WA7eEYItS7DNQ7gcG8J+P3uthOkNZYPCIuFf/piEp04zEjYYDKULIgAQMfvr/F+WYAHE/ireOfuo0f1xw7VHeSXhTkUk/PjE8UK8PyLhGQEk/OHRD9yixf9HwiNGGgkbDAaD4drjJ0HC642EDQaDwVAOYSRsJGwwGAyGMoKRsJDwI0bCBoPBYLjmKGASPlxEwvOLSHiikbDBYDAYygTlm4THFRHv9CISfsZI2GAwGAzlD0bCRsIGg8FgKCMYCRsJGwwGg6GMYCRsJGwwGAyGMoKRsJGwwWAwGMoIRsJGwoZSAD8DyAsKrtUbXq5Vffrzi7yFJ+ntNtcjypPsyMdvPOvvbNOvoW8eigPl8Qar6GsTDdcHjISNhPOCbF5PlgtKu/x8g37hPci87zTTO3PziWtVHy8fmD17ttu1a5eQWXlCeZCd8U3/nT9/3r3//vvuiy++kN945iX2+s7fXAD5rl+/3q1evVre02y4fmAkbCRcYmA4mOS8xLw05Cnt8ksD/DD+2LFj3aOPPiqvjSttXKv6eNl769at3Zw5c+RF7OUJ5UF2SJYX3nfr1s01adLE3X333W7ChAnu/vvvd0eOHMl5/DMmhg0b5gYNGlTmr1I0XA0jYSPhEoM3suzdu9cNHz5cXlieb5R2+aUBPC1eEbdz50737bff+rfzjmtV35UrV1zjxo3d9OnTJbRbnlAeZKcf6UNeefjmm2+6qVOnut69e4sHD5HmGgnCm37wwQfdfffdV27mUKHASLhASJhQLqt/QlEYaVbDeAb8zz3eJ8o1DBUvXCetvnKNiQ8R4m0REvvyyy9lUn/zzTeycuf7tGnTXIcOHdzx48dlkmNMCKvx6jbKIw0vDqd+3ZPSPTrq4sN96qds3bfjE1c+8up+Wa6y+3tjpEWfJZUZoBfuaQhR8+lHyycf8vE6Of6nLPKQRssKkcuvL5t2ZwLpSK9tRO+nT592jRo1uorI0vrAR0l0Afz6GMe0U/dQQa6yx5XlI6Q/fISOG/5SLmHoixcvuk8//VTG/OXLl0UmRbZyKwn37dtXQt3oQ+WO7hOntY2xxWKANkTbyv9c456Ov6QxkWSP4uT/KcNIuEBIGAOwaNEi+axbt84NHDjQ3XXXXW7Pnj0yQbZu3SoTtFmzZq5z585u3rx5MnmYLBiJN954Q8Kd5Gnfvr2EtrZt2yYTdMmSJa5atWruhhtukPtDhgxx+/btEwMyZcoU17VrV9e8eXPXo0cPSUt9TFpkWrhwoZs1a5a88LxPnz6uVatWbvDgwW7Tpk2yh8dEjSv/wIEDYqwxFrnK7nuMGI+zZ8+WWGaMCOm4TzquaT48HD6U26JFC/fAAw+IB7tjxw4pg2tt27aVfOhWDV+IXNH6sml3HCgTw7hq1SqpizrR8dy5c12NGjWKiYy2pvWBj5Logvpo3/bt292AAQNE9yzORo0a5T766CNZ+GUje1pZcQjpDx+h4yak7FzkhoQJRZOOBS36oGzC3StXrhQCT6ufBREyjBgxQtqgCxnA/wsWLHCPPfaYpEO+pDGRyR69/vrrMq8LCUbCBULCTELy1a9f3zVt2tSNGTNGJt+JEyfcxo0b5TqTjQmKMaxdu3aRIme4P/7xj+6zzz4TI05YjMnIxBk/frxMMla+HHRhclevXt0tW7ZMDP2ZM2fc0aNHpU6IgDyUW7NmTbdmzRrxUpCJa5UrVxaZmNwYZfbD6tSp43bv3i0GPq78CxcuyCp6y5YtOcvukxFeBPooqczqybFYwLhACHxnX+/WW28VcqF8PvXq1ZPyGzRoIOVSVq9evaStGGfINFQurQ9DmU2740CZTz/9tLSJuiAQCIM6b7zxRtE1hhT5kvqA/vNREl3w2bx5s3i0/fv3d0uXLhVia9mypevSpYu0m4VbqOxpZcUtIkL6w0fouAkpOxe5qb9fv37upptuknzUT/+QvlatWu6VV14Jqv/SpUuSF+KHrFkU8Dl37pzstz/yyCPitaeNiUz2CLuR6+Gz8goj4QIiYSZhpUqV3Pz58yXMRBiKlWn37t1ltfrBBx/IKpbwF8ahYcOG7tSpU+6dd94RQ0E+Qlmsclk5YxCY7OThQBBEyX0lDkKLhL0gIT4HDx50devWdSNHjpT8KlPVqlXFCJGWstn/xWPRCZupfMiGSZ6r7L7HgieQD5khAQ3/6R6c5rvjjjtktc93jNWkSZPcLbfcIl4KBoj2Hj58WAzWuHHj5HuoXFoffbp///7gdscBXaJvjO3JkydlwYO8EHqVKlWKiQwPNakPqNuvL1dd0Ab6nPGKB6dykR+jD1nTXk6Jh8ieVhaeHdd8hPSHj9BxE1J2LnJH62dRm2v9hIzxwBlbLASYi4SdqZtrLPJYIKeNCcqPs0eZwuk/ZRQUCY+PIeEpUwuLhJlwTAhWmxhH9snuvPNOWcXiPTCxnnnmGQlF3X777e69996TNISKWLFysvTYsWNiDHTFyv+jR4+WkBMTDlA2Bp+V86FDh+SwCeFBJiFeCR40MuG5tWnTRowkk48P/3ONNlJ2pvLzIXsU+ZQ5joTJ165dOyFJ8mC8MFq0YcWKFcUeFG1EZsLHePOhcml9GGlOkoe22wf14U0xVvBslFTISzlch8ggybQ+wIBH9zJBrrogHwSLx4wXqeFQ9cTwoAnPsvBKkx0CSisLb506fYT0h4/QcZNWNqSYi9z5qp9yIFmiLEOHDpXvfDg0ydYBMrD4TRsT9KtvjwoV5ZaEO3V0Ex4f52bNLgEJL1z0fyT82IjCIGFCQqyglcgwjqxUWY1WqFBBJg0eBBMM492xY0fxRJiUPB7BSpjHJrjHYxMaOvJJksnNqnrDhg1FHdVJwmTUS2gUTwRPR4mD/9kfg6gUlEE+ysxEwvmSXZFvmeNI2M9H+A8jhwfB3jweCMC77NmzpxCPHoIJkStaH2WFtDsO6BYDTAgS7xEPBaAjDgzhFUFkLBBC+sAfo7nqgv9pE+FTQrAqF6AcQteEV1966aUg2dPKQs/UGUXoOPER12YQHTfIlFY2C6xc5Nb6Kask9dM2iJ9T25w0h0B5pIoxNnnyZKknZEzgUfv2qFDxUyDhdUbC6fCNNCCUzOEp2s7qmf8JC+mHCY9xxPBQDxPwww8/lLAhxow9Iw1zMomZYEwojDjpWD1jQFn54vGwR0yICjniiENBGRCuT8Jafj5lV+RbZj+d/x0gH6FB5HnrrbeKD9RgQDGmSjy5yBXSbvWGfKBbDKuGszW0iZeEFwYBqDcZ2gdR+LKCEF2Qj0UEaTiEFG0HRh2DTpnkT5MdLz6tLLxqPM8oQseJj7g2g+i44Xpa2ciTi9z5qp+2Ma44GMl+LnvGLHb4n8OY9GPImEC+OHkKEUbCBUzCgIlLOIpVKvtLhAX5YLz0kQIMIt+5zh4Q4SZCSYSfmMQYtIkTJ8pExdCRlhOu6JRDMUw4jAWeDntSTM444lD4hOaXT5uRKx+yK/C82KvLl8x+Ov87CCEeDFcucqW1GzIhFMnHDxdrmBJPCINO+FEPmz3//PMSUtR91bQ+8PeDgS8rCNEF7dQ9aDwrQuH0G9EO9sAJ0eKhYfhDZA8pK3oCGISOEx9xbQbRccP/IWXnInc+62d8kJayyEv04Z577pGxoIuBtDGRSZ5ChJGwkPDDBUvCTF49ScrpWgwVe3M8gkC4ixAVP4XIavfll1+W/TYeKcDIIQeTUvfzKIN9KlbE/NAApzB5RIEyOdXMnlDFihUlDBVHHAqf0PzyWYWzQsfQlFR2BYQNUUH0+ZDZT+d/ByHEgyHMVi6MYFK7SYtHQh1x+4cAY8kPRCAbXvSLL74o3wkvcnhKiSxt/PhkAHLVBe1kQcFpfkKhePWQBnuOeG6ctMaTo99DZA8py1+ghI4TH3FtBtFxQ5qQsnORO5/1A/qd08xc5/PUU08Vh8ZDxkQmeQoR5ZeEO+SDhJ8oIuHHC4KEIQZOmBLCwkgpdFXKpCHcC3ESWuL5QFbUTDp+t5b9IFa27P3opGWy63OZ/LAAjy4wgdlPYl+J1TSHajAWrIwxGMjAM4gaxo6TCeKhjRAuXnBc+XjaGKOSyh4FxINhyYfMfjr/O6B+TqdyypXfCda+RO6HH35YCIQ6s5UL4kpqt4YMCc2yTxz3GBFkwx4qEQgMOyFKPC/S81gMh6fwbNLGT1zZJdEFnhZ51q5dK/urtI8PpMEzxvrjMyGyh5Tlh9JBSH/4iGsz8MdNSNm5yJ3P+gE6ZqHHCXQWd4wnfSwqZExkkqcQUb5JeGwRCU8zEg4BE4SBz4D3nyHUE5HqQfGcIKdrSa8hXQw79ziIwclJ7lG3TnYO+2Aw2a8iBKXkQZlMUEiUPFznQ7mZZKIsJjGTVa/75bOaRu58yK6gLFbz+ZDZT+d/B9SPl4980b1T7tNWrTNbuZAlqd3UiYcMOfGDHv5iREGZlE9Ilz1iyuA77YyGmtP6wEdJdAG0Prw4TnEzJshHWDaaLxvZk8ryEdIfPuLaDPxxE1p2tnLnu36At01EBRl8O5Q2JjLJU4gwEi4QEg6FTpBME5lJG3dPweSL5udvpvJygV9+FCWVXZFvmfOFXOSKazdGlh9ewMPEgKaVl029SX1QGtCFWCZkI3taWT6yKTtbZFN2tnKHIJv603Ctx0R5g5GwkbChwIBBxAPBi0l7XMlgMJQujISNhA0FCLwS80wMhrKHkbCRsMFgMBjKCEbCRsIGg8FgKCMYCRsJGwwGg6GMYCRsJGwwGAyGMoKRsJGwwWAwGMoIRsJGwgaDwWAoIxgJGwkbDAaDoYxgJGwkbDAYDIYygpGwkbDBYDAYyggFT8KTpxgJGwwGg6FsUJ5J+JcTikh4VklIeOE/SfgxI2GDwWAwXHuUdxKeWUTCa9cZCV8z8HvD1Mmrz3jFHH95pVkcSMsLAvy3+BiuRmnpSV9LxyfuLTv0Gy9yiL4yMgSlJe9PEeVdV778aWNKkZbPv3+tQN2Me+pUGcr6DU9GwkbCWYF3z/JieF7wzavw5s6d67788svYCYlsn3/+ubxPNNM7a8sCTLiynnhRlJaeMHjr1693q1evlpfYR4Eh+uSTT4rG/mNu+fLlP7qfhNKS96eI8q4rX/6kMRVFWj7/fmmDuU4958+fd++//7774osv5D3KzAFe51mWbxMzEjYSDgYD+dKlS6579+6udevWbsKECW7RokXiTcURGi/tHjt2rHv00UfFa74egJwYBF4wfi11l4TS0hNlDRs2zA0aNMh9/fXXxdfRAS+AZwx17tzZvfvuu1kZwtKS96eI8q4rX/5MY8pHWj7/fmkDkv34449dt27dXJMmTdzdd98t9uv+++93R44cKVNbUOAkPK+IhCcYCQcCQ713715Xt25dt27dOnkf7f/8z/9kDGX+7W9/c6+99prbuXOn+/bbb/3bZYIffvhB2jB8+HD3hz/8wb9dJigtPbHSf/DBB9199913VVsZM4cPH3YDBw50r7zyivvmm29iF1GZUFry/hRR3nXly59pTPlIy+ffL21QH3XNnDnTvfnmm27q1Kmud+/ebvbs2bIIyGb85xs/DRJebSScBgYZBMQKlPALIWQmBgZY92i+++47WaVeuXLF/fa3v5W0un9CGu4988wzrnr16u7FF1+UMphAEDEhJv4nDXn5n7x4XBrugaxJqx9IXOVAtu+//17+p37ykCYa5vZlJP9f//rX4kWAls81PtRNOspkEiID9U2bNs116NDBHT9+XAwCZVK2X76vgzhkqjNaLkjSP30Y1ZOmj8qi6XX/3b8fJ6tv+DQfurh48aL76KOPJDxHJCO6T8b/lEWZly9fFrnQNWUgr9+vcfLkIm8c/Hx+n8fBzxOVhfGUJkdJx2kU6CduDvjjRceolpM0XqJpknQTUldaPb78Oqbuvfded+7cOblHHmSIjvdM+XQsRu+jexb4lEEb9MN95NKtI+YJ5xe0P7iP3cmkj2i/UwZ5CUMz9j/99FOZ/4xvHaNxZcSNj3zDSLhASJhJ98Ybb0gI6K677nLt27eX8NC2bdtkwv35z39227dvdwMGDHCtWrUSkho1apQYaiYIadjTadeunfvZz34maZADT2rOnDkSlsY7xrui/Ndff10myRNPPOFmzZol5WMQFi5cKKtRPj169HAtWrRwDzzwgKyKd+zY4QYPHizX2rZtK/koQ40Fk2jr1q2ub9++rlmzZhJKnTdvnkwWNTiUTz7q7dOnj8hJmZs2bZLJt3jxYletWjV3ww03iJxDhgxxBw4cEMOapoM4aJ2sqNEDbWrevLm755573AsvvCD3kT1J/0z0qJ5Iz1/u9evXT/TRsmVL8d4vXbokbQ2R1Td8Wm5SPozNyZMn3ejRo0VG7Qs+hO52794tRrA05PUR0uc+kmSh/1lwpMlRknHqg7Li5kCmMar6TBovLHBDdBNSF2Ul1ePLz5gipNypUyc3ceJE16tXL9maQtcszCF7ZIvLFx2L0ft4oqdPn5Y+Yt4gJzrv2LGjGz9+vOSHtM+ePStnUbp27SpzjDRLliyR8ahjLK7fGYPYyaT8amNyGaclhZFwAZAwA/Szzz6TCUYIhoEHaTLAmcRMkM2bN7tGjRq5/v37u6VLl8rkYBB36dJF8kLCTFYOY1WsWNFNmjTJbdmyRQ5pYZzr16/vmjZt6saMGeNWrlzpzpw5I4MbkoOYWVlSD2lvvfVWmSRMfD716tVzNWvWdA0aNBBDh+FjcuNxYywwSHyoj3qYPHizpK1du3ZRh88Qg0T5XKtcubLIMmLECCmLfaA6deoIKdJeJhZlL1u2TCbthQsXZEWdpoM4ox+tE0NIv3BYDYNGu1599VWRPUn/rM6jeiI9sqAP9ICxmj9/vpTLqlzvp8nqG76QfOTBuGKAFixY4NauXSsyVKpUSWTAc/b7NV/y+gjpcx9JskBOIXKUZJz6oCx/DiSNURY5kF/SeOF+iG7S6mIxgQ1JqidOfkjupptuEj1CUOiY/Hzfs2ePeNZx+aJjMXqfBQzfIfFf/epXsphnHqF/ZFZP9MSJE2L76AvkpG30x5o1a6SOTP0ekh/7lus4LSmMhAuAhEmzf/9+mXhqSFnxMTgZfHhiHLbisAJeEITEpGCSY2AwxqxwyYNRZqLv27dP0mGQmVhqpAkBcfCJQc/E8CceE/iOO+4QT5nvhIMg9FtuuUVW2JA3BoQ9S+oZN26c1MtExdhAdB988IGEsQgnYVAaNmwobaIOyq9ataoYM76Tlz3gGjVquOnTp7tTp07JYRCImDxMPGSlvDQdxJ0G1TbdfvvtQri0Gfk57EQ+DA06StI/ckb1RHrahbfBYRJ0T914DxgB7ofI6hu+tHwYLnQK8WBcIS3agnHkPlsR5PH7NV/y+gjpc9/7TJKFsRkiR67jNG5R4PeBlp1pjEKgeIZJ44U2h+gmbT7QHvZJk+rJJP9tt93mdu3aJWMBHeMpIgteNNGGuHxJ3xknhIGpF68YcmYhSNs0FAy5k5Y6+Rw8eFDOp4wcOVJOWWfqd8pOy0+bcx2nJYWRcAGQMJOJ08B4Z6yICZseO3ZMBh75ISZW+aySGbSahz0fVpZ4BQxGCGvjxo0ycDE+TA6dlExqjED0qL8/0fjO5CKkjYHX/RdW3XfeeadbsWKFTEKAUUFeJjX5mJikIfT19NNPy4oVUiC0BAEyochD+W3atBGjSfl8+J9r6IyQFKFWQnek17byuESIDnxomwhLap2Aslk9Y0gw/pn07++XYVyRBR2zaFBZFNnIGi0XA5OWj3Zg9Bo3biweCGE8ZCQ8h6HGGNFfpSWvny+kz6P7eVpXnCzZyJHrOIV8fGSaA0ljFBJOGi+hukmbDyy0jh49mrGeJPkZ11omQOaHHnpIvGrqjcuX9B1QFuS5atUqGYNsf7Gg5zptRueMyUOHDsnigXQsOCiHRW9cvyuS8hOeh5RDx0e+YSRcACQMWAVyFJ9VH0f0mXQc0WcFyYStVauWhF8Y9AomB6EdVocY20wkTFiHNEpqCn+i8R0vgj0fnXjsxepqXENZgPp69uwpxo3/IQe87QoVKojhwZNlwtMO9o6QB4/eLx8gFytkyDeOhGkHugnRgQ9tP15J9D4GeejQoTKpMeSZ9K9he9UTbaAtyEK4PCoLyEbWqP4pNy0fngQHVthHo48JcbK1QGiO9kEMGCW/3HzJGwX5Qvo8Ov7Jk0mWbOTIdZzGPWoTMgdAdIxCgknjBVlCdJM2HyBh/s9Uj79AVPkZ74yVaJ8hM+VBVnr4y8+X9B3Ql5ApBK+y6cIBct6wYYPITXiYviIEXqVKFRmfeOVx/Q7S8qMj5mDo+Mg3jIQLhIQZiKTFULCPSygKQ/uLX/xCJiz/M/AJR2l6DVNzSEH3/uJI2J9MCv+e/x1gUJhAlPnWW28VH35gsDPwMW7UDTnQR6xG+R/vUj9MIMrxw6QKJjOkGyVhDFXUE8bohOjAB23yvSaA/BgqDoBQRib9sz+FV6Ny0xZ+QIDIAn2ssiiykTWqb+QJyYc+3377bTFGhKUxUOwV4jEp8UTLzae8URBCDOlz1bfmySRLNnLkOk5DSdgvG0THKISWNF64FqKbkPnAYjFTPejIl1fHO5Gf6HhXotLxHpcv6Tv9w9kI2kMEif1b9caxM8iG18qCB6eBuhmThMDJoyF2v99D8iMHugodH/nG/9/eeYBZUWRv//51Teu66+rqGtecyQIKioBKRgkyINFImpwjQ85BFhEEEXMkqAgGkoDknHMYkmF1Xde0Kirn69+Z6fmuPX3v7TszwNyh3ud5H5iZDtXV1eetc+pUlRHhk0CEaUgYDcYzCKshpoSgCSPzMXEdPB160ggCxpbQDeNSeHLMqSM8c6JEGAPBh0AIjZ464zU8B+SZ6OU6PbRARodxLxKP+PgIP1F/GG/u56UOnOCe1CMZ14gX44LUE2NkJH3QS+fDDVb/GBz/cmNI6a3zN8pin0PvPJyyOuvDy3l5eXmaQY53xXgo5cRgUXY7KcV53dIqrxNe3rkTgcrCOVzPSzmczwe8tlMnnNdy/mzDKYzB2gvHeqmbUPdCbBDsYPdxXsOtvXMu47BECRAqjnE7L9jPiB7j0iSaEVrnunyb2BjqnjFtbDTZ3nxPHE9kgvFuRJgwutt7pw3yb6jzeXfFbaclhRHhk0CEaciEnfFopkyZInPnztUMRBot12LqBuLKOAw9YBosHwK9RrwhepFc40SKMB8DY1986CQ7vfTSSzpGRzIR4aNAxhP4GziMNOdxHcZ+5s+fXygyXurACdsoXXTRRepd85FzfTxIEnYYR+XaweqfrEv/cnM8Qsj5hAnJ4J48ebKORWKgyVr1UlZnfdjvL9B5hOMwUHhD11xzjdYzhofpV4wLk0XuFqIsrfI64eWdOxGsLHQwyL4NVQ7n8wGv7dQJ57WcP9vwb6P8Plh7Ka3vgQRF2n+w+zivwc90LAmDE9qlvVPH9hAG7Z125nZeoJ/5/uwxXUSUayDwlAdv1e4c0HFmOhbPStiZ8W9mahAeZ6gk0HunTfONBTufZw31fQRqpyWFEeGTRIQJ0yEM9JwZ+7E/eBoWPT6MJZnPjB9xDKTBMi/Snpdoj4vReO0kLEJnZIbSq3Ympjj/5vwZYMwIJZGRyJqu9vPwUTAdCkGg12r37DE8iB3TCOg1E/5CKOg5u10f8BFSZ4gux9DpIPGIjxJDwlQNPkAvdeAEZaJeGcfCqPCxEvbCSxk9erQ+B88UrP7xRvzLzbNiKMnG5Dpcj/Mwtvyev3spq7M++F2w8xAwogPUFUk/1DMCQxkwkBhMOjFc41iU1wkv79yJYGXBe+R9hCqHs96A13bqhPNazp9t+LdRrhmsvVAWL3UT6l4chwgHu4/zGvycnp6uIsVz0965N+Jpt3e3Ogz2M8lSiB/eJnaYcvBtcm28VMqLd09+AklkiCTvljJwDeb+cl/eO50Q3jniyvi03QbplAQ7n3cX6vsI1E5LCiPCJ4EI2+Foeu30sBFQGj4fAufzdz5qetc0WHqNjI9wPAJtNzz+pSH6/55wI9eh8Trn0Dn/5vzZviahI67pP8bH3/mw+DjsY+0yYkx5DsK49IC5ZqDrA9t7wzDxe37m2jwjoTw+UK7tpQ6csHv0fKj01vEWGaPLs7wuQmFcM1T9u5Wb8xBFvASux1g2HoQ9TualrIGuG+g8DB0hQQw5oWjuzd/IDsXLwOvCC+R9uV23pOV1Q6h37oZgZfFSDrd6C6ed+sN5LefPNpxtNFh7se8dqm5C3Ysy288U6D7Oa0DOgzw37Z0Og397B27nBfoZJ4H3RQeP6/iTDqr93rg+z8o7pSPN+XZZuB7HINiILR7xm2++qe/Z6/n+dRqsfZQ2jAifBCLsDxobjTJYg6Ih2h9TWYX9IQd7jlDgGQNdw2sdOMNstuFyuybwUv/+sK8XrCxey+qE8zyMKhndePUYVgwjhgtjyPxVRJgFWzBIgXAsyxvuOw9VluKW43jCa3sJt26c8HofJ0K199JGqPsR0SKyRXQAO8n36Y9Q5/vjeLUPI8InmQgblC74yP1XBopkILiEFAlrMsbJFoeEO1lBCe+4e/fu6iF4MWAGBscbCCYdSRbNYYtOlsDEiy3rMCKclSY9jAgbFBOEshmHYizPbUwwkoARo1NBgg9jZSSckbTCGCELJzCFxA4vGxiUNRDWJiSPbWTcmnFcwu1lHZEqwg0Q4dQSivAQS4QzjQgblACEthBieywv0oGXS0iP8TK8CELsjNuRC1Aens+g/IK2y1AJHUnar3MeeVlFJItwiiXCvfv0kqcnGBE2MDAwMIhAGBE2ImxgYGBgcIJgRFhFuKsRYQMDAwOD447IFuFES4RzjAgbGBgYGEQmyocIP2VE2MDAwMAg8mBE2IiwgYGBgcEJghFhI8IGBgYGBicIRoSNCBsYGBgYnCAYEY5QEY6NjpYVy5cbETYwMDCIYGDDly9bJjE9ekiXTp2K2PpjxDw0y0XHPPGkFuHOHTvKg61bS5eWLWXR7NnyU5DF9A0MDAwMyjaw4fNnzpSou+6SFvXqSfs2baTzsRfjPDTLRcc88aQU4S6dO+vLaV67ttxx8cXS4MorZc60afLT//7nfKcRB9YsZvMA/63QDAzKEspzG2VpR7wxll5lAwT+ZR1mN3As64cXZ8clA3dgw2dPnSr3XHaZ3Hr22VLnH/9QMe7Qtq081KVLES0oJeahWS465oknnQjTK4pq1kzqXn21VPvjH6XyqadKvb//XWZPmSI/lgMRxrCxQcC4ceN0+zyvCGdbMgODkqC4bTQSwN7Fy5Yt083tu3XrJgMGDNC9fd06G4j1li1bdP9hzitLiFR7gA3HlmPTK1pagn2v/qc/yT2WJrVr2VIdMKcmlALz0CwXHfPEk0qECT+3vvdeqW15v1VOO00qWmXkRZUnEab3zdZ5na3G5nU7QD40DCObmJtxcYNjjeK00UgA39G+ffvkvvvuk7p160paWpoMGzZMN+1wEzM2RkhKSpIePXponZQVRLI9cIqw0rLzVc84Q+668kpp07TpsRDiPDTLRcc88aQRYQbpH2jUSGpdcIH2jgpfkK98iTC7nnTp0kXatm2ru/Z4AbulfPjhh9K1a1fP5xgYFBfFaaORALxZvqOqVavKxIkT5fDhw7orWKAds9hhiy0Cp02bpjtrlRVEsj1wFeEC4njdefnlEmV1kmh/To0oAfPQLBcd88STQoT1g7//frnz0kul8h/+UOTlhCvC9pZ7X3/9tZJt6vbv368Nlj037V4v//IzvX3+fvDgQe39MkZkH8O1uAZhOT5EjuU4/u/We3Zekw+d8+0P3c3ABTuHMBnhsl69esm9994rq1ev1vO+/fZbfcZA5XJeM9CzudUTZcQAcW+OtcfQKBdl4Tjua4fwQtWRsyxcg3tQFq4Rqpz8i+Hh94cOHSo8nzqwy+C8h7PeQyFQXbi1mWD1Eawu+Huwc90Q6n4gUNn936N9HPtAc6z//fg93qA9Buxso6HKEOyZvXwjbu/cieK0Af/rUkZ+P378eLnlllvkjTfe0GtwPGO+buXnd9wLcoxdzzbtuqAclI3tBPk/9+YcZz07y+dso17eYyB7YLdR5z281O3xRDARViE+/XSpd+210v6BB0pzjDgPzXLRMU88KUS4Q7t2cs9NN0lV6wU4X0pxRJiGPHToUOnXr5/0799f7rcE/o477pAHrBf76quvFn4cGKTXX39d2rdvL3fddZc26tjYWFmxYkXhGBDHErKC9J47dOggTZo0kZkzZ+pH5w8aOYaKjeLbtGkjtWvXlkaWdz9w4ED9IPjI3AxcsHO4/4gRI+TGG2+UCy64QO/9yCOPaO+c53MrFx+h12ejnvr27SuDBg2S1q1b67EPP/ywvPDCC3oNPt7t27frGFqzZs20HqlPyoQRoR6D1ZFdltdee03aWe/5zjvvlDp16mgvfu/evWr8g5WT+sEAzZo1S0ODXPeee+7RcCnXtA19sDr0IsRe2gz3wRgHqw+eNVBdUNZg57oJcaj72fUf6j1SdoxxVlaWHss5NmiT0dHRMmnSJBU1ZxsNVYZgz+z2jXhpm054aQPBrsuzM8599913y1//+lf9O7Zn4cKFKlhu5X/xxRclNzdX69XuvFB3ffr0UVIHtOdOnTqpxzx16lStc35Xv359PQ8h5R15aaNe3iPi7GYP5s+fr3UdrA4C1e3xRCgRJjRd7ayzpMmtt0on6xmcWlFM5qFZLjrmieVehIn/t7IaSvVzzikcA3YyXBHGiPBhXHXVVdrYmRhOAgYNtlq1avLOO+9oY+Ujq1mzpjz44IMycuRIbfwIROPGjWXTpk2Fokk5b7UaRa1atSQxMVGefPJJ2bZtmxonf2AoXn75ZT2WD5TeKuWoXLmy9aJ660foNHChzsHITZ8+XT8mevCjRo1Sw7NkyRLp2LGja7no0Xt9NrueuAaGGOPSvHlzqVKlirz11ltqlNesWaN1gAHEUHFOxYoV5emnny402oHqyC5L9erVpWXLlmpcBg8erO8D4xOqnHhg/IvRbdWqlRogypCSkqIGDQMcqg6p91Dw0mbwduiUBKuPPXv2BKwLjGSwc6lLJ0Ldz67/UO+ReyMIGHY6QP5jnHhW1DmCgxA422ioMgR7ZrdvJNQ7d3aa+NlLGwh2XRaImDFjhiZj/eMf/5DMzExtM5SdenErPwLNuDiijFBTL3xzV155pQotdQFpH9QFbZx6oe5p63yviCdl89JGvbxHjnOzB7t37/b83Z9IhBRhi5UsHbj9/PMlynruUgpL56FZLjrmiaUuwt17lC0R7mh96PWuucY1DF0SEcbruv7669V48gHReD/66CNtuPQc169frwkaTZs2lQ0bNmgD5jw+FI4ZMmRI4e+41hVXXKHigcEibOcW3uFj5gPDiCOShKQIF/ER1ahRQ3bu3KlGzd/AhTpnx44dGlIiOYQPj2vwQXMc13ArF38L59muu+46/cApD50TxpsqVKigxgGjjPjwN+oRLlq0SMfVYmJi1MMIVkd0IniWhg0bytq1awvDflyX40KVE0953rx5aoS4Ns9PGbmvHYoMVYec4+Zl+sNLm7ETeILVB9m0geoi1Lk8kxNezvHyHu3wJvX06KOPFhFhjD6erpsIhypDqGf2B+0h1Dvnd/6gIxaqDYS6Lp0/Ii8TJkxQ4ZszZ44eQyeB53ErP+0IEbbrwa7nG264Qb18fs7Ly1NBv+yyy/RYOh60m8WLF+t9kpOTtaxe2ij3CPUeuTbnOu1BON/9iYQXEYZERRtUqlRa3nAemuWiY56oItyghCK8dNliGTxkoGRkli0R5kNnOlKNP/85oBdcXBGm90pIiI/ENgQ0UnqE9GJp2PRg6WnaoTk+ZkSPHi09Xq5jf3h8BHw0zp69Dc7dunWr3HTTTZp5+dRTT2mvlDEoQngYdwwXZbANHB+ml3P4GOPi4jR8xfkgULkoB0bR67NRT/Xq1SusJ8j/+R3eIMKDodu3b5/Vlj7WMPjYsWPVcBAmw5iHKgvG2vaybHgtJ89OFigeKUJBqHjVqlVqgLmP13rHSAVDqDZDaI//c79g9YG34VYXINS5bhm4Xs7x8h6pr+KKcKgyBHtmf3h959zfeV6oNuDlupT/+eef1/aISNptIlD7ddaDXc+EtIniUMcMt+CN0/7GjBlTGM2grVBeQuac56WNco6X9wid9sBrHTjr9njDqwhXOuUUuf2CC/LHhl20I0zmoVkuOuaJtggnpyRKbm9LhJ8uRyLcuUMHaXrbbZqe7nwJJRVhwjoYHAyPDQQFA1TJ6mExbsK/hGzo9drgYyOURI+Sc+1r8bPd4N3AB00Pl9705Zdfrh8bPVVCaBiOBg0a6IePV2t/2PzfyzmUw/nRBSoX5Vi6dKnnZ6P3ToiSv9ngeniujCUR5mKskJ8Ja3EuIcGrr75az7VFIFBZKD9lIWzmX5ZwyokXxrF4XbfffrvWDdNL7BCvlzoMNZUjVJvBuGF48SiD1QeC5FYXGNNQ5zpF2Os5od4jbSeYCPNct1nfYSARDlWGQM/sRDjv3IlQbcDLdWnLgUTYrfzOenCrZ+5NpwQvnXA35QQ8Q4sWLVSE+b+XNoo9cF4fON+jmwiXpG6PJ7yKMGQxj9bWc5fClKU8NMtFxzyx2CI8ZOiAH4ePGCQrViyRlauWyrOTJ1o9tVF6YlkR4Y5W77PeddcFDUUXV4SdPVZAAyT8Q8MnHMXHiNAQ8gEcx4dAYyWxwR4HcmYzu4GxFkLc1C09Tv6Ph2GTcBkfLNe0r8fvvJyDEPDR8bH6i7Bbuej5YphK8mzcgw+ckBdhNzweDAq9depz+fLlGlbjXFsE3K5Dnaxbt049DHrxdllAOOXkd4go92KhBcJ/nMd4HL/zUoe2V2G3BSdCtRmSkfCkuH+w+kCQ3OoCIxnqXKcIez0nUP3b79FfhLkOgsM5wPagMN4kbTlFmHcRqgyBntmJcN65E8HaAN+Hl+sSjg4kwm7ld/7e+TOgbTFGyzXff//9wuQn6hrhQ4R5Hi9t1N82BHuPtgj724Nw6zbQd3CsEY4I45w1rVlTnTWndoTJPDTLRcc8ERFu3bqljHpiuIx/eqxMmfq69Q3ssTqm42XI0P4ydOjATJ8bZs6afmTduuWyffsG2bx5raxdu0xWrvxY5s17X41iWRBhliq745JLpJJjXrCTxRFhwktkEM6ePVvHURg3IUOQBAqSFhAHvAJ6o4SK6MESSmLsCa8nJyeniEEKZmAAjZ2wESLPmAyhKsg4DN4EH4rzel7OofwZGRlq9DCYGCM+cv/xKn/YHk9xn83+6DEgZJRiPMja5APm46bnz7gVBiWYCACMDN4TYV7KwrPxLng+nj1UOXl2DBvH2+du3rxZ3y/XpKxe6hCDm5eXp3QLTXtpM4gPY3XB6iOQIPFsoc51irDXcwLVv9N428/IcAztiDrid4RGuZ6bCNPxCFWGQM/sBq9t0x8IRqg24OW6HHciRJh35KWNul0fON+jmz2gw+ulDux2QHncvoNjjXBEmOlKpTQunIdmueiYJyLCCYmxqp9r1ixTPUVXN2xYZXVGF8lzz03M8bkhIkS4TRu57fzzNRvO+QJKQ4Qvuugi7S1iPBi3QbRIliBRgQ+DD5IwHL1pDA3GiN4+RoreNo000IfhBho84z2Epkjkeemll/S+JIUQInIaOK7n5Rx73IljGO+ZP3++ZnviubmVCyNVkmezP3qyMxcsWKAfO9MqKBthZcaxyDDFowomAgAjM3z4cK13Qolkck6ePFnHzxDE5557Lmg5eXaWDSQjdorVBubOnavTSBB22hD391KHeBsYxUDjYl7aDPfB+Aerj0CChJEMda5ThL2eE6j+ncYbY88ULJJ0SBjimUj2Ybz70ksvdRVh6i1UGQI9sxu8tk1/8HOoNuDlurTFEyXCXtqo2/WB8z262QM6iPbzBasDrst3iGdMZOB4e8RhifBpp8ndVqe4o9UB9teNYjAPzXLRMU8s1yLMoHsNpib5ir4AfxZHhDGeGBcaNQ2QcBo90dGjR+tHgYEjjEW2JGMw9FAhhoY5f/bcQxo9BosQD8cHg92b5WPDkDNVgCkJhDJtr855PS/ncAwfDKKIMWR8iKkhPXv2dC0X5S7Js+Ht8H74wPGEmK5BkgkfN3XIB855jCHaWapu1wGUHSNCZibn8h4oC4aI3jjvIlg5MZRELXif/I3xQNsgYVQweqHqkDIRAiTkyjii25QlL22G+yBkweqDJJhAdRHqXP9wfTjnBKp///fIM9vzfdPT0zXsTj0xNsnPdECeeOIJNeT+1+O5Q5Uh2DM74bVt+sNLG/ByXcQLD54OhH8CVqD6c/7e+TOwV+EiI5kpTXbuAfXGdCjC5ryjUG3UzTbYcL5HN3vAHGU6IqHqgDKQTMf79zJroLQRjggzTMnCHQxbOrUjTOahWS465onlXoRZvNtZ+U4WR4QxpDQ+evEkZGCE8bzsVYEA/9JDRSTozTOmQg+WMI5tCBBrPg4at5c5dvY1ERh678yvJLOTa3C+2/VCnQMwGHzYlJFwFn/j50DlKsmzcS/q0Dbc1Bllow75+DkHwwIDPZM/KAvGnd4610AI6JHbma3BymmHIvkddYPxpGPA/TB49rMEq0OMDx4UosqCD26LFoTTZoLVB2UKVBehznUe7/WcQPXv/x792xHncR2mjPF8/J3j7LCo83qhyozqtrAAADMzSURBVBDsmd0Q6p07EW4bCHRdSFtw3sv5vDacv3f+bJcNceeadu6BfS7fp/97DdZGA10fBHqP/vYAT5rrh6oDOjS8P8LYdhLZ8UTYInzNNUaEAzAiRNgO69D4aLxuH7gNuwGXJuwPK9h9nQh1jm0kA/3dDaXxbF7qMBTsawQqS6hyci7GJ1QZnHWIgBA5wDPBOLmdH26bCfX3YCjOucU5JxiKc73inBMKod65E17bQLjXPd5wttHiIpg9CFQHwc451jAifBKJMOFOxkzdMi0NTi5gcPAuGN+0Q5BOmDZjYHDscVKJcNEpShNkzJiRZWqK0rESYUIzJDwwhuI2zmZw8oFef7Cev2kzBgbHHpEqwvlTlIbJ+KeflClTX/M2Ren3i3V8LIOHDJCMzFTp3uPxci/CeD4YVf8xFAODYDBtxsDg2CNSRbhBg3skOSVBcntne1+s42QWYQMDAwODsgcjwkaEDQwMDAxOECJRhNkyslRFuGd0NyPCBgYGBgbHHZEqwg0bNSi+CC9cNF9WrFxqRNjAwMDA4IQiUkW4kZ8IT5g4rkCEc0OIcErC9xww/6M5RoQNDAwMDE44yoMIT3xmvIpw7z7ZwUU4OTn+Gw6YN3+2EWEDAwMDgxOOSBbhlNR8EX5m0tO/E+GcnKxknxucIjzEEuHMrP8vwqeeemqRm4VBI8IGBgYGBmEhEkX4wgsvLBTh3n1yvItwUoEIz5n7gaxavbxQhGNiuxsRNjAwMDA47ohEEf67VdbGTRoVivCkZyeoCOf2zgouwgmJcV9wwIez35PVa1bIkKEDVYRj43oYETYwMDAwOO6IVBFu4ifCk597RkU4OyddRTgjOy3G54b4hJhDHPDe+zNk7bpVhSIcF99TRfgP1gP6XG7okUaEDQwMDAzCQiSKMHuMN2vepFCEn3/hWUuED0tGZoqKcGpGclefG2Lje+7lgHdnvi3rN6wtFOGExBjd1Pu0004rcrMwaETYwMDAwCAsRKIIX3zxxdK8edNCEX7xpefUE05LT0KEj6akxD/kc0NMXI+NiPA7M6bJho3rWGRaRTgxKVZF+PTTTy9yszBoRNigWDjKFm4//CBHvvpKfvrsM/nx0CFDw4CkjdBWaDO0HYPIRiSK8CWXXCL3399cRbhP3xx5+eUX5JNPD+nPiHBcYnRrnxt6RHdbhAhPf2uKbNq8QYYOG1ToCVesWFHOOOOMIjcLg0aEDcICBvSXr7+W77Zulc/efFN2ZWTIBuv9r6xTR1bUrm1oWIS0DdoIbYU2Q9uhDRkxjlxEmggzlffSSy+Vli3vKxThV197SUUYhxYRjonp3sDnhh49u05BhN9881XZtm2zDBs+2BLhNBXhylUqy5lnnlnkhmHQiLCBNxw9Kr/9/LN8v2uX7H/iCVldv74stTqBi6+9Vhb94x+y0OplGhoGIm2EtkKboe3QhmhLtCnalkFkIRJF+LLLLpNWrVsUiHAvecPS1E8+PahJzohwt27drOK6IDq6W39E+JVXX5Sdu7bJcEuEs7LTVL2rVasqf/zjH4vcMAwaETbwhN9+/FH+u2KFbHnkEVlaoYIstHqVCy++2NAwfFpthzZEW6JN0bYMIguRKML/sDqCbdq0ktS0ROnbL1emTX9TDh8+oElZ0THdfouKijrd54akpLjeHPTii5Nlz95dMnzEEE2pRoSrV68uZ599dpEbhkEjwgYhcfTIEflm7VrZYH1EH1vejHo3TsNqaBgOrTZEW6JN0bZoYwaRg0gU4SuvvFLatm1TKMLvvDNd9u/fqyIcF9/zN18gZGSkqAhPnjxR8vL2yIiRQyUnJ8MS4TipWbOmnHPOOUVuGAaNCBsEx2+/aWLN9pgYWXzddUaADUuPVluiTdG2aGO0NYPIQCSK8NVXXy0Ptm9riXCS9O/fW2bOekf27NmpIpyUHBdYhHNzs1SEJ0x8Sg4eypORo4ZJTq8MTpLatWvJX/7ylyI3DINGhA2CgmzWz613trxaNSPAhqVPq03RtmhjtDWDyEAkivC1114rnTq31ylJ/Qf0kQ8+nCXbd2xREU5JTQgswv369crloCeffELnNI16Yrj0ys1UEa5z151y3nnnFblhGDQibBAYR4/KT59+Kps7dZKPr7yyqAE1NCwF0rZoY7Q1k6QVGYhEEb7++uvloYc7SXp6sgwY2FfmzpstGzetUxG2hDmoCOdwEFnRrO4xduxosbxjSU6Jl7vvrid/+9vfitwwDBoRNggIppB8u369rLjtNuMFGx47Wm2LNkZbM9OWIgORKMI33nijPPb4w5KekSwDB/WTRR9/pJsiFYjwL75A6NU7O42D+vXvrSLMHohsw4QIN2h4r+4M4XO5qUcaETYIiN9++km+/OADWVa5clHDaWhYiqSN0dZocwZlH5EmwqeccooubtW9x+O6TOWgwf1l+YolsnDRfDsc/T9fIKRlJPdkDhMLdBCOfu75SdKnT47OdWratLEuxeVzualHGhE2CAjG6D577bX8KUkuhtPwxHHRZZdpGJd/nX+LRNLGaGtmXDgyEGkizB4LiHBMbA9d7GrwkAGyZu1KHRdGhBOTYv/lC4TY2J4tEWHGgFndg1U+mGiMCN/f4j5dBQRX2+dyYw80ImwQEL9+/70cfv55WWo1XqfRLEtEiJbceKMsuflmXRDid3OYCxaKWHLTTcqPr7oq4kPrPM+qevVk88MPy8o77pBFl19e5JhII22MtkabMyj7iDQRZmXJClZHj0WuWOyK5Z83blovb78zTUU4Jrb7Bl8gxMTEnM9EYoty+JMDMn36FJ3jlJKaKA+0aSVXXHGFEWGDY4Jfv/tODj/3nCwpyyJsCSpeVN6wYXJwwgTZnpCQP5Wq4O8I1pqGDeXA2LFy4KmnZF2LFvKx9c0UuU4EcVmlSvKvt96S/+3dK5+88EKZ7yR5IW2MtkabMyj7iDQRZlGrqlWr6PoaWdnpmmO1Y+c2ee31l1SEe0R3HesLBuvEXzmQOU2z3puhc5yYcMycJ+Y+GRE2OBaICBG+uECU3nlHfv7Xv+TrpUtlRc2ahd7ukhtukH1Dh2rm7Q87d8r6li3zl9l0uU6kkKUfP3v9dfl++3Y5OG6cRgCcx0QajQhHFk6gCP/TRcdCkvU0atasoSLMYlcsepW3f4/uKayJWWlJvX3BkJqWpCK8afN6mTdvtqZXp6UnS5eHOsr1119XEhEe6/KgYdOIcPlEpIjw4uuvl739+skv//mPiu2mDh1kEd4uc1BvvVW+WrBAw5z/WbxYllevruHqxZZRIBmInzkGYdNpWAXiTYgbDxOB/9jq6C6x7rGsalWlW/i38HjrmrpGsiWMzH/1vza/13sW/I4yFIbGWUHKOoZr6HlWR4Ky2ff3D6HzbHj3m61vb9VddxWu3U2oXe9rlZF7cC6dEC1vGQ/BGxGOLJxAER7nomMh+de//lXuvPMOSUqKk5xemTLqiWG6bvRT48aoCPfu1yvXFwxp6Uk/cyDZXIuXLJRBg/ppmnXXbo/ITTfdVBIRntylSxfng4ZNI8LlE5EiwojMuubN5cf9++WX//5XNwdgjFh/36KF/HjwoP4+b+RIHRdeaonTjqQkzcb9fts2+XbjRvnMapcb27fPH1MmxI0oTJokX7z3nmzr2VP2Dhok//n4Y/lq0SJZxsIljjLYx3/5/vuyKzNT6+2b1avlu02b5POpU2VTp06yMy1N/j1nTv7vpk3T0Ll6sYxbW8K67v775ZPnn9fzftizRz3dL637b+3eXRZbYmoLqd7r2WflPwsXyv5Ro/SZCMEzRnx48mT5evlyvccXs2bJvsGDZUWtWmU+gcuIcGThBIrwZBcdC0mm8t5zT31dX6NXbpaKL7ONhg0fpCLMVGBfMCQmxX3JgWRyrVm7SjO7SLOOie0uN1sf8WmnnVbkph45zYiwQSBEiggjTnioiOovVpkRSzxBvFc85COWh8yyiBvatNHxY373v7w8OfL11/l73Vre8y/ffCPfbtgg61u3Vs+S6+E5I97fbdkiP3/+uRz59791wwFdPcxRBvt46uznzz7T/XMJj/9qtXW88P/t2yc/2feyrsnvfti1SzcxwIOFWx57TO/10yefyE9Wx+HnL7/U4/gdWwGqd+93L56LMDydgrXNmsk369frtX/+4gv58cAB+Z/VKfl62TJN4jIibFCaOBEi3Llz5/1olouOhSSziJo0baRTe3v3ztZZRogwoWm0NSMjLc4XDD2ju83iwClTX9ftDPP3FC7YzrByZTnrrLOK3NQj51sPVuRhw6UR4fKJiBFhi3iCe/r0KRTc9a1ayYoaNfKF+dtv1WtkrHhV3bryneX5Io5fL1kiWx59VD1SBAsBOzRxonqnCBse5W9Hjshv1rEIIV6qM/HLpv/x7JVLve1MT5f/rlql2/XZu1DtysqSQ888o6IP80aM0JCxdiSqVJFdOTmyPTZWNkRF6Vg2HQWeaY/VcSDs7n8vnuuLmTN1oQu8dcSX331i3Ruvnmfj9+pFu9RZWaIR4cjCiRDhTp067UezXHQsKIkUX3755dKq9f1+2xi+prON4uJ76g5K0dFda/uCITU1UZeuRL3tTRyyCzZxuO22mvLnP/+5yI09crP1YEUeNlwaES6fiCQRJvS8tmnTfA/XEi0EDCGzPV5+Zhx2U8eO6qWyKMR/V66Ug+PHy6FJk/Q45qj+e948FUN/Uf3p8GEdf2WM9XfjuH4sPN4SWzxqvE+uQ1Y2YksZ9g4YoGPCeK1cU+t38uT8kPSll6qHi3Du7d9fDjz5pIaxOQZh5TqEnf3vZYswXv966xv8Yffu/PJa3vZnb7wh27p3lxW33+46hl3WaEQ4snCCRPiApVlbXHQsKBHha6z7t+/QTjdvYOGrd2e+Lfv27VYvOD4h+ldfKLB+NFOUxrB+tKXeo0ePLFw/ul69u+T8888vcmOP/G+HDh2KPGy4NCJcPhFJIgwRvS9nzVKPlpA0Y8CEkBkTJsyMx4mXSZiX5RH5G9N8GH/98ZNPlF9++KEKpS10CLOGt0nochHfwnvbx3//vfx77tz8BC3LY97du7d2CghNb+rcWZOv8FwJT9v1S4gcAT707LPaGSAcjaBSNvWsLbHVLOgAIsy9EHLC7IwjI/j8jZA0XjfXDlb2skAjwpGFEyHCllYdRLNcdCwo7SUrH3m0iyY09x/QV+Z/NEc2bsxfNzo1LTG0COfmZqVycJ++ORrHnvTshMKlK5s0aVSiVbMesATU+bDh0ohw+USkibCKXq9eKq4I338RKkuQvpo/X71Fxl3xaO2xWgRse3y8ep9wa7du6j2TjVwodFYdkOCEF+y8nz/djqc8uygPWduW9423ynjz8ho15AdLYBFK6pdzNz/yiHYW1BufPVvHh7d27apl9SLCzH3mX5K78JrpWCDgCLE97uwsc1miEeHIwokQYUurPnXqlxfaq2XhyKZnsGRlP1m5apkKMbqanJLwnS8UYhJi7rIO/s1ymzWt+s0pr0lfVs1KSbAK1lL+YX3Yxc2Qvvfee4s8bLg0Ilw+EWkiTPLRmsaNVeDwdAk5a2h60CBN0uLvq++5R71Fe4yWjOJVderI6vr1NYN5jfU9kADlFDoyqp3386fb8UVEuCDpyynCdBC2xcTkj+kWZHevu+8+2W958vwcSoQ5n7FuxoH5lzrYN2xY/niy5fXvTEnJz/p2KXdZoRHhyMKJEOG77747bC8YslBHlSpVClbLStWcqq3bNsvUaW+oCPeM6b7A5wXWBXSu8O7dO+T9D2ZJv/59NL7duXMH3SexuCJczfqgnQ8bLo0Il09EmghDQtJfvPuuiizb4uEJrm/RonBcFCHLGz5ck7d4PsZm2b3nhx075LvNm2VbdHS+J1y1ahFRdd7rd/d1Od6rCDNWTefgu61btdw/ff65Tp2yp1bB34mw416amGWVm/O/37lTk8FINMOr5pkQ9LK+QIkR4cjCiRBhS6uOOPXLC88991ypfUetgoU6MjSn6sDBffLs5AkqwunpycHnCNuwBPcIJ6xYsVSWLF2kLjVzhdkVgmlKp556apGbe+FVV10lJZ2mZES4fCJS1o72Jx7fjtRUzWZmTPXz6dNVmAvHREmAsjqejNWSmIVII3aMxTKWy1QgDe1aIvrFjBnqNXupA7fjSeIimxoh/GbtWk0cozOgnuySJXpsXsE8X8arCaWz4hcCyjxf5h0ffPpp+WbNmnxvviDL2XkvrocXzLQl+3mYM821diQn/26OcVmlWTs6snC8RRiNQquc+uWF7DTIjoP2HOFx456Uzz47LMOHD/Y2R9hGXHz0dk54+52psnnLRsulHqiuNSFqXG1cbp9LAUKR5bw6duxY5KHDoRHh8omI3EWJ1bAsD5REKqYo4ZEWmSNrH3PrrbK6Xj1Z26SJhnHxMO0NHjjHXlGL5y9yDQddj/cri45JF6zIZQsxv7czo/2PJSSOd8vfEGjmJasXXLAxRZF7WdfDe9dzGzbUhUtW33233tNefMRZ3rJGs4tSZOF4izAahVY59SsUiRAzXNu6dQvNoSKv6rXXXtLpSfxsaerR1NSkDj4vSE1N7IsI40IfOJjnN00pVurUuVOX5fK5FMILW7VqVeShw6ER4fKJk2I/YUvYbMEs8rcTQQST8hRHOAs6Dxp6LyvP45FmP+HIwvEWYTTKqVteiAiztDNLPDN8y74L738wU3bv2VE4PalPn3p/8HlB7369sjiJzYjJkJ4wcZxmSONiN2vWRC6xPkCfSyG88Dar1+186HBoRLh8guQmxkvxyoolCoaGXmi1LdoYbY02Z1D2cbxF+Pbbby+iW17IapL5+wh311Um0c/ly5fokG7+9KSkn31eEZcUV5eVPVjh49DhAzL9rSnSr3+u7qbEJOSS7KaEu16SlbOMCJdTHD2qCz9s7tQpP5TqNJ6GhqVA2hZtjLZGmzMo+zieIow2oVFO3fJCFrJiQauExPwtDIcPHyI7d26TN6e8WrCPcI8FvnCQkprwCyeu37BGFi36SAYWbOTQo2fXEiVnnX766fLggw8WeXivNCJcfsEY3efWO9P1ko03bFjatNoUbYs2ZsaDIwfHU4TRJjTKqVte+HerfI0aNyhMytIFrz47ZP07SkU4Nzerly8cJCTGHOTEGe++JVu2bNSNibOy89eQZq/E4gxc26xTp06Rh/dKI8LlGL/9ptN5tsfE5K+ZbITYsLRotSXaFG2LNkZbM4gMHE8RRpuceuWFRIbJqG7Xro2kpCZK33695PU3XtGkLCLIJGWlZaY87gsHaRlJ/RDhcePHyOFPDsqYMaNU3VH5xo0bqur7XArjhSxwXdyQtBHh8o2jR47oFJsN1kf0cYRk2xqWcVptiLZEm6Jt0cYMIgfHS4RLEoomMnzLLTdrpJjlKgcOzF+ucsvWjeoFs/ZGVFTU6b5wkJWV2l1Tqi0V/8QS4TfeeNVS91zdGaJDCceFKXBxl7AMS4TffNOIcATCXmGKJRB1ylKEZd8aliFabYc2RFuiTenCKgYRBRVhy5YfaxFGk4o7zMp48O21btdIMRFjIscIMJs3IMKJSXEsgxkeSKVOSorTceFNm9fLwkXzZdCgfoV7C1esWLHYsXPItojOSvBCryJc98ILZdYrr8iPZuwn8nD0qG7J9/2uXbqsIss8stIT81B1NSa8Y0PDAKSN0FZ0dTCr7dCGaEu0KZOMFXnAhmPLselOO+9kSUQYTXLqlFcyY6h586Y6H5iZRGPHjtZln8c+NbpgD+GUfr7iICEhegcXYG/hXbu3y4gRQwrnC5dwRyVd8KN9+/ZFKiIUvYpwHatsr4wZI99/+63znRpECJhCwqYILJH4mdUT3pWRoatMraxTR1bUrm1oWIS0DdoIbYU2Q9uhDZnpSJELbDi2HJvutPNOFleE0aLiLkJFRPiGG26Qhx/pXLh94VtvT5VDh/erVhJRTs9M6egrDnJys7LZDWLI0AEFOypN1FVAUPu2bR+QK6+8stghaVicOcMqwuecU6Tynaz1l7/I6MxM+eY//3G+U4MIAwaUbNYjX32l6yKTWGNoGIi0EdoKbcaIb+QDG44tx6Y77byTxRVhtMipT175J8sprF79VolPyN+0YcjQgbJi5TJZtnyxvXMS61AXD4mJMdViYrv/SviZzRzmzP2gcKoS4lypUslC0mRYh7vHcPs2baTmeedJJUv8nS/AnzWsXk2Gde2v/vUv5zs1MDAwMIgQYMOx5dh0p513ssppp8ndllfaMYxpsGhQSWb7EIpu1rxJwdSkTBn9z5Fy8FCeTH7umfykrITot30lgaXiX3Khd2ZMkx07tsqIkUMkp1eGJCXFyT333i0XXHBBkUKFw5o1axaplGDsEBUltS++WCqdckqRF/C7l3HqqdK2WjU5vG+fHDXjQAYGBgYRB2w3Nhxbjk132nknq1hOYYOKFaVTGEOdJfGCSeS66aab5PGujxSGoqdNf1MOf3KgcGpSTk56vK8kyM5Oz0WE2UmJicfPv/CsZkmnpiZKp87t5brrrpNTLEH0uRTQC4nDtwsjdECYoe7VV2vYwfkCnLz3sstkxbx5coSEDAMDAwODiAK2GxuOLXfadzdWPeMMaVKjhnTq0KGIdrgR7SnuWDBkH4Xad9SWRF0lK033D16zdqUsWbpQvWDLOz7ieb3oQIiPj68QF99T9xcmS3rxkoUyeHB/ycjM31WphvXApGf7XArolay36XWLw84dOkiT6tW1sp0vwMlaVrlGJifL1//+t/PdGhgYGBiUcWC7seHYcqd9d2M1S1Bb3XOPdOnUqYh2OInmoD1OPfJK8qGYqtu23QOaJ9W7d46Mf3qsTul9atyY/KlJyXFv+EoDCYlxa7jgCy9O1g2K/+m3cEer1i1KnKCFS9+8efMileTGLp07S5smTeRWDxnSla3rtrIqeeuaNfLrL78436+BgYGBQRkFNhvbjQ3Hljvtu5PkCd123nnyYOvWRXTDjWhOcecFw7PPPluqVq0qsXE9NE9qwMB+MnvO+7J37079HfsvpGeltPSVBrJ7ZcQR20btDxzYJzNnvSP9B/SRtPQkTdCqUqVyiVx6yNiy172GGReuc/nlnl4MPahhiYny788/N2PDBgYGBhEAbDU2G9vt1QsmKeuem27ylJSF1pQkn8neO/j++5vpNCTypEaNGi579+2SqdNeLwhFx3/lKy1YdfJ/ltf7AxdmBZBdu7b/bo/h5vc11QKVxBuGVapU8RSW7typk9xft67cavVEKobIkq58yinSlOUP333XrJ5lYGBgEAHAVmOzsd3YcKdddxIvuOa558oDjRtrtNSpGf5EY9Aap/6EQ5zOypUr2VsU+s0NPqDTlHpGd5OsrIxMX2kiIytlADfM7Z2la0lPnfaG3pgC9Oj5uFSqVEnOOuusIoUNh4QGGluV6Kw0N+INMx+M3o/zhThZ9fTTpXPt2rJh2TKTpGVgYGBQhoGNxlZjs7HdTnvuxqpnnikNLQ3y4gWjMSUJQ+Nssv9B02aN1QnFGR0+Yohs275Fw9EFCVk/de7c+WxfaSI29tFLrBv+zA3mzZ8tW7dt0hvb3jDzpErDG2a+VpQlsM6Kc9IeG6514YVSyUNYmjlm0c2aybZ16+TITz+Z5esMDAwMyhIsm4xtxkZjq73MC4bMlKljaU+7Fi3koRCRVLSlJHOCIV5wJcsLZrMGpiH17ddb3pzymiZk9e3bK987To0f7zsWSE5JnMQN+vXP1XUxubHtDfN71t5k9RCfS8HDIZOfO3nIbuvcsaO0qF9fav71ryHnDWu44uyzpVvDhrJ64UL54bvvzBixgYGBQRkAthibjG3u1qCB2upQCzKpAFsOGI6YlzA0mnLppZcW0ZtwiJN5xRVX6BCsvxe8desm+WjBXHvHpCOPxz5+le9YIDo6+lpuYHvD2y33m/Wkc3plaoFatLyvRLsr+fPGG2/0tN0hk7Lvq1NHbjv//JCJWrzU6meeKe1uvVVmvfqqfHbwoPxs9byMGBsYGBgcf2B7scHYYmwythkb7UWAGYpk4aZW996rDplTG/yJlqApTp0Jl0zHrVqtqiYk22PBU6e+ke8F98v3gpNTEp73HUukpCRO5ka9+2TrqiAMRg8oyJQmLbtGjeo6gdnn8gDhslq1ap4StZiY3drqPd1pedDMHw71Aqv+4Q86+TulbVtZOnu2fH7okHz3zTdmGpOBgYHBcQC2FpuL7cUGY4uxydhmp712kqhntbPOkruuukqimjXTRF2nJvgTDbnVEnenvoRLFqW69tprpU2bVgUZ0ZkycuQw2bFzqy7pbHvBOKu+YwnrBpfbY8Oz3pshe/bulCdGj9B5w8nJ8dK+QzvdUeIPVmX6XB4kHOJR33777Z6EmMnZjAk0qlJF54ohxsE8Y4S6hvUiG11xhUQ3bSrPjxghm1etkk/y8rRhfPHpp/KloaGhoWGpEJuKbcXGYmuxudhebDC2OKjzZP0Ne04CFuHnpjVr6nzgUCFotAMNKY3oLFOaateuJXHxPQvmBffV6boHD+3XKUr5Y8GJE3zHA9aNRnHDtPRkydu/V+bM+UAG6SpaKbqKVr36dXVctzQenN5H7dq1PQkxg/KEp6OaN5dGVavKnZdeqjsusYoKPadAvO3cc6WeVd6m118vUVaP6ZG775aEBx6QJKt3ltyunaGhoaFhCYgtxaZiW7Gx2FpsLrbXaY+L0LLfNf78Z7nLEmvEt13LlvnLUobQBDQD7SjJsso2z7CcultuuVkeerhzwepY2fLk2NGW/u2R6W9NyfeCk2J+fPzxx//uOx7o1q3bHy1v+Btu/PIrz8shqycwYeJ46dO3l6SkJkq37o9pklZJs9BsUokssu1JiAsqHzFmGhPeMYP2LGXWol69kGxpNZLW994rbRo1kijrPENDQ0PDkhObim3Fxjrtrivr19fx3geaNFHh7WgJOcsWhxJfiAawOVBpOIJcg1UhmzRtRLhZ14gePGSALF68UHbt3q4rR1paeDQtLamX73giPT31MZblYhx4w8a1snbtKhk2fHDhlKU2Ua3lequ3UxphaUhFMBfZS7LW72i9DEIWhKsNDQ0NDSOI2G5svgfhtYlGoBWlIcDwb3/7myXoNYQtfUnGYkrSiy8+pzOExj/9ZP4a0UkxB0Xk/3zHGympCcsoAL0CFvB4++1pGidPzyAsHSP169fTSc2lVRmQ7Otw9yA2NDQ0NCz/RBvQCKduFJfMCa5Q4RZ5uCAMTe7TqCeGazIWmxmRJR0b2+PX7OyMZr4TgczMlBr2lKUZ706X/fv36i4ShKUL9lKU6tVvlfPOO6/Iw5WE559/vrRq1arICzA0NDQ0PDmJJqANTr0oLonikg3N1Fuiu3YYev5Hc1Tr+BmNS09Pftt3IpGSEjeSeDix8s2bN8j69Wt08rJmS1s9h4ce7qQ9iZJu8OAkA+V16tTxPE5saGhoaFj+iAagBWiCUyeKS3tpynr16mqyMUnHbFr0yisv6pzgSZOeLpiSFP3to48+eonvRCMpJX4jBRowsI8cOrxfPvhwlvYYsrLTtQfxwAMtddrS6aefXuRhS8prrrlGN2Z2vhhDQ0NDw/JNbD8a4NSFkhAB/vvf/67jwGzEQFSX6O7Yp/6pU3LtlbFi43r8mpmZFuUrC0hLS6xmzx1+6eXndHz4lVdf1PHhjMxUzShr3KShxupLK1HLn2wcYbxiQ0NDw5ODtvdb0k2D3MhiU+yy9NjjD0tKaoLk9s7WXQPXrlsl27dv1t8xFpyWkTzNV5aQlJQQGxPb/TcKR09h377dMmHiOF3Wi0QtJjjj2rPuZmnM23LjxRdfrBs1O1+YoaGhoWH5IDYeW++0/6VBptVWqFBBOnfpoMOprIo1dNggmTvvQ12UY+CgvnYYOi86OvpPvrKGjIzktxBh5k1t2LhOF7X+55hR6sqzrCUp3nfcUVsuu+yyYybE9pyuFuyo4fICDQ0NDQ0jj9h0bPux0o6zzz5bbr75Jmn3YFRBIla6LkLFYhxMR5r0bP44MFHf3NzMGr6yiKioqLMsAd5EQelB7Nm7S1avXiEjLVeeFUZw49n+qVat23U3i2NVmZBr43U3adLEhKkNDQ0NI5DYbmz4sYygQgSYDR5YF5rhU4ZRGU59+ZUXNM/pnRnTVYBjYnv8mpyc+LCvLCMlJe7m+IRoXU1ryNABcvBgniz6eIEu5JGfMZ0g3Xs8rut5HkuP2J9Mtq5Vq5a0b9++yEs2NDQ0NCxbxFZjs7HdTnte2mT7XQT4gQdsAc7PhH528kSdirRgwTyN4jILKDklfrIvEtC3b05tO1FrzJOjNFFr3rzZGlvHQ0aI8Yhr31FLezinnnpqkYo5FjzttNP0fnXr1jWCbGhoaFiGiE3GNmOjsdVO+30s+Je//EVuvvlmiWrbWgWY/CXymCZOHK+R3BUrl+oUJYZZM7NTZ/kiCelZKS2twutCHhMmPqUx9dmz31ch7pWbWZhhVrduHc2aPl6VbhPhJw29atWq0rBhQ7MKl6GhoeFxJDa3UaNGaoOxxcfLGYPkDrGIVMWKFaV9h7aFHjAC/PSEp2T3nh2yZu1KTc7SvYPTk5bGxTU5wxdpSEiIiY+L7/kLQjzp2QkqxHMtj5jQdG7vLN3sgbWnGza8V9eZLu0FPcIhYXE2bKYXxrqj7L6BON9///0SFRWlDaZTp+D7VhoaGhoaPqS2EpuJ7cSGYkuxqdhWbCy29ngMRbqR+5JdXa1aVenyUEdNwsrMStUQ9MRnnrYEeKesW79GHUVNxEqO2xwd/fBFvkhFfGJsbkxs91/zPeJxGppeuOgjnXfVu0+ObofIOtMtW92vYQHmaJXmWtOGhoaGhobQHpIkJ6lrt0clKTlesrPTZeDAvvLc85Nk777dsnrNikIBtjzkvTExj13hi3TEx0f3YXURHmrs2NE632rlqmXyxOgR0rdfroYBCAcwN6tatWqaOX08QxOGhoaGhuWbJGARcW3Q4B5NtCI3KadXhgwe3F9efe1lOXAwT5Yu/djempC5wDuio6Ov9ZUXJCREp8QnRGtoeuiwgbqYx+YtG2X8+LEaBsjMSpPEpDjdi5hx4uuuu07Txn0ulWloaGhoaOiFhJ8vuugiqVy5km6xS6IVS1Hm5mZpjtK7M9/WCO3cuR/oolKMAVtatPGx8uABO5GWlhyVmBT7E0LMmPDmLRs0A+3Fl56TQYP76V7E9E6oiFat7tdBcyrPeMWGhoaGhuESR46dkFgk6vGuD1vebaxmQLOA1KhRw2TRxx/JJ58ekjenvKbiC9PTkz967LHHzvOVV+Tm5t6RkBjzHUJM5hmVcPiTAzJr1gxN2GKcOD0jWSvrsccfkjp17lCvmIF8M1ZsaGhoaBiK7FFwySWXSKVKFdWhi4vrqQ4eq2ANGNBXM6CJxDIP+MmxozX8bAnw0czstGlRUVGn+so7UlNTK1ge8U675/Ha6y+pEDMgzk4V/Qf01sqyveKoqNaaycaA+rFYsNvQ0NDQMPJJ6Jk9hW+88QapX7+edO32iDp0JACzEcOQoQNl2vQ3Zf+BfbJ+w1qNyCLADJUmJcUN951M6Nat218ystLepvdhr661bftm2Ze3W0MDVBaVhldMCjnHNGvWWCpWrKCJW6W5d6ShoaGhYeSSKOm5554r1113rS6L3Klzex37JcsZh468IzzeZcuXaPiZcWD+rlOQEmO/z8pKa+o7WWFVQI5FXV2LrLQPPpgpn1qVxEolT40bo+t3ksHGQDoZ1PRsGjS8V2655RYNNxgxNjQ0NDw5aYsvewrXqFlD2rZ7QGLjeqqWMOumT58cTb6aOu0Ny8HbIzt2bJVRTwy3w8+SnJywOi4l7mbfyY6cnJzqiYkxu6kUKmfkqKHqFZMyPuu9GTqnmKlM9GhY4IN5xez1iBhXqHCLrkHNQh9mzNjQ0NCw/JNkXcLOJF3VtMSXZSdZ+IkZNkRPCTMPHNRPnpn0tC68gfeLltjTjwg/WwI8VkT+z2eQj7i4uDNSUhIn2tOYCBUQlmZO8Y6dW+X1N17RqU1ktWVlpel4Mcd06/6oNG3aWKpUqazbXLHYh8mmNjQ0NCx/JCeI1a5uuPEGufPOO6R9+7aF4su4L0siEz0l9LxoEUm/B2XtulU6+8b2fi2HLy83N6uOz8AdVuXUSkqK3WZ7xYSi582frSHqjRvXyUsvP6/jxSrG2Wka8ydMzfHMASMV/aabbtRx4xO5NJqhoaGhYcnJkOMFF1ygewzgbDVq3FAeebSLxMVHq2frL77sXz9nzgcaRd25a7tMfGa8vQMSOnEkOTVhTJ8+ff7gMwiNtLTE9MTE2B+oPEhPZumyj+XTzw7J+vVrdJ9HYv2EqbNz0iUtLUl7Q/HWiyFU3fy+ZnLbbTUtQb5JLr/8cvWQeZkmZG1oaGhYdkkkk9Wt2NSBsV7Wm65/dz158MEoFVScrpSUBB3zJXl34MC+MmbMEzJ7zvs65Yjk3ldfe1GPQzs4JyU1cUFqdmoln0F4iI6OviglLXGyVZkaoobDhg+SZcsXW2J8WBf7YMCdMeP+A/rqOACbMeMdk1HN9CYEuWXL++Suu+7UxT+Yc8wYMuMJjCOb0LWhoaHhiSFO0emnn65bCrIwE0OKOE7Vq1eXRo0aSPsO7SQ6prsOPeZ7vUnqdPXtmyuDhwzQ+b4LFs6Tg4fydBVGhi3tcd/8la9i96dnpbf2GZQMSRlJt6SmJ061XsRv/p7xRwvmasx/z96d2gsaN/5JfTF4x4SxWRmFRC4E2d4TkvWp77+/udxVt47OPeaFM7iPt0zPC4+ZVVZoGCaUbWhoaFhysnjGmWeeqUOEf/vb33Rmy1VXXSU33HCDVKhQQW6//TbdTa9t2wfk8a6PqAOFJ5ucHK/Cy7LGeL2EnIePGCKvv/6KritBwtX2HVt01UV7KmvBspNfpGemRPsMShdp2WlVUlN/L8b0iph8jRDboeq3356mYwODBvdXQe6Vm6VbVRGy5qXychlPYECfxK4OVm+rheUtN2h4j44ps4kEU6AQaBb8prEg0iQEXHjhhepFkxZ/zjnnqGDTuBBtGhqetQl5GxoalkfimGDj2I2I4T2iiYSOEVccGAQWj5acHBZXIpx84403qi0lrFyzZk2pV7+uNG3WWNpEtZKHH+6kosm0IhwlhhSJZJLhzDLGrKDIHN9hwwbrLkcLFsyTvft2qa0nIkoCFnbcFl/LC/4iKys1vk+fPqf4DI4dUlLibk5JiZ9s9XyO2GLMixjz5Cj1jglNsHfx+g1rNC2dwXnGj+lFEcZAlEnq4kXzwtnOyvaW6YFxLUIgrDXKpG9W7GrRork0adJI7rn3bqlb9y6pfUctnZdW1fKmK1WuVCjaNml49PIQcULgeNskFiDokLCLoaGhYVmhbZuwU4gnNgvbhQ2zhdQm284yvFelShW5tfqtcpvlydapc6euUoVH27x5U2nduoU82D5KHn6kk/To8bjaVewrdhZHCMFl6eJ8TzdVo5eIbr/+vS0HaoDusvfa6y/Loo8XqJP12eeHZcvWjRpyxvmybT9jvta1dmVmpvdwaoXBMQaLbGdnp2dYIvqpnQEHEdRx48fInLkfSF7eHuvlfaKD9ctXLJF3331bJj/3jIwYMVQ9ZXpZffv20h016HkR9sjISNGG4S/QkIZDA7LF2iaNKyYW4e4m3Xs8pguKPPrYQ9rLY9PozpaQd+z0oHrcJBe0e7CNhl1gVAHJ9nv66bHy3HMTCjixgBOkd+/swuMMDQ0NS5tqj9q1UfvEtJ+OHR9UB4Thu4csG4Z9Ir+GyGGPnvnCh92zhdUWVxXYhJgCkY3V8VmElsWWyGImZ4f1HnJ6ZeYLbr/e6hwx4wWvFoFlNgz5PjhS5P6sW79af9+vf67aWNvOJyTG/pqUEjc1LTOpsVMbDE4ALOFsZHnHk6wX/qP/i6KxDBzUV1559QVZsnSRZs8hyqxVvXXrJt0/Em/5lVdflPGWCDLewLjyQKth0CNDoGksJH2RBo9Q04jouWVaDQrBxqNGtFPTLKYmqnhD5jLnM17D4DRIN9Ij5B4LFs6W5csXFeGLLz2rxxgaGhqWJp22yCb2Su1WoQ3Lt2kwX1CTVFSxfQgr9pDoIh4qAku0kTHcPn1zdEgQZ2fQoH4qtqP/OVIdIYYREdy1a1fJ3r271NNlKire7qz33lFHinvZthxaIn80ISl2a05ORmq53uko0pGRkdrBEuRxViP61t9DtscNENMJE5+S6W9N0WlPe/YwnnxYxZne1+7dOzSUzd/wpmfMeEveeONVef6FZ2XChKe0EQ0bNkgbFIKNR83qLPToyNKmwamA94O5+bTEHDK/GSK6/hxhif/SpQtkzZplRThl6qtFjjc0NDQsTdq2Cdr2qtB+WbYMm4Ztw85BbB62Dxs41LKFzFJhA55nn50gr7zyoors++/PlIUL58uq1cvV6TlwYJ+KLbb20OEDsnHTOk2qZcrpiJFDxE6u8mdiYuzR+MSYlb16ZWbFxsZe5bT3BmUccXFxlXNzs7LjEnrOsHpVP9uD+E7y8tm9iQxr5pixwPfHixdoIyGUTSIADccmon3wYJ724LZv3yKbNq3XlVlobCQMcC5JBPT0mDz+4ez35P0PZqrXPXPWOzLj3bdU3G2+9/67sn79Sus6a4pw8eL58tbbUw0NDQ1LhW+/M03emTH9dzaIoTq2lMUWffDhLLVbc+d9KPPnz5GFi+ZrJJE1/desWak7EG2xRHXXru065McsFVtc83nYEtn81Q6xiTgz06a/oR4wyxLjOTsdJNtJsjzxo5Y9PpSenjw0PT31MVZTdNp1gwiG1ZO6JDs7MykzO7VvbGyPZSmpCUfsSd3BmD/hO8HqMWbL8BGDtcc36dmnNTWe8Qoa9ixLXBFbksNosCtXLVdhRsgZ42A97J27tsqu3ds10cAm2X779iHmG61jOO733LVri+w/sNfQ0NCw1IhzsdfPDu3es8OyT9t0ys/WbZtk0+b1GhFcs3al5tOw9zuijDOBEzF16us6jEfWMvN1iRDiISOwjA07baiTBTbVEty4L+ISoif07p2dm5SadJ/TZhucBKhXr94f4uKiG/bqnZ3Rq3dmn9j4Hv+0PObtySkJ/7O856P2spjORlSazMlJ13D0unXLi/DlV54rcryhoaFhWSZRR1a2smzorwmJsf+Oju72fmp6Yt9+/XrlpmYkd38k+pHLnbbYwCAgevTocml8UkzbrKyM5N5WI7LYp1evzL7JqfF9o6O7jujRs+sUiwsssV5vNb5d8Qk9D1vi/WViUuzXSclx31r8ITkl/n+WsP+E9+1Pq5H+0qdfzq/vzpx29MPZ7xbhM5PG/ZaWlvSLoaGhYWkx1aLTFqWkJv6ckhr/Y1Jy/A9JSXHfWV7qN5aAfhWfEPN5XHzPPMt73WoJ7PKe0Y9/0CO66zOWw9I/MzO1r+XF9umHTeydnZWSntSjR2yPO6Kiok532lGDovh/RhRicZSA+hYAAAAASUVORK5CYII=;" vertex="1" parent="1">
          <mxGeometry x="320" y="250" width="265.24" height="536" as="geometry" />
        </mxCell>
      </root>
    </mxGraphModel>
  </diagram>
</mxfile>
